<svg xmlns="http://www.w3.org/2000/svg" width="964.187" height="31.824" viewBox="0 0 964.187 31.824">
  <defs>
    <style>
      .cls-1 {
        fill: #fff;
      }
    </style>
  </defs>
  <g id="Group_85" data-name="Group 85" transform="translate(-618.831 -2200.791)">
    <path id="Path_720" data-name="Path 720" class="cls-1" d="M19.8,61.854v4.683H6.879v8.016H19.8v4.73H6.879V92.873H.885V61.854Z" transform="translate(617.946 2139.336)"/>
    <path id="Path_721" data-name="Path 721" class="cls-1" d="M24.52,61.854l13.7,31.019H31.891l-3.22-7.55H14.881l-2.994,7.55H5.6L18.393,61.854ZM16.7,80.773H26.722L21.48,68.493Z" transform="translate(644.601 2139.336)"/>
    <rect id="Rectangle_81" data-name="Rectangle 81" class="cls-1" width="5.994" height="31.019" transform="translate(698.651 2201.194)"/>
    <path id="Path_722" data-name="Path 722" class="cls-1" d="M44.259,61.854v4.683H33.243V92.873H27.249V66.537H16.233V61.854Z" transform="translate(704.695 2139.336)"/>
    <path id="Path_723" data-name="Path 723" class="cls-1" d="M28.874,61.854V74.912h16.1V61.854h5.994V92.873H44.973v-13.1h-16.1v13.1H22.881V61.854Z" transform="translate(742.27 2139.336)"/>
    <path id="Path_724" data-name="Path 724" class="cls-1" d="M68.778,61.854v4.683H55.853v8.016H68.778v4.73H55.853V92.873H49.859V61.854Z" transform="translate(894.759 2139.336)"/>
    <path id="Path_725" data-name="Path 725" class="cls-1" d="M73.494,61.854,87.2,92.873H80.865l-3.22-7.55H63.855l-2.994,7.55H54.575L67.367,61.854ZM65.678,80.773H75.7l-5.242-12.28Z" transform="translate(921.415 2139.336)"/>
    <path id="Path_726" data-name="Path 726" class="cls-1" d="M67.24,61.854,77.431,74.088,87.622,61.854h5.355V92.873H86.984V71.094H86.8L77.83,82.017h-.845L68.018,71.094h-.18V92.873H61.845V61.854Z" transform="translate(962.506 2139.336)"/>
    <rect id="Rectangle_82" data-name="Rectangle 82" class="cls-1" width="5.994" height="31.019" transform="translate(1074.783 2201.194)"/>
    <path id="Path_727" data-name="Path 727" class="cls-1" d="M79.222,61.854V88.19H94.276v4.683H73.228V61.854Z" transform="translate(1026.848 2139.336)"/>
    <path id="Path_728" data-name="Path 728" class="cls-1" d="M84.969,61.854l7.5,10.371,7.6-10.371H107.2L95.473,77.507V92.873H89.479V77.467L77.685,61.854Z" transform="translate(1052.038 2139.336)"/>
    <path id="Path_729" data-name="Path 729" class="cls-1" d="M121.728,61.794a22.423,22.423,0,0,1,5.175.6,26.1,26.1,0,0,1,5.462,2.042v5.641a25.409,25.409,0,0,0-5.3-2.375,17.6,17.6,0,0,0-5.076-.732,12.9,12.9,0,0,0-5.974,1.364,9.983,9.983,0,0,0-4.138,3.852,11.216,11.216,0,0,0-.013,11.1A9.875,9.875,0,0,0,116,87.1a13.172,13.172,0,0,0,5.994,1.344,16.2,16.2,0,0,0,4.876-.732,35.379,35.379,0,0,0,5.847-2.648V90.7a26.256,26.256,0,0,1-5.548,2.242,23.287,23.287,0,0,1-5.907.672,19.262,19.262,0,0,1-8.774-1.956,14.685,14.685,0,0,1-6.073-5.634,15.335,15.335,0,0,1-2.209-8.043,15.856,15.856,0,0,1,2.275-8.422,15.21,15.21,0,0,1,6.266-5.748,19.519,19.519,0,0,1,8.981-2.022" transform="translate(1201.942 2138.997)"/>
    <path id="Path_730" data-name="Path 730" class="cls-1" d="M117.138,61.854V79.908a9.9,9.9,0,0,0,.832,4.417,6.5,6.5,0,0,0,2.721,2.707,8.787,8.787,0,0,0,4.4,1.071,9.974,9.974,0,0,0,4.677-1.011,6.388,6.388,0,0,0,2.807-2.754,10.8,10.8,0,0,0,.891-4.83V61.854h5.994V80.287q0,6.256-3.752,9.619t-10.617,3.373a16.921,16.921,0,0,1-7.47-1.537,10.91,10.91,0,0,1-4.83-4.424,13.462,13.462,0,0,1-1.67-6.812V61.854Z" transform="translate(1241.01 2139.336)"/>
    <path id="Path_731" data-name="Path 731" class="cls-1" d="M124.227,61.854V88.19h15.054v4.683H118.233V61.854Z" transform="translate(1281.226 2139.336)"/>
    <path id="Path_732" data-name="Path 732" class="cls-1" d="M150.845,61.854v4.683H139.829V92.873h-5.994V66.537H122.819V61.854Z" transform="translate(1307.147 2139.336)"/>
    <path id="Path_733" data-name="Path 733" class="cls-1" d="M135.47,61.854V79.908a9.9,9.9,0,0,0,.832,4.417,6.5,6.5,0,0,0,2.721,2.707,8.786,8.786,0,0,0,4.4,1.071,9.975,9.975,0,0,0,4.677-1.011,6.388,6.388,0,0,0,2.807-2.754,10.8,10.8,0,0,0,.891-4.83V61.854h5.994V80.287q0,6.256-3.752,9.619T143.42,93.279a16.92,16.92,0,0,1-7.47-1.537,10.91,10.91,0,0,1-4.83-4.424,13.461,13.461,0,0,1-1.67-6.812V61.854Z" transform="translate(1344.628 2139.336)"/>
    <path id="Path_734" data-name="Path 734" class="cls-1" d="M147.734,61.853a10.415,10.415,0,0,1,7.125,2.421,8.007,8.007,0,0,1,2.754,6.306,7.87,7.87,0,0,1-1.364,4.61,9.082,9.082,0,0,1-4.051,3.1,9,9,0,0,1,2.641,2.175,27.43,27.43,0,0,1,2.861,4.643q2.844,5.638,4.224,7.77h-6.686a35.754,35.754,0,0,1-1.863-3.266,73.166,73.166,0,0,0-3.778-6.672,8.954,8.954,0,0,0-2.308-2.441,4.541,4.541,0,0,0-2.554-.725h-2.175v13.1h-5.994V61.853Zm-1.357,13.238a5.425,5.425,0,0,0,3.7-1.177,4.071,4.071,0,0,0,1.344-3.22,3.81,3.81,0,0,0-1.337-3.186,5.957,5.957,0,0,0-3.792-1.058h-3.732v8.641Z" transform="translate(1384.844 2139.33)"/>
    <path id="Path_735" data-name="Path 735" class="cls-1" d="M162.815,61.854v4.683H148.759v8.149h13.458v4.69H148.759V88.19h14.369v4.683H142.766V61.854Z" transform="translate(1419.891 2139.336)"/>
    <path id="Path_736" data-name="Path 736" class="cls-1" d="M89.8,74.648l21.068,12.313,21.44-12.313-21.44-12.313Z" transform="translate(1120.543 2142.053)"/>
    <path id="Path_737" data-name="Path 737" class="cls-1" d="M35.287,74.648,56.355,86.961,77.8,74.648,56.355,62.335Z" transform="translate(812.396 2142.053)"/>
  </g>
</svg>
