<?xml version="1.0" encoding="utf-8"?>
<svg version="1.1" id="Layer_1" xmlns="http://www.w3.org/2000/svg" xmlns:xlink="http://www.w3.org/1999/xlink" x="0px" y="0px"
	 viewBox="0 0 580.3 376.98" style="enable-background:new 0 0 580.3 376.98;" xml:space="preserve">
<style type="text/css">
	.st0{fill:#FFFFFF;}
</style>
<rect x="0.6" y="97.74" class="st0" width="202.91" height="5.65"/>
<path class="st0" d="M289.59,42.51L266.3,65.8l23.29,23.29l23.29-23.29L289.59,42.51z M273.27,65.8l16.32-16.32l16.32,16.32
	l-16.32,16.32L273.27,65.8z"/>
<path class="st0" d="M289.59,26.96L250.75,65.8l38.84,38.84l38.84-38.84L289.59,26.96z M257.72,65.8l31.87-31.87l31.87,31.87
	l-31.87,31.87L257.72,65.8z"/>
<path class="st0" d="M289.59,57.37l-8.43,8.43l8.43,8.44l8.43-8.44L289.59,57.37z M288.12,65.8l1.47-1.46l1.47,1.46l-1.47,1.47
	L288.12,65.8z"/>
<path class="st0" d="M240.97,65.8l48.62-48.62l48.62,48.62l-48.62,48.62L240.97,65.8z M311.63,0L295.5,16.13l-5.92-5.92l-5.92,5.92
	L267.55,0l0,0l-3.48,3.48l16.13,16.13l-6.58,6.58l-16.13-16.13l-3.48,3.48l16.13,16.12l-6.58,6.58l-16.13-16.12l-3.48,3.48
	l16.13,16.13l-6.58,6.59l-16.13-16.13l-3.48,3.48l16.12,16.13l-6.58,6.58L227.3,40.26l-3.49,3.48l16.13,16.13L234,65.8l5.92,5.92
	l-16.13,16.13l3.49,3.48L243.4,75.2l6.58,6.58l-16.13,16.13l3.48,3.48l16.13-16.13l6.58,6.58l-16.13,16.13l3.48,3.48l16.13-16.13
	l6.58,6.58l-16.13,16.13l3.48,3.48l16.13-16.13l6.58,6.58l-16.13,16.13l3.48,3.48l16.13-16.12l5.92,5.92l5.92-5.92l16.13,16.12
	l3.48-3.48l-16.13-16.13l6.58-6.59l16.13,16.13l3.48-3.48l-16.13-16.13l6.59-6.58l16.13,16.13l3.48-3.48l-16.13-16.13l6.59-6.58
	l16.13,16.13l3.48-3.48l-16.13-16.13l6.58-6.58l16.13,16.13l3.48-3.48l-16.13-16.13l5.92-5.92l-5.92-5.92l16.13-16.13l-3.48-3.48
	L335.78,56.4l-6.58-6.58l16.13-16.13l-3.48-3.48l-16.13,16.12l-6.58-6.58l16.13-16.13l-3.48-3.48l-16.13,16.12l-6.59-6.58
	l16.13-16.13l-3.48-3.48L305.59,26.2l-6.58-6.58l16.13-16.13L311.63,0L311.63,0z"/>
<path class="st0" d="M17.22,173.73v55.1c0,14.32,10.11,22.08,23.59,22.08c9.1,0,17.02-2.36,22.75-8.59l5.39,6.23
	c-7.08,8.26-16.35,11.12-28.64,11.12c-18.7,0-32.69-10.45-32.69-30.5V173.4c0-19.21,14.15-31.68,32.52-31.68
	c12.97,0,22.41,4.55,28.98,13.31l-5.9,6.91c-5.05-6.57-12.47-11.12-22.75-11.12C27.16,150.81,17.22,159.58,17.22,173.73"/>
<polygon class="st0" points="143.42,143.4 153.02,143.4 153.02,257.98 143.42,257.98 143.42,207.26 97.93,207.26 97.93,257.98 
	88.32,257.98 88.32,143.4 97.93,143.4 97.93,198.16 143.42,198.16 "/>
<path class="st0" d="M246.03,173.39v54.76c0,19.55-13.31,31.51-32.35,31.51h-2.53c-19.04,0-32.52-11.97-32.52-31.51v-54.76
	c0-19.55,13.48-31.68,32.35-31.68h2.69C232.55,141.72,246.03,154.02,246.03,173.39 M236.42,173.56c0-14.15-9.27-22.75-22.75-22.75
	h-2.69c-13.48,0-22.75,8.59-22.75,22.75v54.42c0,14.15,9.44,22.74,22.91,22.74h2.53c13.48,0,22.75-8.59,22.75-22.74V173.56z"/>
<path class="st0" d="M274.83,173.73v55.1c0,14.32,10.11,22.08,23.59,22.08c9.1,0,17.02-2.36,22.74-8.59l5.39,6.23
	c-7.08,8.26-16.34,11.12-28.64,11.12c-18.7,0-32.69-10.45-32.69-30.5V173.4c0-19.21,14.15-31.68,32.52-31.68
	c12.97,0,22.41,4.55,28.98,13.31l-5.9,6.91c-5.05-6.57-12.47-11.12-22.75-11.12C284.77,150.81,274.83,159.58,274.83,173.73"/>
<polygon class="st0" points="333.63,152.5 333.63,143.4 405.25,143.4 405.25,152.5 374.75,152.5 374.75,257.98 365.14,257.98 
	365.14,152.5 "/>
<path class="st0" d="M443.66,141.89l31.17,116.09h-10.11l-9.43-37.74h-33.7l-9.77,37.74h-10.45l32.52-116.09L443.66,141.89
	L443.66,141.89z M452.75,211.47l-14.15-54.76l-14.49,54.76H452.75z"/>
<polygon class="st0" points="535.82,143.4 556.21,244.5 570.19,143.4 580.3,143.4 562.27,257.98 550.48,257.98 531.44,159.91 
	511.56,257.98 499.93,257.98 482.57,143.4 492.68,143.4 506.16,244.33 526.72,143.4 "/>
<polygon class="st0" points="57.26,284.1 57.26,316.97 70.09,316.97 70.09,324.67 48.43,324.67 48.43,284.1 "/>
<path class="st0" d="M122.12,283.81l9.9,40.87h-9.37l-1.43-8.47h-8.41l-1.61,8.47h-9.49l10.56-40.87H122.12z M119.68,309.04
	l-2.51-14.14l-2.86,14.14H119.68z"/>
<path class="st0" d="M185.08,303.55c3.58,1.43,5.97,4.36,5.97,8.29v2.63c0,6.68-4.35,10.2-10.98,10.2h-13.84V284.1h13.06
	c6.56,0,10.92,4.23,10.92,10.8v1.61C190.21,299.02,188.18,302.54,185.08,303.55 M175.05,300.69h3.1c2.03,0,3.22-1.49,3.22-3.7v-1.55
	c0-3.1-1.79-4.06-4.24-4.06h-2.09L175.05,300.69L175.05,300.69z M182.21,311.13c0-2.21-1.85-3.75-3.76-3.75h-3.4v10.14h3.34
	c1.73,0,3.82-0.78,3.82-4.12L182.21,311.13L182.21,311.13z"/>
<path class="st0" d="M254.53,295.74v17.66c0,7.76-5.49,11.87-13.3,11.87h-0.89c-7.82,0-13.43-4-13.43-11.87v-17.66
	c0-7.76,5.85-12.23,13.36-12.23h0.95C248.8,283.51,254.53,288.1,254.53,295.74 M245.7,296.04c0-3.04-1.85-4.72-4.47-4.72h-0.95
	c-2.57,0-4.48,1.61-4.48,4.65v17.24c0,2.98,1.67,4.35,4.54,4.35h0.89c2.74,0,4.47-1.43,4.47-4.35V296.04z"/>
<path class="st0" d="M310.74,307.91l6.44,16.76h-9.31l-5.13-14.74h-2.92v14.74H291V284.1h13.12c7.16,0,11.81,3.34,11.81,11.39v2.39
	C315.93,303.02,314.08,306.54,310.74,307.91 M299.83,302.78h3.82c1.79-0.12,3.46-1.25,3.46-3.76v-3.46c0-2.45-1.55-3.64-3.64-3.64
	h-3.64L299.83,302.78L299.83,302.78z"/>
<path class="st0" d="M405.63,284.1c8.35,0,14.2,4.11,14.2,13.3v14.08c0,9.07-6.62,13.19-14.74,13.19h-10.68V284.1H405.63z
	 M411,297.23c0-3.7-2.39-5.31-5.37-5.31h-2.51v25.06h1.97c3.22,0,5.91-1.49,5.91-5.31V297.23z"/>
<path class="st0" d="M473.89,283.81l9.9,40.87h-9.37L473,316.2h-8.41l-1.61,8.47h-9.49l10.56-40.87L473.89,283.81L473.89,283.81z
	 M471.44,309.04l-2.51-14.14l-2.86,14.14H471.44z"/>
<polygon class="st0" points="520.37,309.82 511.48,284.1 520.85,284.1 524.85,301.17 529.02,284.1 538.33,284.1 529.26,309.88 
	529.26,324.67 520.37,324.67 "/>
<rect x="372.7" y="97.74" class="st0" width="202.91" height="5.65"/>
<polygon class="st0" points="166.53,352.57 158.33,352.57 158.33,361.4 164.56,361.4 164.56,364.05 158.37,364.05 158.37,376.66 
	155.41,376.66 155.41,349.85 166.53,349.85 "/>
<polygon class="st0" points="193.32,364.28 193.32,373.98 202.55,373.98 202.55,376.66 190.4,376.66 190.4,349.85 201.56,349.85 
	201.56,352.57 193.32,352.57 193.32,361.68 199.55,361.68 199.55,364.28 "/>
<path class="st0" d="M239.71,370.16c0.04,4.1-2.57,6.82-6.74,6.82c-2.88,0-6.03-1.38-7.26-4.34l2.05-1.54
	c0.99,2.48,3.31,3.23,5.05,3.23c2.33,0,4.1-1.61,4.1-4.1c0-3.08-2.01-4.02-4.38-5.84c-2.88-2.05-5.99-4.3-6.03-8.24
	c-0.04-4.53,2.88-6.66,6.74-6.66c2.96,0,5.12,1.3,6.54,3.59l-1.81,1.73c-1.02-1.7-2.44-2.64-4.61-2.64c-2.41,0-4.02,1.22-4.02,3.9
	c0,2.84,2.25,4.14,4.81,6C237.46,364.32,239.71,366.37,239.71,370.16"/>
<polygon class="st0" points="261.61,352.57 261.61,349.85 278.52,349.85 278.52,352.57 271.62,352.57 271.62,376.66 268.7,376.66 
	268.7,352.57 "/>
<rect x="302.71" y="349.85" class="st0" width="2.92" height="26.81"/>
<polygon class="st0" points="333.28,349.85 337.82,372.32 342.55,349.85 345.74,349.85 339.31,376.66 336.32,376.66 330.09,349.85 
	"/>
<path class="st0" d="M376,349.54l7.14,27.13h-3.08l-1.93-8.2h-7.49l-2.01,8.2h-3.19l7.49-27.13H376z M377.42,365.9l-3-12.18
	l-3.11,12.18H377.42z"/>
<polygon class="st0" points="409.97,349.85 409.97,373.98 419.86,373.98 419.86,376.66 407.05,376.66 407.05,349.85 "/>
<rect y="371.01" class="st0" width="123.12" height="2.83"/>
<rect x="451.45" y="367.97" class="st0" width="123.12" height="2.83"/>
</svg>
