<?xml version="1.0" encoding="UTF-8"?><svg id="Zones" xmlns="http://www.w3.org/2000/svg" xmlns:xlink="http://www.w3.org/1999/xlink" viewBox="0 0 1728 1689.6"><defs><clipPath id="clippath"><rect class="cls-1" x="288.98" y="789.46" width="146.71" height="32.23"/></clipPath><clipPath id="clippath-1"><rect class="cls-1" x="1030.04" y="936.3" width="146.71" height="32.23"/></clipPath><clipPath id="clippath-2"><rect class="cls-1" x="711.85" y="1110.68" width="146.71" height="32.22"/></clipPath><clipPath id="clippath-3"><rect class="cls-1" x="544.67" y="533.77" width="146.71" height="32.22"/></clipPath><clipPath id="clippath-4"><rect class="cls-1" x="1493.51" y="464.26" width="146.71" height="32.22"/></clipPath><clipPath id="clippath-5"><rect class="cls-1" x="1315.88" y="922.49" width="146.71" height="32.22"/></clipPath><clipPath id="clippath-6"><rect class="cls-1" x="1536.52" y="1428.15" width="146.7" height="32.22"/></clipPath></defs><g id="Zone_4"><path class="cls-8" d="m490.12,1238.32c-1.33-1.21-3.09-1.97-5.3-.85-4.2,2.12-2.62,6.46.49,14.22.64,108.34,1.28,216.66,1.91,325-166.27-.67-332.56-1.34-498.83-2.01v-599.5c81.33-.57,162.66-1.15,243.98-1.72l4.26-.03.2-4.26c4.2-88,8.39-176,12.59-264.01,80.06-2.05,160.12-4.1,240.18-6.16,15.48,1.7,30.97,3.39,46.45,5.09l.44.05.44-.04c6.04-.53,23.03-1.57,29.08-.01,6,1.55,23.73,11.44,30.06,15.12l.19.11.2.09,23.72,10.87.13.06.14.05c13.52,5.18,33.71,15.25,36.27,21.39.8,1.91-.64,6.86-3.21,11.03-25,40.62-91.76,153.16-95.44,159.37-3.24,4.1-6.49,8.21-9.73,12.31l-3.82,4.82,5.75,2.18c10.55,3.99,27.72,10.94,31.79,13.76,7.43,5.14,11.39,9.68,11.92,11.72,2.26,8.72-3.01,35.86-5.34,46.11l-9.67,22.49c-1.21,2.11-9.51,16.68-13.69,28.05-5.84,15.89-8.91,36.4-12.15,58.12-4.35,29.13-8.85,59.26-20.42,78.01-15.48,25.09-35.34,35.44-42.61,38.56Z"/><g class="cls-18"><g class="cls-9"><text class="cls-19" transform="translate(311.98 814.06)"><tspan class="cls-17" x="0" y="0">Z</tspan><tspan class="cls-20" x="16.51" y="0">ONE 4</tspan></text></g></g></g><g id="Zone_3"><path class="cls-2" d="m1085.29,1159.63c-.89,1.04-2.87,2.9-5.93,3.43-3.77.65-8.19-.84-13.16-4.43-10.56-28.06-21.11-56.12-31.67-84.18-2.09-11.95-4.19-23.9-6.28-35.85-.05-.36-7.08-51.31-8.02-68.21-.94-16.9.41-74.67.43-75.25.22-17.07.43-34.14.64-51.2,5.42-7.7,10.84-15.39,16.25-23.09l.84-1.19-.05-1.45-.39-11.05-.03-.9-.39-.81c-1.18-2.46-29.16-60.47-52.42-85.73-4.63-5.03-5.63-8.22-5.07-9.43,1.23-2.67,9.71-4.02,15.36-3.84,38.48,4.38,97.14,11.29,101.46,12.45,5.02,1.54,31.3,1.34,41.3,1.2,8.79,6.1,66.11,46.25,80.73,64.95,17.45,22.32,48.38,104.46,48.69,105.29l.1.26.13.25c.55,1.08,5.19,11.04-5.53,19.49-12.97,10.23-53.19,49.47-57.76,56.97-.7.79-3.57,3.29-6.36,5.7-25.98,22.53-104.8,90.88-112.87,186.65Z"/><g class="cls-18"><g class="cls-10"><text class="cls-19" transform="translate(1053.04 960.9)"><tspan class="cls-16" x="0" y="0">Z</tspan><tspan x="16.51" y="0">ONE 3</tspan></text></g></g></g><g id="Zone_1"><path class="cls-4" d="m553.27,1182.39c-.29,1.3-7.18,31.02-33.24,47.79,1.69,3.76,6.11,10.14,16.8,10.78,9.4.56,35.12-.03,55.79-.5l1.85-.04c23.42-.54,43.65-1,49.65-.43,5.87.55,24.58,4.71,46.24,9.52,22.33,4.96,47.64,10.58,57.01,11.71,9.96,1.2,49.42-4.23,66.55-9.89,9.06-2.99,22.06-2.53,34.63-2.08,12.41.44,25.07.89,30.14-2.14l1.03-.61h199.23v-47.95c-9.66-13.26-19.33-26.53-28.99-39.79l-.39-.53-.21-.62-25.5-75.29-.09-.27-.05-.28-15.08-75.82-.06-.29-.02-.3-2.2-36.9c-.54-28.74-1.08-57.48-1.62-86.22-24-6.58-179.3-49.07-233.84-61.12-58.34-12.89-75.12-14.26-75.29-14.27l-.63-.05-.6-.23c-14.44-5.53-28.88-11.06-43.32-16.58-1.34,1.18-2.67,2.37-4.01,3.56-25.22,41.54-50.43,83.09-75.65,124.63-.06.09-5.19,8.72-1.89,15.16,2.42,4.73,9.27,7.72,19.82,8.69,10.04-3.06,16.69-3.46,19.76-1.21,1.48,1.09,2.33,2.77,2.33,4.6v1.32l-.73,1.09c-.04.06-4.35,6.61-5.73,14.85-1.5,9.01-3.05,41.53-3.05,44.43,0,3.16-3.47,23.81-4.66,30.79.11,3.18.22,6.35.33,9.53l-8.17,2.11c-.58-1.09-1.99-2.75-2.99-2.83-.7-.05-2.18.81-4.05,3.4-5.73,7.92-20.88,85.22-29.08,132.08l-.02.1-.02.1Z"/><g class="cls-18"><g class="cls-13"><text class="cls-19" transform="translate(734.85 1135.28)"><tspan class="cls-16" x="0" y="0">Z</tspan><tspan class="cls-20" x="16.51" y="0">ONE 1</tspan></text></g></g></g><g id="Zone_2"><path class="cls-6" d="m1121.58,709.92c-49.47-4.59-98.95-9.18-148.43-13.77l-1.32-.12-1.16.64-3.85,2.11-3.99,2.19,2.4,3.87,41.1,66.38c4.29,6.47,15.4,24.66,16.15,32.5.83,8.59-3.38,16.67-6.45,22.56l-.72,1.4c-3.89,7.57-7.01,17.76-7.95,25.95-.57,5.02.89,15.85,2.02,23.02-41.93-11.35-83.87-22.69-125.8-34.04l-118.33-31.14-43.78-9.39-.45-.1h-13.75c-17.96-6.14-35.91-12.29-53.87-18.43,5.52-11.51,11.05-23.02,16.57-34.53l1.88-3.91-3.92-1.86-92.51-43.97-.45-.21-.48-.11c-6.46-1.41-12.92-2.83-19.38-4.24l-13.83-4.32-.78-.24-.81.06c-13.44.94-26.88,1.88-40.32,2.81h-10.74l-246.03,4.67c-81.55-1.53-163.1-3.06-244.66-4.59v-240.73c148.59-8.23,297.19-16.45,445.78-24.68l1.3-.07,1.04-.78C625.2,293.75,804.32,160.66,983.45,27.57c29.96-1.46,59.92-2.92,89.87-4.39,1.79,179.59,3.58,359.19,5.37,538.77,0,1.98.38,49.3,10.26,76.17,9.23,25.11,27.96,49.69,31.02,53.62,1.72,4.29,3.43,8.59,5.15,12.88-1.18,1.77-2.36,3.54-3.54,5.3Z"/><g class="cls-18"><g class="cls-12"><text class="cls-19" transform="translate(567.67 558.37)"><tspan class="cls-16" x="0" y="0">Z</tspan><tspan class="cls-20" x="16.51" y="0">ONE 2</tspan></text></g></g></g><g id="Zone_5"><path class="cls-7" d="m1102.41,427.69h764.59v442.86c-69.28,1.35-138.57,2.69-207.85,4.04l-68.34-1.08h-88.67c-25.9-1.53-51.8-3.06-77.71-4.59l-.24-.02h-.24s-65.38,3.53-65.38,3.53l-.47.03-.46.13c-.27.07-26.99,7.54-65.54,19.88l-1.01.32-.19.19c-.82-.64-3.12-3.07-5.77-11.55-1.24-5.08-29.57-116.56-121.7-164.4-61.35-47.61-64.7-134.11-61.23-181.48.12-1.64.19-2.73.19-3.21v-104.64Z"/><g class="cls-18"><g class="cls-11"><text class="cls-19" transform="translate(1516.51 488.85)"><tspan class="cls-16" x="0" y="0">Z</tspan><tspan x="16.51" y="0">ONE 5</tspan></text></g></g></g><g id="Zone_6"><path class="cls-5" d="m1867,879.21v366.41h-768.73c.13-11.54.45-42.5.13-55.31-.85-34.35,10.35-76.6,27.87-105.14,20.44-33.3,52.65-67.21,89.94-106.47,10.24-10.78,20.83-21.94,31.76-33.67,41.16-44.23,96.33-63.33,173.64-60.13,56.24,2.33,402.13-4.78,445.39-5.69Z"/><g class="cls-18"><g class="cls-15"><text class="cls-19" transform="translate(1338.88 947.09)"><tspan class="cls-16" x="0" y="0">Z</tspan><tspan x="16.51" y="0">ONE 6</tspan></text></g></g></g><g id="Zone_7"><path class="cls-3" d="m1867,1254.27v570.42h-233.57l.08,4.4c1.83,101.8,3.49,254.29.98,277.35h-272.92v-281.75h-259.16c.05-79.88.1-159.76.15-239.64-1.36-110.26-2.73-220.52-4.09-330.78h768.54Z"/><g class="cls-18"><g class="cls-14"><text class="cls-19" transform="translate(1559.51 1452.74)"><tspan class="cls-16" x="0" y="0">Z</tspan><tspan x="16.51" y="0">ONE 7</tspan></text></g></g></g></svg>