
<svg class="map-legend" data-name="Layer 2" xmlns="http://www.w3.org/2000/svg" viewBox="0 0 25.12 30.81">
  <g class="map-legend__accessible-parking">
    <g id="Accessible_Parking" data-name="Accessible Parking">
      <g>
        <path class="cls-1" d="M10.36,28.11c-4.22,0-7.66-3.44-7.66-7.66,0-2.57,1.28-4.85,3.23-6.24v-3.12c-3.5,1.66-5.93,5.23-5.93,9.36,0,5.71,4.65,10.36,10.36,10.36,3.33,0,6.29-1.58,8.19-4.02l-1.29-3c-1.24,2.56-3.87,4.32-6.89,4.32"/>
        <path class="cls-1" d="M24.88,24.57c-.22-.51-.81-.74-1.32-.53l-1.4.6-3.11-7.22c-.26-.6-.85-.99-1.51-.99h-5.01v-2.32h3.73c.73,0,1.32-.59,1.32-1.32s-.59-1.32-1.32-1.32h-3.73v-2.61c0-1.42-1.15-2.56-2.56-2.56s-2.56,1.15-2.56,2.56v8.59c0,1.3,1.06,2.36,2.36,2.36h7.38l3.16,7.34c.18.43.68.62,1.1.44l3.1-1.33c.51-.22.74-.81.53-1.32l-.16-.37Z"/>
        <path class="cls-1" d="M10.08,5.79c1.6,0,2.9-1.3,2.9-2.9s-1.3-2.9-2.9-2.9-2.9,1.3-2.9,2.9,1.3,2.9,2.9,2.9"/>
      </g>
    </g>
  </g>
</svg>
