<svg class="map-legend" xmlns="http://www.w3.org/2000/svg" viewBox="0 0 150 150">
  <g class="map-legend__food">
    <path class="cls-2" d="M75,121.98c25.95,0,46.98-21.03,46.98-46.98s-21.04-46.98-46.98-46.98-46.98,21.03-46.98,46.98,21.03,46.98,46.98,46.98"/>
    <circle class="cls-3" cx="75" cy="75" r="46.98"/>
    <path class="cls-1" d="M100,51.03c-12.11,0-18.14,9.85-18.14,21.95v19.51c0,1.35,1.09,2.44,2.44,2.44h7.32v17.07c0,4.03,3.28,7.32,7.32,7.32s3.5-3.28,3.5-7.32v-58.54c0-1.35-1.09-2.44-2.44-2.44"/>
    <path class="cls-1" d="M72.56,51.03c-1.35,0-2.44,1.09-2.44,2.44v17.07c0,1.35-1.09,2.44-2.44,2.44h-2.44c-1.35,0-2.44-1.09-2.44-2.44v-17.07c0-1.35-1.09-2.44-2.44-2.44s-2.44,1.09-2.44,2.44v17.07c0,1.35-1.09,2.44-2.44,2.44h-2.44c-1.35,0-2.44-1.09-2.44-2.44v-17.07c0-1.35-1.09-2.44-2.44-2.44s-2.44,1.09-2.44,2.44v21.95c0,4.54,3.11,8.36,7.32,9.45v26.85c0,3.54,2.38,6.79,5.86,7.46,4.67.91,8.78-2.66,8.78-7.17v-27.14c4.2-1.09,7.32-4.91,7.32-9.45v-21.95c0-1.35-1.09-2.44-2.44-2.44"/>
  </g>
</svg>
