<svg class="map-legend" xmlns="http://www.w3.org/2000/svg" viewBox="0 0 150 150">
  <g class="map-legend__shower">
    <path class="cls-2" d="M75,121.98c25.95,0,46.98-21.03,46.98-46.98s-21.04-46.98-46.98-46.98-46.98,21.03-46.98,46.98,21.03,46.98,46.98,46.98"/>
    <circle class="cls-3" cx="75" cy="75" r="46.98"/>
    <path class="cls-1" d="M107.28,72.4c0-15.85-14.45-28.69-32.28-28.69s-32.28,12.85-32.28,28.69h64.56Z"/>
    <rect class="cls-1" x="70.33" y="30" width="9.34" height="28.05"/>
    <path class="cls-1" d="M54.18,79.8s-13.99,19.23,0,19.23,0-19.23,0-19.23"/>
    <path class="cls-1" d="M96.25,79.8s-13.99,19.23,0,19.23,0-19.23,0-19.23"/>
    <path class="cls-1" d="M75.21,79.8s-16.64,23.35,0,23.35,0-23.35,0-23.35"/>
  </g>
</svg>
