<svg class="map-legend" id="map-legend-rv-parking" xmlns="http://www.w3.org/2000/svg" xmlns:xlink="http://www.w3.org/1999/xlink" viewBox="0 0 150 150">
  <defs>
    <clipPath id="rv-parking-clippath">
      <path class="cls-2" d="M31.77,75c0,25.95,21.04,46.98,46.98,46.98s46.98-21.04,46.98-46.98-21.03-46.98-46.98-46.98-46.98,21.03-46.98,46.98"/>
    </clipPath>
  </defs>
  <g class="map-legend__rv-parking">
    <path class="cls-4" d="M78.75,121.98c25.95,0,46.98-21.03,46.98-46.98s-21.04-46.98-46.98-46.98-46.98,21.03-46.98,46.98,21.03,46.98,46.98,46.98"/>
    <circle class="cls-1" cx="78.75" cy="75" r="46.98"/>
    <g class="cls-5">
      <path class="cls-3" d="M64.83,62.84c0,1.21-.98,2.19-2.19,2.19h-11.37c-1.21,0-2.19-.98-2.19-2.19v-5.17c0-1.21.98-2.19,2.19-2.19h11.37c1.21,0,2.19.98,2.19,2.19v5.17ZM28.04,65.03c-1.21,0-2.19-.98-2.19-2.19v-5.17c0-1.21.98-2.19,2.19-2.19h11.37M72.78,93.9v-36.23c0-1.21.98-2.19,2.19-2.19h20.92c1.21,0,2.19.98,2.19,2.19v36.23h29.19v5.73h-1.03v2.55h5.17v-2.55h-1.03v-11.29h1.03v-2.55h-5.17v2.55h1.03v2.47h-13.79c1.53-1.96,2.41-5.09,2.41-10.1,0-9.21-7.11-21.7-13.98-28.58-3.68-3.68-7.28-3.71-11.84-3.71H18.54v45.49h6.68c0-6.67,5.42-12.09,12.09-12.09h16.54c6.67,0,12.09,5.42,12.09,12.09h6.84Z"/>
      <path class="cls-3" d="M81.46,63.92h7.94v4.81h-7.94v-4.81ZM94.26,93.9v-34.6h-17.66v34.6h17.66Z"/>
      <path class="cls-3" d="M45.96,96.65c1.13,3.21,4.19,5.52,7.79,5.52,4.57,0,8.27-3.7,8.27-8.27s-3.7-8.27-8.27-8.27c-3.6,0-6.66,2.31-7.79,5.53-1,2.22,0,5.5,0,5.5M53.76,97.08c-1.76,0-3.18-1.42-3.18-3.18s1.42-3.18,3.18-3.18,3.18,1.42,3.18,3.18-1.42,3.18-3.18,3.18M38.17,97.08c-1.76,0-3.18-1.42-3.18-3.18s1.43-3.18,3.18-3.18,3.18,1.42,3.18,3.18-1.42,3.18-3.18,3.18"/>
    </g>
  </g>
</svg>
