<svg id="areas" xmlns="http://www.w3.org/2000/svg" viewBox="0 0 1728 1689.6"><g id="Accessible_Parking"><path class="cls-7" d="M706.04,464.52c-4.22,0-7.66-3.44-7.66-7.66,0-2.57,1.28-4.85,3.23-6.24v-3.12c-3.5,1.66-5.93,5.23-5.93,9.36,0,5.71,4.65,10.36,10.36,10.36,3.33,0,6.29-1.58,8.19-4.02l-1.29-3c-1.24,2.56-3.87,4.32-6.89,4.32"/><path class="cls-7" d="M720.56,460.98c-.22-.51-.81-.74-1.32-.53l-1.4.6-3.11-7.22c-.26-.6-.85-.99-1.51-.99h-5.01v-2.32h3.73c.73,0,1.32-.59,1.32-1.32s-.59-1.32-1.32-1.32h-3.73v-2.61c0-1.42-1.15-2.56-2.56-2.56s-2.56,1.15-2.56,2.56v8.59c0,1.3,1.06,2.36,2.36,2.36h7.38l3.16,7.34c.18.43.68.62,1.1.44l3.1-1.33c.51-.22.74-.81.53-1.32l-.16-.37Z"/><path class="cls-7" d="M705.76,442.19c1.6,0,2.9-1.3,2.9-2.9s-1.3-2.9-2.9-2.9-2.9,1.3-2.9,2.9,1.3,2.9,2.9,2.9"/><text class="cls-12" transform="translate(727.51 451.73)"><tspan class="cls-24" x="0" y="0">A</tspan><tspan x="8.22" y="0">CCESSIBLE </tspan></text><text class="cls-12" transform="translate(727.51 462.73)"><tspan class="cls-23" x="0" y="0">P</tspan><tspan class="cls-25" x="6.45" y="0">ARKING</tspan></text><text class="cls-21" transform="translate(677.77 458.5)"><tspan x="0" y="0">3</tspan></text><path class="cls-7" d="M814.16,529.34c-4.22,0-7.66-3.44-7.66-7.66,0-2.57,1.28-4.85,3.23-6.24v-3.12c-3.5,1.66-5.93,5.23-5.93,9.36,0,5.71,4.65,10.36,10.36,10.36,3.33,0,6.29-1.58,8.19-4.02l-1.29-3c-1.24,2.56-3.87,4.32-6.89,4.32"/><path class="cls-7" d="M828.68,525.81c-.22-.51-.81-.74-1.32-.53l-1.4.6-3.11-7.22c-.26-.6-.85-.99-1.51-.99h-5.01v-2.32h3.73c.73,0,1.32-.59,1.32-1.32s-.59-1.32-1.32-1.32h-3.73v-2.61c0-1.42-1.15-2.56-2.56-2.56s-2.56,1.15-2.56,2.56v8.59c0,1.3,1.06,2.36,2.36,2.36h7.38l3.16,7.34c.18.43.68.62,1.1.44l3.1-1.33c.51-.22.74-.81.53-1.32l-.16-.37Z"/><path class="cls-7" d="M813.88,507.02c1.6,0,2.9-1.3,2.9-2.9s-1.3-2.9-2.9-2.9-2.9,1.3-2.9,2.9,1.3,2.9,2.9,2.9"/><text class="cls-12" transform="translate(835.63 516.56)"><tspan class="cls-24" x="0" y="0">A</tspan><tspan x="8.22" y="0">CCESSIBLE</tspan></text><text class="cls-12" transform="translate(835.63 527.56)"><tspan class="cls-23" x="0" y="0">P</tspan><tspan class="cls-25" x="6.45" y="0">ARKING</tspan></text><text class="cls-20" transform="translate(788.79 523.34)"><tspan x="0" y="0">1</tspan></text><path class="cls-2" d="M819.38,404.49c-4.22,0-7.66-3.44-7.66-7.66,0-2.57,1.28-4.85,3.23-6.24v-3.12c-3.5,1.66-5.93,5.23-5.93,9.36,0,5.71,4.65,10.36,10.36,10.36,3.33,0,6.29-1.58,8.19-4.02l-1.29-3c-1.24,2.56-3.87,4.32-6.89,4.32"/><path class="cls-2" d="M833.89,400.95c-.22-.51-.81-.74-1.32-.53l-1.4.6-3.11-7.22c-.26-.6-.85-.99-1.51-.99h-5.01v-2.32h3.73c.73,0,1.32-.59,1.32-1.32s-.59-1.32-1.32-1.32h-3.73v-2.61c0-1.42-1.15-2.56-2.56-2.56s-2.56,1.15-2.56,2.56v8.59c0,1.3,1.06,2.36,2.36,2.36h7.38l3.16,7.34c.18.43.68.62,1.1.44l3.1-1.33c.51-.22.74-.81.53-1.32l-.16-.37Z"/><path class="cls-2" d="M819.09,382.17c1.6,0,2.9-1.3,2.9-2.9s-1.3-2.9-2.9-2.9-2.9,1.3-2.9,2.9,1.3,2.9,2.9,2.9"/><text class="cls-14" transform="translate(840.84 391.71)"><tspan class="cls-24" x="0" y="0">A</tspan><tspan x="8.22" y="0">CCESSIBLE </tspan></text><text class="cls-14" transform="translate(840.84 402.71)"><tspan class="cls-23" x="0" y="0">P</tspan><tspan class="cls-25" x="6.45" y="0">ARKING</tspan></text><text class="cls-21" transform="translate(792.91 398.49)"><tspan x="0" y="0">2</tspan></text></g><g id="Associate_Parking"><text></text><text class="cls-22" transform="translate(1639.96 1346.66) rotate(-43)"><tspan x="0" y="0">ASSOCIATE</tspan><tspan x="5.26" y="16.8">PARKING</tspan></text><text class="cls-18" transform="translate(401.11 461.08)"><tspan x="0" y="0">ASSOCIATE</tspan><tspan x="5.26" y="16.8">PARKING</tspan></text></g><g id="Parking"><rect class="cls-1" x="1566.88" y="1346.49" width="23.2" height="23.2" transform="translate(-497.99 1513.93) rotate(-45)"/><text class="cls-17" transform="translate(1573.52 1363.86)"><tspan x="0" y="0">P</tspan></text><rect class="cls-1" x="1626.38" y="1185.83" width="23.2" height="23.2" transform="translate(-366.96 1508.95) rotate(-45)"/><text class="cls-17" transform="translate(1633.02 1203.19)"><tspan x="0" y="0">P</tspan></text><rect class="cls-1" x="1605.76" y="942.62" width="23.2" height="23.2" transform="translate(-201.02 1423.13) rotate(-45)"/><text class="cls-17" transform="translate(1612.4 959.98)"><tspan x="0" y="0">P</tspan></text><rect class="cls-1" x="1485.02" y="950.9" width="23.2" height="23.2" transform="translate(-242.25 1340.18) rotate(-45)"/><text class="cls-17" transform="translate(1491.66 968.27)"><tspan x="0" y="0">P</tspan></text><rect class="cls-1" x="1499.32" y="1069.31" width="23.2" height="23.2" transform="translate(-321.78 1384.97) rotate(-45)"/><text class="cls-17" transform="translate(1505.96 1086.68)"><tspan x="0" y="0">P</tspan></text><rect class="cls-1" x="1464.05" y="1296.33" width="23.2" height="23.2" transform="translate(-492.64 1426.53) rotate(-45)"/><text class="cls-17" transform="translate(1470.69 1313.69)"><tspan x="0" y="0">P</tspan></text><rect class="cls-1" x="1370.77" y="1376.11" width="23.2" height="23.2" transform="translate(-576.37 1383.93) rotate(-45)"/><text class="cls-17" transform="translate(1377.41 1393.47)"><tspan x="0" y="0">P</tspan></text><rect class="cls-1" x="1196.21" y="1489.63" width="23.2" height="23.2" transform="translate(-707.77 1293.75) rotate(-45)"/><text class="cls-17" transform="translate(1202.85 1506.99)"><tspan x="0" y="0">P</tspan></text><rect class="cls-1" x="1135.48" y="1654.3" width="23.2" height="23.2" transform="translate(-841.99 1299.04) rotate(-45)"/><text class="cls-17" transform="translate(1142.12 1671.66)"><tspan x="0" y="0">P</tspan></text><rect class="cls-1" x="1222.67" y="1652.35" width="23.2" height="23.2" transform="translate(-815.08 1360.12) rotate(-45)"/><text class="cls-17" transform="translate(1229.31 1669.71)"><tspan x="0" y="0">P</tspan></text><rect class="cls-1" x="1471.68" y="1431.25" width="23.2" height="23.2" transform="translate(-585.8 1471.44) rotate(-45)"/><text class="cls-17" transform="translate(1478.33 1448.61)"><tspan x="0" y="0">P</tspan></text><rect class="cls-1" x="1338.64" y="1545.68" width="23.2" height="23.2" transform="translate(-705.69 1410.88) rotate(-45)"/><text class="cls-17" transform="translate(1345.28 1563.05)"><tspan x="0" y="0">P</tspan></text><rect class="cls-1" x="1450.54" y="516.6" width="23.2" height="23.2" transform="translate(54.76 1188.6) rotate(-45)"/><text class="cls-17" transform="translate(1457.18 533.96)"><tspan x="0" y="0">P</tspan></text><rect class="cls-1" x="1450.54" y="615.52" width="23.2" height="23.2" transform="translate(-15.19 1217.57) rotate(-45)"/><text class="cls-17" transform="translate(1457.18 632.88)"><tspan x="0" y="0">P</tspan></text><rect class="cls-1" x="1632.73" y="1052.91" width="23.2" height="23.2" transform="translate(-271.11 1474.5) rotate(-45)"/><text class="cls-17" transform="translate(1639.37 1070.27)"><tspan x="0" y="0">P</tspan></text><rect class="cls-1" x="904.08" y="142.53" width="23.2" height="23.2" transform="translate(140.87 665.88) rotate(-43)"/><text class="cls-15" transform="translate(910.52 159.7) rotate(2)"><tspan x="0" y="0">P</tspan></text><rect class="cls-1" x="797.07" y="214.72" width="23.2" height="23.2" transform="translate(62.88 612.29) rotate(-43)"/><text class="cls-15" transform="translate(803.51 231.9) rotate(2)"><tspan x="0" y="0">P</tspan></text><rect class="cls-1" x="693.75" y="287.48" width="23.2" height="23.2" transform="translate(-14.49 561.37) rotate(-43)"/><text class="cls-15" transform="translate(700.18 304.66) rotate(2)"><tspan x="0" y="0">P</tspan></text><rect class="cls-1" x="597.89" y="352.73" width="23.2" height="23.2" transform="translate(-84.74 513.53) rotate(-43)"/><text class="cls-15" transform="translate(604.33 369.91) rotate(2)"><tspan x="0" y="0">P</tspan></text><rect class="cls-1" x="637.77" y="460.01" width="23.2" height="23.2" transform="translate(-147.19 569.55) rotate(-43)"/><text class="cls-15" transform="translate(644.2 477.19) rotate(2)"><tspan x="0" y="0">P</tspan></text><rect class="cls-1" x="559.76" y="505.04" width="23.2" height="23.2" transform="translate(-198.85 528.44) rotate(-43)"/><text class="cls-15" transform="translate(566.2 522.22) rotate(2)"><tspan x="0" y="0">P</tspan></text><rect class="cls-1" x="438.47" y="578.05" width="23.2" height="23.2" transform="translate(-281.23 465.33) rotate(-43)"/><text class="cls-15" transform="translate(444.9 595.23) rotate(2)"><tspan x="0" y="0">P</tspan></text></g><g id="Tram_Stops"><text class="cls-19" transform="translate(748.07 320.4)"><tspan x="0" y="0">A3</tspan></text><text class="cls-19" transform="translate(667.87 372.24)"><tspan x="0" y="0">A4</tspan></text><text class="cls-19" transform="translate(571.31 430.04)"><tspan x="0" y="0">A5</tspan></text><text class="cls-19" transform="translate(434.3 511.71)"><tspan x="0" y="0">A6</tspan></text><text class="cls-19" transform="translate(373.33 614.9)"><tspan x="0" y="0">B1</tspan></text><text class="cls-19" transform="translate(516.18 529.22)"><tspan x="0" y="0">C3</tspan></text><text class="cls-19" transform="translate(604.27 470.9)"><tspan x="0" y="0">C2</tspan></text><text class="cls-19" transform="translate(694.36 419.78)"><tspan x="0" y="0">C1</tspan></text><text class="cls-19" transform="translate(1004.75 163.13)"><tspan x="0" y="0">A1</tspan></text><text class="cls-19" transform="translate(869.52 242.7)"><tspan x="0" y="0">A2</tspan></text><text class="cls-19" transform="translate(1433.25 847.97)"><tspan x="0" y="0">D2</tspan></text><text class="cls-19" transform="translate(1486.33 924.34)"><tspan x="0" y="0">G1</tspan></text><text class="cls-19" transform="translate(1497.18 1012.36)"><tspan x="0" y="0">G2</tspan></text><text class="cls-19" transform="translate(1533.9 1148.08)"><tspan x="0" y="0">G3</tspan></text><text class="cls-19" transform="translate(1563.49 924.34)"><tspan x="0" y="0">E1</tspan></text><text class="cls-19" transform="translate(1574.35 1012.36)"><tspan x="0" y="0">E2</tspan></text><text class="cls-19" transform="translate(1611.07 1148.08)"><tspan x="0" y="0">E3</tspan></text><text class="cls-19" transform="translate(1610.92 1290.62)"><tspan x="0" y="0">E4</tspan></text><text class="cls-19" transform="translate(1516.41 1386.46)"><tspan x="0" y="0">E5</tspan></text><text class="cls-19" transform="translate(1366.63 1517.55)"><tspan x="0" y="0">E6</tspan></text><text class="cls-19" transform="translate(1344.18 1447.15)"><tspan x="0" y="0">H2</tspan></text><text class="cls-19" transform="translate(1177.43 1564.02)"><tspan x="0" y="0">I2</tspan></text><text class="cls-19" transform="translate(1140.04 1622.13)"><tspan x="0" y="0">F1</tspan></text><text class="cls-19" transform="translate(1227.52 1622.13)"><tspan x="0" y="0">F2</tspan></text><text class="cls-19" transform="translate(1319.36 1672.62)"><tspan x="0" y="0">F3</tspan></text><text class="cls-19" transform="translate(1439.44 1366.42)"><tspan x="0" y="0">H2</tspan></text><text class="cls-19" transform="translate(1519.83 1290.64)"><tspan x="0" y="0">H1</tspan></text><text class="cls-19" transform="translate(1460.96 669.19)"><tspan x="0" y="0">D1</tspan></text></g><g id="Healthy_Living_Expo"><rect class="cls-3" x="1066.11" y="788.62" width="17.41" height="17.41" transform="translate(-248.99 993.54) rotate(-45)"/><text class="cls-11" transform="translate(1069.08 801.91)"><tspan x="0" y="0">H</tspan></text></g><g id="Going_Green_Tent"><rect class="cls-10" x="1396.1" y="842.06" width="17.41" height="17.41" transform="translate(-190.13 1242.53) rotate(-45)"/><text class="cls-11" transform="translate(1399.19 855.45)"><tspan x="0" y="0">G</tspan></text></g><g id="Chahta_Cab"><rect class="cls-8" x="863.59" y="701.24" width="17.41" height="17.41" transform="translate(-246.52 824.75) rotate(-45)"/><text class="cls-13" transform="translate(866.65 714.92)"><tspan x="0" y="0">C</tspan></text></g><g id="Education_Tent"><rect class="cls-6" x="806.95" y="732.59" width="17.41" height="17.41" transform="translate(-285.28 793.87) rotate(-45)"/><text class="cls-11" transform="translate(811.45 746.28)"><tspan x="0" y="0">E</tspan></text></g><g id="Membership"><rect class="cls-4" x="921.61" y="726.21" width="17.41" height="17.41" transform="translate(-247.18 873.08) rotate(-45)"/><text class="cls-11" transform="translate(924.1 739.68)"><tspan x="0" y="0">M</tspan></text></g><g id="Choctaw_Store"><rect class="cls-5" x="743.84" y="736.34" width="17.41" height="17.41" transform="translate(-306.41 750.35) rotate(-45)"/><text class="cls-11" transform="translate(748.65 749.8)"><tspan x="0" y="0">S</tspan></text></g><g id="Information"><rect class="cls-9" x="833.77" y="706.84" width="23.2" height="23.2" transform="translate(-260.41 808.2) rotate(-45)"/><text class="cls-16" transform="translate(841.92 726.92)"><tspan x="0" y="0">i</tspan></text></g><g id="Going_Green_Tent-2"><rect class="cls-10" x="165.9" y="1256.4" width="17.41" height="17.41" transform="translate(-843.42 494.01) rotate(-45)"/><text class="cls-11" transform="translate(169 1269.79)"><tspan x="0" y="0">G</tspan></text></g></svg>
