<svg id="icons" viewBox="0 0 1728 1689.6"><defs><clipPath id="icons-clippath"><rect class="cls-2" y="-445.23" width="1728" height="2592"/></clipPath><clipPath id="icons-clippath-1"><path class="cls-2" d="M1511.84,716.45c0,6.8,5.51,12.31,12.31,12.31s12.31-5.51,12.31-12.31-5.51-12.31-12.31-12.31-12.31,5.51-12.31,12.31"/></clipPath><clipPath id="icons-clippath-2"><rect class="cls-2" x="56.24" y="-445.42" width="1728" height="2592"/></clipPath><clipPath id="icons-clippath-3"><path class="cls-2" d="M1568.08,716.26c0,6.8,5.51,12.31,12.31,12.31s12.31-5.51,12.31-12.31-5.51-12.31-12.31-12.31-12.31,5.51-12.31,12.31"/></clipPath><clipPath id="icons-clippath-4"><rect class="cls-2" y="-445.23" width="1728" height="2592"/></clipPath><clipPath id="icons-clippath-5"><path class="cls-2" d="M438.62,1061.11c0,6.8,5.51,12.31,12.31,12.31s12.31-5.51,12.31-12.31-5.51-12.31-12.31-12.31-12.31,5.51-12.31,12.31"/></clipPath><clipPath id="icons-clippath-6"><rect class="cls-2" y="-445.23" width="1728" height="2592"/></clipPath><clipPath id="icons-clippath-7"><path class="cls-2" d="M507.43,749.24c0,6.8,5.51,12.31,12.31,12.31s12.31-5.51,12.31-12.31-5.51-12.31-12.31-12.31-12.31,5.51-12.31,12.31"/></clipPath></defs><g id="Parking_Station"><g id="PS-16"><rect class="cls-29" x="449.46" y="541.53" width="23.17" height="23.17" transform="translate(-253.36 463) rotate(-43)"/><text class="cls-24" transform="translate(449.89 557.19) rotate(2)"><tspan x="0" y="0">P16</tspan></text></g><g id="PS-15"><rect class="cls-29" x="617.46" y="437.53" width="23.17" height="23.17" transform="translate(-137.31 549.64) rotate(-43)"/><text class="cls-24" transform="translate(617.89 453.19) rotate(2)"><tspan x="0" y="0">P15</tspan></text></g><g id="PS-14"><rect class="cls-29" x="717.6" y="378.53" width="23.17" height="23.17" transform="translate(-70.17 602.08) rotate(-43)"/><text class="cls-24" transform="translate(718.03 394.19) rotate(2)"><tspan x="0" y="0">P14</tspan></text></g><g id="PS-13"><rect class="cls-29" x="943.6" y="236.25" width="23.17" height="23.17" transform="translate(87.58 717.99) rotate(-43)"/><text class="cls-24" transform="translate(944.03 251.9) rotate(2)"><tspan x="0" y="0">P13</tspan></text></g><g id="PS-12"><rect class="cls-29" x="1037.6" y="180.25" width="23.17" height="23.17" transform="translate(151.02 767.05) rotate(-43)"/><text class="cls-24" transform="translate(1038.03 195.9) rotate(2)"><tspan x="0" y="0">P12</tspan></text></g><g id="PS-11a"><rect class="cls-29" x="1042.6" y="539.25" width="23.17" height="23.17" transform="translate(-92.47 866.9) rotate(-43)"/><text class="cls-25" transform="translate(1041.69 553.85) rotate(2)"><tspan x="0" y="0">P11A</tspan></text></g><g id="PS-11"><rect class="cls-29" x="1091.74" y="678.96" width="23.17" height="23.17" transform="translate(-174.55 937.95) rotate(-43)"/><text class="cls-24" transform="translate(1092.18 694.61) rotate(2)"><tspan x="0" y="0">P11</tspan></text></g><g id="PS-10"><rect class="cls-29" x="1296.56" y="856.39" width="23.17" height="23.17" transform="translate(-240.53 1125.29) rotate(-43)"/><text class="cls-24" transform="translate(1296.99 872.04) rotate(2)"><tspan x="0" y="0">P10</tspan></text></g><g id="PS-9"><rect class="cls-29" x="1200.56" y="1003.39" width="23.17" height="23.17" transform="translate(-366.57 1099.31) rotate(-43)"/><text class="cls-24" transform="translate(1204.45 1019.16) rotate(2)"><tspan x="0" y="0">P9</tspan></text></g><g id="PS-8"><rect class="cls-29" x="1499.56" y="888.25" width="23.17" height="23.17" transform="translate(-207.73 1272.29) rotate(-43)"/><text class="cls-24" transform="translate(1503.45 904.02) rotate(2)"><tspan x="0" y="0">P8</tspan></text></g><g id="PS-7"><rect class="cls-29" x="1544.56" y="1263.25" width="23.17" height="23.17" transform="translate(-451.38 1403.71) rotate(-43)"/><text class="cls-24" transform="translate(1548.45 1279.02) rotate(2)"><tspan x="0" y="0">P7</tspan></text></g><g id="PS-6"><rect class="cls-29" x="1404.56" y="1362.25" width="23.17" height="23.17" transform="translate(-556.51 1334.83) rotate(-43)"/><text class="cls-24" transform="translate(1408.45 1378.02) rotate(2)"><tspan x="0" y="0">P6</tspan></text></g><g id="PS-5"><rect class="cls-29" x="1296.56" y="1477.25" width="23.17" height="23.17" transform="translate(-663.95 1292.07) rotate(-43)"/><text class="cls-24" transform="translate(1300.45 1493.02) rotate(2)"><tspan x="0" y="0">P5</tspan></text></g><g id="PS-4"><rect class="cls-29" x="1177.56" y="1614.25" width="23.17" height="23.17" transform="translate(-789.34 1247.71) rotate(-43)"/><text class="cls-24" transform="translate(1181.45 1630.02) rotate(2)"><tspan x="0" y="0">P4</tspan></text></g><g id="PS-3"><rect class="cls-29" x="1123.99" y="1540.53" width="23.17" height="23.17" transform="translate(-753.46 1191.38) rotate(-43)"/><text class="cls-24" transform="translate(1127.88 1556.31) rotate(2)"><tspan x="0" y="0">P3</tspan></text></g><g id="PS-1"><rect class="cls-29" x="1043.41" y="1276.14" width="23.17" height="23.17" transform="translate(-594.8 1065.4) rotate(-43)"/><text class="cls-24" transform="translate(1047.3 1291.91) rotate(2)"><tspan x="0" y="0">P1</tspan></text></g></g><g id="Icons"><g id="Tribal_Police"><path class="cls-30" d="M771.89,618.65c6.8,0,12.31-5.51,12.31-12.31s-5.51-12.31-12.31-12.31-12.31,5.51-12.31,12.31,5.51,12.31,12.31,12.31"/><circle class="cls-9" cx="771.89" cy="606.34" r="12.31"/><polygon class="cls-32" points="771.89 597.07 769.48 603.12 762.98 603.54 767.99 607.7 766.38 614.02 771.89 610.53 777.4 614.02 775.78 607.7 780.8 603.54 774.29 603.12 771.89 597.07"/></g><g id="Mothers_Room"><path class="cls-30" d="M962.33,837.6c5.44,0,9.85-4.41,9.85-9.85s-4.41-9.85-9.85-9.85-9.85,4.41-9.85,9.85,4.41,9.85,9.85,9.85"/><path class="cls-12" d="M962.33,837.6c5.44,0,9.85-4.41,9.85-9.85s-4.41-9.85-9.85-9.85-9.85,4.41-9.85,9.85,4.41,9.85,9.85,9.85Z"/><text class="cls-26" transform="translate(956.12 832.68)"><tspan x="0" y="0">M</tspan></text></g><g id="ATM"><path class="cls-30" d="M740.3,768.39c4.08,0,7.39-3.31,7.39-7.39s-3.31-7.39-7.39-7.39-7.39,3.31-7.39,7.39,3.31,7.39,7.39,7.39"/><path class="cls-1" d="M740.3,768.39c4.08,0,7.39-3.31,7.39-7.39s-3.31-7.39-7.39-7.39-7.39,3.31-7.39,7.39,3.31,7.39,7.39,7.39Z"/><text class="cls-22" transform="translate(735.82 766.21)"><tspan x="0" y="0">$</tspan></text><rect class="cls-23" x="739.57" y="753.69" width="1.47" height="14.15"/><path class="cls-30" d="M738.73,859.44c4.08,0,7.39-3.31,7.39-7.39s-3.31-7.39-7.39-7.39-7.39,3.31-7.39,7.39,3.31,7.39,7.39,7.39"/><path class="cls-1" d="M738.73,859.44c4.08,0,7.39-3.31,7.39-7.39s-3.31-7.39-7.39-7.39-7.39,3.31-7.39,7.39,3.31,7.39,7.39,7.39Z"/><text class="cls-22" transform="translate(734.25 857.26)"><tspan x="0" y="0">$</tspan></text><rect class="cls-23" x="737.99" y="844.74" width="1.47" height="14.15"/><path class="cls-30" d="M822.66,670.73c4.08,0,7.39-3.31,7.39-7.39s-3.31-7.39-7.39-7.39-7.39,3.31-7.39,7.39,3.31,7.39,7.39,7.39"/><path class="cls-1" d="M822.66,670.73c4.08,0,7.39-3.31,7.39-7.39s-3.31-7.39-7.39-7.39-7.39,3.31-7.39,7.39,3.31,7.39,7.39,7.39Z"/><text class="cls-22" transform="translate(818.18 668.55)"><tspan x="0" y="0">$</tspan></text><rect class="cls-23" x="821.93" y="656.03" width="1.47" height="14.15"/></g><g id="Shower"><path class="cls-30" d="M579.85,1154.48c5.44,0,9.85-4.41,9.85-9.85s-4.41-9.85-9.85-9.85-9.85,4.41-9.85,9.85,4.41,9.85,9.85,9.85"/><path class="cls-8" d="M579.85,1154.48c5.44,0,9.85-4.41,9.85-9.85s-4.41-9.85-9.85-9.85-9.85,4.41-9.85,9.85,4.41,9.85,9.85,9.85Z"/><path class="cls-29" d="M575.48,1145.64s-2.93,4.03,0,4.03,0-4.03,0-4.03"/><path class="cls-29" d="M584.3,1145.64s-2.93,4.03,0,4.03,0-4.03,0-4.03"/><path class="cls-29" d="M579.89,1145.64s-3.49,4.9,0,4.9,0-4.9,0-4.9"/><path class="cls-29" d="M586.62,1144.09c0-3.32-3.03-6.02-6.77-6.02s-6.77,2.69-6.77,6.02h13.53Z"/><rect class="cls-29" x="578.87" y="1135.2" width="1.96" height="5.88"/><path class="cls-30" d="M370.77,1186.72c5.44,0,9.85-4.41,9.85-9.85s-4.41-9.85-9.85-9.85-9.85,4.41-9.85,9.85,4.41,9.85,9.85,9.85"/><path class="cls-8" d="M370.77,1186.72c5.44,0,9.85-4.41,9.85-9.85s-4.41-9.85-9.85-9.85-9.85,4.41-9.85,9.85,4.41,9.85,9.85,9.85Z"/><path class="cls-29" d="M366.41,1177.88s-2.93,4.03,0,4.03,0-4.03,0-4.03"/><path class="cls-29" d="M375.23,1177.88s-2.93,4.03,0,4.03,0-4.03,0-4.03"/><path class="cls-29" d="M370.82,1177.88s-3.49,4.9,0,4.9,0-4.9,0-4.9"/><path class="cls-29" d="M377.54,1176.33c0-3.32-3.03-6.02-6.77-6.02s-6.77,2.69-6.77,6.02h13.53Z"/><rect class="cls-29" x="369.79" y="1167.44" width="1.96" height="5.88"/><path class="cls-30" d="M415.7,729.56c5.44,0,9.85-4.41,9.85-9.85s-4.41-9.85-9.85-9.85-9.85,4.41-9.85,9.85,4.41,9.85,9.85,9.85"/><path class="cls-8" d="M415.7,729.56c5.44,0,9.85-4.41,9.85-9.85s-4.41-9.85-9.85-9.85-9.85,4.41-9.85,9.85,4.41,9.85,9.85,9.85Z"/><path class="cls-29" d="M422.47,719.16c0-3.32-3.03-6.02-6.77-6.02s-6.77,2.69-6.77,6.02h13.53Z"/><rect class="cls-29" x="414.72" y="710.27" width="1.96" height="5.88"/><path class="cls-29" d="M411.34,720.71s-2.93,4.03,0,4.03,0-4.03,0-4.03"/><path class="cls-29" d="M420.16,720.71s-2.93,4.03,0,4.03,0-4.03,0-4.03"/><path class="cls-29" d="M415.75,720.71s-3.49,4.9,0,4.9,0-4.9,0-4.9"/></g><g id="Food"><path class="cls-30" d="M755.79,680.69c4.08,0,7.39-3.31,7.39-7.39s-3.31-7.39-7.39-7.39-7.39,3.31-7.39,7.39,3.31,7.39,7.39,7.39"/><path class="cls-15" d="M755.79,680.69c4.08,0,7.39-3.31,7.39-7.39s-3.31-7.39-7.39-7.39-7.39,3.31-7.39,7.39,3.31,7.39,7.39,7.39Z"/><path class="cls-28" d="M759.72,669.54c-1.9,0-2.85,1.55-2.85,3.45v3.07c0,.21.17.38.38.38h1.15v2.69c0,.63.52,1.15,1.15,1.15s.55-.52.55-1.15v-9.2c0-.21-.17-.38-.38-.38"/><path class="cls-28" d="M755.4,669.54c-.21,0-.38.17-.38.38v2.68c0,.21-.17.38-.38.38h-.38c-.21,0-.38-.17-.38-.38v-2.68c0-.21-.17-.38-.38-.38s-.38.17-.38.38v2.68c0,.21-.17.38-.38.38h-.38c-.21,0-.38-.17-.38-.38v-2.68c0-.21-.17-.38-.38-.38s-.38.17-.38.38v3.45c0,.71.49,1.32,1.15,1.49v4.22c0,.56.38,1.07.92,1.17.73.14,1.38-.42,1.38-1.13v-4.27c.66-.17,1.15-.77,1.15-1.49v-3.45c0-.21-.17-.38-.38-.38"/><path class="cls-30" d="M715.61,725.08c4.08,0,7.39-3.31,7.39-7.39s-3.31-7.39-7.39-7.39-7.39,3.31-7.39,7.39,3.31,7.39,7.39,7.39"/><path class="cls-15" d="M715.61,725.08c4.08,0,7.39-3.31,7.39-7.39s-3.31-7.39-7.39-7.39-7.39,3.31-7.39,7.39,3.31,7.39,7.39,7.39Z"/><path class="cls-28" d="M719.55,713.93c-1.9,0-2.85,1.55-2.85,3.45v3.07c0,.21.17.38.38.38h1.15v2.69c0,.63.52,1.15,1.15,1.15s.55-.52.55-1.15v-9.2c0-.21-.17-.38-.38-.38"/><path class="cls-28" d="M715.23,713.93c-.21,0-.38.17-.38.38v2.68c0,.21-.17.38-.38.38h-.38c-.21,0-.38-.17-.38-.38v-2.68c0-.21-.17-.38-.38-.38s-.38.17-.38.38v2.68c0,.21-.17.38-.38.38h-.38c-.21,0-.38-.17-.38-.38v-2.68c0-.21-.17-.38-.38-.38s-.38.17-.38.38v3.45c0,.71.49,1.32,1.15,1.49v4.22c0,.56.38,1.07.92,1.17.73.14,1.38-.42,1.38-1.13v-4.27c.66-.17,1.15-.77,1.15-1.49v-3.45c0-.21-.17-.38-.38-.38"/><path class="cls-30" d="M736.35,700.36c4.08,0,7.39-3.31,7.39-7.39s-3.31-7.39-7.39-7.39-7.39,3.31-7.39,7.39,3.31,7.39,7.39,7.39"/><path class="cls-15" d="M736.35,700.36c4.08,0,7.39-3.31,7.39-7.39s-3.31-7.39-7.39-7.39-7.39,3.31-7.39,7.39,3.31,7.39,7.39,7.39Z"/><path class="cls-28" d="M740.28,689.2c-1.9,0-2.85,1.55-2.85,3.45v3.07c0,.21.17.38.38.38h1.15v2.69c0,.63.52,1.15,1.15,1.15s.55-.52.55-1.15v-9.2c0-.21-.17-.38-.38-.38"/><path class="cls-28" d="M735.97,689.2c-.21,0-.38.17-.38.38v2.68c0,.21-.17.38-.38.38h-.38c-.21,0-.38-.17-.38-.38v-2.68c0-.21-.17-.38-.38-.38s-.38.17-.38.38v2.68c0,.21-.17.38-.38.38h-.38c-.21,0-.38-.17-.38-.38v-2.68c0-.21-.17-.38-.38-.38s-.38.17-.38.38v3.45c0,.71.49,1.32,1.15,1.49v4.22c0,.56.38,1.07.92,1.17.73.14,1.38-.42,1.38-1.13v-4.27c.66-.17,1.15-.77,1.15-1.49v-3.45c0-.21-.17-.38-.38-.38"/><path class="cls-30" d="M696.89,751.34c4.08,0,7.39-3.31,7.39-7.39s-3.31-7.39-7.39-7.39-7.39,3.31-7.39,7.39,3.31,7.39,7.39,7.39"/><path class="cls-15" d="M696.89,751.34c4.08,0,7.39-3.31,7.39-7.39s-3.31-7.39-7.39-7.39-7.39,3.31-7.39,7.39,3.31,7.39,7.39,7.39Z"/><path class="cls-28" d="M700.82,740.18c-1.9,0-2.85,1.55-2.85,3.45v3.07c0,.21.17.38.38.38h1.15v2.69c0,.63.52,1.15,1.15,1.15s.55-.52.55-1.15v-9.2c0-.21-.17-.38-.38-.38"/><path class="cls-28" d="M696.51,740.18c-.21,0-.38.17-.38.38v2.68c0,.21-.17.38-.38.38h-.38c-.21,0-.38-.17-.38-.38v-2.68c0-.21-.17-.38-.38-.38s-.38.17-.38.38v2.68c0,.21-.17.38-.38.38h-.38c-.21,0-.38-.17-.38-.38v-2.68c0-.21-.17-.38-.38-.38s-.38.17-.38.38v3.45c0,.71.49,1.32,1.15,1.49v4.22c0,.56.38,1.07.92,1.17.73.14,1.38-.42,1.38-1.13v-4.27c.66-.17,1.15-.77,1.15-1.49v-3.45c0-.21-.17-.38-.38-.38"/><path class="cls-30" d="M1265.28,746.27c4.08,0,7.39-3.31,7.39-7.39s-3.31-7.39-7.39-7.39-7.39,3.31-7.39,7.39,3.31,7.39,7.39,7.39"/><path class="cls-15" d="M1265.28,746.27c4.08,0,7.39-3.31,7.39-7.39s-3.31-7.39-7.39-7.39-7.39,3.31-7.39,7.39,3.31,7.39,7.39,7.39Z"/><path class="cls-28" d="M1269.21,735.11c-1.9,0-2.85,1.55-2.85,3.45v3.07c0,.21.17.38.38.38h1.15v2.69c0,.63.52,1.15,1.15,1.15s.55-.52.55-1.15v-9.2c0-.21-.17-.38-.38-.38"/><path class="cls-28" d="M1264.89,735.11c-.21,0-.38.17-.38.38v2.68c0,.21-.17.38-.38.38h-.38c-.21,0-.38-.17-.38-.38v-2.68c0-.21-.17-.38-.38-.38s-.38.17-.38.38v2.68c0,.21-.17.38-.38.38h-.38c-.21,0-.38-.17-.38-.38v-2.68c0-.21-.17-.38-.38-.38s-.38.17-.38.38v3.45c0,.71.49,1.32,1.15,1.49v4.22c0,.56.38,1.07.92,1.17.73.14,1.38-.42,1.38-1.13v-4.27c.66-.17,1.15-.77,1.15-1.49v-3.45c0-.21-.17-.38-.38-.38"/><path class="cls-30" d="M964.29,684c4.08,0,7.39-3.31,7.39-7.39s-3.31-7.39-7.39-7.39-7.39,3.31-7.39,7.39,3.31,7.39,7.39,7.39"/><path class="cls-15" d="M964.29,684c4.08,0,7.39-3.31,7.39-7.39s-3.31-7.39-7.39-7.39-7.39,3.31-7.39,7.39,3.31,7.39,7.39,7.39Z"/><path class="cls-28" d="M968.22,672.84c-1.9,0-2.85,1.55-2.85,3.45v3.07c0,.21.17.38.38.38h1.15v2.69c0,.63.52,1.15,1.15,1.15s.55-.52.55-1.15v-9.2c0-.21-.17-.38-.38-.38"/><path class="cls-28" d="M963.9,672.84c-.21,0-.38.17-.38.38v2.68c0,.21-.17.38-.38.38h-.38c-.21,0-.38-.17-.38-.38v-2.68c0-.21-.17-.38-.38-.38s-.38.17-.38.38v2.68c0,.21-.17.38-.38.38h-.38c-.21,0-.38-.17-.38-.38v-2.68c0-.21-.17-.38-.38-.38s-.38.17-.38.38v3.45c0,.71.49,1.32,1.15,1.49v4.22c0,.56.38,1.07.92,1.17.73.14,1.38-.42,1.38-1.13v-4.27c.66-.17,1.15-.77,1.15-1.49v-3.45c0-.21-.17-.38-.38-.38"/><path class="cls-30" d="M942.62,639.8c4.08,0,7.39-3.31,7.39-7.39s-3.31-7.39-7.39-7.39-7.39,3.31-7.39,7.39,3.31,7.39,7.39,7.39"/><path class="cls-15" d="M942.62,639.8c4.08,0,7.39-3.31,7.39-7.39s-3.31-7.39-7.39-7.39-7.39,3.31-7.39,7.39,3.31,7.39,7.39,7.39Z"/><path class="cls-28" d="M946.56,628.65c-1.9,0-2.85,1.55-2.85,3.45v3.07c0,.21.17.38.38.38h1.15v2.69c0,.63.52,1.15,1.15,1.15s.55-.52.55-1.15v-9.2c0-.21-.17-.38-.38-.38"/><path class="cls-28" d="M942.24,628.65c-.21,0-.38.17-.38.38v2.68c0,.21-.17.38-.38.38h-.38c-.21,0-.38-.17-.38-.38v-2.68c0-.21-.17-.38-.38-.38s-.38.17-.38.38v2.68c0,.21-.17.38-.38.38h-.38c-.21,0-.38-.17-.38-.38v-2.68c0-.21-.17-.38-.38-.38s-.38.17-.38.38v3.45c0,.71.49,1.32,1.15,1.49v4.22c0,.56.38,1.07.92,1.17.73.14,1.38-.42,1.38-1.13v-4.27c.66-.17,1.15-.77,1.15-1.49v-3.45c0-.21-.17-.38-.38-.38"/><path class="cls-30" d="M935.21,602.7c4.08,0,7.39-3.31,7.39-7.39s-3.31-7.39-7.39-7.39-7.39,3.31-7.39,7.39,3.31,7.39,7.39,7.39"/><path class="cls-15" d="M935.21,602.7c4.08,0,7.39-3.31,7.39-7.39s-3.31-7.39-7.39-7.39-7.39,3.31-7.39,7.39,3.31,7.39,7.39,7.39Z"/><path class="cls-28" d="M939.15,591.55c-1.9,0-2.85,1.55-2.85,3.45v3.07c0,.21.17.38.38.38h1.15v2.69c0,.63.52,1.15,1.15,1.15s.55-.52.55-1.15v-9.2c0-.21-.17-.38-.38-.38"/><path class="cls-28" d="M934.83,591.55c-.21,0-.38.17-.38.38v2.68c0,.21-.17.38-.38.38h-.38c-.21,0-.38-.17-.38-.38v-2.68c0-.21-.17-.38-.38-.38s-.38.17-.38.38v2.68c0,.21-.17.38-.38.38h-.38c-.21,0-.38-.17-.38-.38v-2.68c0-.21-.17-.38-.38-.38s-.38.17-.38.38v3.45c0,.71.49,1.32,1.15,1.49v4.22c0,.56.38,1.07.92,1.17.73.14,1.38-.42,1.38-1.13v-4.27c.66-.17,1.15-.77,1.15-1.49v-3.45c0-.21-.17-.38-.38-.38"/><path class="cls-30" d="M936.48,569.57c4.08,0,7.39-3.31,7.39-7.39s-3.31-7.39-7.39-7.39-7.39,3.31-7.39,7.39,3.31,7.39,7.39,7.39"/><path class="cls-15" d="M936.48,569.57c4.08,0,7.39-3.31,7.39-7.39s-3.31-7.39-7.39-7.39-7.39,3.31-7.39,7.39,3.31,7.39,7.39,7.39Z"/><path class="cls-28" d="M940.41,558.42c-1.9,0-2.85,1.55-2.85,3.45v3.07c0,.21.17.38.38.38h1.15v2.69c0,.63.52,1.15,1.15,1.15s.55-.52.55-1.15v-9.2c0-.21-.17-.38-.38-.38"/><path class="cls-28" d="M936.09,558.42c-.21,0-.38.17-.38.38v2.68c0,.21-.17.38-.38.38h-.38c-.21,0-.38-.17-.38-.38v-2.68c0-.21-.17-.38-.38-.38s-.38.17-.38.38v2.68c0,.21-.17.38-.38.38h-.38c-.21,0-.38-.17-.38-.38v-2.68c0-.21-.17-.38-.38-.38s-.38.17-.38.38v3.45c0,.71.49,1.32,1.15,1.49v4.22c0,.56.38,1.07.92,1.17.73.14,1.38-.42,1.38-1.13v-4.27c.66-.17,1.15-.77,1.15-1.49v-3.45c0-.21-.17-.38-.38-.38"/><path class="cls-30" d="M942.62,539.88c4.08,0,7.39-3.31,7.39-7.39s-3.31-7.39-7.39-7.39-7.39,3.31-7.39,7.39,3.31,7.39,7.39,7.39"/><path class="cls-15" d="M942.62,539.88c4.08,0,7.39-3.31,7.39-7.39s-3.31-7.39-7.39-7.39-7.39,3.31-7.39,7.39,3.31,7.39,7.39,7.39Z"/><path class="cls-28" d="M946.56,528.72c-1.9,0-2.85,1.55-2.85,3.45v3.07c0,.21.17.38.38.38h1.15v2.69c0,.63.52,1.15,1.15,1.15s.55-.52.55-1.15v-9.2c0-.21-.17-.38-.38-.38"/><path class="cls-28" d="M942.24,528.72c-.21,0-.38.17-.38.38v2.68c0,.21-.17.38-.38.38h-.38c-.21,0-.38-.17-.38-.38v-2.68c0-.21-.17-.38-.38-.38s-.38.17-.38.38v2.68c0,.21-.17.38-.38.38h-.38c-.21,0-.38-.17-.38-.38v-2.68c0-.21-.17-.38-.38-.38s-.38.17-.38.38v3.45c0,.71.49,1.32,1.15,1.49v4.22c0,.56.38,1.07.92,1.17.73.14,1.38-.42,1.38-1.13v-4.27c.66-.17,1.15-.77,1.15-1.49v-3.45c0-.21-.17-.38-.38-.38"/><path class="cls-30" d="M834.14,920.07c4.08,0,7.39-3.31,7.39-7.39s-3.31-7.39-7.39-7.39-7.39,3.31-7.39,7.39,3.31,7.39,7.39,7.39"/><path class="cls-15" d="M834.14,920.07c4.08,0,7.39-3.31,7.39-7.39s-3.31-7.39-7.39-7.39-7.39,3.31-7.39,7.39,3.31,7.39,7.39,7.39Z"/><path class="cls-28" d="M838.07,908.92c-1.9,0-2.85,1.55-2.85,3.45v3.07c0,.21.17.38.38.38h1.15v2.69c0,.63.52,1.15,1.15,1.15s.55-.52.55-1.15v-9.2c0-.21-.17-.38-.38-.38"/><path class="cls-28" d="M833.76,908.92c-.21,0-.38.17-.38.38v2.68c0,.21-.17.38-.38.38h-.38c-.21,0-.38-.17-.38-.38v-2.68c0-.21-.17-.38-.38-.38s-.38.17-.38.38v2.68c0,.21-.17.38-.38.38h-.38c-.21,0-.38-.17-.38-.38v-2.68c0-.21-.17-.38-.38-.38s-.38.17-.38.38v3.45c0,.71.49,1.32,1.15,1.49v4.22c0,.56.38,1.07.92,1.17.73.14,1.38-.42,1.38-1.13v-4.27c.66-.17,1.15-.77,1.15-1.49v-3.45c0-.21-.17-.38-.38-.38"/><path class="cls-30" d="M779.14,881.07c4.08,0,7.39-3.31,7.39-7.39s-3.31-7.39-7.39-7.39-7.39,3.31-7.39,7.39,3.31,7.39,7.39,7.39"/><path class="cls-15" d="M779.14,881.07c4.08,0,7.39-3.31,7.39-7.39s-3.31-7.39-7.39-7.39-7.39,3.31-7.39,7.39,3.31,7.39,7.39,7.39Z"/><path class="cls-28" d="M783.07,869.92c-1.9,0-2.85,1.55-2.85,3.45v3.07c0,.21.17.38.38.38h1.15v2.69c0,.63.52,1.15,1.15,1.15s.55-.52.55-1.15v-9.2c0-.21-.17-.38-.38-.38"/><path class="cls-28" d="M778.76,869.92c-.21,0-.38.17-.38.38v2.68c0,.21-.17.38-.38.38h-.38c-.21,0-.38-.17-.38-.38v-2.68c0-.21-.17-.38-.38-.38s-.38.17-.38.38v2.68c0,.21-.17.38-.38.38h-.38c-.21,0-.38-.17-.38-.38v-2.68c0-.21-.17-.38-.38-.38s-.38.17-.38.38v3.45c0,.71.49,1.32,1.15,1.49v4.22c0,.56.38,1.07.92,1.17.73.14,1.38-.42,1.38-1.13v-4.27c.66-.17,1.15-.77,1.15-1.49v-3.45c0-.21-.17-.38-.38-.38"/><path class="cls-30" d="M643.14,957.07c4.08,0,7.39-3.31,7.39-7.39s-3.31-7.39-7.39-7.39-7.39,3.31-7.39,7.39,3.31,7.39,7.39,7.39"/><path class="cls-15" d="M643.14,957.07c4.08,0,7.39-3.31,7.39-7.39s-3.31-7.39-7.39-7.39-7.39,3.31-7.39,7.39,3.31,7.39,7.39,7.39Z"/><path class="cls-28" d="M647.07,945.92c-1.9,0-2.85,1.55-2.85,3.45v3.07c0,.21.17.38.38.38h1.15v2.69c0,.63.52,1.15,1.15,1.15s.55-.52.55-1.15v-9.2c0-.21-.17-.38-.38-.38"/><path class="cls-28" d="M642.76,945.92c-.21,0-.38.17-.38.38v2.68c0,.21-.17.38-.38.38h-.38c-.21,0-.38-.17-.38-.38v-2.68c0-.21-.17-.38-.38-.38s-.38.17-.38.38v2.68c0,.21-.17.38-.38.38h-.38c-.21,0-.38-.17-.38-.38v-2.68c0-.21-.17-.38-.38-.38s-.38.17-.38.38v3.45c0,.71.49,1.32,1.15,1.49v4.22c0,.56.38,1.07.92,1.17.73.14,1.38-.42,1.38-1.13v-4.27c.66-.17,1.15-.77,1.15-1.49v-3.45c0-.21-.17-.38-.38-.38"/><path class="cls-30" d="M956.14,455.07c4.08,0,7.39-3.31,7.39-7.39s-3.31-7.39-7.39-7.39-7.39,3.31-7.39,7.39,3.31,7.39,7.39,7.39"/><path class="cls-15" d="M956.14,455.07c4.08,0,7.39-3.31,7.39-7.39s-3.31-7.39-7.39-7.39-7.39,3.31-7.39,7.39,3.31,7.39,7.39,7.39Z"/><path class="cls-28" d="M960.07,443.92c-1.9,0-2.85,1.55-2.85,3.45v3.07c0,.21.17.38.38.38h1.15v2.69c0,.63.52,1.15,1.15,1.15s.55-.52.55-1.15v-9.2c0-.21-.17-.38-.38-.38"/><path class="cls-28" d="M955.76,443.92c-.21,0-.38.17-.38.38v2.68c0,.21-.17.38-.38.38h-.38c-.21,0-.38-.17-.38-.38v-2.68c0-.21-.17-.38-.38-.38s-.38.17-.38.38v2.68c0,.21-.17.38-.38.38h-.38c-.21,0-.38-.17-.38-.38v-2.68c0-.21-.17-.38-.38-.38s-.38.17-.38.38v3.45c0,.71.49,1.32,1.15,1.49v4.22c0,.56.38,1.07.92,1.17.73.14,1.38-.42,1.38-1.13v-4.27c.66-.17,1.15-.77,1.15-1.49v-3.45c0-.21-.17-.38-.38-.38"/></g><g id="First_Aid"><path class="cls-30" d="M1051.48,253.44c5.44,0,9.85-4.41,9.85-9.85s-4.41-9.85-9.85-9.85-9.85,4.41-9.85,9.85,4.41,9.85,9.85,9.85"/><path class="cls-4" d="M1051.48,253.44c5.44,0,9.85-4.41,9.85-9.85s-4.41-9.85-9.85-9.85-9.85,4.41-9.85,9.85,4.41,9.85,9.85,9.85Z"/><rect class="cls-33" x="1044.92" y="241.62" width="13.12" height="3.94"/><rect class="cls-33" x="1049.51" y="237.03" width="3.94" height="13.12"/><path class="cls-30" d="M694.07,828.96c5.44,0,9.85-4.41,9.85-9.85s-4.41-9.85-9.85-9.85-9.85,4.41-9.85,9.85,4.41,9.85,9.85,9.85"/><path class="cls-4" d="M694.07,828.96c5.44,0,9.85-4.41,9.85-9.85s-4.41-9.85-9.85-9.85-9.85,4.41-9.85,9.85,4.41,9.85,9.85,9.85Z"/><rect class="cls-33" x="687.51" y="817.14" width="13.12" height="3.94"/><rect class="cls-33" x="692.11" y="812.55" width="3.94" height="13.12"/><path class="cls-30" d="M1288.78,807.33c5.44,0,9.85-4.41,9.85-9.85s-4.41-9.85-9.85-9.85-9.85,4.41-9.85,9.85,4.41,9.85,9.85,9.85"/><path class="cls-4" d="M1288.78,807.33c5.44,0,9.85-4.41,9.85-9.85s-4.41-9.85-9.85-9.85-9.85,4.41-9.85,9.85,4.41,9.85,9.85,9.85Z"/><rect class="cls-33" x="1282.22" y="795.51" width="13.12" height="3.94"/><rect class="cls-33" x="1286.81" y="790.91" width="3.94" height="13.12"/><path class="cls-30" d="M986.39,981.94c6.8,0,12.31-5.51,12.31-12.31s-5.51-12.31-12.31-12.31-12.31,5.51-12.31,12.31,5.51,12.31,12.31,12.31"/><circle class="cls-13" cx="986.39" cy="969.62" r="12.31"/><rect class="cls-33" x="978.18" y="967.16" width="16.41" height="4.92"/><rect class="cls-33" x="983.93" y="961.42" width="4.92" height="16.41"/></g><g id="Tent_Camping"><path class="cls-30" d="M1580.34,555.32c6.8,0,12.31-5.51,12.31-12.31s-5.51-12.31-12.31-12.31-12.31,5.51-12.31,12.31,5.51,12.31,12.31,12.31"/><circle class="cls-11" cx="1580.34" cy="543.01" r="12.31"/><polyline class="cls-34" points="1588.58 545.91 1584.85 537.05 1581.43 544.23 1579.27 548.95 1583.12 548.13 1584.76 542.3 1585.98 547.52 1588.99 546.88"/><polygon class="cls-34" points="1583.53 537.05 1574.15 539.82 1571.73 546.64 1578.15 548.48 1583.53 537.05"/><path class="cls-30" d="M441.12,1270.15c6.8,0,12.31-5.51,12.31-12.31s-5.51-12.31-12.31-12.31-12.31,5.51-12.31,12.31,5.51,12.31,12.31,12.31"/><circle class="cls-11" cx="441.12" cy="1257.83" r="12.31"/><polyline class="cls-34" points="449.36 1260.73 445.62 1251.87 442.2 1259.05 440.05 1263.78 443.89 1262.95 445.53 1257.13 446.75 1262.34 449.76 1261.7"/><polygon class="cls-34" points="444.31 1251.87 434.93 1254.64 432.51 1261.46 438.92 1263.3 444.31 1251.87"/><path class="cls-30" d="M653.43,1196.1c6.8,0,12.31-5.51,12.31-12.31s-5.51-12.31-12.31-12.31-12.31,5.51-12.31,12.31,5.51,12.31,12.31,12.31"/><circle class="cls-11" cx="653.43" cy="1183.78" r="12.31"/><polyline class="cls-34" points="661.66 1186.68 657.93 1177.82 654.51 1185 652.36 1189.73 656.2 1188.9 657.84 1183.08 659.06 1188.29 662.07 1187.65"/><polygon class="cls-34" points="656.61 1177.82 647.23 1180.59 644.82 1187.41 651.23 1189.25 656.61 1177.82"/><path class="cls-30" d="M704.19,1124.28c6.8,0,12.31-5.51,12.31-12.31s-5.51-12.31-12.31-12.31-12.31,5.51-12.31,12.31,5.51,12.31,12.31,12.31"/><circle class="cls-11" cx="704.19" cy="1111.96" r="12.31"/><polyline class="cls-34" points="712.42 1114.86 708.69 1106 705.27 1113.18 703.12 1117.91 706.96 1117.08 708.6 1111.26 709.82 1116.47 712.83 1115.83"/><polygon class="cls-34" points="707.37 1106 697.99 1108.77 695.58 1115.59 701.99 1117.43 707.37 1106"/><path class="cls-30" d="M266.78,1073.43c6.8,0,12.31-5.51,12.31-12.31s-5.51-12.31-12.31-12.31-12.31,5.51-12.31,12.31,5.51,12.31,12.31,12.31"/><circle class="cls-11" cx="266.78" cy="1061.11" r="12.31"/><polyline class="cls-34" points="275.01 1064.01 271.28 1055.15 267.86 1062.33 265.71 1067.06 269.55 1066.23 271.19 1060.41 272.41 1065.62 275.42 1064.98"/><polygon class="cls-34" points="269.96 1055.15 260.58 1057.92 258.17 1064.74 264.58 1066.58 269.96 1055.15"/><path class="cls-30" d="M359.72,855.78c6.8,0,12.31-5.51,12.31-12.31s-5.51-12.31-12.31-12.31-12.31,5.51-12.31,12.31,5.51,12.31,12.31,12.31"/><circle class="cls-11" cx="359.72" cy="843.46" r="12.31"/><polyline class="cls-34" points="367.96 846.36 364.22 837.51 360.81 844.68 358.65 849.41 362.49 848.59 364.13 842.76 365.36 847.97 368.37 847.33"/><polygon class="cls-34" points="362.91 837.51 353.53 840.27 351.11 847.09 357.53 848.93 362.91 837.51"/></g><g id="Restrooms"><path class="cls-30" d="M441.09,730.29c5.44,0,9.85-4.41,9.85-9.85s-4.41-9.85-9.85-9.85-9.85,4.41-9.85,9.85,4.41,9.85,9.85,9.85"/><path class="cls-3" d="M441.09,730.29c5.44,0,9.85-4.41,9.85-9.85s-4.41-9.85-9.85-9.85-9.85,4.41-9.85,9.85,4.41,9.85,9.85,9.85Z"/><text class="cls-16" transform="translate(434.91 725.78)"><tspan x="0" y="0">R</tspan></text><path class="cls-30" d="M347.32,1176.58c5.44,0,9.85-4.41,9.85-9.85s-4.41-9.85-9.85-9.85-9.85,4.41-9.85,9.85,4.41,9.85,9.85,9.85"/><path class="cls-3" d="M347.32,1176.58c5.44,0,9.85-4.41,9.85-9.85s-4.41-9.85-9.85-9.85-9.85,4.41-9.85,9.85,4.41,9.85,9.85,9.85Z"/><text class="cls-16" transform="translate(341.14 1172.07)"><tspan x="0" y="0">R</tspan></text><path class="cls-30" d="M577.21,1179.42c5.44,0,9.85-4.41,9.85-9.85s-4.41-9.85-9.85-9.85-9.85,4.41-9.85,9.85,4.41,9.85,9.85,9.85"/><path class="cls-3" d="M577.21,1179.42c5.44,0,9.85-4.41,9.85-9.85s-4.41-9.85-9.85-9.85-9.85,4.41-9.85,9.85,4.41,9.85,9.85,9.85Z"/><text class="cls-16" transform="translate(571.03 1174.9)"><tspan x="0" y="0">R</tspan></text><path class="cls-30" d="M662.37,824.73c5.44,0,9.85-4.41,9.85-9.85s-4.41-9.85-9.85-9.85-9.85,4.41-9.85,9.85,4.41,9.85,9.85,9.85"/><path class="cls-3" d="M662.37,824.73c5.44,0,9.85-4.41,9.85-9.85s-4.41-9.85-9.85-9.85-9.85,4.41-9.85,9.85,4.41,9.85,9.85,9.85Z"/><text class="cls-16" transform="translate(656.19 820.22)"><tspan x="0" y="0">R</tspan></text><path class="cls-30" d="M588.28,934.57c5.44,0,9.85-4.41,9.85-9.85s-4.41-9.85-9.85-9.85-9.85,4.41-9.85,9.85,4.41,9.85,9.85,9.85"/><path class="cls-3" d="M588.28,934.57c5.44,0,9.85-4.41,9.85-9.85s-4.41-9.85-9.85-9.85-9.85,4.41-9.85,9.85,4.41,9.85,9.85,9.85Z"/><text class="cls-16" transform="translate(582.1 930.05)"><tspan x="0" y="0">R</tspan></text><path class="cls-30" d="M1498.29,582.75c5.44,0,9.85-4.41,9.85-9.85s-4.41-9.85-9.85-9.85-9.85,4.41-9.85,9.85,4.41,9.85,9.85,9.85"/><path class="cls-3" d="M1498.29,582.75c5.44,0,9.85-4.41,9.85-9.85s-4.41-9.85-9.85-9.85-9.85,4.41-9.85,9.85,4.41,9.85,9.85,9.85Z"/><text class="cls-16" transform="translate(1492.11 578.24)"><tspan x="0" y="0">R</tspan></text><path class="cls-30" d="M803.6,683.56c5.44,0,9.85-4.41,9.85-9.85s-4.41-9.85-9.85-9.85-9.85,4.41-9.85,9.85,4.41,9.85,9.85,9.85"/><path class="cls-3" d="M803.6,683.56c5.44,0,9.85-4.41,9.85-9.85s-4.41-9.85-9.85-9.85-9.85,4.41-9.85,9.85,4.41,9.85,9.85,9.85Z"/><text class="cls-16" transform="translate(797.42 679.04)"><tspan x="0" y="0">R</tspan></text><path class="cls-30" d="M859.95,785.23c5.44,0,9.85-4.41,9.85-9.85s-4.41-9.85-9.85-9.85-9.85,4.41-9.85,9.85,4.41,9.85,9.85,9.85"/><path class="cls-3" d="M859.95,785.23c5.44,0,9.85-4.41,9.85-9.85s-4.41-9.85-9.85-9.85-9.85,4.41-9.85,9.85,4.41,9.85,9.85,9.85Z"/><text class="cls-16" transform="translate(853.76 780.71)"><tspan x="0" y="0">R</tspan></text><path class="cls-30" d="M1214.25,720.96c5.44,0,9.85-4.41,9.85-9.85s-4.41-9.85-9.85-9.85-9.85,4.41-9.85,9.85,4.41,9.85,9.85,9.85"/><path class="cls-3" d="M1214.25,720.96c5.44,0,9.85-4.41,9.85-9.85s-4.41-9.85-9.85-9.85-9.85,4.41-9.85,9.85,4.41,9.85,9.85,9.85Z"/><text class="cls-16" transform="translate(1208.07 716.44)"><tspan x="0" y="0">R</tspan></text><path class="cls-30" d="M954.9,501.67c4.9,0,8.86-3.97,8.86-8.86s-3.97-8.86-8.86-8.86-8.86,3.97-8.86,8.86,3.97,8.86,8.86,8.86"/><path class="cls-7" d="M954.9,501.67c4.9,0,8.86-3.97,8.86-8.86s-3.97-8.86-8.86-8.86-8.86,3.97-8.86,8.86,3.97,8.86,8.86,8.86Z"/><text class="cls-21" transform="translate(949.34 497.61)"><tspan x="0" y="0">R</tspan></text></g><g id="Water_Station"><path class="cls-30" d="M1063.79,739.18c5.44,0,9.85-4.41,9.85-9.85s-4.41-9.85-9.85-9.85-9.85,4.41-9.85,9.85,4.41,9.85,9.85,9.85"/><path class="cls-6" d="M1063.79,739.18c5.44,0,9.85-4.41,9.85-9.85s-4.41-9.85-9.85-9.85-9.85,4.41-9.85,9.85,4.41,9.85,9.85,9.85Z"/><text class="cls-19" transform="translate(1056.42 734.64)"><tspan x="0" y="0">W</tspan></text><path class="cls-30" d="M793.75,910.83c5.44,0,9.85-4.41,9.85-9.85s-4.41-9.85-9.85-9.85-9.85,4.41-9.85,9.85,4.41,9.85,9.85,9.85"/><path class="cls-6" d="M793.75,910.83c5.44,0,9.85-4.41,9.85-9.85s-4.41-9.85-9.85-9.85-9.85,4.41-9.85,9.85,4.41,9.85,9.85,9.85Z"/><text class="cls-19" transform="translate(786.37 906.29)"><tspan x="0" y="0">W</tspan></text><path class="cls-30" d="M1388.18,842.26c5.44,0,9.85-4.41,9.85-9.85s-4.41-9.85-9.85-9.85-9.85,4.41-9.85,9.85,4.41,9.85,9.85,9.85"/><path class="cls-6" d="M1388.18,842.26c5.44,0,9.85-4.41,9.85-9.85s-4.41-9.85-9.85-9.85-9.85,4.41-9.85,9.85,4.41,9.85,9.85,9.85Z"/><text class="cls-19" transform="translate(1380.8 837.71)"><tspan x="0" y="0">W</tspan></text><path class="cls-30" d="M1340.52,922.14c5.44,0,9.85-4.41,9.85-9.85s-4.41-9.85-9.85-9.85-9.85,4.41-9.85,9.85,4.41,9.85,9.85,9.85"/><path class="cls-6" d="M1340.52,922.14c5.44,0,9.85-4.41,9.85-9.85s-4.41-9.85-9.85-9.85-9.85,4.41-9.85,9.85,4.41,9.85,9.85,9.85Z"/><text class="cls-19" transform="translate(1333.14 917.59)"><tspan x="0" y="0">W</tspan></text><path class="cls-30" d="M1278.09,765.99c5.44,0,9.85-4.41,9.85-9.85s-4.41-9.85-9.85-9.85-9.85,4.41-9.85,9.85,4.41,9.85,9.85,9.85"/><path class="cls-6" d="M1278.09,765.99c5.44,0,9.85-4.41,9.85-9.85s-4.41-9.85-9.85-9.85-9.85,4.41-9.85,9.85,4.41,9.85,9.85,9.85Z"/><text class="cls-19" transform="translate(1270.72 761.45)"><tspan x="0" y="0">W</tspan></text><path class="cls-30" d="M730.37,785.53c4.08,0,7.39-3.31,7.39-7.39s-3.31-7.39-7.39-7.39-7.39,3.31-7.39,7.39,3.31,7.39,7.39,7.39"/><path class="cls-10" d="M730.37,785.53c4.08,0,7.39-3.31,7.39-7.39s-3.31-7.39-7.39-7.39-7.39,3.31-7.39,7.39,3.31,7.39,7.39,7.39Z"/><text class="cls-20" transform="translate(724.83 782.12)"><tspan x="0" y="0">W</tspan></text><path class="cls-30" d="M1173.49,858.27c5.44,0,9.85-4.41,9.85-9.85s-4.41-9.85-9.85-9.85-9.85,4.41-9.85,9.85,4.41,9.85,9.85,9.85"/><path class="cls-6" d="M1173.49,858.27c5.44,0,9.85-4.41,9.85-9.85s-4.41-9.85-9.85-9.85-9.85,4.41-9.85,9.85,4.41,9.85,9.85,9.85Z"/><text class="cls-19" transform="translate(1166.11 853.72)"><tspan x="0" y="0">W</tspan></text><path class="cls-30" d="M1032.31,887.08c5.44,0,9.85-4.41,9.85-9.85s-4.41-9.85-9.85-9.85-9.85,4.41-9.85,9.85,4.41,9.85,9.85,9.85"/><path class="cls-6" d="M1032.31,887.08c5.44,0,9.85-4.41,9.85-9.85s-4.41-9.85-9.85-9.85-9.85,4.41-9.85,9.85,4.41,9.85,9.85,9.85Z"/><text class="cls-19" transform="translate(1024.93 882.54)"><tspan x="0" y="0">W</tspan></text><path class="cls-30" d="M1050.41,807.28c5.44,0,9.85-4.41,9.85-9.85s-4.41-9.85-9.85-9.85-9.85,4.41-9.85,9.85,4.41,9.85,9.85,9.85"/><path class="cls-6" d="M1050.41,807.28c5.44,0,9.85-4.41,9.85-9.85s-4.41-9.85-9.85-9.85-9.85,4.41-9.85,9.85,4.41,9.85,9.85,9.85Z"/><text class="cls-19" transform="translate(1043.03 802.73)"><tspan x="0" y="0">W</tspan></text></g><g id="RV_Parking"><g class="cls-27"><path class="cls-30" d="M1524.16,728.76c6.8,0,12.31-5.51,12.31-12.31s-5.51-12.31-12.31-12.31-12.31,5.51-12.31,12.31,5.51,12.31,12.31,12.31"/><circle class="cls-14" cx="1524.16" cy="716.45" r="12.31"/></g><g class="cls-35"><path class="cls-31" d="M1520.51,713.26c0,.32-.26.57-.57.57h-2.98c-.32,0-.57-.26-.57-.57v-1.35c0-.32.26-.57.57-.57h2.98c.32,0,.57.26.57.57v1.35ZM1510.87,713.83c-.32,0-.57-.26-.57-.57v-1.35c0-.32.26-.57.57-.57h2.98M1522.59,721.4v-9.49c0-.32.26-.57.57-.57h5.48c.32,0,.57.26.57.57v9.49h7.65v1.5h-.27v.67h1.36v-.67h-.27v-2.96h.27v-.67h-1.36v.67h.27v.65h-3.61c.4-.51.63-1.33.63-2.65,0-2.41-1.86-5.69-3.66-7.49-.97-.96-1.91-.97-3.1-.97h-18.74v11.92h1.75c0-1.75,1.42-3.17,3.17-3.17h4.33c1.75,0,3.17,1.42,3.17,3.17h1.79Z"/><path class="cls-31" d="M1524.86,713.54h2.08v1.26h-2.08v-1.26ZM1528.22,721.4v-9.07h-4.63v9.07h4.63Z"/><path class="cls-31" d="M1515.56,722.12c.3.84,1.1,1.45,2.04,1.45,1.2,0,2.17-.97,2.17-2.17s-.97-2.17-2.17-2.17c-.94,0-1.74.6-2.04,1.45-.26.58,0,1.44,0,1.44M1517.6,722.23c-.46,0-.83-.37-.83-.83s.37-.83.83-.83.83.37.83.83-.37.83-.83.83M1513.52,722.23c-.46,0-.83-.37-.83-.83s.37-.83.83-.83.83.37.83.83-.37.83-.83.83"/></g><g class="cls-38"><path class="cls-30" d="M1580.39,728.57c6.8,0,12.31-5.51,12.31-12.31s-5.51-12.31-12.31-12.31-12.31,5.51-12.31,12.31,5.51,12.31,12.31,12.31"/><circle class="cls-14" cx="1580.39" cy="716.26" r="12.31"/></g><g class="cls-37"><path class="cls-31" d="M1576.74,713.07c0,.32-.26.57-.57.57h-2.98c-.32,0-.57-.26-.57-.57v-1.35c0-.32.26-.57.57-.57h2.98c.32,0,.57.26.57.57v1.35ZM1567.1,713.65c-.32,0-.57-.26-.57-.57v-1.35c0-.32.26-.57.57-.57h2.98M1578.83,721.21v-9.49c0-.32.26-.57.57-.57h5.48c.32,0,.57.26.57.57v9.49h7.65v1.5h-.27v.67h1.36v-.67h-.27v-2.96h.27v-.67h-1.36v.67h.27v.65h-3.61c.4-.51.63-1.33.63-2.65,0-2.41-1.86-5.69-3.66-7.49-.97-.96-1.91-.97-3.1-.97h-18.74v11.92h1.75c0-1.75,1.42-3.17,3.17-3.17h4.33c1.75,0,3.17,1.42,3.17,3.17h1.79Z"/><path class="cls-31" d="M1581.1,713.35h2.08v1.26h-2.08v-1.26ZM1584.46,721.21v-9.07h-4.63v9.07h4.63Z"/><path class="cls-31" d="M1571.8,721.93c.3.84,1.1,1.45,2.04,1.45,1.2,0,2.17-.97,2.17-2.17s-.97-2.17-2.17-2.17c-.94,0-1.74.6-2.04,1.45-.26.58,0,1.44,0,1.44M1573.84,722.04c-.46,0-.83-.37-.83-.83s.37-.83.83-.83.83.37.83.83-.37.83-.83.83M1569.76,722.04c-.46,0-.83-.37-.83-.83s.37-.83.83-.83.83.37.83.83-.37.83-.83.83"/></g><g class="cls-36"><path class="cls-30" d="M450.93,1073.43c6.8,0,12.31-5.51,12.31-12.31s-5.51-12.31-12.31-12.31-12.31,5.51-12.31,12.31,5.51,12.31,12.31,12.31"/><circle class="cls-14" cx="450.93" cy="1061.11" r="12.31"/></g><g class="cls-41"><path class="cls-31" d="M447.29,1057.93c0,.32-.26.57-.57.57h-2.98c-.32,0-.57-.26-.57-.57v-1.35c0-.32.26-.57.57-.57h2.98c.32,0,.57.26.57.57v1.35ZM437.65,1058.5c-.32,0-.57-.26-.57-.57v-1.35c0-.32.26-.57.57-.57h2.98M449.37,1066.07v-9.49c0-.32.26-.57.57-.57h5.48c.32,0,.57.26.57.57v9.49h7.65v1.5h-.27v.67h1.36v-.67h-.27v-2.96h.27v-.67h-1.36v.67h.27v.65h-3.61c.4-.51.63-1.33.63-2.65,0-2.41-1.86-5.69-3.66-7.49-.96-.96-1.91-.97-3.1-.97h-18.74v11.92h1.75c0-1.75,1.42-3.17,3.17-3.17h4.33c1.75,0,3.17,1.42,3.17,3.17h1.79Z"/><path class="cls-31" d="M451.64,1058.21h2.08v1.26h-2.08v-1.26ZM455,1066.07v-9.07h-4.63v9.07h4.63Z"/><path class="cls-31" d="M442.34,1066.79c.3.84,1.1,1.45,2.04,1.45,1.2,0,2.17-.97,2.17-2.17s-.97-2.17-2.17-2.17c-.94,0-1.74.61-2.04,1.45-.26.58,0,1.44,0,1.44M444.38,1066.9c-.46,0-.83-.37-.83-.83s.37-.83.83-.83.83.37.83.83-.37.83-.83.83M440.3,1066.9c-.46,0-.83-.37-.83-.83s.37-.83.83-.83.83.37.83.83-.37.83-.83.83"/></g><g class="cls-40"><path class="cls-30" d="M519.75,761.55c6.8,0,12.31-5.51,12.31-12.31s-5.51-12.31-12.31-12.31-12.31,5.51-12.31,12.31,5.51,12.31,12.31,12.31"/><circle class="cls-14" cx="519.75" cy="749.24" r="12.31"/></g><g class="cls-39"><path class="cls-31" d="M516.1,746.05c0,.32-.26.57-.57.57h-2.98c-.32,0-.57-.26-.57-.57v-1.35c0-.32.26-.57.57-.57h2.98c.32,0,.57.26.57.57v1.35ZM506.46,746.63c-.32,0-.57-.26-.57-.57v-1.35c0-.32.26-.57.57-.57h2.98M518.18,754.19v-9.49c0-.32.26-.57.57-.57h5.48c.32,0,.57.26.57.57v9.49h7.65v1.5h-.27v.67h1.35v-.67h-.27v-2.96h.27v-.67h-1.35v.67h.27v.65h-3.61c.4-.51.63-1.33.63-2.65,0-2.41-1.86-5.69-3.66-7.49-.96-.96-1.91-.97-3.1-.97h-18.74v11.92h1.75c0-1.75,1.42-3.17,3.17-3.17h4.33c1.75,0,3.17,1.42,3.17,3.17h1.79Z"/><path class="cls-31" d="M520.46,746.33h2.08v1.26h-2.08v-1.26ZM523.81,754.19v-9.07h-4.63v9.07h4.63Z"/><path class="cls-31" d="M511.15,754.91c.3.84,1.1,1.45,2.04,1.45,1.2,0,2.17-.97,2.17-2.17s-.97-2.17-2.17-2.17c-.94,0-1.74.6-2.04,1.45-.26.58,0,1.44,0,1.44M513.2,755.03c-.46,0-.83-.37-.83-.83s.37-.83.83-.83.83.37.83.83-.37.83-.83.83M509.11,755.03c-.46,0-.83-.37-.83-.83s.37-.83.83-.83.83.37.83.83-.37.83-.83.83"/></g></g><g id="Elder_Ride"><rect class="cls-42" x="1521.29" y="563.6" width="25.19" height="19.75"/><text class="cls-18" transform="translate(1523.58 579.16)"><tspan x="0" y="0">E8</tspan></text><rect class="cls-43" x="991.56" y="797.32" width="22.67" height="17.78"/><text class="cls-17" transform="translate(993.62 811.33)"><tspan x="0" y="0">E7</tspan></text><rect class="cls-43" x="944.57" y="461.91" width="22.67" height="17.78"/><text class="cls-17" transform="translate(946.63 475.92)"><tspan x="0" y="0">E6</tspan></text><rect class="cls-43" x="309.62" y="1038.47" width="22.67" height="17.78"/><text class="cls-17" transform="translate(311.69 1052.48)"><tspan x="0" y="0">E5</tspan></text><rect class="cls-43" x="316.34" y="1178" width="22.67" height="17.78"/><text class="cls-17" transform="translate(318.4 1192.01)"><tspan x="0" y="0">E4</tspan></text><rect class="cls-43" x="454.57" y="1214.79" width="22.67" height="17.78"/><text class="cls-17" transform="translate(456.64 1228.8)"><tspan x="0" y="0">E3</tspan></text><rect class="cls-43" x="580.88" y="1068.84" width="22.67" height="17.78"/><text class="cls-17" transform="translate(582.94 1082.85)"><tspan x="0" y="0">E2</tspan></text><rect class="cls-43" x="662.68" y="1102.52" width="22.67" height="17.78"/><text class="cls-17" transform="translate(664.74 1116.53)"><tspan x="0" y="0">E1</tspan></text></g><g id="Tent_and_RV_Check_In"><path class="cls-30" d="M106.88,1348.67c6.8,0,12.31-5.51,12.31-12.31s-5.51-12.31-12.31-12.31-12.31,5.51-12.31,12.31,5.51,12.31,12.31,12.31"/><circle class="cls-14" cx="106.88" cy="1336.36" r="12.31"/><polygon class="cls-31" points="106.88 1341.37 113.44 1345.44 111.59 1337.95 117.48 1332.98 109.79 1332.42 106.88 1325.28 103.97 1332.42 96.28 1332.98 102.18 1337.95 100.33 1345.44 106.88 1341.37"/><path class="cls-30" d="M261.07,892.73c6.8,0,12.31-5.51,12.31-12.31s-5.51-12.31-12.31-12.31-12.31,5.51-12.31,12.31,5.51,12.31,12.31,12.31"/><circle class="cls-14" cx="261.07" cy="880.42" r="12.31"/><polygon class="cls-31" points="261.07 885.43 267.62 889.5 265.78 882.01 271.67 877.04 263.98 876.48 261.07 869.34 258.16 876.48 250.47 877.04 256.36 882.01 254.52 889.5 261.07 885.43"/><path class="cls-30" d="M1508,821.88c6.12,0,11.08-4.96,11.08-11.08s-4.96-11.08-11.08-11.08-11.08,4.96-11.08,11.08,4.96,11.08,11.08,11.08"/><circle class="cls-5" cx="1508" cy="810.8" r="11.08"/><polygon class="cls-31" points="1508 815.31 1513.9 818.97 1512.24 812.23 1517.54 807.76 1510.62 807.25 1508 800.83 1505.38 807.25 1498.46 807.76 1503.76 812.23 1502.1 818.97 1508 815.31"/></g></g></svg>
