<svg id="Street_Labels" viewBox="0 0 1728 1689.6"><text class="cls-76" transform="translate(603.62 424.28) rotate(-32.5)"><tspan x="0" y="0">SINTI </tspan></text><text class="cls-65" transform="translate(631.73 406.37) rotate(-32.5)"><tspan x="0" y="0">(SNAK</tspan><tspan class="cls-22" x="31.95" y="0">E</tspan><tspan x="37.81" y="0">)</tspan></text><text class="cls-62" transform="translate(919.77 441.33) rotate(-88)"><tspan x="0" y="0">ISH</tspan><tspan class="cls-12" x="18.64" y="0">T</tspan><tspan x="25.43" y="0">ABOLI </tspan></text><text class="cls-68" transform="translate(921.99 377.53) rotate(-88)"><tspan x="0" y="0">(STICK</tspan><tspan class="cls-85" x="33.14" y="0">B</tspan><tspan x="39.51" y="0">AL</tspan><tspan class="cls-58" x="52.25" y="0">L</tspan><tspan x="57.25" y="0">)</tspan></text><text class="cls-59" transform="translate(1114.13 381.07) rotate(-90.5)"><tspan x="0" y="0"> </tspan></text><text class="cls-59" transform="translate(1114.22 390.34) rotate(-90.5)"><tspan x="0" y="0">O</tspan></text><text class="cls-59" transform="translate(1114.28 397.96) rotate(-90.5)"><tspan x="0" y="0">K</tspan></text><text class="cls-59" transform="translate(1114.31 401.45) rotate(-90.5)"><tspan x="0" y="0">I</tspan></text><text class="cls-59" transform="translate(1114.4 411.21) rotate(-90.5)"><tspan x="0" y="0">M</tspan></text><text class="cls-72" transform="translate(1113.82 344.98) rotate(-90.5)"><tspan x="0" y="0">)</tspan></text><text class="cls-72" transform="translate(1113.87 350.39) rotate(-90.5)"><tspan x="0" y="0">F</tspan></text><text class="cls-72" transform="translate(1113.92 356.12) rotate(-90.5)"><tspan x="0" y="0">E</tspan></text><text class="cls-72" transform="translate(1113.94 358.85) rotate(-90.5)"><tspan x="0" y="0">I</tspan></text><text class="cls-72" transform="translate(1114.01 366.87) rotate(-90.5)"><tspan x="0" y="0">H</tspan></text><text class="cls-72" transform="translate(1114.08 374.62) rotate(-90.5)"><tspan x="0" y="0">C</tspan></text><text class="cls-72" transform="translate(1114.11 377.87) rotate(-90.5)"><tspan x="0" y="0">(</tspan></text><text class="cls-59" transform="translate(957.34 526) rotate(8.5)"><tspan x="0" y="0">KIN</tspan><tspan class="cls-10" x="21.01" y="0">T</tspan><tspan x="27.8" y="0">A </tspan></text><text class="cls-72" transform="translate(996.43 531.84) rotate(8.5)"><tspan x="0" y="0">(B</tspan><tspan class="cls-103" x="9.74" y="0">E</tspan><tspan class="cls-7" x="15.69" y="0">A</tspan><tspan x="22.15" y="0">VE</tspan><tspan class="cls-55" x="34.53" y="0">R</tspan><tspan class="cls-49" x="40.91" y="0">)</tspan></text><text class="cls-74" transform="translate(694.11 668.94) rotate(-78)"><tspan x="0" y="0">ISSI</tspan></text><text class="cls-66" transform="translate(698.11 650.11) rotate(-78)"><tspan x="0" y="0" xml:space="preserve"> (DEE</tspan><tspan class="cls-17" x="26.29" y="0">R</tspan><tspan class="cls-109" x="32.67" y="0">)</tspan></text><text class="cls-59" transform="translate(286.21 878.59) rotate(16)"><tspan x="0" y="0">NI</tspan><tspan class="cls-24" x="12.85" y="0">T</tspan><tspan x="19.62" y="0">A</tspan></text><text class="cls-72" transform="translate(313.28 886.35) rotate(16)"><tspan x="0" y="0" xml:space="preserve"> (B</tspan><tspan class="cls-103" x="12.79" y="0">E</tspan><tspan x="18.74" y="0">A</tspan><tspan class="cls-101" x="26.08" y="0">R</tspan><tspan x="32.45" y="0">)</tspan></text><text class="cls-63" transform="translate(384.11 1071.48) rotate(-54.5)"><tspan class="cls-57" x="0" y="0">L</tspan><tspan class="cls-96" x="6.18" y="0">UKSI </tspan></text><text class="cls-69" transform="translate(405.04 1042.14) rotate(-54.5)"><tspan class="cls-83" x="0" y="0">(</tspan><tspan x="3.92" y="0">TU</tspan><tspan class="cls-6" x="18.46" y="0">R</tspan><tspan x="24.56" y="0">TL</tspan><tspan class="cls-20" x="36.61" y="0">E</tspan><tspan class="cls-106" x="42.46" y="0">)</tspan></text><text class="cls-74" transform="translate(539.05 1134.5) rotate(-78)"><tspan class="cls-56" x="0" y="0">L</tspan><tspan class="cls-98" x="6.18" y="0">UKSI </tspan></text><text class="cls-66" transform="translate(546.55 1099.24) rotate(-78)"><tspan class="cls-117" x="0" y="0">(</tspan><tspan class="cls-98" x="3.92" y="0">TU</tspan><tspan class="cls-4" x="18.46" y="0">R</tspan><tspan x="24.56" y="0">TL</tspan><tspan class="cls-23" x="36.61" y="0">E</tspan><tspan x="42.46" y="0">)</tspan></text><text class="cls-73" transform="translate(462.06 837.05) rotate(-74.5)"><tspan x="0" y="0">OFI</tspan></text><text class="cls-64" transform="translate(467.13 818.75) rotate(-74.5)"><tspan x="0" y="0" xml:space="preserve"> (DOG)</tspan></text><text class="cls-73" transform="translate(491.94 848.54) rotate(-74.5)"><tspan class="cls-43" x="0" y="0">K</tspan><tspan class="cls-13" x="8.38" y="0">A</tspan><tspan class="cls-16" x="16.05" y="0">T</tspan><tspan x="23.26" y="0">OS </tspan></text><text class="cls-64" transform="translate(503.13 808.21) rotate(-74.5)"><tspan class="cls-81" x="0" y="0">(</tspan><tspan class="cls-3" x="3.26" y="0">C</tspan><tspan class="cls-88" x="11.14" y="0">A</tspan><tspan class="cls-82" x="17.25" y="0">T</tspan><tspan class="cls-107" x="24.25" y="0">)</tspan></text><text class="cls-73" transform="translate(522.79 863.25) rotate(-74.5)"><tspan x="0" y="0">A</tspan><tspan class="cls-43" x="8.54" y="0">K</tspan><tspan class="cls-107" x="16.92" y="0">A</tspan><tspan class="cls-112" x="25.45" y="0">K</tspan><tspan x="33.82" y="0">A </tspan></text><text class="cls-64" transform="translate(534.97 819.33) rotate(-74.5)"><tspan class="cls-81" x="0" y="0">(</tspan><tspan x="3.26" y="0">CHICKEN)</tspan></text><text class="cls-73" transform="translate(560.67 851.62) rotate(-74.5)"><tspan class="cls-77" x="0" y="0">W</tspan><tspan x="11.86" y="0">AK </tspan></text><text class="cls-64" transform="translate(569.16 821.02) rotate(-74.5)"><tspan class="cls-81" x="0" y="0">(</tspan><tspan class="cls-36" x="3.26" y="0">C</tspan><tspan class="cls-81" x="10.81" y="0">O</tspan><tspan class="cls-37" x="19.57" y="0">W</tspan><tspan x="31.49" y="0">)</tspan></text><text class="cls-73" transform="translate(604.97 820.43) rotate(-74.5)"><tspan x="0" y="0">SHUKHA </tspan></text><text class="cls-64" transform="translate(619.12 769.41) rotate(-74.5)"><tspan x="0" y="0">(PIG)</tspan></text><text class="cls-59" transform="translate(195.73 608.81) rotate(-.5)"><tspan x="0" y="0">T</tspan><tspan class="cls-26" x="7.66" y="0">V</tspan><tspan x="15.11" y="0">SH</tspan><tspan class="cls-103" x="30.26" y="0">K</tspan><tspan class="cls-105" x="38.64" y="0">A HINA </tspan></text><text class="cls-72" transform="translate(190.96 622.06) rotate(-.5)"><tspan class="cls-39" x="0" y="0">(</tspan><tspan class="cls-54" x="4.03" y="0">W</tspan><tspan x="14.66" y="0">ARRIOR </tspan><tspan class="cls-26" x="56.67" y="0">R</tspan><tspan class="cls-90" x="63.06" y="0">O</tspan><tspan x="71.8" y="0">A</tspan><tspan class="cls-87" x="79.13" y="0">D</tspan><tspan x="87.04" y="0">)</tspan></text><text class="cls-59" transform="translate(224.61 1612.74) rotate(-.5)"><tspan x="0" y="0">NANIH </tspan><tspan class="cls-42" x="42.95" y="0">W</tspan><tspan x="54.81" y="0">AI</tspan><tspan class="cls-52" x="66.85" y="0">Y</tspan><tspan x="73.6" y="0">A</tspan></text><text class="cls-59" transform="translate(905.29 1612.98) rotate(-.5)"><tspan x="0" y="0">NANIH </tspan><tspan class="cls-42" x="42.95" y="0">W</tspan><tspan class="cls-99" x="54.81" y="0">AI</tspan><tspan class="cls-52" x="66.85" y="0">Y</tspan><tspan x="73.6" y="0">A</tspan></text><text class="cls-73" transform="translate(1377.11 1445.49) rotate(-41)"><tspan x="0" y="0">NASHOBA </tspan></text><text class="cls-64" transform="translate(1423.56 1405.11) rotate(-41)"><tspan class="cls-44" x="0" y="0">(</tspan><tspan class="cls-113" x="4.01" y="0">W</tspan><tspan x="15.18" y="0">OL</tspan><tspan class="cls-8" x="29.63" y="0">F</tspan><tspan x="35.05" y="0">)</tspan></text><text class="cls-61" transform="translate(1564.96 1033.1) rotate(76.75)"><tspan x="0" y="0">NASHOBA </tspan></text><text class="cls-70" transform="translate(1579.07 1093.02) rotate(76.75)"><tspan class="cls-41" x="0" y="0">(</tspan><tspan class="cls-115" x="4.03" y="0">W</tspan><tspan class="cls-50" x="15.19" y="0">OL</tspan><tspan class="cls-9" x="29.64" y="0">F</tspan><tspan x="35.06" y="0">)</tspan></text><text class="cls-61" transform="translate(1482.37 694.17) rotate(87.19)"><tspan x="0" y="0">NASHOBA </tspan></text><text class="cls-70" transform="translate(1485.39 755.65) rotate(87.19)"><tspan class="cls-41" x="0" y="0">(</tspan><tspan class="cls-115" x="4.03" y="0">W</tspan><tspan class="cls-50" x="15.19" y="0">OL</tspan><tspan class="cls-9" x="29.64" y="0">F</tspan><tspan x="35.06" y="0">)</tspan></text><text class="cls-75" transform="translate(1399.45 618.66) rotate(74.25)"><tspan x="0" y="0">SH</tspan><tspan class="cls-93" x="15.15" y="0">A</tspan><tspan class="cls-47" x="23.36" y="0">UI </tspan></text><text class="cls-67" transform="translate(1410.02 656.14) rotate(74.25)"><tspan x="0" y="0">(R</tspan><tspan class="cls-93" x="10.16" y="0">A</tspan><tspan class="cls-51" x="17.18" y="0">CC</tspan><tspan x="32.3" y="0">OON)</tspan></text><text class="cls-60" transform="translate(1543.43 710.58) rotate(84.5)"><tspan x="0" y="0">CHUSA </tspan></text><text class="cls-71" transform="translate(1547.63 754.21) rotate(84.5)"><tspan x="0" y="0">(S</tspan><tspan class="cls-92" x="8.8" y="0">P</tspan><tspan x="14.04" y="0">AR</tspan><tspan class="cls-25" x="27.98" y="0">R</tspan><tspan class="cls-80" x="34.38" y="0">O</tspan><tspan class="cls-38" x="43.13" y="0">W</tspan><tspan x="55.05" y="0">)</tspan></text><text class="cls-75" transform="translate(1595.53 728.77) rotate(87)"><tspan x="0" y="0">OSSI </tspan></text><text class="cls-67" transform="translate(1597.01 756.96) rotate(87)"><tspan x="0" y="0">(</tspan><tspan class="cls-104" x="3.55" y="0">E</tspan><tspan class="cls-31" x="9.5" y="0">A</tspan><tspan x="16.51" y="0">GL</tspan><tspan class="cls-28" x="30" y="0">E</tspan><tspan x="35.85" y="0">)</tspan></text><text class="cls-76" transform="translate(1332.18 1595.99) rotate(4)"><tspan class="cls-11" x="0" y="0">A</tspan><tspan class="cls-1" x="7.67" y="0">T</tspan><tspan class="cls-46" x="14.89" y="0">OKSLI HINA</tspan></text><text class="cls-65" transform="translate(1317.27 1608.18) rotate(4)"><tspan x="0" y="0"> </tspan><tspan class="cls-40" x="3.06" y="0">(</tspan><tspan class="cls-114" x="7.08" y="0">W</tspan><tspan x="18.25" y="0">ORKP</tspan><tspan class="cls-2" x="46.99" y="0">L</tspan><tspan class="cls-32" x="52.52" y="0">A</tspan><tspan x="59.53" y="0">CE </tspan><tspan class="cls-27" x="76.08" y="0">R</tspan><tspan class="cls-94" x="82.47" y="0">O</tspan><tspan x="91.2" y="0">A</tspan><tspan class="cls-84" x="98.54" y="0">D</tspan><tspan class="cls-46" x="106.45" y="0">)</tspan></text><text class="cls-59" transform="translate(916.97 998.77) rotate(16)"><tspan class="cls-18" x="0" y="0">T</tspan><tspan class="cls-99" x="6.78" y="0">A</tspan><tspan class="cls-34" x="15.31" y="0">L</tspan><tspan class="cls-90" x="21.54" y="0">O</tspan><tspan x="30.49" y="0">A </tspan></text><text class="cls-72" transform="translate(957.56 1010.4) rotate(16)"><tspan x="0" y="0">(SING)</tspan></text><text class="cls-59" transform="translate(679.16 769.57) rotate(16)"><tspan class="cls-45" x="0" y="0">K</tspan><tspan class="cls-95" x="7.62" y="0">OI </tspan></text><text class="cls-72" transform="translate(670.13 778.42) rotate(16)"><tspan x="0" y="0">(LION)</tspan></text><text class="cls-73" transform="translate(990.96 688.03) rotate(6)"><tspan class="cls-19" x="0" y="0">T</tspan><tspan class="cls-100" x="6.78" y="0">A</tspan><tspan class="cls-33" x="15.31" y="0">L</tspan><tspan class="cls-91" x="21.54" y="0">O</tspan><tspan x="30.49" y="0">A </tspan></text><text class="cls-64" transform="translate(1032.95 692.44) rotate(6)"><tspan x="0" y="0">(SING)</tspan></text><text class="cls-62" transform="translate(709.3 1172.16) rotate(33)"><tspan x="0" y="0">HUSHI </tspan></text><text class="cls-68" transform="translate(742.64 1193.81) rotate(33)"><tspan x="0" y="0">(BIR</tspan><tspan class="cls-78" x="19.07" y="0">D</tspan><tspan x="26.99" y="0">)</tspan></text><text class="cls-59" transform="translate(671.61 1056.63) rotate(16)"><tspan x="0" y="0">CHUKFI </tspan></text><text class="cls-72" transform="translate(716.84 1069.6) rotate(16)"><tspan x="0" y="0">(RABBI</tspan><tspan class="cls-29" x="32.59" y="0">T</tspan><tspan x="39.59" y="0">)</tspan></text><text class="cls-59" transform="translate(455.22 1039.06) rotate(-43)"><tspan x="0" y="0">ISSUBA ISHU</tspan><tspan class="cls-26" x="71.42" y="0">L</tspan><tspan class="cls-95" x="77.59" y="0">USH </tspan></text><text class="cls-72" transform="translate(475.76 1037.96) rotate(-43)"><tspan x="0" y="0">(HO</tspan><tspan class="cls-21" x="20.62" y="0">R</tspan><tspan class="cls-95" x="27.36" y="0">SESHO</tspan><tspan class="cls-21" x="60.65" y="0">E</tspan><tspan class="cls-95" x="66.51" y="0">)</tspan></text><text class="cls-76" transform="translate(589.26 1227.42) rotate(4)"><tspan x="0" y="0">SINTUL</tspan><tspan class="cls-110" x="41.91" y="0">L</tspan><tspan x="48.14" y="0">O </tspan></text><text class="cls-65" transform="translate(649.72 1231.64) rotate(4)"><tspan x="0" y="0">(R</tspan><tspan class="cls-89" x="10.16" y="0">A</tspan><tspan class="cls-35" x="16.27" y="0">T</tspan><tspan class="cls-97" x="23.25" y="0">TLESNAK</tspan><tspan class="cls-22" x="69.43" y="0">E</tspan><tspan x="75.28" y="0">)</tspan></text><text class="cls-76" transform="translate(878.38 832.2) rotate(-86)"><tspan x="0" y="0">CHU</tspan><tspan class="cls-102" x="25.96" y="0">K</tspan><tspan x="34.34" y="0">ASH </tspan></text><text class="cls-65" transform="translate(882.65 771.13) rotate(-86)"><tspan x="0" y="0">(H</tspan><tspan class="cls-102" x="11.57" y="0">E</tspan><tspan x="17.52" y="0">A</tspan><tspan class="cls-5" x="24.86" y="0">R</tspan><tspan class="cls-116" x="30.96" y="0">T</tspan><tspan x="37.97" y="0">)</tspan></text><text class="cls-59" transform="translate(1131.91 1470.14) rotate(89.5)"><tspan x="0" y="0"> </tspan></text><text class="cls-59" transform="translate(1131.83 1461.61) rotate(89.5)"><tspan x="0" y="0">A</tspan></text><text class="cls-59" transform="translate(1131.75 1452.26) rotate(89.5)"><tspan x="0" y="0">N</tspan></text><text class="cls-59" transform="translate(1131.72 1448.76) rotate(89.5)"><tspan x="0" y="0">I</tspan></text><text class="cls-59" transform="translate(1131.64 1439.74) rotate(89.5)"><tspan x="0" y="0">H</tspan></text><text class="cls-59" transform="translate(1131.62 1436.54) rotate(89.5)"><tspan x="0" y="0"> </tspan></text><text class="cls-59" transform="translate(1131.54 1428) rotate(89.5)"><tspan x="0" y="0">A</tspan></text><text class="cls-59" transform="translate(1131.47 1419.62) rotate(89.5)"><tspan x="0" y="0">K</tspan></text><text class="cls-59" transform="translate(1131.4 1411.46) rotate(89.5)"><tspan x="0" y="0">K</tspan></text><text class="cls-59" transform="translate(1131.32 1402.57) rotate(89.5)"><tspan x="0" y="0">U</tspan></text><text class="cls-59" transform="translate(1131.24 1393.55) rotate(89.5)"><tspan x="0" y="0">H</tspan></text><text class="cls-59" transform="translate(1131.17 1385.5) rotate(89.5)"><tspan x="0" y="0">C</tspan></text><text class="cls-59" transform="translate(1131.14 1382.3) rotate(89.5)"><tspan x="0" y="0"> </tspan></text><text class="cls-59" transform="translate(1131.11 1378.8) rotate(89.5)"><tspan x="0" y="0">I</tspan></text><text class="cls-59" transform="translate(1131.08 1375.6) rotate(89.5)"><tspan x="0" y="0"> </tspan></text><text class="cls-59" transform="translate(1131.01 1367.07) rotate(89.5)"><tspan x="0" y="0">A</tspan></text><text class="cls-59" transform="translate(1130.95 1360.94) rotate(89.5)"><tspan x="0" y="0">S</tspan></text><text class="cls-59" transform="translate(1130.9 1354.34) rotate(89.5)"><tspan x="0" y="0">E</tspan></text><text class="cls-59" transform="translate(1130.84 1347.3) rotate(89.5)"><tspan x="0" y="0">P</tspan></text><text class="cls-59" transform="translate(1130.76 1338.76) rotate(89.5)"><tspan x="0" y="0">A</tspan></text><text class="cls-59" transform="translate(1130.73 1335.56) rotate(89.5)"><tspan x="0" y="0"> </tspan></text><text class="cls-59" transform="translate(1130.65 1326.21) rotate(89.5)"><tspan x="0" y="0">N</tspan></text><text class="cls-59" transform="translate(1130.58 1317.68) rotate(89.5)"><tspan x="0" y="0">A</tspan></text><text class="cls-59" transform="translate(1130.49 1308.33) rotate(89.5)"><tspan x="0" y="0">N</tspan></text><text class="cls-72" transform="translate(1118.53 1449.9) rotate(89.5)"><tspan x="0" y="0">)</tspan></text><text class="cls-72" transform="translate(1118.46 1441.99) rotate(89.5)"><tspan x="0" y="0">D</tspan></text><text class="cls-72" transform="translate(1118.4 1434.65) rotate(89.5)"><tspan x="0" y="0">A</tspan></text><text class="cls-72" transform="translate(1118.32 1425.93) rotate(89.5)"><tspan x="0" y="0">O</tspan></text><text class="cls-72" transform="translate(1118.27 1419.54) rotate(89.5)"><tspan x="0" y="0">R</tspan></text><text class="cls-72" transform="translate(1118.24 1416.48) rotate(89.5)"><tspan x="0" y="0"> </tspan></text><text class="cls-72" transform="translate(1118.19 1410.75) rotate(89.5)"><tspan x="0" y="0">E</tspan></text><text class="cls-72" transform="translate(1118.14 1405.5) rotate(89.5)"><tspan x="0" y="0">S</tspan></text><text class="cls-72" transform="translate(1118.08 1397.61) rotate(89.5)"><tspan x="0" y="0">U</tspan></text><text class="cls-72" transform="translate(1118 1388.55) rotate(89.5)"><tspan x="0" y="0">O</tspan></text><text class="cls-72" transform="translate(1117.93 1380.53) rotate(89.5)"><tspan x="0" y="0">H</tspan></text><text class="cls-72" transform="translate(1117.9 1377.48) rotate(89.5)"><tspan x="0" y="0"> </tspan></text><text class="cls-72" transform="translate(1117.85 1372.08) rotate(89.5)"><tspan x="0" y="0">L</tspan></text><text class="cls-72" transform="translate(1117.83 1369.35) rotate(89.5)"><tspan x="0" y="0">I</tspan></text><text class="cls-72" transform="translate(1117.76 1361.59) rotate(89.5)"><tspan x="0" y="0">C</tspan></text><text class="cls-72" transform="translate(1117.68 1352.99) rotate(89.5)"><tspan x="0" y="0">N</tspan></text><text class="cls-72" transform="translate(1117.62 1345.09) rotate(89.5)"><tspan x="0" y="0">U</tspan></text><text class="cls-72" transform="translate(1117.54 1336.04) rotate(89.5)"><tspan x="0" y="0">O</tspan></text><text class="cls-72" transform="translate(1117.47 1328.5) rotate(89.5)"><tspan x="0" y="0">C</tspan></text><text class="cls-72" transform="translate(1117.44 1325.25) rotate(89.5)"><tspan x="0" y="0">(</tspan></text><text class="cls-74" transform="translate(1040.14 1000.26) rotate(-92.5)"><tspan x="0" y="0">HALI</tspan><tspan class="cls-15" x="27.44" y="0">T</tspan><tspan class="cls-48" x="34.66" y="0">O </tspan></text><text class="cls-66" transform="translate(1038.08 953.17) rotate(-92.5)"><tspan x="0" y="0">(HEL</tspan><tspan class="cls-111" x="22.7" y="0">L</tspan><tspan class="cls-86" x="27.74" y="0">O</tspan><tspan class="cls-48" x="36.49" y="0">)</tspan></text><text class="cls-59" transform="translate(1092.74 806.24) rotate(-.5)"><tspan x="0" y="0">HALI</tspan><tspan class="cls-14" x="27.44" y="0">T</tspan><tspan class="cls-49" x="34.66" y="0">O </tspan></text><text class="cls-72" transform="translate(1139.87 805.83) rotate(-.5)"><tspan x="0" y="0">(HEL</tspan><tspan class="cls-30" x="22.7" y="0">L</tspan><tspan class="cls-79" x="27.73" y="0">O</tspan><tspan class="cls-49" x="36.49" y="0">)</tspan></text><text class="cls-76" transform="translate(216.58 879.12) rotate(-86)"><tspan x="0" y="0">SINTI</tspan></text><text class="cls-65" transform="translate(218.68 849.07) rotate(-86)"><tspan x="0" y="0" xml:space="preserve"> (SNAK</tspan><tspan class="cls-53" x="35.01" y="0">E</tspan><tspan class="cls-108" x="40.86" y="0">)</tspan></text></svg>
