<?xml version="1.0" encoding="UTF-8"?><svg xmlns="http://www.w3.org/2000/svg" xmlns:xlink="http://www.w3.org/1999/xlink" viewBox="0 0 1728 2592"><defs><style>.cls-1,.cls-2,.cls-3,.cls-4,.cls-5,.cls-6,.cls-7,.cls-8,.cls-9,.cls-10,.cls-11,.cls-12{fill:none;}.cls-13{font-size:15.6px;}.cls-13,.cls-14,.cls-15,.cls-16,.cls-17,.cls-18,.cls-19,.cls-20,.cls-21,.cls-22{font-family:GillSansNova-Bold, 'Gill Sans Nova';font-weight:700;}.cls-13,.cls-23{fill:#9a9b30;}.cls-24{clip-path:url(#clippath);}.cls-14{font-size:26px;}.cls-14,.cls-25,.cls-15,.cls-16,.cls-17{fill:#d6d7db;}.cls-26{letter-spacing:-.06em;}.cls-27{letter-spacing:-.06em;}.cls-28{fill:#0085ad;}.cls-29,.cls-30{fill:#007b5f;}.cls-31,.cls-19,.cls-32{fill:#ffb81c;}.cls-33{fill:#ffb71b;}.cls-34,.cls-20,.cls-35{fill:#e5a519;}.cls-36{fill:#009bdf;}.cls-37{fill:#ac4fc6;}.cls-38{fill:#d6742a;}.cls-39{fill:#d7282f;}.cls-40{fill:#e31c79;}.cls-41{fill:#41ad49;}.cls-42{fill:#5957a6;}.cls-15{font-size:14.4px;}.cls-43{letter-spacing:-.05em;}.cls-16,.cls-44{font-size:14px;}.cls-45{letter-spacing:-.05em;}.cls-17{font-size:13.78px;}.cls-46{font-size:9.42px;}.cls-46,.cls-47,.cls-44,.cls-30,.cls-48,.cls-49,.cls-32,.cls-35{font-weight:800;}.cls-46,.cls-30,.cls-48{font-family:GillSansNova-Heavy, 'Gill Sans Nova';}.cls-46,.cls-48{fill:#026e9b;}.cls-50{letter-spacing:-.05em;}.cls-51{clip-path:url(#clippath-1);}.cls-52{clip-path:url(#clippath-4);}.cls-53{clip-path:url(#clippath-3);}.cls-54{clip-path:url(#clippath-2);}.cls-55{clip-path:url(#clippath-7);}.cls-56{clip-path:url(#clippath-8);}.cls-57{clip-path:url(#clippath-6);}.cls-58{clip-path:url(#clippath-5);}.cls-59{clip-path:url(#clippath-9);}.cls-60{clip-path:url(#clippath-13);}.cls-61{clip-path:url(#clippath-12);}.cls-62{clip-path:url(#clippath-10);}.cls-63{clip-path:url(#clippath-11);}.cls-2{stroke:#007b5f;}.cls-2,.cls-3,.cls-4,.cls-5{stroke-width:2.4px;}.cls-3,.cls-8{stroke:#026e9b;}.cls-4{stroke:#009bdf;}.cls-5,.cls-12{stroke:#d7282f;}.cls-18,.cls-49,.cls-32,.cls-35{font-size:18px;}.cls-18,.cls-22{fill:#616529;}.cls-64{letter-spacing:0em;}.cls-65{letter-spacing:-.01em;}.cls-47{font-size:14px;}.cls-47,.cls-44,.cls-49,.cls-32,.cls-35{font-family:PillGothic300mg-Black, 'Pill Gothic 300mg';}.cls-47,.cls-44,.cls-49,.cls-21{fill:#fff;}.cls-66{letter-spacing:-.03em;}.cls-19,.cls-20{font-size:11px;}.cls-67{letter-spacing:-.01em;}.cls-30{font-size:16.8px;}.cls-6{stroke:#9a9b30;}.cls-6,.cls-7,.cls-8{stroke-width:1.8px;}.cls-7{stroke:#e31c79;}.cls-68{opacity:.8;}.cls-69{opacity:.75;}.cls-70{letter-spacing:0em;}.cls-9{stroke:#41ad49;}.cls-9,.cls-10,.cls-11,.cls-12{stroke-width:3px;}.cls-10{stroke:#ac4fc6;}.cls-11{stroke:#d6742a;}.cls-48{font-size:12.56px;}.cls-21{font-size:24px;}.cls-71{letter-spacing:0em;}.cls-22{font-size:18px;}</style><clipPath id="clippath"><path class="cls-1" d="m1568.03,1161.68c0,6.8,5.51,12.31,12.31,12.31s12.31-5.51,12.31-12.31-5.51-12.31-12.31-12.31-12.31,5.51-12.31,12.31"/></clipPath><clipPath id="clippath-1"><path class="cls-1" d="m1511.84,1161.68c0,6.8,5.51,12.31,12.31,12.31s12.31-5.51,12.31-12.31-5.51-12.31-12.31-12.31-12.31,5.51-12.31,12.31"/></clipPath><clipPath id="clippath-2"><path class="cls-1" d="m438.62,1506.35c0,6.8,5.51,12.31,12.31,12.31s12.31-5.51,12.31-12.31-5.51-12.31-12.31-12.31-12.31,5.51-12.31,12.31"/></clipPath><clipPath id="clippath-3"><path class="cls-1" d="m507.43,1194.47c0,6.8,5.51,12.31,12.31,12.31s12.31-5.51,12.31-12.31-5.51-12.31-12.31-12.31-12.31,5.51-12.31,12.31"/></clipPath><clipPath id="clippath-4"><rect class="cls-1" width="1728" height="2592"/></clipPath><clipPath id="clippath-5"><rect class="cls-1" x="288.98" y="1234.69" width="146.71" height="32.23"/></clipPath><clipPath id="clippath-6"><rect class="cls-1" x="1030.04" y="1381.53" width="146.71" height="32.23"/></clipPath><clipPath id="clippath-7"><rect class="cls-1" x="711.85" y="1555.91" width="146.71" height="32.22"/></clipPath><clipPath id="clippath-8"><rect class="cls-1" x="544.67" y="979" width="146.71" height="32.22"/></clipPath><clipPath id="clippath-9"><rect class="cls-1" x="1493.51" y="909.49" width="146.71" height="32.22"/></clipPath><clipPath id="clippath-10"><rect class="cls-1" x="1315.88" y="1367.72" width="146.71" height="32.22"/></clipPath><clipPath id="clippath-11"><rect class="cls-1" x="1536.52" y="1873.38" width="146.7" height="32.22"/></clipPath><clipPath id="clippath-12"><rect class="cls-1" x="375.65" y="904.53" width="140.31" height="27.21"/></clipPath><clipPath id="clippath-13"><rect class="cls-1" x="1336.48" y="1913.77" width="121.18" height="115.6"/></clipPath></defs><g id="Accessible_Parking"><path class="cls-31" d="m819.38,849.72c-4.22,0-7.66-3.44-7.66-7.66,0-2.57,1.28-4.85,3.23-6.24v-3.12c-3.5,1.66-5.93,5.23-5.93,9.36,0,5.71,4.65,10.36,10.36,10.36,3.33,0,6.29-1.58,8.19-4.02l-1.29-3c-1.24,2.56-3.87,4.32-6.89,4.32"/><path class="cls-31" d="m833.89,846.18c-.22-.51-.81-.74-1.32-.53l-1.4.6-3.11-7.22c-.26-.6-.85-.99-1.51-.99h-5.01v-2.32h3.73c.73,0,1.32-.59,1.32-1.32s-.59-1.32-1.32-1.32h-3.73v-2.61c0-1.42-1.15-2.56-2.56-2.56s-2.56,1.15-2.56,2.56v8.59c0,1.3,1.06,2.36,2.36,2.36h7.38l3.16,7.34c.18.43.68.62,1.1.44l3.1-1.33c.51-.22.74-.81.53-1.32l-.16-.37Z"/><path class="cls-31" d="m819.09,827.4c1.6,0,2.9-1.3,2.9-2.9s-1.3-2.9-2.9-2.9-2.9,1.3-2.9,2.9,1.3,2.9,2.9,2.9"/><text class="cls-19" transform="translate(840.84 836.94)"><tspan class="cls-66" x="0" y="0">A</tspan><tspan x="8.22" y="0">CCESSIBLE </tspan></text><text class="cls-19" transform="translate(840.84 847.94)"><tspan class="cls-45" x="0" y="0">P</tspan><tspan class="cls-70" x="6.45" y="0">ARKING</tspan></text><path class="cls-34" d="m814.16,974.58c-4.22,0-7.66-3.44-7.66-7.66,0-2.57,1.28-4.85,3.23-6.24v-3.12c-3.5,1.66-5.93,5.23-5.93,9.36,0,5.71,4.65,10.36,10.36,10.36,3.33,0,6.29-1.58,8.19-4.02l-1.29-3c-1.24,2.56-3.87,4.32-6.89,4.32"/><path class="cls-34" d="m828.68,971.04c-.22-.51-.81-.74-1.32-.53l-1.4.6-3.11-7.22c-.26-.6-.85-.99-1.51-.99h-5.01v-2.32h3.73c.73,0,1.32-.59,1.32-1.32s-.59-1.32-1.32-1.32h-3.73v-2.61c0-1.42-1.15-2.56-2.56-2.56s-2.56,1.15-2.56,2.56v8.59c0,1.3,1.06,2.36,2.36,2.36h7.38l3.16,7.34c.18.43.68.62,1.1.44l3.1-1.33c.51-.22.74-.81.53-1.32l-.16-.37Z"/><path class="cls-34" d="m813.88,952.25c1.6,0,2.9-1.3,2.9-2.9s-1.3-2.9-2.9-2.9-2.9,1.3-2.9,2.9,1.3,2.9,2.9,2.9"/><text class="cls-20" transform="translate(835.63 961.79)"><tspan class="cls-66" x="0" y="0">A</tspan><tspan x="8.22" y="0">CCESSIBLE</tspan></text><text class="cls-20" transform="translate(835.63 972.79)"><tspan class="cls-45" x="0" y="0">P</tspan><tspan class="cls-70" x="6.45" y="0">ARKING</tspan></text><path class="cls-34" d="m706.04,909.75c-4.22,0-7.66-3.44-7.66-7.66,0-2.57,1.28-4.85,3.23-6.24v-3.12c-3.5,1.66-5.93,5.23-5.93,9.36,0,5.71,4.65,10.36,10.36,10.36,3.33,0,6.29-1.58,8.19-4.02l-1.29-3c-1.24,2.56-3.87,4.32-6.89,4.32"/><path class="cls-34" d="m720.56,906.21c-.22-.51-.81-.74-1.32-.53l-1.4.6-3.11-7.22c-.26-.6-.85-.99-1.51-.99h-5.01v-2.32h3.73c.73,0,1.32-.59,1.32-1.32s-.59-1.32-1.32-1.32h-3.73v-2.61c0-1.42-1.15-2.56-2.56-2.56s-2.56,1.15-2.56,2.56v8.59c0,1.3,1.06,2.36,2.36,2.36h7.38l3.16,7.34c.18.43.68.62,1.1.44l3.1-1.33c.51-.22.74-.81.53-1.32l-.16-.37Z"/><path class="cls-34" d="m705.76,887.43c1.6,0,2.9-1.3,2.9-2.9s-1.3-2.9-2.9-2.9-2.9,1.3-2.9,2.9,1.3,2.9,2.9,2.9"/><text class="cls-20" transform="translate(727.51 896.96)"><tspan class="cls-66" x="0" y="0">A</tspan><tspan x="8.22" y="0">CCESSIBLE </tspan></text><text class="cls-20" transform="translate(727.51 907.96)"><tspan class="cls-45" x="0" y="0">P</tspan><tspan class="cls-70" x="6.45" y="0">ARKING</tspan></text><text class="cls-32" transform="translate(677.77 903.73)"><tspan x="0" y="0">3</tspan></text><text class="cls-35" transform="translate(788.79 968.57)"><tspan x="0" y="0">1</tspan></text><text class="cls-32" transform="translate(792.91 843.72)"><tspan x="0" y="0">2</tspan></text></g><g id="Food"><path class="cls-25" d="m755.79,1125.93c4.08,0,7.39-3.31,7.39-7.39s-3.31-7.39-7.39-7.39-7.39,3.31-7.39,7.39,3.31,7.39,7.39,7.39"/><path class="cls-7" d="m755.79,1125.93c4.08,0,7.39-3.31,7.39-7.39s-3.31-7.39-7.39-7.39-7.39,3.31-7.39,7.39,3.31,7.39,7.39,7.39Z"/><path class="cls-40" d="m759.72,1114.77c-1.9,0-2.85,1.55-2.85,3.45v3.07c0,.21.17.38.38.38h1.15v2.69c0,.63.52,1.15,1.15,1.15s.55-.52.55-1.15v-9.2c0-.21-.17-.38-.38-.38"/><path class="cls-40" d="m755.4,1114.77c-.21,0-.38.17-.38.38v2.68c0,.21-.17.38-.38.38h-.38c-.21,0-.38-.17-.38-.38v-2.68c0-.21-.17-.38-.38-.38s-.38.17-.38.38v2.68c0,.21-.17.38-.38.38h-.38c-.21,0-.38-.17-.38-.38v-2.68c0-.21-.17-.38-.38-.38s-.38.17-.38.38v3.45c0,.71.49,1.32,1.15,1.49v4.22c0,.56.38,1.07.92,1.17.73.14,1.38-.42,1.38-1.13v-4.27c.66-.17,1.15-.77,1.15-1.49v-3.45c0-.21-.17-.38-.38-.38"/><path class="cls-25" d="m715.61,1170.31c4.08,0,7.39-3.31,7.39-7.39s-3.31-7.39-7.39-7.39-7.39,3.31-7.39,7.39,3.31,7.39,7.39,7.39"/><path class="cls-7" d="m715.61,1170.31c4.08,0,7.39-3.31,7.39-7.39s-3.31-7.39-7.39-7.39-7.39,3.31-7.39,7.39,3.31,7.39,7.39,7.39Z"/><path class="cls-40" d="m719.55,1159.16c-1.9,0-2.85,1.55-2.85,3.45v3.07c0,.21.17.38.38.38h1.15v2.69c0,.63.52,1.15,1.15,1.15s.55-.52.55-1.15v-9.2c0-.21-.17-.38-.38-.38"/><path class="cls-40" d="m715.23,1159.16c-.21,0-.38.17-.38.38v2.68c0,.21-.17.38-.38.38h-.38c-.21,0-.38-.17-.38-.38v-2.68c0-.21-.17-.38-.38-.38s-.38.17-.38.38v2.68c0,.21-.17.38-.38.38h-.38c-.21,0-.38-.17-.38-.38v-2.68c0-.21-.17-.38-.38-.38s-.38.17-.38.38v3.45c0,.71.49,1.32,1.15,1.49v4.22c0,.56.38,1.07.92,1.17.73.14,1.38-.42,1.38-1.13v-4.27c.66-.17,1.15-.77,1.15-1.49v-3.45c0-.21-.17-.38-.38-.38"/><path class="cls-25" d="m736.35,1145.59c4.08,0,7.39-3.31,7.39-7.39s-3.31-7.39-7.39-7.39-7.39,3.31-7.39,7.39,3.31,7.39,7.39,7.39"/><path class="cls-7" d="m736.35,1145.59c4.08,0,7.39-3.31,7.39-7.39s-3.31-7.39-7.39-7.39-7.39,3.31-7.39,7.39,3.31,7.39,7.39,7.39Z"/><path class="cls-40" d="m740.28,1134.43c-1.9,0-2.85,1.55-2.85,3.45v3.07c0,.21.17.38.38.38h1.15v2.69c0,.63.52,1.15,1.15,1.15s.55-.52.55-1.15v-9.2c0-.21-.17-.38-.38-.38"/><path class="cls-40" d="m735.97,1134.43c-.21,0-.38.17-.38.38v2.68c0,.21-.17.38-.38.38h-.38c-.21,0-.38-.17-.38-.38v-2.68c0-.21-.17-.38-.38-.38s-.38.17-.38.38v2.68c0,.21-.17.38-.38.38h-.38c-.21,0-.38-.17-.38-.38v-2.68c0-.21-.17-.38-.38-.38s-.38.17-.38.38v3.45c0,.71.49,1.32,1.15,1.49v4.22c0,.56.38,1.07.92,1.17.73.14,1.38-.42,1.38-1.13v-4.27c.66-.17,1.15-.77,1.15-1.49v-3.45c0-.21-.17-.38-.38-.38"/><path class="cls-25" d="m696.89,1196.57c4.08,0,7.39-3.31,7.39-7.39s-3.31-7.39-7.39-7.39-7.39,3.31-7.39,7.39,3.31,7.39,7.39,7.39"/><path class="cls-7" d="m696.89,1196.57c4.08,0,7.39-3.31,7.39-7.39s-3.31-7.39-7.39-7.39-7.39,3.31-7.39,7.39,3.31,7.39,7.39,7.39Z"/><path class="cls-40" d="m700.82,1185.41c-1.9,0-2.85,1.55-2.85,3.45v3.07c0,.21.17.38.38.38h1.15v2.69c0,.63.52,1.15,1.15,1.15s.55-.52.55-1.15v-9.2c0-.21-.17-.38-.38-.38"/><path class="cls-40" d="m696.51,1185.41c-.21,0-.38.17-.38.38v2.68c0,.21-.17.38-.38.38h-.38c-.21,0-.38-.17-.38-.38v-2.68c0-.21-.17-.38-.38-.38s-.38.17-.38.38v2.68c0,.21-.17.38-.38.38h-.38c-.21,0-.38-.17-.38-.38v-2.68c0-.21-.17-.38-.38-.38s-.38.17-.38.38v3.45c0,.71.49,1.32,1.15,1.49v4.22c0,.56.38,1.07.92,1.17.73.14,1.38-.42,1.38-1.13v-4.27c.66-.17,1.15-.77,1.15-1.49v-3.45c0-.21-.17-.38-.38-.38"/><path class="cls-25" d="m747.5,1254.59c4.08,0,7.39-3.31,7.39-7.39s-3.31-7.39-7.39-7.39-7.39,3.31-7.39,7.39,3.31,7.39,7.39,7.39"/><path class="cls-7" d="m747.5,1254.59c4.08,0,7.39-3.31,7.39-7.39s-3.31-7.39-7.39-7.39-7.39,3.31-7.39,7.39,3.31,7.39,7.39,7.39Z"/><path class="cls-40" d="m751.43,1243.44c-1.9,0-2.85,1.55-2.85,3.45v3.07c0,.21.17.38.38.38h1.15v2.69c0,.63.52,1.15,1.15,1.15s.55-.52.55-1.15v-9.2c0-.21-.17-.38-.38-.38"/><path class="cls-40" d="m747.12,1243.44c-.21,0-.38.17-.38.38v2.68c0,.21-.17.38-.38.38h-.38c-.21,0-.38-.17-.38-.38v-2.68c0-.21-.17-.38-.38-.38s-.38.17-.38.38v2.68c0,.21-.17.38-.38.38h-.38c-.21,0-.38-.17-.38-.38v-2.68c0-.21-.17-.38-.38-.38s-.38.17-.38.38v3.45c0,.71.49,1.32,1.15,1.49v4.22c0,.56.38,1.07.92,1.17.73.14,1.38-.42,1.38-1.13v-4.27c.66-.17,1.15-.77,1.15-1.49v-3.45c0-.21-.17-.38-.38-.38"/><path class="cls-25" d="m796.04,1210.98c4.08,0,7.39-3.31,7.39-7.39s-3.31-7.39-7.39-7.39-7.39,3.31-7.39,7.39,3.31,7.39,7.39,7.39"/><path class="cls-7" d="m796.04,1210.98c4.08,0,7.39-3.31,7.39-7.39s-3.31-7.39-7.39-7.39-7.39,3.31-7.39,7.39,3.31,7.39,7.39,7.39Z"/><path class="cls-40" d="m799.97,1199.82c-1.9,0-2.85,1.55-2.85,3.45v3.07c0,.21.17.38.38.38h1.15v2.69c0,.63.52,1.15,1.15,1.15s.55-.52.55-1.15v-9.2c0-.21-.17-.38-.38-.38"/><path class="cls-40" d="m795.65,1199.82c-.21,0-.38.17-.38.38v2.68c0,.21-.17.38-.38.38h-.38c-.21,0-.38-.17-.38-.38v-2.68c0-.21-.17-.38-.38-.38s-.38.17-.38.38v2.68c0,.21-.17.38-.38.38h-.38c-.21,0-.38-.17-.38-.38v-2.68c0-.21-.17-.38-.38-.38s-.38.17-.38.38v3.45c0,.71.49,1.32,1.15,1.49v4.22c0,.56.38,1.07.92,1.17.73.14,1.38-.42,1.38-1.13v-4.27c.66-.17,1.15-.77,1.15-1.49v-3.45c0-.21-.17-.38-.38-.38"/><path class="cls-25" d="m1083.28,1142.5c4.08,0,7.39-3.31,7.39-7.39s-3.31-7.39-7.39-7.39-7.39,3.31-7.39,7.39,3.31,7.39,7.39,7.39"/><path class="cls-7" d="m1083.28,1142.5c4.08,0,7.39-3.31,7.39-7.39s-3.31-7.39-7.39-7.39-7.39,3.31-7.39,7.39,3.31,7.39,7.39,7.39Z"/><path class="cls-40" d="m1087.21,1131.34c-1.9,0-2.85,1.55-2.85,3.45v3.07c0,.21.17.38.38.38h1.15v2.69c0,.63.52,1.15,1.15,1.15s.55-.52.55-1.15v-9.2c0-.21-.17-.38-.38-.38"/><path class="cls-40" d="m1082.89,1131.34c-.21,0-.38.17-.38.38v2.68c0,.21-.17.38-.38.38h-.38c-.21,0-.38-.17-.38-.38v-2.68c0-.21-.17-.38-.38-.38s-.38.17-.38.38v2.68c0,.21-.17.38-.38.38h-.38c-.21,0-.38-.17-.38-.38v-2.68c0-.21-.17-.38-.38-.38s-.38.17-.38.38v3.45c0,.71.49,1.32,1.15,1.49v4.22c0,.56.38,1.07.92,1.17.73.14,1.38-.42,1.38-1.13v-4.27c.66-.17,1.15-.77,1.15-1.49v-3.45c0-.21-.17-.38-.38-.38"/><path class="cls-25" d="m1052.46,1431.53c4.08,0,7.39-3.31,7.39-7.39s-3.31-7.39-7.39-7.39-7.39,3.31-7.39,7.39,3.31,7.39,7.39,7.39"/><path class="cls-7" d="m1052.46,1431.53c4.08,0,7.39-3.31,7.39-7.39s-3.31-7.39-7.39-7.39-7.39,3.31-7.39,7.39,3.31,7.39,7.39,7.39Z"/><path class="cls-40" d="m1056.39,1420.38c-1.9,0-2.85,1.55-2.85,3.45v3.07c0,.21.17.38.38.38h1.15v2.69c0,.63.52,1.15,1.15,1.15s.55-.52.55-1.15v-9.2c0-.21-.17-.38-.38-.38"/><path class="cls-40" d="m1052.07,1420.38c-.21,0-.38.17-.38.38v2.68c0,.21-.17.38-.38.38h-.38c-.21,0-.38-.17-.38-.38v-2.68c0-.21-.17-.38-.38-.38s-.38.17-.38.38v2.68c0,.21-.17.38-.38.38h-.38c-.21,0-.38-.17-.38-.38v-2.68c0-.21-.17-.38-.38-.38s-.38.17-.38.38v3.45c0,.71.49,1.32,1.15,1.49v4.22c0,.56.38,1.07.92,1.17.73.14,1.38-.42,1.38-1.13v-4.27c.66-.17,1.15-.77,1.15-1.49v-3.45c0-.21-.17-.38-.38-.38"/><path class="cls-25" d="m964.29,1129.23c4.08,0,7.39-3.31,7.39-7.39s-3.31-7.39-7.39-7.39-7.39,3.31-7.39,7.39,3.31,7.39,7.39,7.39"/><path class="cls-7" d="m964.29,1129.23c4.08,0,7.39-3.31,7.39-7.39s-3.31-7.39-7.39-7.39-7.39,3.31-7.39,7.39,3.31,7.39,7.39,7.39Z"/><path class="cls-40" d="m968.22,1118.07c-1.9,0-2.85,1.55-2.85,3.45v3.07c0,.21.17.38.38.38h1.15v2.69c0,.63.52,1.15,1.15,1.15s.55-.52.55-1.15v-9.2c0-.21-.17-.38-.38-.38"/><path class="cls-40" d="m963.9,1118.07c-.21,0-.38.17-.38.38v2.68c0,.21-.17.38-.38.38h-.38c-.21,0-.38-.17-.38-.38v-2.68c0-.21-.17-.38-.38-.38s-.38.17-.38.38v2.68c0,.21-.17.38-.38.38h-.38c-.21,0-.38-.17-.38-.38v-2.68c0-.21-.17-.38-.38-.38s-.38.17-.38.38v3.45c0,.71.49,1.32,1.15,1.49v4.22c0,.56.38,1.07.92,1.17.73.14,1.38-.42,1.38-1.13v-4.27c.66-.17,1.15-.77,1.15-1.49v-3.45c0-.21-.17-.38-.38-.38"/><path class="cls-25" d="m942.62,1085.04c4.08,0,7.39-3.31,7.39-7.39s-3.31-7.39-7.39-7.39-7.39,3.31-7.39,7.39,3.31,7.39,7.39,7.39"/><path class="cls-7" d="m942.62,1085.04c4.08,0,7.39-3.31,7.39-7.39s-3.31-7.39-7.39-7.39-7.39,3.31-7.39,7.39,3.31,7.39,7.39,7.39Z"/><path class="cls-40" d="m946.56,1073.88c-1.9,0-2.85,1.55-2.85,3.45v3.07c0,.21.17.38.38.38h1.15v2.69c0,.63.52,1.15,1.15,1.15s.55-.52.55-1.15v-9.2c0-.21-.17-.38-.38-.38"/><path class="cls-40" d="m942.24,1073.88c-.21,0-.38.17-.38.38v2.68c0,.21-.17.38-.38.38h-.38c-.21,0-.38-.17-.38-.38v-2.68c0-.21-.17-.38-.38-.38s-.38.17-.38.38v2.68c0,.21-.17.38-.38.38h-.38c-.21,0-.38-.17-.38-.38v-2.68c0-.21-.17-.38-.38-.38s-.38.17-.38.38v3.45c0,.71.49,1.32,1.15,1.49v4.22c0,.56.38,1.07.92,1.17.73.14,1.38-.42,1.38-1.13v-4.27c.66-.17,1.15-.77,1.15-1.49v-3.45c0-.21-.17-.38-.38-.38"/><path class="cls-25" d="m935.21,1047.93c4.08,0,7.39-3.31,7.39-7.39s-3.31-7.39-7.39-7.39-7.39,3.31-7.39,7.39,3.31,7.39,7.39,7.39"/><path class="cls-7" d="m935.21,1047.93c4.08,0,7.39-3.31,7.39-7.39s-3.31-7.39-7.39-7.39-7.39,3.31-7.39,7.39,3.31,7.39,7.39,7.39Z"/><path class="cls-40" d="m939.15,1036.78c-1.9,0-2.85,1.55-2.85,3.45v3.07c0,.21.17.38.38.38h1.15v2.69c0,.63.52,1.15,1.15,1.15s.55-.52.55-1.15v-9.2c0-.21-.17-.38-.38-.38"/><path class="cls-40" d="m934.83,1036.78c-.21,0-.38.17-.38.38v2.68c0,.21-.17.38-.38.38h-.38c-.21,0-.38-.17-.38-.38v-2.68c0-.21-.17-.38-.38-.38s-.38.17-.38.38v2.68c0,.21-.17.38-.38.38h-.38c-.21,0-.38-.17-.38-.38v-2.68c0-.21-.17-.38-.38-.38s-.38.17-.38.38v3.45c0,.71.49,1.32,1.15,1.49v4.22c0,.56.38,1.07.92,1.17.73.14,1.38-.42,1.38-1.13v-4.27c.66-.17,1.15-.77,1.15-1.49v-3.45c0-.21-.17-.38-.38-.38"/><path class="cls-25" d="m936.48,1014.8c4.08,0,7.39-3.31,7.39-7.39s-3.31-7.39-7.39-7.39-7.39,3.31-7.39,7.39,3.31,7.39,7.39,7.39"/><path class="cls-7" d="m936.48,1014.8c4.08,0,7.39-3.31,7.39-7.39s-3.31-7.39-7.39-7.39-7.39,3.31-7.39,7.39,3.31,7.39,7.39,7.39Z"/><path class="cls-40" d="m940.41,1003.65c-1.9,0-2.85,1.55-2.85,3.45v3.07c0,.21.17.38.38.38h1.15v2.69c0,.63.52,1.15,1.15,1.15s.55-.52.55-1.15v-9.2c0-.21-.17-.38-.38-.38"/><path class="cls-40" d="m936.09,1003.65c-.21,0-.38.17-.38.38v2.68c0,.21-.17.38-.38.38h-.38c-.21,0-.38-.17-.38-.38v-2.68c0-.21-.17-.38-.38-.38s-.38.17-.38.38v2.68c0,.21-.17.38-.38.38h-.38c-.21,0-.38-.17-.38-.38v-2.68c0-.21-.17-.38-.38-.38s-.38.17-.38.38v3.45c0,.71.49,1.32,1.15,1.49v4.22c0,.56.38,1.07.92,1.17.73.14,1.38-.42,1.38-1.13v-4.27c.66-.17,1.15-.77,1.15-1.49v-3.45c0-.21-.17-.38-.38-.38"/><path class="cls-25" d="m942.62,985.11c4.08,0,7.39-3.31,7.39-7.39s-3.31-7.39-7.39-7.39-7.39,3.31-7.39,7.39,3.31,7.39,7.39,7.39"/><path class="cls-7" d="m942.62,985.11c4.08,0,7.39-3.31,7.39-7.39s-3.31-7.39-7.39-7.39-7.39,3.31-7.39,7.39,3.31,7.39,7.39,7.39Z"/><path class="cls-40" d="m946.56,973.95c-1.9,0-2.85,1.55-2.85,3.45v3.07c0,.21.17.38.38.38h1.15v2.69c0,.63.52,1.15,1.15,1.15s.55-.52.55-1.15v-9.2c0-.21-.17-.38-.38-.38"/><path class="cls-40" d="m942.24,973.95c-.21,0-.38.17-.38.38v2.68c0,.21-.17.38-.38.38h-.38c-.21,0-.38-.17-.38-.38v-2.68c0-.21-.17-.38-.38-.38s-.38.17-.38.38v2.68c0,.21-.17.38-.38.38h-.38c-.21,0-.38-.17-.38-.38v-2.68c0-.21-.17-.38-.38-.38s-.38.17-.38.38v3.45c0,.71.49,1.32,1.15,1.49v4.22c0,.56.38,1.07.92,1.17.73.14,1.38-.42,1.38-1.13v-4.27c.66-.17,1.15-.77,1.15-1.49v-3.45c0-.21-.17-.38-.38-.38"/><rect class="cls-1" width="1728" height="2592"/></g><g id="Parking"><rect class="cls-33" x="1582.75" y="1783.45" width="23.2" height="23.2" transform="translate(-802.32 1653.13) rotate(-45)"/><text class="cls-18" transform="translate(1589.39 1800.81)"><tspan x="0" y="0">P</tspan></text><rect class="cls-33" x="1626.38" y="1631.06" width="23.2" height="23.2" transform="translate(-681.79 1639.35) rotate(-45)"/><text class="cls-18" transform="translate(1633.02 1648.42)"><tspan x="0" y="0">P</tspan></text><rect class="cls-33" x="1605.76" y="1387.85" width="23.2" height="23.2" transform="translate(-515.85 1553.54) rotate(-45)"/><text class="cls-18" transform="translate(1612.4 1405.21)"><tspan x="0" y="0">P</tspan></text><rect class="cls-33" x="1485.02" y="1396.14" width="23.2" height="23.2" transform="translate(-557.07 1470.59) rotate(-45)"/><text class="cls-18" transform="translate(1491.66 1413.5)"><tspan x="0" y="0">P</tspan></text><rect class="cls-33" x="1499.32" y="1514.55" width="23.2" height="23.2" transform="translate(-636.61 1515.38) rotate(-45)"/><text class="cls-18" transform="translate(1505.96 1531.91)"><tspan x="0" y="0">P</tspan></text><rect class="cls-33" x="1464.05" y="1741.56" width="23.2" height="23.2" transform="translate(-807.47 1556.93) rotate(-45)"/><text class="cls-18" transform="translate(1470.69 1758.92)"><tspan x="0" y="0">P</tspan></text><rect class="cls-33" x="1370.77" y="1821.34" width="23.2" height="23.2" transform="translate(-891.2 1514.34) rotate(-45)"/><text class="cls-18" transform="translate(1377.41 1838.7)"><tspan x="0" y="0">P</tspan></text><rect class="cls-33" x="1196.21" y="1934.86" width="23.2" height="23.2" transform="translate(-1022.59 1424.16) rotate(-45)"/><text class="cls-18" transform="translate(1202.85 1952.22)"><tspan x="0" y="0">P</tspan></text><rect class="cls-33" x="1135.48" y="2099.53" width="23.2" height="23.2" transform="translate(-1156.82 1429.45) rotate(-45)"/><text class="cls-18" transform="translate(1142.12 2116.89)"><tspan x="0" y="0">P</tspan></text><rect class="cls-33" x="1222.67" y="2097.58" width="23.2" height="23.2" transform="translate(-1129.91 1490.53) rotate(-45)"/><text class="cls-18" transform="translate(1229.31 2114.94)"><tspan x="0" y="0">P</tspan></text><rect class="cls-33" x="1313.74" y="2149.21" width="23.2" height="23.2" transform="translate(-1139.74 1570.04) rotate(-45)"/><text class="cls-18" transform="translate(1320.38 2166.57)"><tspan x="0" y="0">P</tspan></text><rect class="cls-33" x="1494.52" y="1864.69" width="23.2" height="23.2" transform="translate(-885.61 1614.54) rotate(-45)"/><text class="cls-18" transform="translate(1501.16 1882.05)"><tspan x="0" y="0">P</tspan></text><rect class="cls-33" x="1450.54" y="961.83" width="23.2" height="23.2" transform="translate(-260.07 1319) rotate(-45)"/><text class="cls-18" transform="translate(1457.18 979.19)"><tspan x="0" y="0">P</tspan></text><rect class="cls-33" x="1450.54" y="1060.75" width="23.2" height="23.2" transform="translate(-330.02 1347.98) rotate(-45)"/><text class="cls-18" transform="translate(1457.18 1078.12)"><tspan x="0" y="0">P</tspan></text><rect class="cls-33" x="1632.73" y="1498.14" width="23.2" height="23.2" transform="translate(-585.94 1604.91) rotate(-45)"/><text class="cls-18" transform="translate(1639.37 1515.5)"><tspan x="0" y="0">P</tspan></text><rect class="cls-33" x="904.08" y="587.76" width="23.2" height="23.2" transform="translate(-162.77 785.48) rotate(-43)"/><text class="cls-22" transform="translate(910.52 604.94) rotate(2)"><tspan x="0" y="0">P</tspan></text><rect class="cls-33" x="797.07" y="659.95" width="23.2" height="23.2" transform="translate(-240.75 731.89) rotate(-43)"/><text class="cls-22" transform="translate(803.51 677.13) rotate(2)"><tspan x="0" y="0">P</tspan></text><rect class="cls-33" x="693.75" y="732.71" width="23.2" height="23.2" transform="translate(-318.13 680.98) rotate(-43)"/><text class="cls-22" transform="translate(700.18 749.89) rotate(2)"><tspan x="0" y="0">P</tspan></text><rect class="cls-33" x="597.89" y="797.96" width="23.2" height="23.2" transform="translate(-388.38 633.13) rotate(-43)"/><text class="cls-22" transform="translate(604.33 815.14) rotate(2)"><tspan x="0" y="0">P</tspan></text><rect class="cls-33" x="637.77" y="905.25" width="23.2" height="23.2" transform="translate(-450.83 689.15) rotate(-43)"/><text class="cls-22" transform="translate(644.2 922.43) rotate(2)"><tspan x="0" y="0">P</tspan></text><rect class="cls-33" x="559.76" y="950.27" width="23.2" height="23.2" transform="translate(-502.49 648.04) rotate(-43)"/><text class="cls-22" transform="translate(566.2 967.45) rotate(2)"><tspan x="0" y="0">P</tspan></text><rect class="cls-33" x="445.47" y="1019.28" width="23.2" height="23.2" transform="translate(-580.26 588.63) rotate(-43)"/><text class="cls-22" transform="translate(451.9 1036.46) rotate(2)"><tspan x="0" y="0">P</tspan></text></g><g id="RV_Parking"><path class="cls-25" d="m1580.34,1173.99c6.8,0,12.31-5.51,12.31-12.31s-5.51-12.31-12.31-12.31-12.31,5.51-12.31,12.31,5.51,12.31,12.31,12.31"/><circle class="cls-10" cx="1580.34" cy="1161.68" r="12.31"/><g class="cls-24"><path class="cls-37" d="m1576.69,1158.49c0,.32-.26.57-.57.57h-2.98c-.32,0-.57-.26-.57-.57v-1.35c0-.32.26-.57.57-.57h2.98c.32,0,.57.26.57.57v1.35Zm-9.64.57c-.32,0-.57-.26-.57-.57v-1.35c0-.32.26-.57.57-.57h2.98m8.74,10.07v-9.49c0-.32.26-.57.57-.57h5.48c.32,0,.57.26.57.57v9.49h7.65v1.5h-.27v.67h1.36v-.67h-.27v-2.96h.27v-.67h-1.36v.67h.27v.65h-3.61c.4-.51.63-1.33.63-2.65,0-2.41-1.86-5.69-3.66-7.49-.97-.96-1.91-.97-3.1-.97h-18.74v11.92h1.75c0-1.75,1.42-3.17,3.17-3.17h4.33c1.75,0,3.17,1.42,3.17,3.17h1.79Z"/><path class="cls-37" d="m1581.05,1158.77h2.08v1.26h-2.08v-1.26Zm3.35,7.86v-9.07h-4.63v9.07h4.63Z"/><path class="cls-37" d="m1571.75,1167.35c.3.84,1.1,1.45,2.04,1.45,1.2,0,2.17-.97,2.17-2.17s-.97-2.17-2.17-2.17c-.94,0-1.74.6-2.04,1.45-.26.58,0,1.44,0,1.44m2.04.11c-.46,0-.83-.37-.83-.83s.37-.83.83-.83.83.37.83.83-.37.83-.83.83m-4.08,0c-.46,0-.83-.37-.83-.83s.37-.83.83-.83.83.37.83.83-.37.83-.83.83"/></g><path class="cls-25" d="m1524.16,1173.99c6.8,0,12.31-5.51,12.31-12.31s-5.51-12.31-12.31-12.31-12.31,5.51-12.31,12.31,5.51,12.31,12.31,12.31"/><circle class="cls-10" cx="1524.16" cy="1161.68" r="12.31"/><g class="cls-51"><path class="cls-37" d="m1520.51,1158.49c0,.32-.26.57-.57.57h-2.98c-.32,0-.57-.26-.57-.57v-1.35c0-.32.26-.57.57-.57h2.98c.32,0,.57.26.57.57v1.35Zm-9.64.57c-.32,0-.57-.26-.57-.57v-1.35c0-.32.26-.57.57-.57h2.98m8.74,10.07v-9.49c0-.32.26-.57.57-.57h5.48c.32,0,.57.26.57.57v9.49h7.65v1.5h-.27v.67h1.36v-.67h-.27v-2.96h.27v-.67h-1.36v.67h.27v.65h-3.61c.4-.51.63-1.33.63-2.65,0-2.41-1.86-5.69-3.66-7.49-.97-.96-1.91-.97-3.1-.97h-18.74v11.92h1.75c0-1.75,1.42-3.17,3.17-3.17h4.33c1.75,0,3.17,1.42,3.17,3.17h1.79Z"/><path class="cls-37" d="m1524.86,1158.77h2.08v1.26h-2.08v-1.26Zm3.35,7.86v-9.07h-4.63v9.07h4.63Z"/><path class="cls-37" d="m1515.56,1167.35c.3.84,1.1,1.45,2.04,1.45,1.2,0,2.17-.97,2.17-2.17s-.97-2.17-2.17-2.17c-.94,0-1.74.6-2.04,1.45-.26.58,0,1.44,0,1.44m2.04.11c-.46,0-.83-.37-.83-.83s.37-.83.83-.83.83.37.83.83-.37.83-.83.83m-4.08,0c-.46,0-.83-.37-.83-.83s.37-.83.83-.83.83.37.83.83-.37.83-.83.83"/></g><g class="cls-54"><path class="cls-25" d="m450.93,1518.66c6.8,0,12.31-5.51,12.31-12.31s-5.51-12.31-12.31-12.31-12.31,5.51-12.31,12.31,5.51,12.31,12.31,12.31"/><circle class="cls-10" cx="450.93" cy="1506.35" r="12.31"/><path class="cls-37" d="m447.29,1503.16c0,.32-.26.57-.57.57h-2.98c-.32,0-.57-.26-.57-.57v-1.35c0-.32.26-.57.57-.57h2.98c.32,0,.57.26.57.57v1.35Zm-9.64.57c-.32,0-.57-.26-.57-.57v-1.35c0-.32.26-.57.57-.57h2.98m8.74,10.07v-9.49c0-.32.26-.57.57-.57h5.48c.32,0,.57.26.57.57v9.49h7.65v1.5h-.27v.67h1.36v-.67h-.27v-2.96h.27v-.67h-1.36v.67h.27v.65h-3.61c.4-.51.63-1.33.63-2.65,0-2.41-1.86-5.69-3.66-7.49-.96-.96-1.91-.97-3.1-.97h-18.74v11.92h1.75c0-1.75,1.42-3.17,3.17-3.17h4.33c1.75,0,3.17,1.42,3.17,3.17h1.79Z"/><path class="cls-37" d="m451.64,1503.44h2.08v1.26h-2.08v-1.26Zm3.35,7.86v-9.07h-4.63v9.07h4.63Z"/><path class="cls-37" d="m442.34,1512.02c.3.84,1.1,1.45,2.04,1.45,1.2,0,2.17-.97,2.17-2.17s-.97-2.17-2.17-2.17c-.94,0-1.74.61-2.04,1.45-.26.58,0,1.44,0,1.44m2.04.11c-.46,0-.83-.37-.83-.83s.37-.83.83-.83.83.37.83.83-.37.83-.83.83m-4.08,0c-.46,0-.83-.37-.83-.83s.37-.83.83-.83.83.37.83.83-.37.83-.83.83"/></g><path class="cls-25" d="m519.75,1206.78c6.8,0,12.31-5.51,12.31-12.31s-5.51-12.31-12.31-12.31-12.31,5.51-12.31,12.31,5.51,12.31,12.31,12.31"/><circle class="cls-10" cx="519.75" cy="1194.47" r="12.31"/><g class="cls-53"><path class="cls-37" d="m516.1,1191.28c0,.32-.26.57-.57.57h-2.98c-.32,0-.57-.26-.57-.57v-1.35c0-.32.26-.57.57-.57h2.98c.32,0,.57.26.57.57v1.35Zm-9.64.57c-.32,0-.57-.26-.57-.57v-1.35c0-.32.26-.57.57-.57h2.98m8.74,10.07v-9.49c0-.32.26-.57.57-.57h5.48c.32,0,.57.26.57.57v9.49h7.65v1.5h-.27v.67h1.35v-.67h-.27v-2.96h.27v-.67h-1.35v.67h.27v.65h-3.61c.4-.51.63-1.33.63-2.65,0-2.41-1.86-5.69-3.66-7.49-.96-.96-1.91-.97-3.1-.97h-18.74v11.92h1.75c0-1.75,1.42-3.17,3.17-3.17h4.33c1.75,0,3.17,1.42,3.17,3.17h1.79Z"/><path class="cls-37" d="m520.46,1191.57h2.08v1.26h-2.08v-1.26Zm3.35,7.86v-9.07h-4.63v9.07h4.63Z"/><path class="cls-37" d="m511.15,1200.14c.3.84,1.1,1.45,2.04,1.45,1.2,0,2.17-.97,2.17-2.17s-.97-2.17-2.17-2.17c-.94,0-1.74.6-2.04,1.45-.26.58,0,1.44,0,1.44m2.04.11c-.46,0-.83-.37-.83-.83s.37-.83.83-.83.83.37.83.83-.37.83-.83.83m-4.08,0c-.46,0-.83-.37-.83-.83s.37-.83.83-.83.83.37.83.83-.37.83-.83.83"/></g></g><g id="Shower"><path class="cls-25" d="m415.7,1174.79c5.44,0,9.85-4.41,9.85-9.85s-4.41-9.85-9.85-9.85-9.85,4.41-9.85,9.85,4.41,9.85,9.85,9.85"/><path class="cls-4" d="m415.7,1174.79c5.44,0,9.85-4.41,9.85-9.85s-4.41-9.85-9.85-9.85-9.85,4.41-9.85,9.85,4.41,9.85,9.85,9.85Z"/><path class="cls-36" d="m422.47,1164.4c0-3.32-3.03-6.02-6.77-6.02s-6.77,2.69-6.77,6.02h13.53Z"/><path class="cls-36" d="m411.34,1165.95s-2.93,4.03,0,4.03,0-4.03,0-4.03"/><path class="cls-36" d="m420.16,1165.95s-2.93,4.03,0,4.03,0-4.03,0-4.03"/><path class="cls-36" d="m415.75,1165.95s-3.49,4.9,0,4.9,0-4.9,0-4.9"/><rect class="cls-36" x="414.72" y="1155.51" width="1.96" height="5.88"/><path class="cls-25" d="m579.85,1599.72c5.44,0,9.85-4.41,9.85-9.85s-4.41-9.85-9.85-9.85-9.85,4.41-9.85,9.85,4.41,9.85,9.85,9.85"/><path class="cls-4" d="m579.85,1599.72c5.44,0,9.85-4.41,9.85-9.85s-4.41-9.85-9.85-9.85-9.85,4.41-9.85,9.85,4.41,9.85,9.85,9.85Z"/><path class="cls-36" d="m586.62,1589.32c0-3.32-3.03-6.02-6.77-6.02s-6.77,2.69-6.77,6.02h13.53Z"/><path class="cls-36" d="m575.48,1590.87s-2.93,4.03,0,4.03,0-4.03,0-4.03"/><path class="cls-36" d="m584.3,1590.87s-2.93,4.03,0,4.03,0-4.03,0-4.03"/><path class="cls-36" d="m579.89,1590.87s-3.49,4.9,0,4.9,0-4.9,0-4.9"/><rect class="cls-36" x="578.87" y="1580.43" width="1.96" height="5.88"/><path class="cls-25" d="m370.77,1631.96c5.44,0,9.85-4.41,9.85-9.85s-4.41-9.85-9.85-9.85-9.85,4.41-9.85,9.85,4.41,9.85,9.85,9.85"/><path class="cls-4" d="m370.77,1631.96c5.44,0,9.85-4.41,9.85-9.85s-4.41-9.85-9.85-9.85-9.85,4.41-9.85,9.85,4.41,9.85,9.85,9.85Z"/><rect class="cls-36" x="369.79" y="1612.67" width="1.96" height="5.88"/><path class="cls-36" d="m366.41,1623.11s-2.93,4.03,0,4.03,0-4.03,0-4.03"/><path class="cls-36" d="m375.23,1623.11s-2.93,4.03,0,4.03,0-4.03,0-4.03"/><path class="cls-36" d="m370.82,1623.11s-3.49,4.9,0,4.9,0-4.9,0-4.9"/><path class="cls-36" d="m377.54,1621.56c0-3.32-3.03-6.02-6.77-6.02s-6.77,2.69-6.77,6.02h13.53Z"/></g><g id="Water_Station"><path class="cls-25" d="m1388.18,1287.49c5.44,0,9.85-4.41,9.85-9.85s-4.41-9.85-9.85-9.85-9.85,4.41-9.85,9.85,4.41,9.85,9.85,9.85"/><path class="cls-3" d="m1388.18,1287.49c5.44,0,9.85-4.41,9.85-9.85s-4.41-9.85-9.85-9.85-9.85,4.41-9.85,9.85,4.41,9.85,9.85,9.85Z"/><text class="cls-48" transform="translate(1380.8 1282.94)"><tspan x="0" y="0">W</tspan></text><path class="cls-25" d="m1276.09,1207.22c5.44,0,9.85-4.41,9.85-9.85s-4.41-9.85-9.85-9.85-9.85,4.41-9.85,9.85,4.41,9.85,9.85,9.85"/><path class="cls-3" d="m1276.09,1207.22c5.44,0,9.85-4.41,9.85-9.85s-4.41-9.85-9.85-9.85-9.85,4.41-9.85,9.85,4.41,9.85,9.85,9.85Z"/><text class="cls-48" transform="translate(1268.72 1202.68)"><tspan x="0" y="0">W</tspan></text><path class="cls-25" d="m1340.52,1367.37c5.44,0,9.85-4.41,9.85-9.85s-4.41-9.85-9.85-9.85-9.85,4.41-9.85,9.85,4.41,9.85,9.85,9.85"/><path class="cls-3" d="m1340.52,1367.37c5.44,0,9.85-4.41,9.85-9.85s-4.41-9.85-9.85-9.85-9.85,4.41-9.85,9.85,4.41,9.85,9.85,9.85Z"/><text class="cls-48" transform="translate(1333.14 1362.83)"><tspan x="0" y="0">W</tspan></text><path class="cls-25" d="m1173.49,1303.5c5.44,0,9.85-4.41,9.85-9.85s-4.41-9.85-9.85-9.85-9.85,4.41-9.85,9.85,4.41,9.85,9.85,9.85"/><path class="cls-3" d="m1173.49,1303.5c5.44,0,9.85-4.41,9.85-9.85s-4.41-9.85-9.85-9.85-9.85,4.41-9.85,9.85,4.41,9.85,9.85,9.85Z"/><text class="cls-48" transform="translate(1166.11 1298.96)"><tspan x="0" y="0">W</tspan></text><path class="cls-25" d="m1053.41,1252.51c5.44,0,9.85-4.41,9.85-9.85s-4.41-9.85-9.85-9.85-9.85,4.41-9.85,9.85,4.41,9.85,9.85,9.85"/><path class="cls-3" d="m1053.41,1252.51c5.44,0,9.85-4.41,9.85-9.85s-4.41-9.85-9.85-9.85-9.85,4.41-9.85,9.85,4.41,9.85,9.85,9.85Z"/><text class="cls-48" transform="translate(1046.03 1247.97)"><tspan x="0" y="0">W</tspan></text><path class="cls-25" d="m1063.79,1187.41c5.44,0,9.85-4.41,9.85-9.85s-4.41-9.85-9.85-9.85-9.85,4.41-9.85,9.85,4.41,9.85,9.85,9.85"/><path class="cls-3" d="m1063.79,1187.41c5.44,0,9.85-4.41,9.85-9.85s-4.41-9.85-9.85-9.85-9.85,4.41-9.85,9.85,4.41,9.85,9.85,9.85Z"/><text class="cls-48" transform="translate(1056.42 1182.87)"><tspan x="0" y="0">W</tspan></text><path class="cls-25" d="m1032.31,1332.32c5.44,0,9.85-4.41,9.85-9.85s-4.41-9.85-9.85-9.85-9.85,4.41-9.85,9.85,4.41,9.85,9.85,9.85"/><path class="cls-3" d="m1032.31,1332.32c5.44,0,9.85-4.41,9.85-9.85s-4.41-9.85-9.85-9.85-9.85,4.41-9.85,9.85,4.41,9.85,9.85,9.85Z"/><text class="cls-48" transform="translate(1024.93 1327.77)"><tspan x="0" y="0">W</tspan></text><path class="cls-25" d="m793.75,1356.06c5.44,0,9.85-4.41,9.85-9.85s-4.41-9.85-9.85-9.85-9.85,4.41-9.85,9.85,4.41,9.85,9.85,9.85"/><path class="cls-3" d="m793.75,1356.06c5.44,0,9.85-4.41,9.85-9.85s-4.41-9.85-9.85-9.85-9.85,4.41-9.85,9.85,4.41,9.85,9.85,9.85Z"/><text class="cls-48" transform="translate(786.37 1351.52)"><tspan x="0" y="0">W</tspan></text><path class="cls-25" d="m730.37,1230.76c4.08,0,7.39-3.31,7.39-7.39s-3.31-7.39-7.39-7.39-7.39,3.31-7.39,7.39,3.31,7.39,7.39,7.39"/><path class="cls-8" d="m730.37,1230.76c4.08,0,7.39-3.31,7.39-7.39s-3.31-7.39-7.39-7.39-7.39,3.31-7.39,7.39,3.31,7.39,7.39,7.39Z"/><text class="cls-46" transform="translate(724.83 1227.35)"><tspan x="0" y="0">W</tspan></text></g><g id="Misc._Place_Labels"><rect class="cls-42" x="921.61" y="1171.45" width="17.41" height="17.41" transform="translate(-562.01 1003.49) rotate(-45)"/><text class="cls-16" transform="translate(924.1 1184.91)"><tspan x="0" y="0">M</tspan></text><rect class="cls-23" x="743.84" y="1181.57" width="17.41" height="17.41" transform="translate(-621.24 880.76) rotate(-45)"/><text class="cls-16" transform="translate(748.65 1195.03)"><tspan x="0" y="0">S</tspan></text><rect class="cls-28" x="806.95" y="1177.83" width="17.41" height="17.41" transform="translate(-600.11 924.28) rotate(-45)"/><text class="cls-16" transform="translate(811.45 1191.51)"><tspan x="0" y="0">E</tspan></text><rect class="cls-29" x="1066.28" y="1222.21" width="17.41" height="17.41" transform="translate(-555.54 1120.66) rotate(-45)"/><text class="cls-16" transform="translate(1069.25 1235.5)"><tspan x="0" y="0">H</tspan></text><rect class="cls-41" x="1396.1" y="1287.29" width="17.41" height="17.41" transform="translate(-504.95 1372.94) rotate(-45)"/><text class="cls-16" transform="translate(1399.19 1300.68)"><tspan x="0" y="0">G</tspan></text><rect class="cls-37" x="863.59" y="1146.47" width="17.41" height="17.41" transform="translate(-561.34 955.15) rotate(-45)"/><text class="cls-15" transform="translate(866.65 1160.15)"><tspan x="0" y="0">C</tspan></text><g id="Tribal_Police"><path class="cls-25" d="m771.89,1063.89c6.8,0,12.31-5.51,12.31-12.31s-5.51-12.31-12.31-12.31-12.31,5.51-12.31,12.31,5.51,12.31,12.31,12.31"/><circle class="cls-11" cx="771.89" cy="1051.57" r="12.31"/><polygon class="cls-38" points="771.89 1042.3 769.48 1048.36 762.98 1048.77 767.99 1052.93 766.38 1059.25 771.89 1055.76 777.4 1059.25 775.78 1052.93 780.8 1048.77 774.29 1048.36 771.89 1042.3"/></g><g id="Zone_Labels"><g class="cls-52"><g class="cls-69"><g class="cls-58"><text class="cls-21" transform="translate(311.98 1259.29)"><tspan class="cls-67" x="0" y="0">Z</tspan><tspan class="cls-71" x="16.51" y="0">ONE 4</tspan></text></g></g><g class="cls-69"><g class="cls-57"><text class="cls-21" transform="translate(1053.04 1406.13)"><tspan class="cls-65" x="0" y="0">Z</tspan><tspan x="16.51" y="0">ONE 3</tspan></text></g></g><g class="cls-69"><g class="cls-55"><text class="cls-21" transform="translate(734.85 1580.51)"><tspan class="cls-65" x="0" y="0">Z</tspan><tspan class="cls-71" x="16.51" y="0">ONE 1</tspan></text></g></g><g class="cls-69"><g class="cls-56"><text class="cls-21" transform="translate(567.67 1003.6)"><tspan class="cls-65" x="0" y="0">Z</tspan><tspan class="cls-71" x="16.51" y="0">ONE 2</tspan></text></g></g><g class="cls-69"><g class="cls-59"><text class="cls-21" transform="translate(1516.51 934.09)"><tspan class="cls-65" x="0" y="0">Z</tspan><tspan x="16.51" y="0">ONE 5</tspan></text></g></g><g class="cls-69"><g class="cls-62"><text class="cls-21" transform="translate(1338.88 1392.32)"><tspan class="cls-65" x="0" y="0">Z</tspan><tspan x="16.51" y="0">ONE 6</tspan></text></g></g><g class="cls-69"><g class="cls-63"><text class="cls-21" transform="translate(1559.51 1897.98)"><tspan class="cls-65" x="0" y="0">Z</tspan><tspan x="16.51" y="0">ONE 7</tspan></text></g></g></g></g><text class="cls-49" transform="translate(1004.75 608.36)"><tspan x="0" y="0">A1</tspan></text><text class="cls-49" transform="translate(869.52 687.93)"><tspan x="0" y="0">A2</tspan></text><text class="cls-49" transform="translate(748.07 765.64)"><tspan x="0" y="0">A3</tspan></text><text class="cls-49" transform="translate(667.87 817.48)"><tspan x="0" y="0">A4</tspan></text><text class="cls-49" transform="translate(571.31 875.27)"><tspan x="0" y="0">A5</tspan></text><text class="cls-49" transform="translate(434.3 956.94)"><tspan x="0" y="0">A6</tspan></text><text class="cls-49" transform="translate(373.33 1060.13)"><tspan x="0" y="0">B1</tspan></text><text class="cls-49" transform="translate(516.18 974.46)"><tspan x="0" y="0">C3</tspan></text><text class="cls-49" transform="translate(604.27 916.13)"><tspan x="0" y="0">C2</tspan></text><text class="cls-49" transform="translate(694.36 865.02)"><tspan x="0" y="0">C1</tspan></text><text class="cls-49" transform="translate(1433.25 1293.2)"><tspan x="0" y="0">D2</tspan></text><text class="cls-49" transform="translate(1486.33 1369.57)"><tspan x="0" y="0">G1</tspan></text><text class="cls-49" transform="translate(1497.18 1457.59)"><tspan x="0" y="0">G2</tspan></text><text class="cls-49" transform="translate(1533.9 1593.31)"><tspan x="0" y="0">G3</tspan></text><text class="cls-49" transform="translate(1563.49 1369.57)"><tspan x="0" y="0">E1</tspan></text><text class="cls-49" transform="translate(1574.35 1457.59)"><tspan x="0" y="0">E2</tspan></text><text class="cls-49" transform="translate(1611.07 1593.31)"><tspan x="0" y="0">E3</tspan></text><text class="cls-49" transform="translate(1610.92 1735.86)"><tspan x="0" y="0">E4</tspan></text><text class="cls-49" transform="translate(1516.41 1831.69)"><tspan x="0" y="0">E5</tspan></text><text class="cls-49" transform="translate(1366.63 1962.78)"><tspan x="0" y="0">E6</tspan></text><text class="cls-49" transform="translate(1344.18 1892.38)"><tspan x="0" y="0">H2</tspan></text><text class="cls-49" transform="translate(1177.43 2009.26)"><tspan x="0" y="0">I2</tspan></text><text class="cls-49" transform="translate(1140.04 2067.36)"><tspan x="0" y="0">F1</tspan></text><text class="cls-49" transform="translate(1227.52 2067.36)"><tspan x="0" y="0">F2</tspan></text><text class="cls-49" transform="translate(1319.36 2117.85)"><tspan x="0" y="0">F3</tspan></text><text class="cls-49" transform="translate(1439.44 1811.65)"><tspan x="0" y="0">H2</tspan></text><text class="cls-49" transform="translate(1519.83 1735.87)"><tspan x="0" y="0">H1</tspan></text><text class="cls-49" transform="translate(1460.96 1114.42)"><tspan x="0" y="0">D1</tspan></text><g class="cls-68"><g class="cls-61"><text class="cls-44" transform="translate(390.85 923.32)"><tspan x="0" y="0">ASSOCI</tspan><tspan class="cls-26" x="39.23" y="0">A</tspan><tspan class="cls-64" x="45.83" y="0">TE </tspan><tspan class="cls-43" x="61.61" y="0">P</tspan><tspan x="68.12" y="0">ARKING</tspan></text></g></g><g class="cls-68"><g class="cls-60"><text class="cls-47" transform="translate(1360.39 2012.77) rotate(-43)"><tspan x="0" y="0">ASSOCI</tspan><tspan class="cls-27" x="39.23" y="0">A</tspan><tspan x="45.83" y="0">TE </tspan><tspan class="cls-50" x="61.61" y="0">P</tspan><tspan x="68.11" y="0">ARKING</tspan></text></g></g></g><g id="Information"><rect class="cls-38" x="833.77" y="1152.07" width="23.2" height="23.2" transform="translate(-575.24 938.6) rotate(-45)"/><text class="cls-14" transform="translate(841.92 1172.15)"><tspan x="0" y="0">i</tspan></text><rect class="cls-38" x="1021.45" y="1170.29" width="23.2" height="23.2" transform="translate(-533.15 1076.65) rotate(-45)"/><text class="cls-14" transform="translate(1029.59 1190.37)"><tspan x="0" y="0">i</tspan></text><rect class="cls-38" x="105.54" y="1816.84" width="23.2" height="23.2" transform="translate(-1258.59 618.37) rotate(-45)"/><text class="cls-14" transform="translate(113.68 1836.92)"><tspan x="0" y="0">i</tspan></text></g><g id="Concession_Stands"><rect class="cls-40" x="778.99" y="1220.9" width="17.41" height="17.41" transform="translate(-638.75 917.13) rotate(-45)"/><text class="cls-16" transform="translate(782.39 1234.14)"><tspan x="0" y="0">C</tspan></text><rect class="cls-40" x="824.45" y="1347.93" width="17.41" height="17.41" transform="translate(-715.26 986.48) rotate(-45)"/><text class="cls-17" transform="translate(827.92 1361.01)"><tspan x="0" y="0">C</tspan></text><rect class="cls-40" x="634.01" y="1386.14" width="17.41" height="17.41" transform="translate(-798.06 863.01) rotate(-45)"/><text class="cls-17" transform="translate(637.48 1399.22)"><tspan x="0" y="0">C</tspan></text><rect class="cls-40" x="947.11" y="896.43" width="17.41" height="17.41" transform="translate(-360.08 940.97) rotate(-45)"/><text class="cls-17" transform="translate(950.58 909.51)"><tspan x="0" y="0">C</tspan></text></g><g id="First_Aid"><path class="cls-25" d="m986.39,1427.17c6.8,0,12.31-5.51,12.31-12.31s-5.51-12.31-12.31-12.31-12.31,5.51-12.31,12.31,5.51,12.31,12.31,12.31"/><circle class="cls-12" cx="986.39" cy="1414.86" r="12.31"/><rect class="cls-39" x="978.18" y="1412.4" width="16.41" height="4.92"/><rect class="cls-39" x="983.93" y="1406.65" width="4.92" height="16.41"/><path class="cls-25" d="m694.07,1274.2c5.44,0,9.85-4.41,9.85-9.85s-4.41-9.85-9.85-9.85-9.85,4.41-9.85,9.85,4.41,9.85,9.85,9.85"/><path class="cls-5" d="m694.07,1274.2c5.44,0,9.85-4.41,9.85-9.85s-4.41-9.85-9.85-9.85-9.85,4.41-9.85,9.85,4.41,9.85,9.85,9.85Z"/><rect class="cls-39" x="687.51" y="1262.38" width="13.12" height="3.94"/><rect class="cls-39" x="692.11" y="1257.78" width="3.94" height="13.12"/><path class="cls-25" d="m1051.48,698.67c5.44,0,9.85-4.41,9.85-9.85s-4.41-9.85-9.85-9.85-9.85,4.41-9.85,9.85,4.41,9.85,9.85,9.85"/><path class="cls-5" d="m1051.48,698.67c5.44,0,9.85-4.41,9.85-9.85s-4.41-9.85-9.85-9.85-9.85,4.41-9.85,9.85,4.41,9.85,9.85,9.85Z"/><rect class="cls-39" x="1044.92" y="686.85" width="13.12" height="3.94"/><rect class="cls-39" x="1049.51" y="682.26" width="3.94" height="13.12"/><path class="cls-25" d="m1288.78,1252.56c5.44,0,9.85-4.41,9.85-9.85s-4.41-9.85-9.85-9.85-9.85,4.41-9.85,9.85,4.41,9.85,9.85,9.85"/><path class="cls-5" d="m1288.78,1252.56c5.44,0,9.85-4.41,9.85-9.85s-4.41-9.85-9.85-9.85-9.85,4.41-9.85,9.85,4.41,9.85,9.85,9.85Z"/><rect class="cls-39" x="1282.22" y="1240.74" width="13.12" height="3.94"/><rect class="cls-39" x="1286.81" y="1236.15" width="3.94" height="13.12"/></g><g id="Tent_Camping"><path class="cls-25" d="m441.12,1715.38c6.8,0,12.31-5.51,12.31-12.31s-5.51-12.31-12.31-12.31-12.31,5.51-12.31,12.31,5.51,12.31,12.31,12.31"/><circle class="cls-9" cx="441.12" cy="1703.07" r="12.31"/><polyline class="cls-41" points="449.36 1705.96 445.62 1697.11 442.2 1704.28 440.05 1709.01 443.89 1708.19 445.53 1702.36 446.75 1707.57 449.76 1706.93"/><polygon class="cls-41" points="444.31 1697.11 434.93 1699.87 432.51 1706.69 438.92 1708.53 444.31 1697.11"/><path class="cls-25" d="m653.43,1641.33c6.8,0,12.31-5.51,12.31-12.31s-5.51-12.31-12.31-12.31-12.31,5.51-12.31,12.31,5.51,12.31,12.31,12.31"/><circle class="cls-9" cx="653.43" cy="1629.02" r="12.31"/><polyline class="cls-41" points="661.66 1631.91 657.93 1623.06 654.51 1630.23 652.36 1634.96 656.2 1634.14 657.84 1628.31 659.06 1633.52 662.07 1632.88"/><polygon class="cls-41" points="656.61 1623.06 647.23 1625.82 644.82 1632.64 651.23 1634.48 656.61 1623.06"/><path class="cls-25" d="m704.19,1569.51c6.8,0,12.31-5.51,12.31-12.31s-5.51-12.31-12.31-12.31-12.31,5.51-12.31,12.31,5.51,12.31,12.31,12.31"/><circle class="cls-9" cx="704.19" cy="1557.2" r="12.31"/><polyline class="cls-41" points="712.42 1560.09 708.69 1551.24 705.27 1558.41 703.12 1563.14 706.96 1562.32 708.6 1556.49 709.82 1561.7 712.83 1561.06"/><polygon class="cls-41" points="707.37 1551.24 697.99 1554 695.58 1560.82 701.99 1562.66 707.37 1551.24"/><path class="cls-25" d="m266.78,1518.66c6.8,0,12.31-5.51,12.31-12.31s-5.51-12.31-12.31-12.31-12.31,5.51-12.31,12.31,5.51,12.31,12.31,12.31"/><circle class="cls-9" cx="266.78" cy="1506.35" r="12.31"/><polyline class="cls-41" points="275.01 1509.24 271.28 1500.39 267.86 1507.56 265.71 1512.29 269.55 1511.47 271.19 1505.64 272.41 1510.85 275.42 1510.21"/><polygon class="cls-41" points="269.96 1500.39 260.58 1503.15 258.17 1509.97 264.58 1511.81 269.96 1500.39"/><path class="cls-25" d="m359.72,1301.01c6.8,0,12.31-5.51,12.31-12.31s-5.51-12.31-12.31-12.31-12.31,5.51-12.31,12.31,5.51,12.31,12.31,12.31"/><circle class="cls-9" cx="359.72" cy="1288.7" r="12.31"/><polyline class="cls-41" points="367.96 1291.6 364.22 1282.74 360.81 1289.92 358.65 1294.64 362.49 1293.82 364.13 1287.99 365.36 1293.21 368.37 1292.56"/><polygon class="cls-41" points="362.91 1282.74 353.53 1285.5 351.11 1292.33 357.53 1294.16 362.91 1282.74"/><path class="cls-25" d="m1580.34,1000.56c6.8,0,12.31-5.51,12.31-12.31s-5.51-12.31-12.31-12.31-12.31,5.51-12.31,12.31,5.51,12.31,12.31,12.31"/><circle class="cls-9" cx="1580.34" cy="988.24" r="12.31"/><polyline class="cls-41" points="1588.58 991.14 1584.85 982.28 1581.43 989.46 1579.27 994.19 1583.12 993.36 1584.76 987.54 1585.98 992.75 1588.99 992.11"/><polygon class="cls-41" points="1583.53 982.28 1574.15 985.05 1571.73 991.87 1578.15 993.71 1583.53 982.28"/></g><g id="ATM"><path class="cls-25" d="m740.3,1213.62c4.08,0,7.39-3.31,7.39-7.39s-3.31-7.39-7.39-7.39-7.39,3.31-7.39,7.39,3.31,7.39,7.39,7.39"/><path class="cls-6" d="m740.3,1213.62c4.08,0,7.39-3.31,7.39-7.39s-3.31-7.39-7.39-7.39-7.39,3.31-7.39,7.39,3.31,7.39,7.39,7.39Z"/><text class="cls-13" transform="translate(735.82 1211.44)"><tspan x="0" y="0">$</tspan></text><rect class="cls-23" x="739.57" y="1198.92" width="1.47" height="14.15"/><path class="cls-25" d="m738.73,1304.67c4.08,0,7.39-3.31,7.39-7.39s-3.31-7.39-7.39-7.39-7.39,3.31-7.39,7.39,3.31,7.39,7.39,7.39"/><path class="cls-6" d="m738.73,1304.67c4.08,0,7.39-3.31,7.39-7.39s-3.31-7.39-7.39-7.39-7.39,3.31-7.39,7.39,3.31,7.39,7.39,7.39Z"/><text class="cls-13" transform="translate(734.25 1302.5)"><tspan x="0" y="0">$</tspan></text><rect class="cls-23" x="737.99" y="1289.97" width="1.47" height="14.15"/><path class="cls-25" d="m822.66,1115.96c4.08,0,7.39-3.31,7.39-7.39s-3.31-7.39-7.39-7.39-7.39,3.31-7.39,7.39,3.31,7.39,7.39,7.39"/><path class="cls-6" d="m822.66,1115.96c4.08,0,7.39-3.31,7.39-7.39s-3.31-7.39-7.39-7.39-7.39,3.31-7.39,7.39,3.31,7.39,7.39,7.39Z"/><text class="cls-13" transform="translate(818.18 1113.79)"><tspan x="0" y="0">$</tspan></text><rect class="cls-23" x="821.93" y="1101.26" width="1.47" height="14.15"/></g><g id="Restrooms"><path class="cls-25" d="m577.21,1624.65c5.44,0,9.85-4.41,9.85-9.85s-4.41-9.85-9.85-9.85-9.85,4.41-9.85,9.85,4.41,9.85,9.85,9.85"/><path class="cls-2" d="m577.21,1624.65c5.44,0,9.85-4.41,9.85-9.85s-4.41-9.85-9.85-9.85-9.85,4.41-9.85,9.85,4.41,9.85,9.85,9.85Z"/><text class="cls-30" transform="translate(571.03 1620.13)"><tspan x="0" y="0">R</tspan></text><path class="cls-25" d="m441.09,1175.52c5.44,0,9.85-4.41,9.85-9.85s-4.41-9.85-9.85-9.85-9.85,4.41-9.85,9.85,4.41,9.85,9.85,9.85"/><path class="cls-2" d="m441.09,1175.52c5.44,0,9.85-4.41,9.85-9.85s-4.41-9.85-9.85-9.85-9.85,4.41-9.85,9.85,4.41,9.85,9.85,9.85Z"/><text class="cls-30" transform="translate(434.91 1171.01)"><tspan x="0" y="0">R</tspan></text><path class="cls-25" d="m662.37,1269.97c5.44,0,9.85-4.41,9.85-9.85s-4.41-9.85-9.85-9.85-9.85,4.41-9.85,9.85,4.41,9.85,9.85,9.85"/><path class="cls-2" d="m662.37,1269.97c5.44,0,9.85-4.41,9.85-9.85s-4.41-9.85-9.85-9.85-9.85,4.41-9.85,9.85,4.41,9.85,9.85,9.85Z"/><text class="cls-30" transform="translate(656.19 1265.45)"><tspan x="0" y="0">R</tspan></text><path class="cls-25" d="m588.28,1379.8c5.44,0,9.85-4.41,9.85-9.85s-4.41-9.85-9.85-9.85-9.85,4.41-9.85,9.85,4.41,9.85,9.85,9.85"/><path class="cls-2" d="m588.28,1379.8c5.44,0,9.85-4.41,9.85-9.85s-4.41-9.85-9.85-9.85-9.85,4.41-9.85,9.85,4.41,9.85,9.85,9.85Z"/><text class="cls-30" transform="translate(582.1 1375.28)"><tspan x="0" y="0">R</tspan></text><path class="cls-25" d="m859.95,1230.46c5.44,0,9.85-4.41,9.85-9.85s-4.41-9.85-9.85-9.85-9.85,4.41-9.85,9.85,4.41,9.85,9.85,9.85"/><path class="cls-2" d="m859.95,1230.46c5.44,0,9.85-4.41,9.85-9.85s-4.41-9.85-9.85-9.85-9.85,4.41-9.85,9.85,4.41,9.85,9.85,9.85Z"/><text class="cls-30" transform="translate(853.76 1225.94)"><tspan x="0" y="0">R</tspan></text><path class="cls-25" d="m803.6,1128.79c5.44,0,9.85-4.41,9.85-9.85s-4.41-9.85-9.85-9.85-9.85,4.41-9.85,9.85,4.41,9.85,9.85,9.85"/><path class="cls-2" d="m803.6,1128.79c5.44,0,9.85-4.41,9.85-9.85s-4.41-9.85-9.85-9.85-9.85,4.41-9.85,9.85,4.41,9.85,9.85,9.85Z"/><text class="cls-30" transform="translate(797.42 1124.27)"><tspan x="0" y="0">R</tspan></text><path class="cls-25" d="m1214.25,1166.19c5.44,0,9.85-4.41,9.85-9.85s-4.41-9.85-9.85-9.85-9.85,4.41-9.85,9.85,4.41,9.85,9.85,9.85"/><path class="cls-2" d="m1214.25,1166.19c5.44,0,9.85-4.41,9.85-9.85s-4.41-9.85-9.85-9.85-9.85,4.41-9.85,9.85,4.41,9.85,9.85,9.85Z"/><text class="cls-30" transform="translate(1208.07 1161.68)"><tspan x="0" y="0">R</tspan></text><path class="cls-25" d="m955.9,941.89c5.44,0,9.85-4.41,9.85-9.85s-4.41-9.85-9.85-9.85-9.85,4.41-9.85,9.85,4.41,9.85,9.85,9.85"/><path class="cls-2" d="m955.9,941.89c5.44,0,9.85-4.41,9.85-9.85s-4.41-9.85-9.85-9.85-9.85,4.41-9.85,9.85,4.41,9.85,9.85,9.85Z"/><text class="cls-30" transform="translate(949.72 937.37)"><tspan x="0" y="0">R</tspan></text><path class="cls-25" d="m1498.29,1027.99c5.44,0,9.85-4.41,9.85-9.85s-4.41-9.85-9.85-9.85-9.85,4.41-9.85,9.85,4.41,9.85,9.85,9.85"/><path class="cls-2" d="m1498.29,1027.99c5.44,0,9.85-4.41,9.85-9.85s-4.41-9.85-9.85-9.85-9.85,4.41-9.85,9.85,4.41,9.85,9.85,9.85Z"/><text class="cls-30" transform="translate(1492.11 1023.47)"><tspan x="0" y="0">R</tspan></text><path class="cls-25" d="m347.32,1621.82c5.44,0,9.85-4.41,9.85-9.85s-4.41-9.85-9.85-9.85-9.85,4.41-9.85,9.85,4.41,9.85,9.85,9.85"/><path class="cls-2" d="m347.32,1621.82c5.44,0,9.85-4.41,9.85-9.85s-4.41-9.85-9.85-9.85-9.85,4.41-9.85,9.85,4.41,9.85,9.85,9.85Z"/><text class="cls-30" transform="translate(341.14 1617.3)"><tspan x="0" y="0">R</tspan></text></g></svg>