<?xml version="1.0" encoding="UTF-8"?><svg xmlns="http://www.w3.org/2000/svg" xmlns:xlink="http://www.w3.org/1999/xlink" id="map-icons" viewBox="0 0 1728 2208.49"><defs><clipPath id="clippath"><path class="cls-1" d="m1568.03,778.71c0,6.8,5.51,12.31,12.31,12.31s12.31-5.51,12.31-12.31-5.51-12.31-12.31-12.31-12.31,5.51-12.31,12.31"/></clipPath><clipPath id="clippath-1"><path class="cls-1" d="m1511.84,778.71c0,6.8,5.51,12.31,12.31,12.31s12.31-5.51,12.31-12.31-5.51-12.31-12.31-12.31-12.31,5.51-12.31,12.31"/></clipPath><clipPath id="clippath-2"><path class="cls-1" d="m438.62,1123.38c0,6.8,5.51,12.31,12.31,12.31s12.31-5.51,12.31-12.31-5.51-12.31-12.31-12.31-12.31,5.51-12.31,12.31"/></clipPath><clipPath id="clippath-3"><path class="cls-1" d="m507.43,811.5c0,6.8,5.51,12.31,12.31,12.31s12.31-5.51,12.31-12.31-5.51-12.31-12.31-12.31-12.31,5.51-12.31,12.31"/></clipPath><clipPath id="clippath-4"><rect class="cls-1" y="-382.97" width="1728" height="2592"/></clipPath><clipPath id="clippath-5"><rect class="cls-1" x="288.98" y="851.72" width="146.71" height="32.23"/></clipPath><clipPath id="clippath-6"><rect class="cls-1" x="1030.04" y="998.56" width="146.71" height="32.23"/></clipPath><clipPath id="clippath-7"><rect class="cls-1" x="711.85" y="1172.94" width="146.71" height="32.22"/></clipPath><clipPath id="clippath-8"><rect class="cls-1" x="544.67" y="596.03" width="146.71" height="32.22"/></clipPath><clipPath id="clippath-9"><rect class="cls-1" x="1493.51" y="526.52" width="146.71" height="32.22"/></clipPath><clipPath id="clippath-10"><rect class="cls-1" x="1315.88" y="984.75" width="146.71" height="32.22"/></clipPath><clipPath id="clippath-11"><rect class="cls-1" x="1536.52" y="1490.41" width="146.7" height="32.22"/></clipPath><clipPath id="clippath-12"><rect class="cls-1" x="375.65" y="521.56" width="140.31" height="27.21"/></clipPath><clipPath id="clippath-13"><rect class="cls-1" x="1336.48" y="1530.8" width="121.18" height="115.6"/></clipPath></defs><g id="Accessible_Parking"><path class="cls-31" d="m819.38,466.75c-4.22,0-7.66-3.44-7.66-7.66,0-2.57,1.28-4.85,3.23-6.24v-3.12c-3.5,1.66-5.93,5.23-5.93,9.36,0,5.71,4.65,10.36,10.36,10.36,3.33,0,6.29-1.58,8.19-4.02l-1.29-3c-1.24,2.56-3.87,4.32-6.89,4.32"/><path class="cls-31" d="m833.89,463.21c-.22-.51-.81-.74-1.32-.53l-1.4.6-3.11-7.22c-.26-.6-.85-.99-1.51-.99h-5.01v-2.32h3.73c.73,0,1.32-.59,1.32-1.32s-.59-1.32-1.32-1.32h-3.73v-2.61c0-1.42-1.15-2.56-2.56-2.56s-2.56,1.15-2.56,2.56v8.59c0,1.3,1.06,2.36,2.36,2.36h7.38l3.16,7.34c.18.43.68.62,1.1.44l3.1-1.33c.51-.22.74-.81.53-1.32l-.16-.37Z"/><path class="cls-31" d="m819.09,444.43c1.6,0,2.9-1.3,2.9-2.9s-1.3-2.9-2.9-2.9-2.9,1.3-2.9,2.9,1.3,2.9,2.9,2.9"/><text class="cls-19" transform="translate(840.84 453.97)"><tspan class="cls-66" x="0" y="0">A</tspan><tspan x="8.22" y="0">CCESSIBLE </tspan></text><text class="cls-19" transform="translate(840.84 464.97)"><tspan class="cls-45" x="0" y="0">P</tspan><tspan class="cls-70" x="6.45" y="0">ARKING</tspan></text><path class="cls-34" d="m814.16,591.61c-4.22,0-7.66-3.44-7.66-7.66,0-2.57,1.28-4.85,3.23-6.24v-3.12c-3.5,1.66-5.93,5.23-5.93,9.36,0,5.71,4.65,10.36,10.36,10.36,3.33,0,6.29-1.58,8.19-4.02l-1.29-3c-1.24,2.56-3.87,4.32-6.89,4.32"/><path class="cls-34" d="m828.68,588.07c-.22-.51-.81-.74-1.32-.53l-1.4.6-3.11-7.22c-.26-.6-.85-.99-1.51-.99h-5.01v-2.32h3.73c.73,0,1.32-.59,1.32-1.32s-.59-1.32-1.32-1.32h-3.73v-2.61c0-1.42-1.15-2.56-2.56-2.56s-2.56,1.15-2.56,2.56v8.59c0,1.3,1.06,2.36,2.36,2.36h7.38l3.16,7.34c.18.43.68.62,1.1.44l3.1-1.33c.51-.22.74-.81.53-1.32l-.16-.37Z"/><path class="cls-34" d="m813.88,569.29c1.6,0,2.9-1.3,2.9-2.9s-1.3-2.9-2.9-2.9-2.9,1.3-2.9,2.9,1.3,2.9,2.9,2.9"/><text class="cls-20" transform="translate(835.63 578.82)"><tspan class="cls-66" x="0" y="0">A</tspan><tspan x="8.22" y="0">CCESSIBLE</tspan></text><text class="cls-20" transform="translate(835.63 589.82)"><tspan class="cls-45" x="0" y="0">P</tspan><tspan class="cls-70" x="6.45" y="0">ARKING</tspan></text><path class="cls-34" d="m706.04,526.78c-4.22,0-7.66-3.44-7.66-7.66,0-2.57,1.28-4.85,3.23-6.24v-3.12c-3.5,1.66-5.93,5.23-5.93,9.36,0,5.71,4.65,10.36,10.36,10.36,3.33,0,6.29-1.58,8.19-4.02l-1.29-3c-1.24,2.56-3.87,4.32-6.89,4.32"/><path class="cls-34" d="m720.56,523.24c-.22-.51-.81-.74-1.32-.53l-1.4.6-3.11-7.22c-.26-.6-.85-.99-1.51-.99h-5.01v-2.32h3.73c.73,0,1.32-.59,1.32-1.32s-.59-1.32-1.32-1.32h-3.73v-2.61c0-1.42-1.15-2.56-2.56-2.56s-2.56,1.15-2.56,2.56v8.59c0,1.3,1.06,2.36,2.36,2.36h7.38l3.16,7.34c.18.43.68.62,1.1.44l3.1-1.33c.51-.22.74-.81.53-1.32l-.16-.37Z"/><path class="cls-34" d="m705.76,504.46c1.6,0,2.9-1.3,2.9-2.9s-1.3-2.9-2.9-2.9-2.9,1.3-2.9,2.9,1.3,2.9,2.9,2.9"/><text class="cls-20" transform="translate(727.51 514)"><tspan class="cls-66" x="0" y="0">A</tspan><tspan x="8.22" y="0">CCESSIBLE </tspan></text><text class="cls-20" transform="translate(727.51 525)"><tspan class="cls-45" x="0" y="0">P</tspan><tspan class="cls-70" x="6.45" y="0">ARKING</tspan></text><text class="cls-32" transform="translate(677.77 520.76)"><tspan x="0" y="0">3</tspan></text><text class="cls-35" transform="translate(788.79 585.6)"><tspan x="0" y="0">1</tspan></text><text class="cls-32" transform="translate(792.91 460.75)"><tspan x="0" y="0">2</tspan></text></g><g id="Food"><path class="cls-25" d="m755.79,742.96c4.08,0,7.39-3.31,7.39-7.39s-3.31-7.39-7.39-7.39-7.39,3.31-7.39,7.39,3.31,7.39,7.39,7.39"/><path class="cls-7" d="m755.79,742.96c4.08,0,7.39-3.31,7.39-7.39s-3.31-7.39-7.39-7.39-7.39,3.31-7.39,7.39,3.31,7.39,7.39,7.39Z"/><path class="cls-40" d="m759.72,731.8c-1.9,0-2.85,1.55-2.85,3.45v3.07c0,.21.17.38.38.38h1.15v2.69c0,.63.52,1.15,1.15,1.15s.55-.52.55-1.15v-9.2c0-.21-.17-.38-.38-.38"/><path class="cls-40" d="m755.4,731.8c-.21,0-.38.17-.38.38v2.68c0,.21-.17.38-.38.38h-.38c-.21,0-.38-.17-.38-.38v-2.68c0-.21-.17-.38-.38-.38s-.38.17-.38.38v2.68c0,.21-.17.38-.38.38h-.38c-.21,0-.38-.17-.38-.38v-2.68c0-.21-.17-.38-.38-.38s-.38.17-.38.38v3.45c0,.71.49,1.32,1.15,1.49v4.22c0,.56.38,1.07.92,1.17.73.14,1.38-.42,1.38-1.13v-4.27c.66-.17,1.15-.77,1.15-1.49v-3.45c0-.21-.17-.38-.38-.38"/><path class="cls-25" d="m715.61,787.35c4.08,0,7.39-3.31,7.39-7.39s-3.31-7.39-7.39-7.39-7.39,3.31-7.39,7.39,3.31,7.39,7.39,7.39"/><path class="cls-7" d="m715.61,787.35c4.08,0,7.39-3.31,7.39-7.39s-3.31-7.39-7.39-7.39-7.39,3.31-7.39,7.39,3.31,7.39,7.39,7.39Z"/><path class="cls-40" d="m719.55,776.19c-1.9,0-2.85,1.55-2.85,3.45v3.07c0,.21.17.38.38.38h1.15v2.69c0,.63.52,1.15,1.15,1.15s.55-.52.55-1.15v-9.2c0-.21-.17-.38-.38-.38"/><path class="cls-40" d="m715.23,776.19c-.21,0-.38.17-.38.38v2.68c0,.21-.17.38-.38.38h-.38c-.21,0-.38-.17-.38-.38v-2.68c0-.21-.17-.38-.38-.38s-.38.17-.38.38v2.68c0,.21-.17.38-.38.38h-.38c-.21,0-.38-.17-.38-.38v-2.68c0-.21-.17-.38-.38-.38s-.38.17-.38.38v3.45c0,.71.49,1.32,1.15,1.49v4.22c0,.56.38,1.07.92,1.17.73.14,1.38-.42,1.38-1.13v-4.27c.66-.17,1.15-.77,1.15-1.49v-3.45c0-.21-.17-.38-.38-.38"/><path class="cls-25" d="m736.35,762.62c4.08,0,7.39-3.31,7.39-7.39s-3.31-7.39-7.39-7.39-7.39,3.31-7.39,7.39,3.31,7.39,7.39,7.39"/><path class="cls-7" d="m736.35,762.62c4.08,0,7.39-3.31,7.39-7.39s-3.31-7.39-7.39-7.39-7.39,3.31-7.39,7.39,3.31,7.39,7.39,7.39Z"/><path class="cls-40" d="m740.28,751.46c-1.9,0-2.85,1.55-2.85,3.45v3.07c0,.21.17.38.38.38h1.15v2.69c0,.63.52,1.15,1.15,1.15s.55-.52.55-1.15v-9.2c0-.21-.17-.38-.38-.38"/><path class="cls-40" d="m735.97,751.46c-.21,0-.38.17-.38.38v2.68c0,.21-.17.38-.38.38h-.38c-.21,0-.38-.17-.38-.38v-2.68c0-.21-.17-.38-.38-.38s-.38.17-.38.38v2.68c0,.21-.17.38-.38.38h-.38c-.21,0-.38-.17-.38-.38v-2.68c0-.21-.17-.38-.38-.38s-.38.17-.38.38v3.45c0,.71.49,1.32,1.15,1.49v4.22c0,.56.38,1.07.92,1.17.73.14,1.38-.42,1.38-1.13v-4.27c.66-.17,1.15-.77,1.15-1.49v-3.45c0-.21-.17-.38-.38-.38"/><path class="cls-25" d="m696.89,813.6c4.08,0,7.39-3.31,7.39-7.39s-3.31-7.39-7.39-7.39-7.39,3.31-7.39,7.39,3.31,7.39,7.39,7.39"/><path class="cls-7" d="m696.89,813.6c4.08,0,7.39-3.31,7.39-7.39s-3.31-7.39-7.39-7.39-7.39,3.31-7.39,7.39,3.31,7.39,7.39,7.39Z"/><path class="cls-40" d="m700.82,802.45c-1.9,0-2.85,1.55-2.85,3.45v3.07c0,.21.17.38.38.38h1.15v2.69c0,.63.52,1.15,1.15,1.15s.55-.52.55-1.15v-9.2c0-.21-.17-.38-.38-.38"/><path class="cls-40" d="m696.51,802.45c-.21,0-.38.17-.38.38v2.68c0,.21-.17.38-.38.38h-.38c-.21,0-.38-.17-.38-.38v-2.68c0-.21-.17-.38-.38-.38s-.38.17-.38.38v2.68c0,.21-.17.38-.38.38h-.38c-.21,0-.38-.17-.38-.38v-2.68c0-.21-.17-.38-.38-.38s-.38.17-.38.38v3.45c0,.71.49,1.32,1.15,1.49v4.22c0,.56.38,1.07.92,1.17.73.14,1.38-.42,1.38-1.13v-4.27c.66-.17,1.15-.77,1.15-1.49v-3.45c0-.21-.17-.38-.38-.38"/><path class="cls-25" d="m747.5,871.62c4.08,0,7.39-3.31,7.39-7.39s-3.31-7.39-7.39-7.39-7.39,3.31-7.39,7.39,3.31,7.39,7.39,7.39"/><path class="cls-7" d="m747.5,871.62c4.08,0,7.39-3.31,7.39-7.39s-3.31-7.39-7.39-7.39-7.39,3.31-7.39,7.39,3.31,7.39,7.39,7.39Z"/><path class="cls-40" d="m751.43,860.47c-1.9,0-2.85,1.55-2.85,3.45v3.07c0,.21.17.38.38.38h1.15v2.69c0,.63.52,1.15,1.15,1.15s.55-.52.55-1.15v-9.2c0-.21-.17-.38-.38-.38"/><path class="cls-40" d="m747.12,860.47c-.21,0-.38.17-.38.38v2.68c0,.21-.17.38-.38.38h-.38c-.21,0-.38-.17-.38-.38v-2.68c0-.21-.17-.38-.38-.38s-.38.17-.38.38v2.68c0,.21-.17.38-.38.38h-.38c-.21,0-.38-.17-.38-.38v-2.68c0-.21-.17-.38-.38-.38s-.38.17-.38.38v3.45c0,.71.49,1.32,1.15,1.49v4.22c0,.56.38,1.07.92,1.17.73.14,1.38-.42,1.38-1.13v-4.27c.66-.17,1.15-.77,1.15-1.49v-3.45c0-.21-.17-.38-.38-.38"/><path class="cls-25" d="m796.04,828.01c4.08,0,7.39-3.31,7.39-7.39s-3.31-7.39-7.39-7.39-7.39,3.31-7.39,7.39,3.31,7.39,7.39,7.39"/><path class="cls-7" d="m796.04,828.01c4.08,0,7.39-3.31,7.39-7.39s-3.31-7.39-7.39-7.39-7.39,3.31-7.39,7.39,3.31,7.39,7.39,7.39Z"/><path class="cls-40" d="m799.97,816.85c-1.9,0-2.85,1.55-2.85,3.45v3.07c0,.21.17.38.38.38h1.15v2.69c0,.63.52,1.15,1.15,1.15s.55-.52.55-1.15v-9.2c0-.21-.17-.38-.38-.38"/><path class="cls-40" d="m795.65,816.85c-.21,0-.38.17-.38.38v2.68c0,.21-.17.38-.38.38h-.38c-.21,0-.38-.17-.38-.38v-2.68c0-.21-.17-.38-.38-.38s-.38.17-.38.38v2.68c0,.21-.17.38-.38.38h-.38c-.21,0-.38-.17-.38-.38v-2.68c0-.21-.17-.38-.38-.38s-.38.17-.38.38v3.45c0,.71.49,1.32,1.15,1.49v4.22c0,.56.38,1.07.92,1.17.73.14,1.38-.42,1.38-1.13v-4.27c.66-.17,1.15-.77,1.15-1.49v-3.45c0-.21-.17-.38-.38-.38"/><path class="cls-25" d="m1083.28,759.53c4.08,0,7.39-3.31,7.39-7.39s-3.31-7.39-7.39-7.39-7.39,3.31-7.39,7.39,3.31,7.39,7.39,7.39"/><path class="cls-7" d="m1083.28,759.53c4.08,0,7.39-3.31,7.39-7.39s-3.31-7.39-7.39-7.39-7.39,3.31-7.39,7.39,3.31,7.39,7.39,7.39Z"/><path class="cls-40" d="m1087.21,748.38c-1.9,0-2.85,1.55-2.85,3.45v3.07c0,.21.17.38.38.38h1.15v2.69c0,.63.52,1.15,1.15,1.15s.55-.52.55-1.15v-9.2c0-.21-.17-.38-.38-.38"/><path class="cls-40" d="m1082.89,748.38c-.21,0-.38.17-.38.38v2.68c0,.21-.17.38-.38.38h-.38c-.21,0-.38-.17-.38-.38v-2.68c0-.21-.17-.38-.38-.38s-.38.17-.38.38v2.68c0,.21-.17.38-.38.38h-.38c-.21,0-.38-.17-.38-.38v-2.68c0-.21-.17-.38-.38-.38s-.38.17-.38.38v3.45c0,.71.49,1.32,1.15,1.49v4.22c0,.56.38,1.07.92,1.17.73.14,1.38-.42,1.38-1.13v-4.27c.66-.17,1.15-.77,1.15-1.49v-3.45c0-.21-.17-.38-.38-.38"/><path class="cls-25" d="m1052.46,1048.56c4.08,0,7.39-3.31,7.39-7.39s-3.31-7.39-7.39-7.39-7.39,3.31-7.39,7.39,3.31,7.39,7.39,7.39"/><path class="cls-7" d="m1052.46,1048.56c4.08,0,7.39-3.31,7.39-7.39s-3.31-7.39-7.39-7.39-7.39,3.31-7.39,7.39,3.31,7.39,7.39,7.39Z"/><path class="cls-40" d="m1056.39,1037.41c-1.9,0-2.85,1.55-2.85,3.45v3.07c0,.21.17.38.38.38h1.15v2.69c0,.63.52,1.15,1.15,1.15s.55-.52.55-1.15v-9.2c0-.21-.17-.38-.38-.38"/><path class="cls-40" d="m1052.07,1037.41c-.21,0-.38.17-.38.38v2.68c0,.21-.17.38-.38.38h-.38c-.21,0-.38-.17-.38-.38v-2.68c0-.21-.17-.38-.38-.38s-.38.17-.38.38v2.68c0,.21-.17.38-.38.38h-.38c-.21,0-.38-.17-.38-.38v-2.68c0-.21-.17-.38-.38-.38s-.38.17-.38.38v3.45c0,.71.49,1.32,1.15,1.49v4.22c0,.56.38,1.07.92,1.17.73.14,1.38-.42,1.38-1.13v-4.27c.66-.17,1.15-.77,1.15-1.49v-3.45c0-.21-.17-.38-.38-.38"/><path class="cls-25" d="m964.29,746.26c4.08,0,7.39-3.31,7.39-7.39s-3.31-7.39-7.39-7.39-7.39,3.31-7.39,7.39,3.31,7.39,7.39,7.39"/><path class="cls-7" d="m964.29,746.26c4.08,0,7.39-3.31,7.39-7.39s-3.31-7.39-7.39-7.39-7.39,3.31-7.39,7.39,3.31,7.39,7.39,7.39Z"/><path class="cls-40" d="m968.22,735.1c-1.9,0-2.85,1.55-2.85,3.45v3.07c0,.21.17.38.38.38h1.15v2.69c0,.63.52,1.15,1.15,1.15s.55-.52.55-1.15v-9.2c0-.21-.17-.38-.38-.38"/><path class="cls-40" d="m963.9,735.1c-.21,0-.38.17-.38.38v2.68c0,.21-.17.38-.38.38h-.38c-.21,0-.38-.17-.38-.38v-2.68c0-.21-.17-.38-.38-.38s-.38.17-.38.38v2.68c0,.21-.17.38-.38.38h-.38c-.21,0-.38-.17-.38-.38v-2.68c0-.21-.17-.38-.38-.38s-.38.17-.38.38v3.45c0,.71.49,1.32,1.15,1.49v4.22c0,.56.38,1.07.92,1.17.73.14,1.38-.42,1.38-1.13v-4.27c.66-.17,1.15-.77,1.15-1.49v-3.45c0-.21-.17-.38-.38-.38"/><path class="cls-25" d="m942.62,702.07c4.08,0,7.39-3.31,7.39-7.39s-3.31-7.39-7.39-7.39-7.39,3.31-7.39,7.39,3.31,7.39,7.39,7.39"/><path class="cls-7" d="m942.62,702.07c4.08,0,7.39-3.31,7.39-7.39s-3.31-7.39-7.39-7.39-7.39,3.31-7.39,7.39,3.31,7.39,7.39,7.39Z"/><path class="cls-40" d="m946.56,690.91c-1.9,0-2.85,1.55-2.85,3.45v3.07c0,.21.17.38.38.38h1.15v2.69c0,.63.52,1.15,1.15,1.15s.55-.52.55-1.15v-9.2c0-.21-.17-.38-.38-.38"/><path class="cls-40" d="m942.24,690.91c-.21,0-.38.17-.38.38v2.68c0,.21-.17.38-.38.38h-.38c-.21,0-.38-.17-.38-.38v-2.68c0-.21-.17-.38-.38-.38s-.38.17-.38.38v2.68c0,.21-.17.38-.38.38h-.38c-.21,0-.38-.17-.38-.38v-2.68c0-.21-.17-.38-.38-.38s-.38.17-.38.38v3.45c0,.71.49,1.32,1.15,1.49v4.22c0,.56.38,1.07.92,1.17.73.14,1.38-.42,1.38-1.13v-4.27c.66-.17,1.15-.77,1.15-1.49v-3.45c0-.21-.17-.38-.38-.38"/><path class="cls-25" d="m935.21,664.96c4.08,0,7.39-3.31,7.39-7.39s-3.31-7.39-7.39-7.39-7.39,3.31-7.39,7.39,3.31,7.39,7.39,7.39"/><path class="cls-7" d="m935.21,664.96c4.08,0,7.39-3.31,7.39-7.39s-3.31-7.39-7.39-7.39-7.39,3.31-7.39,7.39,3.31,7.39,7.39,7.39Z"/><path class="cls-40" d="m939.15,653.81c-1.9,0-2.85,1.55-2.85,3.45v3.07c0,.21.17.38.38.38h1.15v2.69c0,.63.52,1.15,1.15,1.15s.55-.52.55-1.15v-9.2c0-.21-.17-.38-.38-.38"/><path class="cls-40" d="m934.83,653.81c-.21,0-.38.17-.38.38v2.68c0,.21-.17.38-.38.38h-.38c-.21,0-.38-.17-.38-.38v-2.68c0-.21-.17-.38-.38-.38s-.38.17-.38.38v2.68c0,.21-.17.38-.38.38h-.38c-.21,0-.38-.17-.38-.38v-2.68c0-.21-.17-.38-.38-.38s-.38.17-.38.38v3.45c0,.71.49,1.32,1.15,1.49v4.22c0,.56.38,1.07.92,1.17.73.14,1.38-.42,1.38-1.13v-4.27c.66-.17,1.15-.77,1.15-1.49v-3.45c0-.21-.17-.38-.38-.38"/><path class="cls-25" d="m936.48,631.84c4.08,0,7.39-3.31,7.39-7.39s-3.31-7.39-7.39-7.39-7.39,3.31-7.39,7.39,3.31,7.39,7.39,7.39"/><path class="cls-7" d="m936.48,631.84c4.08,0,7.39-3.31,7.39-7.39s-3.31-7.39-7.39-7.39-7.39,3.31-7.39,7.39,3.31,7.39,7.39,7.39Z"/><path class="cls-40" d="m940.41,620.68c-1.9,0-2.85,1.55-2.85,3.45v3.07c0,.21.17.38.38.38h1.15v2.69c0,.63.52,1.15,1.15,1.15s.55-.52.55-1.15v-9.2c0-.21-.17-.38-.38-.38"/><path class="cls-40" d="m936.09,620.68c-.21,0-.38.17-.38.38v2.68c0,.21-.17.38-.38.38h-.38c-.21,0-.38-.17-.38-.38v-2.68c0-.21-.17-.38-.38-.38s-.38.17-.38.38v2.68c0,.21-.17.38-.38.38h-.38c-.21,0-.38-.17-.38-.38v-2.68c0-.21-.17-.38-.38-.38s-.38.17-.38.38v3.45c0,.71.49,1.32,1.15,1.49v4.22c0,.56.38,1.07.92,1.17.73.14,1.38-.42,1.38-1.13v-4.27c.66-.17,1.15-.77,1.15-1.49v-3.45c0-.21-.17-.38-.38-.38"/><path class="cls-25" d="m942.62,602.14c4.08,0,7.39-3.31,7.39-7.39s-3.31-7.39-7.39-7.39-7.39,3.31-7.39,7.39,3.31,7.39,7.39,7.39"/><path class="cls-7" d="m942.62,602.14c4.08,0,7.39-3.31,7.39-7.39s-3.31-7.39-7.39-7.39-7.39,3.31-7.39,7.39,3.31,7.39,7.39,7.39Z"/><path class="cls-40" d="m946.56,590.98c-1.9,0-2.85,1.55-2.85,3.45v3.07c0,.21.17.38.38.38h1.15v2.69c0,.63.52,1.15,1.15,1.15s.55-.52.55-1.15v-9.2c0-.21-.17-.38-.38-.38"/><path class="cls-40" d="m942.24,590.98c-.21,0-.38.17-.38.38v2.68c0,.21-.17.38-.38.38h-.38c-.21,0-.38-.17-.38-.38v-2.68c0-.21-.17-.38-.38-.38s-.38.17-.38.38v2.68c0,.21-.17.38-.38.38h-.38c-.21,0-.38-.17-.38-.38v-2.68c0-.21-.17-.38-.38-.38s-.38.17-.38.38v3.45c0,.71.49,1.32,1.15,1.49v4.22c0,.56.38,1.07.92,1.17.73.14,1.38-.42,1.38-1.13v-4.27c.66-.17,1.15-.77,1.15-1.49v-3.45c0-.21-.17-.38-.38-.38"/><rect class="cls-1" y="-382.97" width="1728" height="2592"/></g><g id="Parking"><rect class="cls-33" x="1582.75" y="1400.48" width="23.2" height="23.2" transform="translate(-531.52 1540.96) rotate(-45)"/><text class="cls-18" transform="translate(1589.39 1417.84)"><tspan x="0" y="0">P</tspan></text><rect class="cls-33" x="1626.38" y="1248.09" width="23.2" height="23.2" transform="translate(-410.99 1527.18) rotate(-45)"/><text class="cls-18" transform="translate(1633.02 1265.46)"><tspan x="0" y="0">P</tspan></text><rect class="cls-33" x="1605.76" y="1004.88" width="23.2" height="23.2" transform="translate(-245.05 1441.37) rotate(-45)"/><text class="cls-18" transform="translate(1612.4 1022.24)"><tspan x="0" y="0">P</tspan></text><rect class="cls-33" x="1485.02" y="1013.17" width="23.2" height="23.2" transform="translate(-286.27 1358.42) rotate(-45)"/><text class="cls-18" transform="translate(1491.66 1030.53)"><tspan x="0" y="0">P</tspan></text><rect class="cls-33" x="1499.32" y="1131.58" width="23.2" height="23.2" transform="translate(-365.81 1403.21) rotate(-45)"/><text class="cls-18" transform="translate(1505.96 1148.94)"><tspan x="0" y="0">P</tspan></text><rect class="cls-33" x="1464.05" y="1358.59" width="23.2" height="23.2" transform="translate(-536.67 1444.76) rotate(-45)"/><text class="cls-18" transform="translate(1470.69 1375.96)"><tspan x="0" y="0">P</tspan></text><rect class="cls-33" x="1370.77" y="1438.37" width="23.2" height="23.2" transform="translate(-620.4 1402.17) rotate(-45)"/><text class="cls-18" transform="translate(1377.41 1455.73)"><tspan x="0" y="0">P</tspan></text><rect class="cls-33" x="1196.21" y="1551.89" width="23.2" height="23.2" transform="translate(-751.8 1311.99) rotate(-45)"/><text class="cls-18" transform="translate(1202.85 1569.25)"><tspan x="0" y="0">P</tspan></text><rect class="cls-33" x="1135.48" y="1716.56" width="23.2" height="23.2" transform="translate(-886.02 1317.28) rotate(-45)"/><text class="cls-18" transform="translate(1142.12 1733.92)"><tspan x="0" y="0">P</tspan></text><rect class="cls-33" x="1222.67" y="1714.61" width="23.2" height="23.2" transform="translate(-859.11 1378.36) rotate(-45)"/><text class="cls-18" transform="translate(1229.31 1731.97)"><tspan x="0" y="0">P</tspan></text><rect class="cls-33" x="1313.74" y="1766.24" width="23.2" height="23.2" transform="translate(-868.94 1457.87) rotate(-45)"/><text class="cls-18" transform="translate(1320.38 1783.6)"><tspan x="0" y="0">P</tspan></text><rect class="cls-33" x="1494.52" y="1481.72" width="23.2" height="23.2" transform="translate(-614.81 1502.37) rotate(-45)"/><text class="cls-18" transform="translate(1501.16 1499.08)"><tspan x="0" y="0">P</tspan></text><rect class="cls-33" x="1450.54" y="578.86" width="23.2" height="23.2" transform="translate(10.73 1206.83) rotate(-45)"/><text class="cls-18" transform="translate(1457.18 596.22)"><tspan x="0" y="0">P</tspan></text><rect class="cls-33" x="1450.54" y="677.79" width="23.2" height="23.2" transform="translate(-59.22 1235.81) rotate(-45)"/><text class="cls-18" transform="translate(1457.18 695.15)"><tspan x="0" y="0">P</tspan></text><rect class="cls-33" x="1632.73" y="1115.17" width="23.2" height="23.2" transform="translate(-315.14 1492.74) rotate(-45)"/><text class="cls-18" transform="translate(1639.37 1132.53)"><tspan x="0" y="0">P</tspan></text><rect class="cls-33" x="904.08" y="204.79" width="23.2" height="23.2" transform="translate(98.41 682.61) rotate(-43)"/><text class="cls-22" transform="translate(910.52 221.97) rotate(2)"><tspan x="0" y="0">P</tspan></text><rect class="cls-33" x="797.07" y="276.98" width="23.2" height="23.2" transform="translate(20.42 629.02) rotate(-43)"/><text class="cls-22" transform="translate(803.51 294.16) rotate(2)"><tspan x="0" y="0">P</tspan></text><rect class="cls-33" x="693.75" y="349.74" width="23.2" height="23.2" transform="translate(-56.95 578.1) rotate(-43)"/><text class="cls-22" transform="translate(700.18 366.92) rotate(2)"><tspan x="0" y="0">P</tspan></text><rect class="cls-33" x="597.89" y="415" width="23.2" height="23.2" transform="translate(-127.2 530.26) rotate(-43)"/><text class="cls-22" transform="translate(604.33 432.17) rotate(2)"><tspan x="0" y="0">P</tspan></text><rect class="cls-33" x="637.77" y="522.28" width="23.2" height="23.2" transform="translate(-189.66 586.27) rotate(-43)"/><text class="cls-22" transform="translate(644.2 539.46) rotate(2)"><tspan x="0" y="0">P</tspan></text><rect class="cls-33" x="559.76" y="567.3" width="23.2" height="23.2" transform="translate(-241.32 545.16) rotate(-43)"/><text class="cls-22" transform="translate(566.2 584.48) rotate(2)"><tspan x="0" y="0">P</tspan></text><rect class="cls-33" x="445.47" y="636.31" width="23.2" height="23.2" transform="translate(-319.08 485.76) rotate(-43)"/><text class="cls-22" transform="translate(451.9 653.49) rotate(2)"><tspan x="0" y="0">P</tspan></text></g><g id="RV_Parking"><path class="cls-25" d="m1580.34,791.02c6.8,0,12.31-5.51,12.31-12.31s-5.51-12.31-12.31-12.31-12.31,5.51-12.31,12.31,5.51,12.31,12.31,12.31"/><circle class="cls-10" cx="1580.34" cy="778.71" r="12.31"/><g class="cls-24"><path class="cls-37" d="m1576.69,775.52c0,.32-.26.57-.57.57h-2.98c-.32,0-.57-.26-.57-.57v-1.35c0-.32.26-.57.57-.57h2.98c.32,0,.57.26.57.57v1.35Zm-9.64.57c-.32,0-.57-.26-.57-.57v-1.35c0-.32.26-.57.57-.57h2.98m8.74,10.07v-9.49c0-.32.26-.57.57-.57h5.48c.32,0,.57.26.57.57v9.49h7.65v1.5h-.27v.67h1.36v-.67h-.27v-2.96h.27v-.67h-1.36v.67h.27v.65h-3.61c.4-.51.63-1.33.63-2.65,0-2.41-1.86-5.69-3.66-7.49-.97-.96-1.91-.97-3.1-.97h-18.74v11.92h1.75c0-1.75,1.42-3.17,3.17-3.17h4.33c1.75,0,3.17,1.42,3.17,3.17h1.79Z"/><path class="cls-37" d="m1581.05,775.81h2.08v1.26h-2.08v-1.26Zm3.35,7.86v-9.07h-4.63v9.07h4.63Z"/><path class="cls-37" d="m1571.75,784.38c.3.84,1.1,1.45,2.04,1.45,1.2,0,2.17-.97,2.17-2.17s-.97-2.17-2.17-2.17c-.94,0-1.74.6-2.04,1.45-.26.58,0,1.44,0,1.44m2.04.11c-.46,0-.83-.37-.83-.83s.37-.83.83-.83.83.37.83.83-.37.83-.83.83m-4.08,0c-.46,0-.83-.37-.83-.83s.37-.83.83-.83.83.37.83.83-.37.83-.83.83"/></g><path class="cls-25" d="m1524.16,791.02c6.8,0,12.31-5.51,12.31-12.31s-5.51-12.31-12.31-12.31-12.31,5.51-12.31,12.31,5.51,12.31,12.31,12.31"/><circle class="cls-10" cx="1524.16" cy="778.71" r="12.31"/><g class="cls-51"><path class="cls-37" d="m1520.51,775.52c0,.32-.26.57-.57.57h-2.98c-.32,0-.57-.26-.57-.57v-1.35c0-.32.26-.57.57-.57h2.98c.32,0,.57.26.57.57v1.35Zm-9.64.57c-.32,0-.57-.26-.57-.57v-1.35c0-.32.26-.57.57-.57h2.98m8.74,10.07v-9.49c0-.32.26-.57.57-.57h5.48c.32,0,.57.26.57.57v9.49h7.65v1.5h-.27v.67h1.36v-.67h-.27v-2.96h.27v-.67h-1.36v.67h.27v.65h-3.61c.4-.51.63-1.33.63-2.65,0-2.41-1.86-5.69-3.66-7.49-.97-.96-1.91-.97-3.1-.97h-18.74v11.92h1.75c0-1.75,1.42-3.17,3.17-3.17h4.33c1.75,0,3.17,1.42,3.17,3.17h1.79Z"/><path class="cls-37" d="m1524.86,775.81h2.08v1.26h-2.08v-1.26Zm3.35,7.86v-9.07h-4.63v9.07h4.63Z"/><path class="cls-37" d="m1515.56,784.38c.3.84,1.1,1.45,2.04,1.45,1.2,0,2.17-.97,2.17-2.17s-.97-2.17-2.17-2.17c-.94,0-1.74.6-2.04,1.45-.26.58,0,1.44,0,1.44m2.04.11c-.46,0-.83-.37-.83-.83s.37-.83.83-.83.83.37.83.83-.37.83-.83.83m-4.08,0c-.46,0-.83-.37-.83-.83s.37-.83.83-.83.83.37.83.83-.37.83-.83.83"/></g><g class="cls-54"><path class="cls-25" d="m450.93,1135.69c6.8,0,12.31-5.51,12.31-12.31s-5.51-12.31-12.31-12.31-12.31,5.51-12.31,12.31,5.51,12.31,12.31,12.31"/><circle class="cls-10" cx="450.93" cy="1123.38" r="12.31"/><path class="cls-37" d="m447.29,1120.19c0,.32-.26.57-.57.57h-2.98c-.32,0-.57-.26-.57-.57v-1.35c0-.32.26-.57.57-.57h2.98c.32,0,.57.26.57.57v1.35Zm-9.64.57c-.32,0-.57-.26-.57-.57v-1.35c0-.32.26-.57.57-.57h2.98m8.74,10.07v-9.49c0-.32.26-.57.57-.57h5.48c.32,0,.57.26.57.57v9.49h7.65v1.5h-.27v.67h1.36v-.67h-.27v-2.96h.27v-.67h-1.36v.67h.27v.65h-3.61c.4-.51.63-1.33.63-2.65,0-2.41-1.86-5.69-3.66-7.49-.96-.96-1.91-.97-3.1-.97h-18.74v11.92h1.75c0-1.75,1.42-3.17,3.17-3.17h4.33c1.75,0,3.17,1.42,3.17,3.17h1.79Z"/><path class="cls-37" d="m451.64,1120.47h2.08v1.26h-2.08v-1.26Zm3.35,7.86v-9.07h-4.63v9.07h4.63Z"/><path class="cls-37" d="m442.34,1129.05c.3.84,1.1,1.45,2.04,1.45,1.2,0,2.17-.97,2.17-2.17s-.97-2.17-2.17-2.17c-.94,0-1.74.61-2.04,1.45-.26.58,0,1.44,0,1.44m2.04.11c-.46,0-.83-.37-.83-.83s.37-.83.83-.83.83.37.83.83-.37.83-.83.83m-4.08,0c-.46,0-.83-.37-.83-.83s.37-.83.83-.83.83.37.83.83-.37.83-.83.83"/></g><path class="cls-25" d="m519.75,823.81c6.8,0,12.31-5.51,12.31-12.31s-5.51-12.31-12.31-12.31-12.31,5.51-12.31,12.31,5.51,12.31,12.31,12.31"/><circle class="cls-10" cx="519.75" cy="811.5" r="12.31"/><g class="cls-53"><path class="cls-37" d="m516.1,808.32c0,.32-.26.57-.57.57h-2.98c-.32,0-.57-.26-.57-.57v-1.35c0-.32.26-.57.57-.57h2.98c.32,0,.57.26.57.57v1.35Zm-9.64.57c-.32,0-.57-.26-.57-.57v-1.35c0-.32.26-.57.57-.57h2.98m8.74,10.07v-9.49c0-.32.26-.57.57-.57h5.48c.32,0,.57.26.57.57v9.49h7.65v1.5h-.27v.67h1.35v-.67h-.27v-2.96h.27v-.67h-1.35v.67h.27v.65h-3.61c.4-.51.63-1.33.63-2.65,0-2.41-1.86-5.69-3.66-7.49-.96-.96-1.91-.97-3.1-.97h-18.74v11.92h1.75c0-1.75,1.42-3.17,3.17-3.17h4.33c1.75,0,3.17,1.42,3.17,3.17h1.79Z"/><path class="cls-37" d="m520.46,808.6h2.08v1.26h-2.08v-1.26Zm3.35,7.86v-9.07h-4.63v9.07h4.63Z"/><path class="cls-37" d="m511.15,817.17c.3.84,1.1,1.45,2.04,1.45,1.2,0,2.17-.97,2.17-2.17s-.97-2.17-2.17-2.17c-.94,0-1.74.6-2.04,1.45-.26.58,0,1.44,0,1.44m2.04.11c-.46,0-.83-.37-.83-.83s.37-.83.83-.83.83.37.83.83-.37.83-.83.83m-4.08,0c-.46,0-.83-.37-.83-.83s.37-.83.83-.83.83.37.83.83-.37.83-.83.83"/></g></g><g id="Shower"><path class="cls-25" d="m415.7,791.82c5.44,0,9.85-4.41,9.85-9.85s-4.41-9.85-9.85-9.85-9.85,4.41-9.85,9.85,4.41,9.85,9.85,9.85"/><path class="cls-4" d="m415.7,791.82c5.44,0,9.85-4.41,9.85-9.85s-4.41-9.85-9.85-9.85-9.85,4.41-9.85,9.85,4.41,9.85,9.85,9.85Z"/><path class="cls-36" d="m422.47,781.43c0-3.32-3.03-6.02-6.77-6.02s-6.77,2.69-6.77,6.02h13.53Z"/><path class="cls-36" d="m411.34,782.98s-2.93,4.03,0,4.03,0-4.03,0-4.03"/><path class="cls-36" d="m420.16,782.98s-2.93,4.03,0,4.03,0-4.03,0-4.03"/><path class="cls-36" d="m415.75,782.98s-3.49,4.9,0,4.9,0-4.9,0-4.9"/><rect class="cls-36" x="414.72" y="772.54" width="1.96" height="5.88"/><path class="cls-25" d="m579.85,1216.75c5.44,0,9.85-4.41,9.85-9.85s-4.41-9.85-9.85-9.85-9.85,4.41-9.85,9.85,4.41,9.85,9.85,9.85"/><path class="cls-4" d="m579.85,1216.75c5.44,0,9.85-4.41,9.85-9.85s-4.41-9.85-9.85-9.85-9.85,4.41-9.85,9.85,4.41,9.85,9.85,9.85Z"/><path class="cls-36" d="m586.62,1206.35c0-3.32-3.03-6.02-6.77-6.02s-6.77,2.69-6.77,6.02h13.53Z"/><path class="cls-36" d="m575.48,1207.9s-2.93,4.03,0,4.03,0-4.03,0-4.03"/><path class="cls-36" d="m584.3,1207.9s-2.93,4.03,0,4.03,0-4.03,0-4.03"/><path class="cls-36" d="m579.89,1207.9s-3.49,4.9,0,4.9,0-4.9,0-4.9"/><rect class="cls-36" x="578.87" y="1197.47" width="1.96" height="5.88"/><path class="cls-25" d="m370.77,1248.99c5.44,0,9.85-4.41,9.85-9.85s-4.41-9.85-9.85-9.85-9.85,4.41-9.85,9.85,4.41,9.85,9.85,9.85"/><path class="cls-4" d="m370.77,1248.99c5.44,0,9.85-4.41,9.85-9.85s-4.41-9.85-9.85-9.85-9.85,4.41-9.85,9.85,4.41,9.85,9.85,9.85Z"/><rect class="cls-36" x="369.79" y="1229.71" width="1.96" height="5.88"/><path class="cls-36" d="m366.41,1240.14s-2.93,4.03,0,4.03,0-4.03,0-4.03"/><path class="cls-36" d="m375.23,1240.14s-2.93,4.03,0,4.03,0-4.03,0-4.03"/><path class="cls-36" d="m370.82,1240.14s-3.49,4.9,0,4.9,0-4.9,0-4.9"/><path class="cls-36" d="m377.54,1238.59c0-3.32-3.03-6.02-6.77-6.02s-6.77,2.69-6.77,6.02h13.53Z"/></g><g id="Water_Station"><path class="cls-25" d="m1388.18,904.52c5.44,0,9.85-4.41,9.85-9.85s-4.41-9.85-9.85-9.85-9.85,4.41-9.85,9.85,4.41,9.85,9.85,9.85"/><path class="cls-3" d="m1388.18,904.52c5.44,0,9.85-4.41,9.85-9.85s-4.41-9.85-9.85-9.85-9.85,4.41-9.85,9.85,4.41,9.85,9.85,9.85Z"/><text class="cls-48" transform="translate(1380.8 899.98)"><tspan x="0" y="0">W</tspan></text><path class="cls-25" d="m1276.09,824.25c5.44,0,9.85-4.41,9.85-9.85s-4.41-9.85-9.85-9.85-9.85,4.41-9.85,9.85,4.41,9.85,9.85,9.85"/><path class="cls-3" d="m1276.09,824.25c5.44,0,9.85-4.41,9.85-9.85s-4.41-9.85-9.85-9.85-9.85,4.41-9.85,9.85,4.41,9.85,9.85,9.85Z"/><text class="cls-48" transform="translate(1268.72 819.71)"><tspan x="0" y="0">W</tspan></text><path class="cls-25" d="m1340.52,984.4c5.44,0,9.85-4.41,9.85-9.85s-4.41-9.85-9.85-9.85-9.85,4.41-9.85,9.85,4.41,9.85,9.85,9.85"/><path class="cls-3" d="m1340.52,984.4c5.44,0,9.85-4.41,9.85-9.85s-4.41-9.85-9.85-9.85-9.85,4.41-9.85,9.85,4.41,9.85,9.85,9.85Z"/><text class="cls-48" transform="translate(1333.14 979.86)"><tspan x="0" y="0">W</tspan></text><path class="cls-25" d="m1173.49,920.53c5.44,0,9.85-4.41,9.85-9.85s-4.41-9.85-9.85-9.85-9.85,4.41-9.85,9.85,4.41,9.85,9.85,9.85"/><path class="cls-3" d="m1173.49,920.53c5.44,0,9.85-4.41,9.85-9.85s-4.41-9.85-9.85-9.85-9.85,4.41-9.85,9.85,4.41,9.85,9.85,9.85Z"/><text class="cls-48" transform="translate(1166.11 915.99)"><tspan x="0" y="0">W</tspan></text><path class="cls-25" d="m1053.41,869.54c5.44,0,9.85-4.41,9.85-9.85s-4.41-9.85-9.85-9.85-9.85,4.41-9.85,9.85,4.41,9.85,9.85,9.85"/><path class="cls-3" d="m1053.41,869.54c5.44,0,9.85-4.41,9.85-9.85s-4.41-9.85-9.85-9.85-9.85,4.41-9.85,9.85,4.41,9.85,9.85,9.85Z"/><text class="cls-48" transform="translate(1046.03 865)"><tspan x="0" y="0">W</tspan></text><path class="cls-25" d="m1063.79,804.44c5.44,0,9.85-4.41,9.85-9.85s-4.41-9.85-9.85-9.85-9.85,4.41-9.85,9.85,4.41,9.85,9.85,9.85"/><path class="cls-3" d="m1063.79,804.44c5.44,0,9.85-4.41,9.85-9.85s-4.41-9.85-9.85-9.85-9.85,4.41-9.85,9.85,4.41,9.85,9.85,9.85Z"/><text class="cls-48" transform="translate(1056.42 799.9)"><tspan x="0" y="0">W</tspan></text><path class="cls-25" d="m1032.31,949.35c5.44,0,9.85-4.41,9.85-9.85s-4.41-9.85-9.85-9.85-9.85,4.41-9.85,9.85,4.41,9.85,9.85,9.85"/><path class="cls-3" d="m1032.31,949.35c5.44,0,9.85-4.41,9.85-9.85s-4.41-9.85-9.85-9.85-9.85,4.41-9.85,9.85,4.41,9.85,9.85,9.85Z"/><text class="cls-48" transform="translate(1024.93 944.81)"><tspan x="0" y="0">W</tspan></text><path class="cls-25" d="m793.75,973.09c5.44,0,9.85-4.41,9.85-9.85s-4.41-9.85-9.85-9.85-9.85,4.41-9.85,9.85,4.41,9.85,9.85,9.85"/><path class="cls-3" d="m793.75,973.09c5.44,0,9.85-4.41,9.85-9.85s-4.41-9.85-9.85-9.85-9.85,4.41-9.85,9.85,4.41,9.85,9.85,9.85Z"/><text class="cls-48" transform="translate(786.37 968.55)"><tspan x="0" y="0">W</tspan></text><path class="cls-25" d="m730.37,847.79c4.08,0,7.39-3.31,7.39-7.39s-3.31-7.39-7.39-7.39-7.39,3.31-7.39,7.39,3.31,7.39,7.39,7.39"/><path class="cls-8" d="m730.37,847.79c4.08,0,7.39-3.31,7.39-7.39s-3.31-7.39-7.39-7.39-7.39,3.31-7.39,7.39,3.31,7.39,7.39,7.39Z"/><text class="cls-46" transform="translate(724.83 844.38)"><tspan x="0" y="0">W</tspan></text></g><g id="Misc._Place_Labels"><rect class="cls-42" x="921.61" y="788.48" width="17.41" height="17.41" transform="translate(-291.21 891.32) rotate(-45)"/><text class="cls-16" transform="translate(924.1 801.94)"><tspan x="0" y="0">M</tspan></text><rect class="cls-23" x="743.84" y="798.6" width="17.41" height="17.41" transform="translate(-350.44 768.59) rotate(-45)"/><text class="cls-16" transform="translate(748.65 812.07)"><tspan x="0" y="0">S</tspan></text><rect class="cls-28" x="806.95" y="794.86" width="17.41" height="17.41" transform="translate(-329.31 812.11) rotate(-45)"/><text class="cls-16" transform="translate(811.45 808.55)"><tspan x="0" y="0">E</tspan></text><rect class="cls-29" x="1066.28" y="839.25" width="17.41" height="17.41" transform="translate(-284.74 1008.49) rotate(-45)"/><text class="cls-16" transform="translate(1069.25 852.53)"><tspan x="0" y="0">H</tspan></text><rect class="cls-41" x="1396.1" y="904.33" width="17.41" height="17.41" transform="translate(-234.15 1260.77) rotate(-45)"/><text class="cls-16" transform="translate(1399.19 917.71)"><tspan x="0" y="0">G</tspan></text><rect class="cls-37" x="863.59" y="763.5" width="17.41" height="17.41" transform="translate(-290.54 842.98) rotate(-45)"/><text class="cls-15" transform="translate(866.65 777.18)"><tspan x="0" y="0">C</tspan></text><g id="Tribal_Police"><path class="cls-25" d="m771.89,680.92c6.8,0,12.31-5.51,12.31-12.31s-5.51-12.31-12.31-12.31-12.31,5.51-12.31,12.31,5.51,12.31,12.31,12.31"/><circle class="cls-11" cx="771.89" cy="668.61" r="12.31"/><polygon class="cls-38" points="771.89 659.33 769.48 665.39 762.98 665.8 767.99 669.97 766.38 676.28 771.89 672.79 777.4 676.28 775.78 669.97 780.8 665.8 774.29 665.39 771.89 659.33"/></g><g id="Zone_Labels"><g class="cls-52"><g class="cls-69"><g class="cls-58"><text class="cls-21" transform="translate(311.98 876.32)"><tspan class="cls-67" x="0" y="0">Z</tspan><tspan class="cls-71" x="16.51" y="0">ONE 4</tspan></text></g></g><g class="cls-69"><g class="cls-57"><text class="cls-21" transform="translate(1053.04 1023.16)"><tspan class="cls-65" x="0" y="0">Z</tspan><tspan x="16.51" y="0">ONE 3</tspan></text></g></g><g class="cls-69"><g class="cls-55"><text class="cls-21" transform="translate(734.85 1197.54)"><tspan class="cls-65" x="0" y="0">Z</tspan><tspan class="cls-71" x="16.51" y="0">ONE 1</tspan></text></g></g><g class="cls-69"><g class="cls-56"><text class="cls-21" transform="translate(567.67 620.63)"><tspan class="cls-65" x="0" y="0">Z</tspan><tspan class="cls-71" x="16.51" y="0">ONE 2</tspan></text></g></g><g class="cls-69"><g class="cls-59"><text class="cls-21" transform="translate(1516.51 551.12)"><tspan class="cls-65" x="0" y="0">Z</tspan><tspan x="16.51" y="0">ONE 5</tspan></text></g></g><g class="cls-69"><g class="cls-62"><text class="cls-21" transform="translate(1338.88 1009.35)"><tspan class="cls-65" x="0" y="0">Z</tspan><tspan x="16.51" y="0">ONE 6</tspan></text></g></g><g class="cls-69"><g class="cls-63"><text class="cls-21" transform="translate(1559.51 1515.01)"><tspan class="cls-65" x="0" y="0">Z</tspan><tspan x="16.51" y="0">ONE 7</tspan></text></g></g></g></g><text class="cls-49" transform="translate(1004.75 225.39)"><tspan x="0" y="0">A1</tspan></text><text class="cls-49" transform="translate(869.52 304.96)"><tspan x="0" y="0">A2</tspan></text><text class="cls-49" transform="translate(748.07 382.67)"><tspan x="0" y="0">A3</tspan></text><text class="cls-49" transform="translate(667.87 434.51)"><tspan x="0" y="0">A4</tspan></text><text class="cls-49" transform="translate(571.31 492.31)"><tspan x="0" y="0">A5</tspan></text><text class="cls-49" transform="translate(434.3 573.97)"><tspan x="0" y="0">A6</tspan></text><text class="cls-49" transform="translate(373.33 677.17)"><tspan x="0" y="0">B1</tspan></text><text class="cls-49" transform="translate(516.18 591.49)"><tspan x="0" y="0">C3</tspan></text><text class="cls-49" transform="translate(604.27 533.17)"><tspan x="0" y="0">C2</tspan></text><text class="cls-49" transform="translate(694.36 482.05)"><tspan x="0" y="0">C1</tspan></text><text class="cls-49" transform="translate(1433.25 910.23)"><tspan x="0" y="0">D2</tspan></text><text class="cls-49" transform="translate(1486.33 986.6)"><tspan x="0" y="0">G1</tspan></text><text class="cls-49" transform="translate(1497.18 1074.62)"><tspan x="0" y="0">G2</tspan></text><text class="cls-49" transform="translate(1533.9 1210.34)"><tspan x="0" y="0">G3</tspan></text><text class="cls-49" transform="translate(1563.49 986.6)"><tspan x="0" y="0">E1</tspan></text><text class="cls-49" transform="translate(1574.35 1074.62)"><tspan x="0" y="0">E2</tspan></text><text class="cls-49" transform="translate(1611.07 1210.34)"><tspan x="0" y="0">E3</tspan></text><text class="cls-49" transform="translate(1610.92 1352.89)"><tspan x="0" y="0">E4</tspan></text><text class="cls-49" transform="translate(1516.41 1448.72)"><tspan x="0" y="0">E5</tspan></text><text class="cls-49" transform="translate(1366.63 1579.81)"><tspan x="0" y="0">E6</tspan></text><text class="cls-49" transform="translate(1344.18 1509.41)"><tspan x="0" y="0">H2</tspan></text><text class="cls-49" transform="translate(1177.43 1626.29)"><tspan x="0" y="0">I2</tspan></text><text class="cls-49" transform="translate(1140.04 1684.39)"><tspan x="0" y="0">F1</tspan></text><text class="cls-49" transform="translate(1227.52 1684.39)"><tspan x="0" y="0">F2</tspan></text><text class="cls-49" transform="translate(1319.36 1734.88)"><tspan x="0" y="0">F3</tspan></text><text class="cls-49" transform="translate(1439.44 1428.68)"><tspan x="0" y="0">H2</tspan></text><text class="cls-49" transform="translate(1519.83 1352.9)"><tspan x="0" y="0">H1</tspan></text><text class="cls-49" transform="translate(1460.96 731.45)"><tspan x="0" y="0">D1</tspan></text><g class="cls-68"><g class="cls-61"><text class="cls-44" transform="translate(390.85 540.35)"><tspan x="0" y="0">ASSOCI</tspan><tspan class="cls-26" x="39.23" y="0">A</tspan><tspan class="cls-64" x="45.83" y="0">TE </tspan><tspan class="cls-43" x="61.61" y="0">P</tspan><tspan x="68.12" y="0">ARKING</tspan></text></g></g><g class="cls-68"><g class="cls-60"><text class="cls-47" transform="translate(1360.39 1629.8) rotate(-43)"><tspan x="0" y="0">ASSOCI</tspan><tspan class="cls-27" x="39.23" y="0">A</tspan><tspan x="45.83" y="0">TE </tspan><tspan class="cls-50" x="61.61" y="0">P</tspan><tspan x="68.11" y="0">ARKING</tspan></text></g></g></g><g id="Information"><rect class="cls-38" x="833.77" y="769.1" width="23.2" height="23.2" transform="translate(-304.44 826.43) rotate(-45)"/><text class="cls-14" transform="translate(841.92 789.18)"><tspan x="0" y="0">i</tspan></text><rect class="cls-38" x="1021.45" y="787.33" width="23.2" height="23.2" transform="translate(-262.35 964.48) rotate(-45)"/><text class="cls-14" transform="translate(1029.59 807.4)"><tspan x="0" y="0">i</tspan></text><rect class="cls-38" x="105.54" y="1433.87" width="23.2" height="23.2" transform="translate(-987.79 506.2) rotate(-45)"/><text class="cls-14" transform="translate(113.68 1453.95)"><tspan x="0" y="0">i</tspan></text></g><g id="Concession_Stands"><rect class="cls-40" x="778.99" y="837.93" width="17.41" height="17.41" transform="translate(-367.95 804.96) rotate(-45)"/><text class="cls-16" transform="translate(782.39 851.17)"><tspan x="0" y="0">C</tspan></text><rect class="cls-40" x="824.45" y="964.96" width="17.41" height="17.41" transform="translate(-444.46 874.31) rotate(-45)"/><text class="cls-17" transform="translate(827.92 978.04)"><tspan x="0" y="0">C</tspan></text><rect class="cls-40" x="634.01" y="1003.17" width="17.41" height="17.41" transform="translate(-527.26 750.84) rotate(-45)"/><text class="cls-17" transform="translate(637.48 1016.25)"><tspan x="0" y="0">C</tspan></text><rect class="cls-40" x="947.11" y="513.46" width="17.41" height="17.41" transform="translate(-89.28 828.8) rotate(-45)"/><text class="cls-17" transform="translate(950.58 526.54)"><tspan x="0" y="0">C</tspan></text></g><g id="First_Aid"><path class="cls-25" d="m986.39,1044.2c6.8,0,12.31-5.51,12.31-12.31s-5.51-12.31-12.31-12.31-12.31,5.51-12.31,12.31,5.51,12.31,12.31,12.31"/><circle class="cls-12" cx="986.39" cy="1031.89" r="12.31"/><rect class="cls-39" x="978.18" y="1029.43" width="16.41" height="4.92"/><rect class="cls-39" x="983.93" y="1023.69" width="4.92" height="16.41"/><path class="cls-25" d="m694.07,891.23c5.44,0,9.85-4.41,9.85-9.85s-4.41-9.85-9.85-9.85-9.85,4.41-9.85,9.85,4.41,9.85,9.85,9.85"/><path class="cls-5" d="m694.07,891.23c5.44,0,9.85-4.41,9.85-9.85s-4.41-9.85-9.85-9.85-9.85,4.41-9.85,9.85,4.41,9.85,9.85,9.85Z"/><rect class="cls-39" x="687.51" y="879.41" width="13.12" height="3.94"/><rect class="cls-39" x="692.11" y="874.81" width="3.94" height="13.12"/><path class="cls-25" d="m1051.48,315.7c5.44,0,9.85-4.41,9.85-9.85s-4.41-9.85-9.85-9.85-9.85,4.41-9.85,9.85,4.41,9.85,9.85,9.85"/><path class="cls-5" d="m1051.48,315.7c5.44,0,9.85-4.41,9.85-9.85s-4.41-9.85-9.85-9.85-9.85,4.41-9.85,9.85,4.41,9.85,9.85,9.85Z"/><rect class="cls-39" x="1044.92" y="303.89" width="13.12" height="3.94"/><rect class="cls-39" x="1049.51" y="299.29" width="3.94" height="13.12"/><path class="cls-25" d="m1288.78,869.59c5.44,0,9.85-4.41,9.85-9.85s-4.41-9.85-9.85-9.85-9.85,4.41-9.85,9.85,4.41,9.85,9.85,9.85"/><path class="cls-5" d="m1288.78,869.59c5.44,0,9.85-4.41,9.85-9.85s-4.41-9.85-9.85-9.85-9.85,4.41-9.85,9.85,4.41,9.85,9.85,9.85Z"/><rect class="cls-39" x="1282.22" y="857.77" width="13.12" height="3.94"/><rect class="cls-39" x="1286.81" y="853.18" width="3.94" height="13.12"/></g><g id="Tent_Camping"><path class="cls-25" d="m441.12,1332.41c6.8,0,12.31-5.51,12.31-12.31s-5.51-12.31-12.31-12.31-12.31,5.51-12.31,12.31,5.51,12.31,12.31,12.31"/><circle class="cls-9" cx="441.12" cy="1320.1" r="12.31"/><polyline class="cls-41" points="449.36 1323 445.62 1314.14 442.2 1321.31 440.05 1326.04 443.89 1325.22 445.53 1319.39 446.75 1324.6 449.76 1323.96"/><polygon class="cls-41" points="444.31 1314.14 434.93 1316.9 432.51 1323.72 438.92 1325.56 444.31 1314.14"/><path class="cls-25" d="m653.43,1258.36c6.8,0,12.31-5.51,12.31-12.31s-5.51-12.31-12.31-12.31-12.31,5.51-12.31,12.31,5.51,12.31,12.31,12.31"/><circle class="cls-9" cx="653.43" cy="1246.05" r="12.31"/><polyline class="cls-41" points="661.66 1248.95 657.93 1240.09 654.51 1247.27 652.36 1251.99 656.2 1251.17 657.84 1245.34 659.06 1250.56 662.07 1249.91"/><polygon class="cls-41" points="656.61 1240.09 647.23 1242.85 644.82 1249.68 651.23 1251.51 656.61 1240.09"/><path class="cls-25" d="m704.19,1186.54c6.8,0,12.31-5.51,12.31-12.31s-5.51-12.31-12.31-12.31-12.31,5.51-12.31,12.31,5.51,12.31,12.31,12.31"/><circle class="cls-9" cx="704.19" cy="1174.23" r="12.31"/><polyline class="cls-41" points="712.42 1177.13 708.69 1168.27 705.27 1175.45 703.12 1180.17 706.96 1179.35 708.6 1173.52 709.82 1178.74 712.83 1178.09"/><polygon class="cls-41" points="707.37 1168.27 697.99 1171.03 695.58 1177.86 701.99 1179.69 707.37 1168.27"/><path class="cls-25" d="m266.78,1135.69c6.8,0,12.31-5.51,12.31-12.31s-5.51-12.31-12.31-12.31-12.31,5.51-12.31,12.31,5.51,12.31,12.31,12.31"/><circle class="cls-9" cx="266.78" cy="1123.38" r="12.31"/><polyline class="cls-41" points="275.01 1126.28 271.28 1117.42 267.86 1124.6 265.71 1129.32 269.55 1128.5 271.19 1122.67 272.41 1127.89 275.42 1127.24"/><polygon class="cls-41" points="269.96 1117.42 260.58 1120.18 258.17 1127.01 264.58 1128.84 269.96 1117.42"/><path class="cls-25" d="m359.72,918.04c6.8,0,12.31-5.51,12.31-12.31s-5.51-12.31-12.31-12.31-12.31,5.51-12.31,12.31,5.51,12.31,12.31,12.31"/><circle class="cls-9" cx="359.72" cy="905.73" r="12.31"/><polyline class="cls-41" points="367.96 908.63 364.22 899.77 360.81 906.95 358.65 911.67 362.49 910.85 364.13 905.02 365.36 910.24 368.37 909.59"/><polygon class="cls-41" points="362.91 899.77 353.53 902.53 351.11 909.36 357.53 911.2 362.91 899.77"/><path class="cls-25" d="m1580.34,617.59c6.8,0,12.31-5.51,12.31-12.31s-5.51-12.31-12.31-12.31-12.31,5.51-12.31,12.31,5.51,12.31,12.31,12.31"/><circle class="cls-9" cx="1580.34" cy="605.27" r="12.31"/><polyline class="cls-41" points="1588.58 608.17 1584.85 599.32 1581.43 606.49 1579.27 611.22 1583.12 610.4 1584.76 604.57 1585.98 609.78 1588.99 609.14"/><polygon class="cls-41" points="1583.53 599.32 1574.15 602.08 1571.73 608.9 1578.15 610.74 1583.53 599.32"/></g><g id="ATM"><path class="cls-25" d="m740.3,830.65c4.08,0,7.39-3.31,7.39-7.39s-3.31-7.39-7.39-7.39-7.39,3.31-7.39,7.39,3.31,7.39,7.39,7.39"/><path class="cls-6" d="m740.3,830.65c4.08,0,7.39-3.31,7.39-7.39s-3.31-7.39-7.39-7.39-7.39,3.31-7.39,7.39,3.31,7.39,7.39,7.39Z"/><text class="cls-13" transform="translate(735.82 828.47)"><tspan x="0" y="0">$</tspan></text><rect class="cls-23" x="739.57" y="815.95" width="1.47" height="14.15"/><path class="cls-25" d="m738.73,921.7c4.08,0,7.39-3.31,7.39-7.39s-3.31-7.39-7.39-7.39-7.39,3.31-7.39,7.39,3.31,7.39,7.39,7.39"/><path class="cls-6" d="m738.73,921.7c4.08,0,7.39-3.31,7.39-7.39s-3.31-7.39-7.39-7.39-7.39,3.31-7.39,7.39,3.31,7.39,7.39,7.39Z"/><text class="cls-13" transform="translate(734.25 919.53)"><tspan x="0" y="0">$</tspan></text><rect class="cls-23" x="737.99" y="907.01" width="1.47" height="14.15"/><path class="cls-25" d="m822.66,733c4.08,0,7.39-3.31,7.39-7.39s-3.31-7.39-7.39-7.39-7.39,3.31-7.39,7.39,3.31,7.39,7.39,7.39"/><path class="cls-6" d="m822.66,733c4.08,0,7.39-3.31,7.39-7.39s-3.31-7.39-7.39-7.39-7.39,3.31-7.39,7.39,3.31,7.39,7.39,7.39Z"/><text class="cls-13" transform="translate(818.18 730.82)"><tspan x="0" y="0">$</tspan></text><rect class="cls-23" x="821.93" y="718.3" width="1.47" height="14.15"/></g><g id="Restrooms"><path class="cls-25" d="m577.21,1241.68c5.44,0,9.85-4.41,9.85-9.85s-4.41-9.85-9.85-9.85-9.85,4.41-9.85,9.85,4.41,9.85,9.85,9.85"/><path class="cls-2" d="m577.21,1241.68c5.44,0,9.85-4.41,9.85-9.85s-4.41-9.85-9.85-9.85-9.85,4.41-9.85,9.85,4.41,9.85,9.85,9.85Z"/><text class="cls-30" transform="translate(571.03 1237.17)"><tspan x="0" y="0">R</tspan></text><path class="cls-25" d="m441.09,792.55c5.44,0,9.85-4.41,9.85-9.85s-4.41-9.85-9.85-9.85-9.85,4.41-9.85,9.85,4.41,9.85,9.85,9.85"/><path class="cls-2" d="m441.09,792.55c5.44,0,9.85-4.41,9.85-9.85s-4.41-9.85-9.85-9.85-9.85,4.41-9.85,9.85,4.41,9.85,9.85,9.85Z"/><text class="cls-30" transform="translate(434.91 788.04)"><tspan x="0" y="0">R</tspan></text><path class="cls-25" d="m662.37,887c5.44,0,9.85-4.41,9.85-9.85s-4.41-9.85-9.85-9.85-9.85,4.41-9.85,9.85,4.41,9.85,9.85,9.85"/><path class="cls-2" d="m662.37,887c5.44,0,9.85-4.41,9.85-9.85s-4.41-9.85-9.85-9.85-9.85,4.41-9.85,9.85,4.41,9.85,9.85,9.85Z"/><text class="cls-30" transform="translate(656.19 882.48)"><tspan x="0" y="0">R</tspan></text><path class="cls-25" d="m588.28,996.83c5.44,0,9.85-4.41,9.85-9.85s-4.41-9.85-9.85-9.85-9.85,4.41-9.85,9.85,4.41,9.85,9.85,9.85"/><path class="cls-2" d="m588.28,996.83c5.44,0,9.85-4.41,9.85-9.85s-4.41-9.85-9.85-9.85-9.85,4.41-9.85,9.85,4.41,9.85,9.85,9.85Z"/><text class="cls-30" transform="translate(582.1 992.32)"><tspan x="0" y="0">R</tspan></text><path class="cls-25" d="m859.95,847.49c5.44,0,9.85-4.41,9.85-9.85s-4.41-9.85-9.85-9.85-9.85,4.41-9.85,9.85,4.41,9.85,9.85,9.85"/><path class="cls-2" d="m859.95,847.49c5.44,0,9.85-4.41,9.85-9.85s-4.41-9.85-9.85-9.85-9.85,4.41-9.85,9.85,4.41,9.85,9.85,9.85Z"/><text class="cls-30" transform="translate(853.76 842.98)"><tspan x="0" y="0">R</tspan></text><path class="cls-25" d="m803.6,745.82c5.44,0,9.85-4.41,9.85-9.85s-4.41-9.85-9.85-9.85-9.85,4.41-9.85,9.85,4.41,9.85,9.85,9.85"/><path class="cls-2" d="m803.6,745.82c5.44,0,9.85-4.41,9.85-9.85s-4.41-9.85-9.85-9.85-9.85,4.41-9.85,9.85,4.41,9.85,9.85,9.85Z"/><text class="cls-30" transform="translate(797.42 741.31)"><tspan x="0" y="0">R</tspan></text><path class="cls-25" d="m1214.25,783.22c5.44,0,9.85-4.41,9.85-9.85s-4.41-9.85-9.85-9.85-9.85,4.41-9.85,9.85,4.41,9.85,9.85,9.85"/><path class="cls-2" d="m1214.25,783.22c5.44,0,9.85-4.41,9.85-9.85s-4.41-9.85-9.85-9.85-9.85,4.41-9.85,9.85,4.41,9.85,9.85,9.85Z"/><text class="cls-30" transform="translate(1208.07 778.71)"><tspan x="0" y="0">R</tspan></text><path class="cls-25" d="m955.9,558.92c5.44,0,9.85-4.41,9.85-9.85s-4.41-9.85-9.85-9.85-9.85,4.41-9.85,9.85,4.41,9.85,9.85,9.85"/><path class="cls-2" d="m955.9,558.92c5.44,0,9.85-4.41,9.85-9.85s-4.41-9.85-9.85-9.85-9.85,4.41-9.85,9.85,4.41,9.85,9.85,9.85Z"/><text class="cls-30" transform="translate(949.72 554.4)"><tspan x="0" y="0">R</tspan></text><path class="cls-25" d="m1498.29,645.02c5.44,0,9.85-4.41,9.85-9.85s-4.41-9.85-9.85-9.85-9.85,4.41-9.85,9.85,4.41,9.85,9.85,9.85"/><path class="cls-2" d="m1498.29,645.02c5.44,0,9.85-4.41,9.85-9.85s-4.41-9.85-9.85-9.85-9.85,4.41-9.85,9.85,4.41,9.85,9.85,9.85Z"/><text class="cls-30" transform="translate(1492.11 640.5)"><tspan x="0" y="0">R</tspan></text><path class="cls-25" d="m347.32,1238.85c5.44,0,9.85-4.41,9.85-9.85s-4.41-9.85-9.85-9.85-9.85,4.41-9.85,9.85,4.41,9.85,9.85,9.85"/><path class="cls-2" d="m347.32,1238.85c5.44,0,9.85-4.41,9.85-9.85s-4.41-9.85-9.85-9.85-9.85,4.41-9.85,9.85,4.41,9.85,9.85,9.85Z"/><text class="cls-30" transform="translate(341.14 1234.33)"><tspan x="0" y="0">R</tspan></text></g></svg>