<?xml version="1.0" encoding="UTF-8"?><svg id="Street_Labels" xmlns="http://www.w3.org/2000/svg" viewBox="0 0 1728 2208.49"><defs></defs><text class="cls-53" transform="translate(1131.91 1531.86) rotate(89.5)"><tspan x="0" y="0"> </tspan></text><text class="cls-53" transform="translate(1131.83 1523.33) rotate(89.5)"><tspan x="0" y="0">A</tspan></text><text class="cls-53" transform="translate(1131.75 1513.98) rotate(89.5)"><tspan x="0" y="0">N</tspan></text><text class="cls-53" transform="translate(1131.72 1510.48) rotate(89.5)"><tspan x="0" y="0">I</tspan></text><text class="cls-53" transform="translate(1131.64 1501.46) rotate(89.5)"><tspan x="0" y="0">H</tspan></text><text class="cls-53" transform="translate(1131.62 1498.26) rotate(89.5)"><tspan x="0" y="0"> </tspan></text><text class="cls-53" transform="translate(1131.54 1489.72) rotate(89.5)"><tspan x="0" y="0">A</tspan></text><text class="cls-53" transform="translate(1131.47 1481.34) rotate(89.5)"><tspan x="0" y="0">K</tspan></text><text class="cls-53" transform="translate(1131.4 1473.18) rotate(89.5)"><tspan x="0" y="0">K</tspan></text><text class="cls-53" transform="translate(1131.32 1464.29) rotate(89.5)"><tspan x="0" y="0">U</tspan></text><text class="cls-53" transform="translate(1131.24 1455.27) rotate(89.5)"><tspan x="0" y="0">H</tspan></text><text class="cls-53" transform="translate(1131.17 1447.22) rotate(89.5)"><tspan x="0" y="0">C</tspan></text><text class="cls-53" transform="translate(1131.14 1444.02) rotate(89.5)"><tspan x="0" y="0"> </tspan></text><text class="cls-53" transform="translate(1131.11 1440.52) rotate(89.5)"><tspan x="0" y="0">I</tspan></text><text class="cls-53" transform="translate(1131.08 1437.32) rotate(89.5)"><tspan x="0" y="0"> </tspan></text><text class="cls-53" transform="translate(1131.01 1428.79) rotate(89.5)"><tspan x="0" y="0">A</tspan></text><text class="cls-53" transform="translate(1130.95 1422.66) rotate(89.5)"><tspan x="0" y="0">S</tspan></text><text class="cls-53" transform="translate(1130.9 1416.06) rotate(89.5)"><tspan x="0" y="0">E</tspan></text><text class="cls-53" transform="translate(1130.84 1409.02) rotate(89.5)"><tspan x="0" y="0">P</tspan></text><text class="cls-53" transform="translate(1130.76 1400.48) rotate(89.5)"><tspan x="0" y="0">A</tspan></text><text class="cls-53" transform="translate(1130.73 1397.28) rotate(89.5)"><tspan x="0" y="0"> </tspan></text><text class="cls-53" transform="translate(1130.65 1387.93) rotate(89.5)"><tspan x="0" y="0">N</tspan></text><text class="cls-53" transform="translate(1130.58 1379.4) rotate(89.5)"><tspan x="0" y="0">A</tspan></text><text class="cls-53" transform="translate(1130.49 1370.05) rotate(89.5)"><tspan x="0" y="0">N</tspan></text><text class="cls-58" transform="translate(1118.53 1511.62) rotate(89.5)"><tspan x="0" y="0">)</tspan></text><text class="cls-58" transform="translate(1118.46 1503.71) rotate(89.5)"><tspan x="0" y="0">D</tspan></text><text class="cls-58" transform="translate(1118.4 1496.37) rotate(89.5)"><tspan x="0" y="0">A</tspan></text><text class="cls-58" transform="translate(1118.32 1487.65) rotate(89.5)"><tspan x="0" y="0">O</tspan></text><text class="cls-58" transform="translate(1118.27 1481.26) rotate(89.5)"><tspan x="0" y="0">R</tspan></text><text class="cls-58" transform="translate(1118.24 1478.2) rotate(89.5)"><tspan x="0" y="0"> </tspan></text><text class="cls-58" transform="translate(1118.19 1472.47) rotate(89.5)"><tspan x="0" y="0">E</tspan></text><text class="cls-58" transform="translate(1118.14 1467.22) rotate(89.5)"><tspan x="0" y="0">S</tspan></text><text class="cls-58" transform="translate(1118.08 1459.33) rotate(89.5)"><tspan x="0" y="0">U</tspan></text><text class="cls-58" transform="translate(1118 1450.27) rotate(89.5)"><tspan x="0" y="0">O</tspan></text><text class="cls-58" transform="translate(1117.93 1442.25) rotate(89.5)"><tspan x="0" y="0">H</tspan></text><text class="cls-58" transform="translate(1117.9 1439.2) rotate(89.5)"><tspan x="0" y="0"> </tspan></text><text class="cls-58" transform="translate(1117.85 1433.8) rotate(89.5)"><tspan x="0" y="0">L</tspan></text><text class="cls-58" transform="translate(1117.83 1431.07) rotate(89.5)"><tspan x="0" y="0">I</tspan></text><text class="cls-58" transform="translate(1117.76 1423.31) rotate(89.5)"><tspan x="0" y="0">C</tspan></text><text class="cls-58" transform="translate(1117.68 1414.71) rotate(89.5)"><tspan x="0" y="0">N</tspan></text><text class="cls-58" transform="translate(1117.62 1406.81) rotate(89.5)"><tspan x="0" y="0">U</tspan></text><text class="cls-58" transform="translate(1117.54 1397.76) rotate(89.5)"><tspan x="0" y="0">O</tspan></text><text class="cls-58" transform="translate(1117.47 1390.22) rotate(89.5)"><tspan x="0" y="0">C</tspan></text><text class="cls-58" transform="translate(1117.44 1386.97) rotate(89.5)"><tspan x="0" y="0">(</tspan></text><text class="cls-53" transform="translate(224.61 1674.46) rotate(-.5)"><tspan x="0" y="0">NANIH </tspan><tspan class="cls-43" x="42.95" y="0">W</tspan><tspan x="54.81" y="0">AI</tspan><tspan class="cls-71" x="66.85" y="0">Y</tspan><tspan x="73.6" y="0">A</tspan></text><text class="cls-53" transform="translate(905.29 1674.7) rotate(-.5)"><tspan x="0" y="0">NANIH </tspan><tspan class="cls-43" x="42.95" y="0">W</tspan><tspan class="cls-100" x="54.81" y="0">AI</tspan><tspan class="cls-71" x="66.85" y="0">Y</tspan><tspan x="73.6" y="0">A</tspan></text><text class="cls-55" transform="translate(384.11 1133.2) rotate(-54.5)"><tspan class="cls-76" x="0" y="0">L</tspan><tspan class="cls-97" x="6.18" y="0">UKSI </tspan></text><text class="cls-60" transform="translate(405.04 1103.86) rotate(-54.5)"><tspan class="cls-84" x="0" y="0">(</tspan><tspan x="3.92" y="0">TU</tspan><tspan class="cls-7" x="18.46" y="0">R</tspan><tspan x="24.56" y="0">TL</tspan><tspan class="cls-21" x="36.61" y="0">E</tspan><tspan class="cls-107" x="42.46" y="0">)</tspan></text><text class="cls-47" transform="translate(539.05 1196.22) rotate(-78)"><tspan class="cls-75" x="0" y="0">L</tspan><tspan class="cls-99" x="6.18" y="0">UKSI </tspan></text><text class="cls-61" transform="translate(546.55 1160.96) rotate(-78)"><tspan class="cls-119" x="0" y="0">(</tspan><tspan class="cls-99" x="3.92" y="0">TU</tspan><tspan class="cls-5" x="18.46" y="0">R</tspan><tspan x="24.56" y="0">TL</tspan><tspan class="cls-24" x="36.61" y="0">E</tspan><tspan x="42.46" y="0">)</tspan></text><text class="cls-53" transform="translate(455.22 1100.78) rotate(-43)"><tspan x="0" y="0">ISSUBA ISHU</tspan><tspan class="cls-27" x="71.42" y="0">L</tspan><tspan class="cls-96" x="77.59" y="0">USH </tspan></text><text class="cls-58" transform="translate(475.76 1099.68) rotate(-43)"><tspan x="0" y="0">(HO</tspan><tspan class="cls-22" x="20.62" y="0">R</tspan><tspan class="cls-96" x="27.36" y="0">SESHO</tspan><tspan class="cls-22" x="60.65" y="0">E</tspan><tspan class="cls-96" x="66.51" y="0">)</tspan></text><text class="cls-62" transform="translate(649.72 1293.36) rotate(4)"><tspan x="0" y="0">(R</tspan><tspan class="cls-90" x="10.16" y="0">A</tspan><tspan class="cls-36" x="16.27" y="0">T</tspan><tspan class="cls-98" x="23.25" y="0">TLESNAK</tspan><tspan class="cls-23" x="69.43" y="0">E</tspan><tspan x="75.28" y="0">)</tspan></text><text class="cls-50" transform="translate(589.26 1289.14) rotate(4)"><tspan x="0" y="0">SINTUL</tspan><tspan class="cls-111" x="41.91" y="0">L</tspan><tspan x="48.14" y="0">O </tspan></text><text class="cls-51" transform="translate(709.3 1233.88) rotate(33)"><tspan x="0" y="0">HUSHI </tspan></text><text class="cls-59" transform="translate(742.64 1255.53) rotate(33)"><tspan x="0" y="0">(BIR</tspan><tspan class="cls-79" x="19.07" y="0">D</tspan><tspan x="26.99" y="0">)</tspan></text><text class="cls-53" transform="translate(671.61 1118.35) rotate(16)"><tspan x="0" y="0">CHUKFI </tspan></text><text class="cls-58" transform="translate(716.84 1131.32) rotate(16)"><tspan x="0" y="0">(RABBI</tspan><tspan class="cls-30" x="32.59" y="0">T</tspan><tspan x="39.59" y="0">)</tspan></text><text class="cls-48" transform="translate(462.06 898.77) rotate(-74.5)"><tspan x="0" y="0">OFI</tspan></text><text class="cls-64" transform="translate(467.13 880.47) rotate(-74.5)"><tspan x="0" y="0" xml:space="preserve"> (DOG)</tspan></text><text class="cls-48" transform="translate(491.94 910.26) rotate(-74.5)"><tspan class="cls-44" x="0" y="0">K</tspan><tspan class="cls-14" x="8.38" y="0">A</tspan><tspan class="cls-17" x="16.05" y="0">T</tspan><tspan x="23.26" y="0">OS </tspan></text><text class="cls-64" transform="translate(503.13 869.93) rotate(-74.5)"><tspan class="cls-82" x="0" y="0">(</tspan><tspan class="cls-4" x="3.26" y="0">C</tspan><tspan class="cls-89" x="11.14" y="0">A</tspan><tspan class="cls-83" x="17.25" y="0">T</tspan><tspan class="cls-108" x="24.25" y="0">)</tspan></text><text class="cls-48" transform="translate(522.79 924.97) rotate(-74.5)"><tspan x="0" y="0">A</tspan><tspan class="cls-44" x="8.54" y="0">K</tspan><tspan class="cls-108" x="16.92" y="0">A</tspan><tspan class="cls-114" x="25.45" y="0">K</tspan><tspan x="33.82" y="0">A </tspan></text><text class="cls-64" transform="translate(534.97 881.05) rotate(-74.5)"><tspan class="cls-82" x="0" y="0">(</tspan><tspan x="3.26" y="0">CHICKEN)</tspan></text><text class="cls-48" transform="translate(560.67 913.34) rotate(-74.5)"><tspan class="cls-78" x="0" y="0">W</tspan><tspan x="11.86" y="0">AK </tspan></text><text class="cls-64" transform="translate(569.16 882.74) rotate(-74.5)"><tspan class="cls-82" x="0" y="0">(</tspan><tspan class="cls-37" x="3.26" y="0">C</tspan><tspan class="cls-82" x="10.81" y="0">O</tspan><tspan class="cls-38" x="19.57" y="0">W</tspan><tspan x="31.49" y="0">)</tspan></text><text class="cls-48" transform="translate(604.97 882.15) rotate(-74.5)"><tspan x="0" y="0">SHUKHA </tspan></text><text class="cls-64" transform="translate(619.12 831.13) rotate(-74.5)"><tspan x="0" y="0">(PIG)</tspan></text><text class="cls-53" transform="translate(679.16 831.29) rotate(16)"><tspan class="cls-46" x="0" y="0">K</tspan><tspan class="cls-96" x="7.62" y="0">OI </tspan></text><text class="cls-58" transform="translate(670.13 840.14) rotate(16)"><tspan x="0" y="0">(LION)</tspan></text><text class="cls-53" transform="translate(286.21 940.31) rotate(16)"><tspan x="0" y="0">NI</tspan><tspan class="cls-25" x="12.85" y="0">T</tspan><tspan x="19.62" y="0">A</tspan></text><text class="cls-58" transform="translate(313.28 948.07) rotate(16)"><tspan x="0" y="0" xml:space="preserve"> (B</tspan><tspan class="cls-104" x="12.79" y="0">E</tspan><tspan x="18.74" y="0">A</tspan><tspan class="cls-102" x="26.08" y="0">R</tspan><tspan x="32.45" y="0">)</tspan></text><text class="cls-53" transform="translate(195.73 670.53) rotate(-.5)"><tspan x="0" y="0">T</tspan><tspan class="cls-27" x="7.66" y="0">V</tspan><tspan x="15.11" y="0">SH</tspan><tspan class="cls-104" x="30.26" y="0">K</tspan><tspan class="cls-106" x="38.64" y="0">A HINA </tspan></text><text class="cls-58" transform="translate(190.96 683.78) rotate(-.5)"><tspan class="cls-40" x="0" y="0">(</tspan><tspan class="cls-73" x="4.03" y="0">W</tspan><tspan x="14.66" y="0">ARRIOR </tspan><tspan class="cls-27" x="56.67" y="0">R</tspan><tspan class="cls-91" x="63.06" y="0">O</tspan><tspan x="71.8" y="0">A</tspan><tspan class="cls-88" x="79.13" y="0">D</tspan><tspan x="87.04" y="0">)</tspan></text><text class="cls-50" transform="translate(216.58 940.84) rotate(-86)"><tspan x="0" y="0">SINTI</tspan></text><text class="cls-62" transform="translate(218.68 910.79) rotate(-86)"><tspan x="0" y="0" xml:space="preserve"> (SNAK</tspan><tspan class="cls-72" x="35.01" y="0">E</tspan><tspan class="cls-109" x="40.86" y="0">)</tspan></text><text class="cls-47" transform="translate(694.11 730.66) rotate(-78)"><tspan x="0" y="0">ISSI</tspan></text><text class="cls-61" transform="translate(698.11 711.83) rotate(-78)"><tspan x="0" y="0" xml:space="preserve"> (DEE</tspan><tspan class="cls-18" x="26.29" y="0">R</tspan><tspan class="cls-110" x="32.67" y="0">)</tspan></text><text class="cls-53" transform="translate(916.97 1060.49) rotate(16)"><tspan class="cls-19" x="0" y="0">T</tspan><tspan class="cls-100" x="6.78" y="0">A</tspan><tspan class="cls-35" x="15.31" y="0">L</tspan><tspan class="cls-91" x="21.54" y="0">O</tspan><tspan x="30.49" y="0">A </tspan></text><text class="cls-58" transform="translate(957.56 1072.12) rotate(16)"><tspan x="0" y="0">(SING)</tspan></text><text class="cls-48" transform="translate(990.96 749.75) rotate(6)"><tspan class="cls-20" x="0" y="0">T</tspan><tspan class="cls-101" x="6.78" y="0">A</tspan><tspan class="cls-34" x="15.31" y="0">L</tspan><tspan class="cls-92" x="21.54" y="0">O</tspan><tspan x="30.49" y="0">A </tspan></text><text class="cls-64" transform="translate(1032.95 754.16) rotate(6)"><tspan x="0" y="0">(SING)</tspan></text><text class="cls-50" transform="translate(878.38 893.92) rotate(-86)"><tspan x="0" y="0">CHU</tspan><tspan class="cls-103" x="25.96" y="0">K</tspan><tspan x="34.34" y="0">ASH </tspan></text><text class="cls-62" transform="translate(882.65 832.85) rotate(-86)"><tspan x="0" y="0">(H</tspan><tspan class="cls-103" x="11.57" y="0">E</tspan><tspan x="17.52" y="0">A</tspan><tspan class="cls-6" x="24.86" y="0">R</tspan><tspan class="cls-118" x="30.96" y="0">T</tspan><tspan x="37.97" y="0">)</tspan></text><text class="cls-47" transform="translate(1040.14 1061.98) rotate(-92.5)"><tspan x="0" y="0">HALI</tspan><tspan class="cls-16" x="27.44" y="0">T</tspan><tspan class="cls-67" x="34.66" y="0">O </tspan></text><text class="cls-61" transform="translate(1038.08 1014.89) rotate(-92.5)"><tspan x="0" y="0">(HEL</tspan><tspan class="cls-112" x="22.7" y="0">L</tspan><tspan class="cls-87" x="27.74" y="0">O</tspan><tspan class="cls-67" x="36.49" y="0">)</tspan></text><text class="cls-53" transform="translate(1096.74 867.96) rotate(-.5)"><tspan x="0" y="0">HALI</tspan><tspan class="cls-15" x="27.44" y="0">T</tspan><tspan class="cls-68" x="34.66" y="0">O </tspan></text><text class="cls-58" transform="translate(1143.87 867.55) rotate(-.5)"><tspan x="0" y="0">(HEL</tspan><tspan class="cls-31" x="22.7" y="0">L</tspan><tspan class="cls-80" x="27.73" y="0">O</tspan><tspan class="cls-68" x="36.49" y="0">)</tspan></text><text class="cls-50" transform="translate(603.62 486) rotate(-32.5)"><tspan x="0" y="0">SINTI </tspan></text><text class="cls-62" transform="translate(631.73 468.09) rotate(-32.5)"><tspan x="0" y="0">(SNAK</tspan><tspan class="cls-23" x="31.95" y="0">E</tspan><tspan x="37.81" y="0">)</tspan></text><text class="cls-51" transform="translate(919.77 503.05) rotate(-88)"><tspan x="0" y="0">ISH</tspan><tspan class="cls-13" x="18.64" y="0">T</tspan><tspan x="25.43" y="0">ABOLI </tspan></text><text class="cls-59" transform="translate(921.99 439.25) rotate(-88)"><tspan x="0" y="0">(STICK</tspan><tspan class="cls-86" x="33.14" y="0">B</tspan><tspan x="39.51" y="0">AL</tspan><tspan class="cls-77" x="52.25" y="0">L</tspan><tspan x="57.25" y="0">)</tspan></text><text class="cls-53" transform="translate(1114.13 442.79) rotate(-90.5)"><tspan x="0" y="0"> </tspan></text><text class="cls-53" transform="translate(1114.22 452.06) rotate(-90.5)"><tspan x="0" y="0">O</tspan></text><text class="cls-53" transform="translate(1114.28 459.67) rotate(-90.5)"><tspan x="0" y="0">K</tspan></text><text class="cls-53" transform="translate(1114.31 463.17) rotate(-90.5)"><tspan x="0" y="0">I</tspan></text><text class="cls-53" transform="translate(1114.4 472.93) rotate(-90.5)"><tspan x="0" y="0">M</tspan></text><text class="cls-58" transform="translate(1113.82 406.7) rotate(-90.5)"><tspan x="0" y="0">)</tspan></text><text class="cls-58" transform="translate(1113.87 412.11) rotate(-90.5)"><tspan x="0" y="0">F</tspan></text><text class="cls-58" transform="translate(1113.92 417.84) rotate(-90.5)"><tspan x="0" y="0">E</tspan></text><text class="cls-58" transform="translate(1113.94 420.57) rotate(-90.5)"><tspan x="0" y="0">I</tspan></text><text class="cls-58" transform="translate(1114.01 428.59) rotate(-90.5)"><tspan x="0" y="0">H</tspan></text><text class="cls-58" transform="translate(1114.08 436.34) rotate(-90.5)"><tspan x="0" y="0">C</tspan></text><text class="cls-58" transform="translate(1114.11 439.59) rotate(-90.5)"><tspan x="0" y="0">(</tspan></text><text class="cls-53" transform="translate(957.34 587.72) rotate(8.5)"><tspan x="0" y="0">KIN</tspan><tspan class="cls-11" x="21.01" y="0">T</tspan><tspan x="27.8" y="0">A </tspan></text><text class="cls-58" transform="translate(996.43 593.56) rotate(8.5)"><tspan x="0" y="0">(B</tspan><tspan class="cls-104" x="9.74" y="0">E</tspan><tspan class="cls-8" x="15.69" y="0">A</tspan><tspan x="22.15" y="0">VE</tspan><tspan class="cls-74" x="34.53" y="0">R</tspan><tspan class="cls-68" x="40.91" y="0">)</tspan></text><text class="cls-49" transform="translate(1399.45 680.38) rotate(74.25)"><tspan x="0" y="0">SH</tspan><tspan class="cls-94" x="15.15" y="0">A</tspan><tspan class="cls-66" x="23.36" y="0">UI </tspan></text><text class="cls-63" transform="translate(1410.02 717.86) rotate(74.25)"><tspan x="0" y="0">(R</tspan><tspan class="cls-94" x="10.16" y="0">A</tspan><tspan class="cls-70" x="17.18" y="0">CC</tspan><tspan x="32.3" y="0">OON)</tspan></text><text class="cls-49" transform="translate(1481.72 755.74) rotate(87)"><tspan x="0" y="0">CHULA </tspan></text><text class="cls-63" transform="translate(1484.03 799.76) rotate(87)"><tspan x="0" y="0">(F</tspan><tspan class="cls-2" x="8.7" y="0">O</tspan><tspan class="cls-113" x="17.33" y="0">X</tspan><tspan x="25.43" y="0">)</tspan></text><text class="cls-54" transform="translate(1543.43 772.3) rotate(84.5)"><tspan x="0" y="0">CHUSA </tspan></text><text class="cls-57" transform="translate(1547.63 815.92) rotate(84.5)"><tspan x="0" y="0">(S</tspan><tspan class="cls-93" x="8.8" y="0">P</tspan><tspan x="14.04" y="0">AR</tspan><tspan class="cls-26" x="27.98" y="0">R</tspan><tspan class="cls-81" x="34.38" y="0">O</tspan><tspan class="cls-39" x="43.13" y="0">W</tspan><tspan x="55.05" y="0">)</tspan></text><text class="cls-49" transform="translate(1595.53 790.49) rotate(87)"><tspan x="0" y="0">OSSI </tspan></text><text class="cls-63" transform="translate(1597.01 818.68) rotate(87)"><tspan x="0" y="0">(</tspan><tspan class="cls-105" x="3.55" y="0">E</tspan><tspan class="cls-32" x="9.5" y="0">A</tspan><tspan x="16.51" y="0">GL</tspan><tspan class="cls-29" x="30" y="0">E</tspan><tspan x="35.85" y="0">)</tspan></text><text class="cls-48" transform="translate(1377.11 1507.21) rotate(-41)"><tspan x="0" y="0">NASHOBA </tspan></text><text class="cls-64" transform="translate(1423.56 1466.83) rotate(-41)"><tspan class="cls-45" x="0" y="0">(</tspan><tspan class="cls-115" x="4.01" y="0">W</tspan><tspan x="15.18" y="0">OL</tspan><tspan class="cls-9" x="29.63" y="0">F</tspan><tspan x="35.05" y="0">)</tspan></text><text class="cls-52" transform="translate(1564.96 1094.82) rotate(76.75)"><tspan x="0" y="0">NASHOBA </tspan></text><text class="cls-56" transform="translate(1579.07 1154.74) rotate(76.75)"><tspan class="cls-42" x="0" y="0">(</tspan><tspan class="cls-117" x="4.03" y="0">W</tspan><tspan class="cls-69" x="15.19" y="0">OL</tspan><tspan class="cls-10" x="29.64" y="0">F</tspan><tspan x="35.06" y="0">)</tspan></text><text class="cls-50" transform="translate(1332.18 1657.71) rotate(4)"><tspan class="cls-12" x="0" y="0">A</tspan><tspan class="cls-1" x="7.67" y="0">T</tspan><tspan class="cls-65" x="14.89" y="0">OKSLI HINA</tspan></text><text class="cls-62" transform="translate(1317.27 1669.9) rotate(4)"><tspan x="0" y="0"> </tspan><tspan class="cls-41" x="3.06" y="0">(</tspan><tspan class="cls-116" x="7.08" y="0">W</tspan><tspan x="18.25" y="0">ORKP</tspan><tspan class="cls-3" x="46.99" y="0">L</tspan><tspan class="cls-33" x="52.52" y="0">A</tspan><tspan x="59.53" y="0">CE </tspan><tspan class="cls-28" x="76.08" y="0">R</tspan><tspan class="cls-95" x="82.47" y="0">O</tspan><tspan x="91.2" y="0">A</tspan><tspan class="cls-85" x="98.54" y="0">D</tspan><tspan class="cls-65" x="106.45" y="0">)</tspan></text></svg>