<svg id="icons-areas-labels" xmlns="http://www.w3.org/2000/svg" xmlns:xlink="http://www.w3.org/1999/xlink" viewBox="0 0 1728 1689.6">
  <defs>
    <clipPath id="ial-clippath">
      <rect class="cls-1" y="-445.23" width="1728" height="2592"/>
    </clipPath>
    <clipPath id="ial-clippath-1">
      <rect class="cls-1" x="375.65" y="459.3" width="140.31" height="27.21"/>
    </clipPath>
    <clipPath id="ial-clippath-2">
      <rect class="cls-1" x="1617.18" y="1276.66" width="121.18" height="115.6"/>
    </clipPath>
    <clipPath id="ial-clippath-3">
      <rect class="cls-1" y="-445.23" width="1728" height="2592"/>
    </clipPath>
    <clipPath id="ial-clippath-4">
      <path class="cls-1" d="M1511.84,716.45c0,6.8,5.51,12.31,12.31,12.31s12.31-5.51,12.31-12.31-5.51-12.31-12.31-12.31-12.31,5.51-12.31,12.31"/>
    </clipPath>
    <clipPath id="ial-clippath-5">
      <rect class="cls-1" x="56.24" y="-445.42" width="1728" height="2592"/>
    </clipPath>
    <clipPath id="ial-clippath-6">
      <path class="cls-1" d="M1568.08,716.26c0,6.8,5.51,12.31,12.31,12.31s12.31-5.51,12.31-12.31-5.51-12.31-12.31-12.31-12.31,5.51-12.31,12.31"/>
    </clipPath>
    <clipPath id="ial-clippath-7">
      <rect class="cls-1" y="-445.23" width="1728" height="2592"/>
    </clipPath>
    <clipPath id="ial-clippath-8">
      <path class="cls-1" d="M438.62,1061.11c0,6.8,5.51,12.31,12.31,12.31s12.31-5.51,12.31-12.31-5.51-12.31-12.31-12.31-12.31,5.51-12.31,12.31"/>
    </clipPath>
    <clipPath id="ial-clippath-9">
      <rect class="cls-1" y="-445.23" width="1728" height="2592"/>
    </clipPath>
    <clipPath id="ial-clippath-10">
      <path class="cls-1" d="M507.43,749.24c0,6.8,5.51,12.31,12.31,12.31s12.31-5.51,12.31-12.31-5.51-12.31-12.31-12.31-12.31,5.51-12.31,12.31"/>
    </clipPath>
  </defs>
  <g id="Street_Labels" data-name="Street Labels">
    <text class="cls-35" transform="translate(603.62 424.28) rotate(-32.5)"><tspan x="0" y="0">SINTI </tspan></text>
    <text class="cls-63" transform="translate(631.73 406.37) rotate(-32.5)"><tspan x="0" y="0">(SNAK</tspan><tspan class="cls-190" x="31.95" y="0">E</tspan><tspan x="37.81" y="0">)</tspan></text>
    <text class="cls-44" transform="translate(919.77 441.33) rotate(-88)"><tspan x="0" y="0">ISH</tspan><tspan class="cls-116" x="18.64" y="0">T</tspan><tspan x="25.43" y="0">ABOLI </tspan></text>
    <text class="cls-52" transform="translate(921.99 377.53) rotate(-88)"><tspan x="0" y="0">(STICK</tspan><tspan class="cls-175" x="33.14" y="0">B</tspan><tspan x="39.51" y="0">AL</tspan><tspan class="cls-156" x="52.25" y="0">L</tspan><tspan x="57.25" y="0">)</tspan></text>
    <g>
      <text class="cls-43" transform="translate(1114.13 381.07) rotate(-90.5)"><tspan x="0" y="0"> </tspan></text>
      <text class="cls-43" transform="translate(1114.22 390.34) rotate(-90.5)"><tspan x="0" y="0">O</tspan></text>
      <text class="cls-43" transform="translate(1114.28 397.96) rotate(-90.5)"><tspan x="0" y="0">K</tspan></text>
      <text class="cls-43" transform="translate(1114.31 401.45) rotate(-90.5)"><tspan x="0" y="0">I</tspan></text>
      <text class="cls-43" transform="translate(1114.4 411.21) rotate(-90.5)"><tspan x="0" y="0">M</tspan></text>
    </g>
    <g>
      <text class="cls-68" transform="translate(1113.82 344.98) rotate(-90.5)"><tspan x="0" y="0">)</tspan></text>
      <text class="cls-68" transform="translate(1113.87 350.39) rotate(-90.5)"><tspan x="0" y="0">F</tspan></text>
      <text class="cls-68" transform="translate(1113.92 356.12) rotate(-90.5)"><tspan x="0" y="0">E</tspan></text>
      <text class="cls-68" transform="translate(1113.94 358.85) rotate(-90.5)"><tspan x="0" y="0">I</tspan></text>
      <text class="cls-68" transform="translate(1114.01 366.87) rotate(-90.5)"><tspan x="0" y="0">H</tspan></text>
      <text class="cls-68" transform="translate(1114.08 374.62) rotate(-90.5)"><tspan x="0" y="0">C</tspan></text>
      <text class="cls-68" transform="translate(1114.11 377.87) rotate(-90.5)"><tspan x="0" y="0">(</tspan></text>
    </g>
    <text class="cls-43" transform="translate(957.34 526) rotate(8.5)"><tspan x="0" y="0">KIN</tspan><tspan class="cls-117" x="21.01" y="0">T</tspan><tspan x="27.8" y="0">A </tspan></text>
    <text class="cls-68" transform="translate(996.43 531.84) rotate(8.5)"><tspan x="0" y="0">(B</tspan><tspan class="cls-170" x="9.74" y="0">E</tspan><tspan class="cls-113" x="15.69" y="0">A</tspan><tspan x="22.15" y="0">VE</tspan><tspan class="cls-128" x="34.53" y="0">R</tspan><tspan class="cls-95" x="40.91" y="0">)</tspan></text>
    <text class="cls-33" transform="translate(694.11 668.94) rotate(-78)"><tspan x="0" y="0">ISSI</tspan></text>
    <text class="cls-62" transform="translate(698.11 650.11) rotate(-78)"><tspan x="0" y="0" xml:space="preserve"> (DEE</tspan><tspan class="cls-127" x="26.29" y="0">R</tspan><tspan class="cls-98" x="32.67" y="0">)</tspan></text>
    <text class="cls-43" transform="translate(286.21 878.59) rotate(16)"><tspan x="0" y="0">NI</tspan><tspan class="cls-107" x="12.85" y="0">T</tspan><tspan x="19.62" y="0">A</tspan></text>
    <text class="cls-68" transform="translate(313.28 886.35) rotate(16)"><tspan x="0" y="0" xml:space="preserve"> (B</tspan><tspan class="cls-170" x="12.79" y="0">E</tspan><tspan x="18.74" y="0">A</tspan><tspan class="cls-121" x="26.08" y="0">R</tspan><tspan x="32.45" y="0">)</tspan></text>
    <text class="cls-45" transform="translate(384.11 1071.48) rotate(-54.5)"><tspan class="cls-136" x="0" y="0">L</tspan><tspan class="cls-90" x="6.18" y="0">UKSI </tspan></text>
    <text class="cls-69" transform="translate(405.04 1042.14) rotate(-54.5)"><tspan class="cls-186" x="0" y="0">(</tspan><tspan x="3.92" y="0">TU</tspan><tspan class="cls-149" x="18.46" y="0">R</tspan><tspan x="24.56" y="0">TL</tspan><tspan class="cls-192" x="36.61" y="0">E</tspan><tspan class="cls-102" x="42.46" y="0">)</tspan></text>
    <text class="cls-33" transform="translate(539.05 1134.5) rotate(-78)"><tspan class="cls-137" x="0" y="0">L</tspan><tspan class="cls-88" x="6.18" y="0">UKSI </tspan></text>
    <text class="cls-62" transform="translate(546.55 1099.24) rotate(-78)"><tspan class="cls-184" x="0" y="0">(</tspan><tspan class="cls-88" x="3.92" y="0">TU</tspan><tspan class="cls-148" x="18.46" y="0">R</tspan><tspan x="24.56" y="0">TL</tspan><tspan class="cls-191" x="36.61" y="0">E</tspan><tspan x="42.46" y="0">)</tspan></text>
    <text class="cls-34" transform="translate(462.06 837.05) rotate(-74.5)"><tspan x="0" y="0">OFI</tspan></text>
    <text class="cls-64" transform="translate(467.13 818.75) rotate(-74.5)"><tspan x="0" y="0" xml:space="preserve"> (DOG)</tspan></text>
    <text class="cls-34" transform="translate(491.94 848.54) rotate(-74.5)"><tspan class="cls-172" x="0" y="0">K</tspan><tspan class="cls-114" x="8.38" y="0">A</tspan><tspan class="cls-146" x="16.05" y="0">T</tspan><tspan x="23.26" y="0">OS </tspan></text>
    <text class="cls-64" transform="translate(503.13 808.21) rotate(-74.5)"><tspan class="cls-122" x="0" y="0">(</tspan><tspan class="cls-195" x="3.26" y="0">C</tspan><tspan class="cls-120" x="11.14" y="0">A</tspan><tspan class="cls-185" x="17.25" y="0">T</tspan><tspan class="cls-99" x="24.25" y="0">)</tspan></text>
    <text class="cls-34" transform="translate(522.79 863.25) rotate(-74.5)"><tspan x="0" y="0">A</tspan><tspan class="cls-172" x="8.54" y="0">K</tspan><tspan class="cls-99" x="16.92" y="0">A</tspan><tspan class="cls-176" x="25.45" y="0">K</tspan><tspan x="33.82" y="0">A </tspan></text>
    <text class="cls-64" transform="translate(534.97 819.33) rotate(-74.5)"><tspan class="cls-122" x="0" y="0">(</tspan><tspan x="3.26" y="0">CHICKEN)</tspan></text>
    <text class="cls-34" transform="translate(560.67 851.62) rotate(-74.5)"><tspan class="cls-142" x="0" y="0">W</tspan><tspan x="11.86" y="0">AK </tspan></text>
    <text class="cls-64" transform="translate(569.16 821.02) rotate(-74.5)"><tspan class="cls-122" x="0" y="0">(</tspan><tspan class="cls-135" x="3.26" y="0">C</tspan><tspan class="cls-122" x="10.81" y="0">O</tspan><tspan class="cls-178" x="19.57" y="0">W</tspan><tspan x="31.49" y="0">)</tspan></text>
    <text class="cls-34" transform="translate(604.97 820.43) rotate(-74.5)"><tspan x="0" y="0">SHUKHA </tspan></text>
    <text class="cls-64" transform="translate(619.12 769.41) rotate(-74.5)"><tspan x="0" y="0">(PIG)</tspan></text>
    <text class="cls-43" transform="translate(195.73 608.81) rotate(-.5)"><tspan x="0" y="0">T</tspan><tspan class="cls-129" x="7.66" y="0">V</tspan><tspan x="15.11" y="0">SH</tspan><tspan class="cls-170" x="30.26" y="0">K</tspan><tspan class="cls-101" x="38.64" y="0">A HINA </tspan></text>
    <text class="cls-68" transform="translate(190.96 622.06) rotate(-.5)"><tspan class="cls-180" x="0" y="0">(</tspan><tspan class="cls-105" x="4.03" y="0">W</tspan><tspan x="14.66" y="0">ARRIOR </tspan><tspan class="cls-129" x="56.67" y="0">R</tspan><tspan class="cls-163" x="63.06" y="0">O</tspan><tspan x="71.8" y="0">A</tspan><tspan class="cls-167" x="79.13" y="0">D</tspan><tspan x="87.04" y="0">)</tspan></text>
    <text class="cls-43" transform="translate(224.61 1612.74) rotate(-.5)"><tspan x="0" y="0">NANIH </tspan><tspan class="cls-143" x="42.95" y="0">W</tspan><tspan x="54.81" y="0">AI</tspan><tspan class="cls-106" x="66.85" y="0">Y</tspan><tspan x="73.6" y="0">A</tspan></text>
    <text class="cls-43" transform="translate(905.29 1612.98) rotate(-.5)"><tspan x="0" y="0">NANIH </tspan><tspan class="cls-143" x="42.95" y="0">W</tspan><tspan class="cls-86" x="54.81" y="0">AI</tspan><tspan class="cls-106" x="66.85" y="0">Y</tspan><tspan x="73.6" y="0">A</tspan></text>
    <text class="cls-34" transform="translate(1377.11 1445.49) rotate(-41)"><tspan x="0" y="0">NASHOBA </tspan></text>
    <text class="cls-64" transform="translate(1423.56 1405.11) rotate(-41)"><tspan class="cls-177" x="0" y="0">(</tspan><tspan class="cls-157" x="4.01" y="0">W</tspan><tspan x="15.18" y="0">OL</tspan><tspan class="cls-168" x="29.63" y="0">F</tspan><tspan x="35.05" y="0">)</tspan></text>
    <text class="cls-41" transform="translate(1564.96 1033.1) rotate(76.75)"><tspan x="0" y="0">NASHOBA </tspan></text>
    <text class="cls-66" transform="translate(1579.07 1093.02) rotate(76.75)"><tspan class="cls-182" x="0" y="0">(</tspan><tspan class="cls-159" x="4.03" y="0">W</tspan><tspan class="cls-94" x="15.19" y="0">OL</tspan><tspan class="cls-169" x="29.64" y="0">F</tspan><tspan x="35.06" y="0">)</tspan></text>
    <text class="cls-41" transform="translate(1482.37 694.17) rotate(87.19)"><tspan x="0" y="0">NASHOBA </tspan></text>
    <text class="cls-66" transform="translate(1485.39 755.65) rotate(87.19)"><tspan class="cls-182" x="0" y="0">(</tspan><tspan class="cls-159" x="4.03" y="0">W</tspan><tspan class="cls-94" x="15.19" y="0">OL</tspan><tspan class="cls-169" x="29.64" y="0">F</tspan><tspan x="35.06" y="0">)</tspan></text>
    <text class="cls-36" transform="translate(1399.45 618.66) rotate(74.25)"><tspan x="0" y="0">SH</tspan><tspan class="cls-164" x="15.15" y="0">A</tspan><tspan class="cls-92" x="23.36" y="0">UI </tspan></text>
    <text class="cls-65" transform="translate(1410.02 656.14) rotate(74.25)"><tspan x="0" y="0">(R</tspan><tspan class="cls-164" x="10.16" y="0">A</tspan><tspan class="cls-126" x="17.18" y="0">CC</tspan><tspan x="32.3" y="0">OON)</tspan></text>
    <text class="cls-42" transform="translate(1543.43 710.58) rotate(84.5)"><tspan x="0" y="0">CHUSA </tspan></text>
    <text class="cls-67" transform="translate(1547.63 754.21) rotate(84.5)"><tspan x="0" y="0">(S</tspan><tspan class="cls-118" x="8.8" y="0">P</tspan><tspan x="14.04" y="0">AR</tspan><tspan class="cls-130" x="27.98" y="0">R</tspan><tspan class="cls-123" x="34.38" y="0">O</tspan><tspan class="cls-179" x="43.13" y="0">W</tspan><tspan x="55.05" y="0">)</tspan></text>
    <text class="cls-36" transform="translate(1595.53 728.77) rotate(87)"><tspan x="0" y="0">OSSI </tspan></text>
    <text class="cls-65" transform="translate(1597.01 756.96) rotate(87)"><tspan x="0" y="0">(</tspan><tspan class="cls-173" x="3.55" y="0">E</tspan><tspan class="cls-151" x="9.5" y="0">A</tspan><tspan x="16.51" y="0">GL</tspan><tspan class="cls-189" x="30" y="0">E</tspan><tspan x="35.85" y="0">)</tspan></text>
    <text class="cls-35" transform="translate(1332.18 1595.99) rotate(4)"><tspan class="cls-115" x="0" y="0">A</tspan><tspan class="cls-155" x="7.67" y="0">T</tspan><tspan class="cls-91" x="14.89" y="0">OKSLI HINA</tspan></text>
    <text class="cls-63" transform="translate(1317.27 1608.18) rotate(4)"><tspan x="0" y="0"> </tspan><tspan class="cls-181" x="3.06" y="0">(</tspan><tspan class="cls-158" x="7.08" y="0">W</tspan><tspan x="18.25" y="0">ORKP</tspan><tspan class="cls-194" x="46.99" y="0">L</tspan><tspan class="cls-152" x="52.52" y="0">A</tspan><tspan x="59.53" y="0">CE </tspan><tspan class="cls-131" x="76.08" y="0">R</tspan><tspan class="cls-160" x="82.47" y="0">O</tspan><tspan x="91.2" y="0">A</tspan><tspan class="cls-165" x="98.54" y="0">D</tspan><tspan class="cls-91" x="106.45" y="0">)</tspan></text>
    <text class="cls-43" transform="translate(916.97 998.77) rotate(16)"><tspan class="cls-108" x="0" y="0">T</tspan><tspan class="cls-86" x="6.78" y="0">A</tspan><tspan class="cls-133" x="15.31" y="0">L</tspan><tspan class="cls-163" x="21.54" y="0">O</tspan><tspan x="30.49" y="0">A </tspan></text>
    <text class="cls-68" transform="translate(957.56 1010.4) rotate(16)"><tspan x="0" y="0">(SING)</tspan></text>
    <text class="cls-43" transform="translate(679.16 769.57) rotate(16)"><tspan class="cls-140" x="0" y="0">K</tspan><tspan class="cls-89" x="7.62" y="0">OI </tspan></text>
    <text class="cls-68" transform="translate(670.13 778.42) rotate(16)"><tspan x="0" y="0">(LION)</tspan></text>
    <text class="cls-34" transform="translate(990.96 688.03) rotate(6)"><tspan class="cls-109" x="0" y="0">T</tspan><tspan class="cls-85" x="6.78" y="0">A</tspan><tspan class="cls-132" x="15.31" y="0">L</tspan><tspan class="cls-162" x="21.54" y="0">O</tspan><tspan x="30.49" y="0">A </tspan></text>
    <text class="cls-64" transform="translate(1032.95 692.44) rotate(6)"><tspan x="0" y="0">(SING)</tspan></text>
    <text class="cls-44" transform="translate(709.3 1172.16) rotate(33)"><tspan x="0" y="0">HUSHI </tspan></text>
    <text class="cls-52" transform="translate(742.64 1193.81) rotate(33)"><tspan x="0" y="0">(BIR</tspan><tspan class="cls-124" x="19.07" y="0">D</tspan><tspan x="26.99" y="0">)</tspan></text>
    <text class="cls-43" transform="translate(671.61 1056.63) rotate(16)"><tspan x="0" y="0">CHUKFI </tspan></text>
    <text class="cls-68" transform="translate(716.84 1069.6) rotate(16)"><tspan x="0" y="0">(RABBI</tspan><tspan class="cls-188" x="32.59" y="0">T</tspan><tspan x="39.59" y="0">)</tspan></text>
    <text class="cls-43" transform="translate(455.22 1039.06) rotate(-43)"><tspan x="0" y="0">ISSUBA ISHU</tspan><tspan class="cls-129" x="71.42" y="0">L</tspan><tspan class="cls-89" x="77.59" y="0">USH </tspan></text>
    <text class="cls-68" transform="translate(475.76 1037.96) rotate(-43)"><tspan x="0" y="0">(HO</tspan><tspan class="cls-193" x="20.62" y="0">R</tspan><tspan class="cls-89" x="27.36" y="0">SESHO</tspan><tspan class="cls-193" x="60.65" y="0">E</tspan><tspan class="cls-89" x="66.51" y="0">)</tspan></text>
    <text class="cls-35" transform="translate(589.26 1227.42) rotate(4)"><tspan x="0" y="0">SINTUL</tspan><tspan class="cls-134" x="41.91" y="0">L</tspan><tspan x="48.14" y="0">O </tspan></text>
    <text class="cls-63" transform="translate(649.72 1231.64) rotate(4)"><tspan x="0" y="0">(R</tspan><tspan class="cls-119" x="10.16" y="0">A</tspan><tspan class="cls-187" x="16.27" y="0">T</tspan><tspan class="cls-87" x="23.25" y="0">TLESNAK</tspan><tspan class="cls-190" x="69.43" y="0">E</tspan><tspan x="75.28" y="0">)</tspan></text>
    <text class="cls-35" transform="translate(878.38 832.2) rotate(-86)"><tspan x="0" y="0">CHU</tspan><tspan class="cls-171" x="25.96" y="0">K</tspan><tspan x="34.34" y="0">ASH </tspan></text>
    <text class="cls-63" transform="translate(882.65 771.13) rotate(-86)"><tspan x="0" y="0">(H</tspan><tspan class="cls-171" x="11.57" y="0">E</tspan><tspan x="17.52" y="0">A</tspan><tspan class="cls-147" x="24.86" y="0">R</tspan><tspan class="cls-183" x="30.96" y="0">T</tspan><tspan x="37.97" y="0">)</tspan></text>
    <g>
      <text class="cls-43" transform="translate(1131.91 1470.14) rotate(89.5)"><tspan x="0" y="0"> </tspan></text>
      <text class="cls-43" transform="translate(1131.83 1461.61) rotate(89.5)"><tspan x="0" y="0">A</tspan></text>
      <text class="cls-43" transform="translate(1131.75 1452.26) rotate(89.5)"><tspan x="0" y="0">N</tspan></text>
      <text class="cls-43" transform="translate(1131.72 1448.76) rotate(89.5)"><tspan x="0" y="0">I</tspan></text>
      <text class="cls-43" transform="translate(1131.64 1439.74) rotate(89.5)"><tspan x="0" y="0">H</tspan></text>
      <text class="cls-43" transform="translate(1131.62 1436.54) rotate(89.5)"><tspan x="0" y="0"> </tspan></text>
      <text class="cls-43" transform="translate(1131.54 1428) rotate(89.5)"><tspan x="0" y="0">A</tspan></text>
      <text class="cls-43" transform="translate(1131.47 1419.62) rotate(89.5)"><tspan x="0" y="0">K</tspan></text>
      <text class="cls-43" transform="translate(1131.4 1411.46) rotate(89.5)"><tspan x="0" y="0">K</tspan></text>
      <text class="cls-43" transform="translate(1131.32 1402.57) rotate(89.5)"><tspan x="0" y="0">U</tspan></text>
      <text class="cls-43" transform="translate(1131.24 1393.55) rotate(89.5)"><tspan x="0" y="0">H</tspan></text>
      <text class="cls-43" transform="translate(1131.17 1385.5) rotate(89.5)"><tspan x="0" y="0">C</tspan></text>
      <text class="cls-43" transform="translate(1131.14 1382.3) rotate(89.5)"><tspan x="0" y="0"> </tspan></text>
      <text class="cls-43" transform="translate(1131.11 1378.8) rotate(89.5)"><tspan x="0" y="0">I</tspan></text>
      <text class="cls-43" transform="translate(1131.08 1375.6) rotate(89.5)"><tspan x="0" y="0"> </tspan></text>
      <text class="cls-43" transform="translate(1131.01 1367.07) rotate(89.5)"><tspan x="0" y="0">A</tspan></text>
      <text class="cls-43" transform="translate(1130.95 1360.94) rotate(89.5)"><tspan x="0" y="0">S</tspan></text>
      <text class="cls-43" transform="translate(1130.9 1354.34) rotate(89.5)"><tspan x="0" y="0">E</tspan></text>
      <text class="cls-43" transform="translate(1130.84 1347.3) rotate(89.5)"><tspan x="0" y="0">P</tspan></text>
      <text class="cls-43" transform="translate(1130.76 1338.76) rotate(89.5)"><tspan x="0" y="0">A</tspan></text>
      <text class="cls-43" transform="translate(1130.73 1335.56) rotate(89.5)"><tspan x="0" y="0"> </tspan></text>
      <text class="cls-43" transform="translate(1130.65 1326.21) rotate(89.5)"><tspan x="0" y="0">N</tspan></text>
      <text class="cls-43" transform="translate(1130.58 1317.68) rotate(89.5)"><tspan x="0" y="0">A</tspan></text>
      <text class="cls-43" transform="translate(1130.49 1308.33) rotate(89.5)"><tspan x="0" y="0">N</tspan></text>
    </g>
    <g>
      <text class="cls-68" transform="translate(1118.53 1449.9) rotate(89.5)"><tspan x="0" y="0">)</tspan></text>
      <text class="cls-68" transform="translate(1118.46 1441.99) rotate(89.5)"><tspan x="0" y="0">D</tspan></text>
      <text class="cls-68" transform="translate(1118.4 1434.65) rotate(89.5)"><tspan x="0" y="0">A</tspan></text>
      <text class="cls-68" transform="translate(1118.32 1425.93) rotate(89.5)"><tspan x="0" y="0">O</tspan></text>
      <text class="cls-68" transform="translate(1118.27 1419.54) rotate(89.5)"><tspan x="0" y="0">R</tspan></text>
      <text class="cls-68" transform="translate(1118.24 1416.48) rotate(89.5)"><tspan x="0" y="0"> </tspan></text>
      <text class="cls-68" transform="translate(1118.19 1410.75) rotate(89.5)"><tspan x="0" y="0">E</tspan></text>
      <text class="cls-68" transform="translate(1118.14 1405.5) rotate(89.5)"><tspan x="0" y="0">S</tspan></text>
      <text class="cls-68" transform="translate(1118.08 1397.61) rotate(89.5)"><tspan x="0" y="0">U</tspan></text>
      <text class="cls-68" transform="translate(1118 1388.55) rotate(89.5)"><tspan x="0" y="0">O</tspan></text>
      <text class="cls-68" transform="translate(1117.93 1380.53) rotate(89.5)"><tspan x="0" y="0">H</tspan></text>
      <text class="cls-68" transform="translate(1117.9 1377.48) rotate(89.5)"><tspan x="0" y="0"> </tspan></text>
      <text class="cls-68" transform="translate(1117.85 1372.08) rotate(89.5)"><tspan x="0" y="0">L</tspan></text>
      <text class="cls-68" transform="translate(1117.83 1369.35) rotate(89.5)"><tspan x="0" y="0">I</tspan></text>
      <text class="cls-68" transform="translate(1117.76 1361.59) rotate(89.5)"><tspan x="0" y="0">C</tspan></text>
      <text class="cls-68" transform="translate(1117.68 1352.99) rotate(89.5)"><tspan x="0" y="0">N</tspan></text>
      <text class="cls-68" transform="translate(1117.62 1345.09) rotate(89.5)"><tspan x="0" y="0">U</tspan></text>
      <text class="cls-68" transform="translate(1117.54 1336.04) rotate(89.5)"><tspan x="0" y="0">O</tspan></text>
      <text class="cls-68" transform="translate(1117.47 1328.5) rotate(89.5)"><tspan x="0" y="0">C</tspan></text>
      <text class="cls-68" transform="translate(1117.44 1325.25) rotate(89.5)"><tspan x="0" y="0">(</tspan></text>
    </g>
    <text class="cls-33" transform="translate(1040.14 1000.26) rotate(-92.5)"><tspan x="0" y="0">HALI</tspan><tspan class="cls-144" x="27.44" y="0">T</tspan><tspan class="cls-93" x="34.66" y="0">O </tspan></text>
    <text class="cls-62" transform="translate(1038.08 953.17) rotate(-92.5)"><tspan x="0" y="0">(HEL</tspan><tspan class="cls-154" x="22.7" y="0">L</tspan><tspan class="cls-166" x="27.74" y="0">O</tspan><tspan class="cls-93" x="36.49" y="0">)</tspan></text>
    <text class="cls-43" transform="translate(1092.74 806.24) rotate(-.5)"><tspan x="0" y="0">HALI</tspan><tspan class="cls-145" x="27.44" y="0">T</tspan><tspan class="cls-95" x="34.66" y="0">O </tspan></text>
    <text class="cls-68" transform="translate(1139.87 805.83) rotate(-.5)"><tspan x="0" y="0">(HEL</tspan><tspan class="cls-153" x="22.7" y="0">L</tspan><tspan class="cls-125" x="27.73" y="0">O</tspan><tspan class="cls-95" x="36.49" y="0">)</tspan></text>
    <text class="cls-35" transform="translate(216.58 879.12) rotate(-86)"><tspan x="0" y="0">SINTI</tspan></text>
    <text class="cls-63" transform="translate(218.68 849.07) rotate(-86)"><tspan x="0" y="0" xml:space="preserve"> (SNAK</tspan><tspan class="cls-196" x="35.01" y="0">E</tspan><tspan class="cls-97" x="40.86" y="0">)</tspan></text>
  </g>
  <g id="Areas">
    <g id="Accessible_Parking" data-name="Accessible Parking">
      <path class="cls-71" d="M706.04,464.52c-4.22,0-7.66-3.44-7.66-7.66,0-2.57,1.28-4.85,3.23-6.24v-3.12c-3.5,1.66-5.93,5.23-5.93,9.36,0,5.71,4.65,10.36,10.36,10.36,3.33,0,6.29-1.58,8.19-4.02l-1.29-3c-1.24,2.56-3.87,4.32-6.89,4.32"/>
      <path class="cls-71" d="M720.56,460.98c-.22-.51-.81-.74-1.32-.53l-1.4.6-3.11-7.22c-.26-.6-.85-.99-1.51-.99h-5.01v-2.32h3.73c.73,0,1.32-.59,1.32-1.32s-.59-1.32-1.32-1.32h-3.73v-2.61c0-1.42-1.15-2.56-2.56-2.56s-2.56,1.15-2.56,2.56v8.59c0,1.3,1.06,2.36,2.36,2.36h7.38l3.16,7.34c.18.43.68.62,1.1.44l3.1-1.33c.51-.22.74-.81.53-1.32l-.16-.37Z"/>
      <path class="cls-71" d="M705.76,442.19c1.6,0,2.9-1.3,2.9-2.9s-1.3-2.9-2.9-2.9-2.9,1.3-2.9,2.9,1.3,2.9,2.9,2.9"/>
      <text class="cls-46" transform="translate(727.51 451.73)"><tspan class="cls-161" x="0" y="0">A</tspan><tspan x="8.22" y="0">CCESSIBLE </tspan></text>
      <text class="cls-46" transform="translate(727.51 462.73)"><tspan class="cls-141" x="0" y="0">P</tspan><tspan class="cls-100" x="6.45" y="0">ARKING</tspan></text>
      <text class="cls-26" transform="translate(677.77 458.5)"><tspan x="0" y="0">3</tspan></text>
      <path class="cls-71" d="M814.16,529.34c-4.22,0-7.66-3.44-7.66-7.66,0-2.57,1.28-4.85,3.23-6.24v-3.12c-3.5,1.66-5.93,5.23-5.93,9.36,0,5.71,4.65,10.36,10.36,10.36,3.33,0,6.29-1.58,8.19-4.02l-1.29-3c-1.24,2.56-3.87,4.32-6.89,4.32"/>
      <path class="cls-71" d="M828.68,525.81c-.22-.51-.81-.74-1.32-.53l-1.4.6-3.11-7.22c-.26-.6-.85-.99-1.51-.99h-5.01v-2.32h3.73c.73,0,1.32-.59,1.32-1.32s-.59-1.32-1.32-1.32h-3.73v-2.61c0-1.42-1.15-2.56-2.56-2.56s-2.56,1.15-2.56,2.56v8.59c0,1.3,1.06,2.36,2.36,2.36h7.38l3.16,7.34c.18.43.68.62,1.1.44l3.1-1.33c.51-.22.74-.81.53-1.32l-.16-.37Z"/>
      <path class="cls-71" d="M813.88,507.02c1.6,0,2.9-1.3,2.9-2.9s-1.3-2.9-2.9-2.9-2.9,1.3-2.9,2.9,1.3,2.9,2.9,2.9"/>
      <text class="cls-46" transform="translate(835.63 516.56)"><tspan class="cls-161" x="0" y="0">A</tspan><tspan x="8.22" y="0">CCESSIBLE</tspan></text>
      <text class="cls-46" transform="translate(835.63 527.56)"><tspan class="cls-141" x="0" y="0">P</tspan><tspan class="cls-100" x="6.45" y="0">ARKING</tspan></text>
      <text class="cls-25" transform="translate(788.79 523.34)"><tspan x="0" y="0">1</tspan></text>
      <path class="cls-51" d="M819.38,404.49c-4.22,0-7.66-3.44-7.66-7.66,0-2.57,1.28-4.85,3.23-6.24v-3.12c-3.5,1.66-5.93,5.23-5.93,9.36,0,5.71,4.65,10.36,10.36,10.36,3.33,0,6.29-1.58,8.19-4.02l-1.29-3c-1.24,2.56-3.87,4.32-6.89,4.32"/>
      <path class="cls-51" d="M833.89,400.95c-.22-.51-.81-.74-1.32-.53l-1.4.6-3.11-7.22c-.26-.6-.85-.99-1.51-.99h-5.01v-2.32h3.73c.73,0,1.32-.59,1.32-1.32s-.59-1.32-1.32-1.32h-3.73v-2.61c0-1.42-1.15-2.56-2.56-2.56s-2.56,1.15-2.56,2.56v8.59c0,1.3,1.06,2.36,2.36,2.36h7.38l3.16,7.34c.18.43.68.62,1.1.44l3.1-1.33c.51-.22.74-.81.53-1.32l-.16-.37Z"/>
      <path class="cls-51" d="M819.09,382.17c1.6,0,2.9-1.3,2.9-2.9s-1.3-2.9-2.9-2.9-2.9,1.3-2.9,2.9,1.3,2.9,2.9,2.9"/>
      <text class="cls-31" transform="translate(840.84 391.71)"><tspan class="cls-161" x="0" y="0">A</tspan><tspan x="8.22" y="0">CCESSIBLE </tspan></text>
      <text class="cls-31" transform="translate(840.84 402.71)"><tspan class="cls-141" x="0" y="0">P</tspan><tspan class="cls-100" x="6.45" y="0">ARKING</tspan></text>
      <text class="cls-26" transform="translate(792.91 398.49)"><tspan x="0" y="0">2</tspan></text>
    </g>
    <g id="Associate_Parking" data-name="Associate Parking">
      <g class="cls-174">
        <g class="cls-76">
          <text class="cls-19" transform="translate(390.85 478.08)"><tspan x="0" y="0">ASSOCI</tspan><tspan class="cls-111" x="39.23" y="0">A</tspan><tspan class="cls-103" x="45.83" y="0">TE </tspan><tspan class="cls-150" x="61.61" y="0">P</tspan><tspan x="68.12" y="0">ARKING</tspan></text>
        </g>
        <g class="cls-79">
          <text class="cls-20" transform="translate(1626.25 1360.09) rotate(-43)"><tspan x="0" y="0">ASSOCI</tspan><tspan class="cls-110" x="39.23" y="0">A</tspan><tspan x="45.83" y="0">TE </tspan><tspan class="cls-139" x="61.61" y="0">P</tspan><tspan x="68.11" y="0">ARKING</tspan></text>
        </g>
      </g>
    </g>
    <g id="Parking">
      <g>
        <rect class="cls-70" x="1566.88" y="1346.49" width="23.2" height="23.2" transform="translate(-497.99 1513.93) rotate(-45)"/>
        <text class="cls-49" transform="translate(1573.52 1363.86)"><tspan x="0" y="0">P</tspan></text>
      </g>
      <g>
        <rect class="cls-70" x="1626.38" y="1185.83" width="23.2" height="23.2" transform="translate(-366.96 1508.95) rotate(-45)"/>
        <text class="cls-49" transform="translate(1633.02 1203.19)"><tspan x="0" y="0">P</tspan></text>
      </g>
      <g>
        <rect class="cls-70" x="1605.76" y="944.62" width="23.2" height="23.2" transform="translate(-202.43 1423.72) rotate(-45)"/>
        <text class="cls-49" transform="translate(1612.4 961.98)"><tspan x="0" y="0">P</tspan></text>
      </g>
      <g>
        <rect class="cls-70" x="1465.02" y="944.62" width="23.2" height="23.2" transform="translate(-243.66 1324.2) rotate(-45)"/>
        <text class="cls-49" transform="translate(1471.66 961.98)"><tspan x="0" y="0">P</tspan></text>
      </g>
      <g>
        <rect class="cls-70" x="1499.32" y="1069.31" width="23.2" height="23.2" transform="translate(-321.78 1384.97) rotate(-45)"/>
        <text class="cls-49" transform="translate(1505.96 1086.68)"><tspan x="0" y="0">P</tspan></text>
      </g>
      <g>
        <rect class="cls-70" x="1464.05" y="1296.33" width="23.2" height="23.2" transform="translate(-492.64 1426.53) rotate(-45)"/>
        <text class="cls-49" transform="translate(1470.69 1313.69)"><tspan x="0" y="0">P</tspan></text>
      </g>
      <g>
        <rect class="cls-70" x="1370.77" y="1376.11" width="23.2" height="23.2" transform="translate(-576.37 1383.93) rotate(-45)"/>
        <text class="cls-49" transform="translate(1377.41 1393.47)"><tspan x="0" y="0">P</tspan></text>
      </g>
      <g>
        <rect class="cls-70" x="1196.21" y="1489.63" width="23.2" height="23.2" transform="translate(-707.77 1293.75) rotate(-45)"/>
        <text class="cls-49" transform="translate(1202.85 1506.99)"><tspan x="0" y="0">P</tspan></text>
      </g>
      <g>
        <rect class="cls-70" x="1135.48" y="1654.3" width="23.2" height="23.2" transform="translate(-841.99 1299.04) rotate(-45)"/>
        <text class="cls-49" transform="translate(1142.12 1671.66)"><tspan x="0" y="0">P</tspan></text>
      </g>
      <g>
        <rect class="cls-70" x="1222.67" y="1652.35" width="23.2" height="23.2" transform="translate(-815.08 1360.12) rotate(-45)"/>
        <text class="cls-49" transform="translate(1229.31 1669.71)"><tspan x="0" y="0">P</tspan></text>
      </g>
      <g>
        <rect class="cls-70" x="1471.68" y="1431.25" width="23.2" height="23.2" transform="translate(-585.8 1471.44) rotate(-45)"/>
        <text class="cls-49" transform="translate(1478.33 1448.61)"><tspan x="0" y="0">P</tspan></text>
      </g>
      <g>
        <rect class="cls-70" x="1338.64" y="1545.68" width="23.2" height="23.2" transform="translate(-705.69 1410.88) rotate(-45)"/>
        <text class="cls-49" transform="translate(1345.28 1563.05)"><tspan x="0" y="0">P</tspan></text>
      </g>
      <g>
        <rect class="cls-70" x="1450.54" y="516.6" width="23.2" height="23.2" transform="translate(54.76 1188.6) rotate(-45)"/>
        <text class="cls-49" transform="translate(1457.18 533.96)"><tspan x="0" y="0">P</tspan></text>
      </g>
      <g>
        <rect class="cls-70" x="1450.54" y="615.52" width="23.2" height="23.2" transform="translate(-15.19 1217.57) rotate(-45)"/>
        <text class="cls-49" transform="translate(1457.18 632.88)"><tspan x="0" y="0">P</tspan></text>
      </g>
      <g>
        <rect class="cls-70" x="1632.73" y="1052.91" width="23.2" height="23.2" transform="translate(-271.11 1474.5) rotate(-45)"/>
        <text class="cls-49" transform="translate(1639.37 1070.27)"><tspan x="0" y="0">P</tspan></text>
      </g>
      <g>
        <rect class="cls-70" x="904.08" y="142.53" width="23.2" height="23.2" transform="translate(140.87 665.88) rotate(-43)"/>
        <text class="cls-50" transform="translate(910.52 159.7) rotate(2)"><tspan x="0" y="0">P</tspan></text>
      </g>
      <g>
        <rect class="cls-70" x="797.07" y="214.72" width="23.2" height="23.2" transform="translate(62.88 612.29) rotate(-43)"/>
        <text class="cls-50" transform="translate(803.51 231.9) rotate(2)"><tspan x="0" y="0">P</tspan></text>
      </g>
      <g>
        <rect class="cls-70" x="693.75" y="287.48" width="23.2" height="23.2" transform="translate(-14.49 561.37) rotate(-43)"/>
        <text class="cls-50" transform="translate(700.18 304.66) rotate(2)"><tspan x="0" y="0">P</tspan></text>
      </g>
      <g>
        <rect class="cls-70" x="597.89" y="352.73" width="23.2" height="23.2" transform="translate(-84.74 513.53) rotate(-43)"/>
        <text class="cls-50" transform="translate(604.33 369.91) rotate(2)"><tspan x="0" y="0">P</tspan></text>
      </g>
      <g>
        <rect class="cls-70" x="637.77" y="460.01" width="23.2" height="23.2" transform="translate(-147.19 569.55) rotate(-43)"/>
        <text class="cls-50" transform="translate(644.2 477.19) rotate(2)"><tspan x="0" y="0">P</tspan></text>
      </g>
      <g>
        <rect class="cls-70" x="559.76" y="505.04" width="23.2" height="23.2" transform="translate(-198.85 528.44) rotate(-43)"/>
        <text class="cls-50" transform="translate(566.2 522.22) rotate(2)"><tspan x="0" y="0">P</tspan></text>
      </g>
      <g>
        <rect class="cls-70" x="438.47" y="578.05" width="23.2" height="23.2" transform="translate(-281.23 465.33) rotate(-43)"/>
        <text class="cls-50" transform="translate(444.9 595.23) rotate(2)"><tspan x="0" y="0">P</tspan></text>
      </g>
    </g>
    <g id="Healthy_Living_Expo" data-name="Healthy Living Expo">
      <rect class="cls-57" x="1018.11" y="737.62" width="17.41" height="17.41" transform="translate(-226.98 944.66) rotate(-45)"/>
      <text class="cls-48" transform="translate(1021.08 750.91)"><tspan x="0" y="0">H</tspan></text>
    </g>
    <g id="Chahta_Cab" data-name="Chahta Cab">
      <rect class="cls-55" x="863.59" y="701.24" width="17.41" height="17.41" transform="translate(-246.52 824.75) rotate(-45)"/>
      <text class="cls-47" transform="translate(866.65 714.92)"><tspan x="0" y="0">C</tspan></text>
    </g>
    <g id="Education_Tent" data-name="Education Tent">
      <rect class="cls-74" x="806.95" y="732.59" width="17.41" height="17.41" transform="translate(-285.28 793.87) rotate(-45)"/>
      <text class="cls-48" transform="translate(811.45 746.28)"><tspan x="0" y="0">E</tspan></text>
    </g>
    <g id="Membership">
      <rect class="cls-73" x="921.61" y="726.21" width="17.41" height="17.41" transform="translate(-247.18 873.08) rotate(-45)"/>
      <text class="cls-48" transform="translate(924.1 739.68)"><tspan x="0" y="0">M</tspan></text>
    </g>
    <g id="Choctaw_Store" data-name="Choctaw Store">
      <rect class="cls-58" x="743.84" y="736.34" width="17.41" height="17.41" transform="translate(-306.41 750.35) rotate(-45)"/>
      <text class="cls-48" transform="translate(748.65 749.8)"><tspan x="0" y="0">S</tspan></text>
    </g>
    <g id="Information">
      <rect class="cls-56" x="833.77" y="706.84" width="23.2" height="23.2" transform="translate(-260.41 808.2) rotate(-45)"/>
      <text class="cls-39" transform="translate(841.92 726.92)"><tspan x="0" y="0">i</tspan></text>
    </g>
    <g id="Going_Green_Tents" data-name="Going Green Tents">
      <g id="Going_Green_Tent" data-name="Going Green Tent">
        <rect class="cls-96" x="1396.1" y="842.06" width="17.41" height="17.41" transform="translate(-190.13 1242.53) rotate(-45)"/>
        <text class="cls-48" transform="translate(1399.19 855.45)"><tspan x="0" y="0">G</tspan></text>
      </g>
      <g id="Going_Green_Tent-2" data-name="Going Green Tent">
        <rect class="cls-96" x="165.9" y="1256.4" width="17.41" height="17.41" transform="translate(-843.42 494.01) rotate(-45)"/>
        <text class="cls-48" transform="translate(169 1269.79)"><tspan x="0" y="0">G</tspan></text>
      </g>
    </g>
  </g>
  <g id="Parking_Station" data-name="Parking Station">
    <g id="PS-16">
      <rect class="cls-54" x="449.46" y="541.53" width="23.17" height="23.17" transform="translate(-253.36 463) rotate(-43)"/>
      <text class="cls-40" transform="translate(449.89 557.19) rotate(2)"><tspan x="0" y="0">P16</tspan></text>
    </g>
    <g id="PS-15">
      <rect class="cls-54" x="617.46" y="437.53" width="23.17" height="23.17" transform="translate(-137.31 549.64) rotate(-43)"/>
      <text class="cls-40" transform="translate(617.89 453.19) rotate(2)"><tspan x="0" y="0">P15</tspan></text>
    </g>
    <g id="PS-14">
      <rect class="cls-54" x="717.6" y="378.53" width="23.17" height="23.17" transform="translate(-70.17 602.08) rotate(-43)"/>
      <text class="cls-40" transform="translate(718.03 394.19) rotate(2)"><tspan x="0" y="0">P14</tspan></text>
    </g>
    <g id="PS-13">
      <rect class="cls-54" x="943.6" y="236.25" width="23.17" height="23.17" transform="translate(87.58 717.99) rotate(-43)"/>
      <text class="cls-40" transform="translate(944.03 251.9) rotate(2)"><tspan x="0" y="0">P13</tspan></text>
    </g>
    <g id="PS-12">
      <rect class="cls-54" x="1037.6" y="180.25" width="23.17" height="23.17" transform="translate(151.02 767.05) rotate(-43)"/>
      <text class="cls-40" transform="translate(1038.03 195.9) rotate(2)"><tspan x="0" y="0">P12</tspan></text>
    </g>
    <g id="PS-11a">
      <rect class="cls-54" x="1034.6" y="547.25" width="23.17" height="23.17" transform="translate(-100.08 863.59) rotate(-43)"/>
      <text class="cls-38" transform="translate(1033.69 561.85) rotate(2)"><tspan x="0" y="0">P11A</tspan></text>
    </g>
    <g id="PS-11">
      <rect class="cls-54" x="1091.74" y="678.96" width="23.17" height="23.17" transform="translate(-174.55 937.95) rotate(-43)"/>
      <text class="cls-40" transform="translate(1092.18 694.61) rotate(2)"><tspan x="0" y="0">P11</tspan></text>
    </g>
    <g id="PS-10">
      <rect class="cls-54" x="1296.56" y="856.39" width="23.17" height="23.17" transform="translate(-240.53 1125.29) rotate(-43)"/>
      <text class="cls-40" transform="translate(1296.99 872.04) rotate(2)"><tspan x="0" y="0">P10</tspan></text>
    </g>
    <g id="PS-9">
      <rect class="cls-54" x="1200.56" y="1003.39" width="23.17" height="23.17" transform="translate(-366.57 1099.31) rotate(-43)"/>
      <text class="cls-40" transform="translate(1204.45 1019.16) rotate(2)"><tspan x="0" y="0">P9</tspan></text>
    </g>
    <g id="PS-8">
      <rect class="cls-54" x="1499.56" y="888.25" width="23.17" height="23.17" transform="translate(-207.73 1272.29) rotate(-43)"/>
      <text class="cls-40" transform="translate(1503.45 904.02) rotate(2)"><tspan x="0" y="0">P8</tspan></text>
    </g>
    <g id="PS-7">
      <rect class="cls-54" x="1544.56" y="1263.25" width="23.17" height="23.17" transform="translate(-451.38 1403.71) rotate(-43)"/>
      <text class="cls-40" transform="translate(1548.45 1279.02) rotate(2)"><tspan x="0" y="0">P7</tspan></text>
    </g>
    <g id="PS-6">
      <rect class="cls-54" x="1404.56" y="1362.25" width="23.17" height="23.17" transform="translate(-556.51 1334.83) rotate(-43)"/>
      <text class="cls-40" transform="translate(1408.45 1378.02) rotate(2)"><tspan x="0" y="0">P6</tspan></text>
    </g>
    <g id="PS-5">
      <rect class="cls-54" x="1296.56" y="1477.25" width="23.17" height="23.17" transform="translate(-663.95 1292.07) rotate(-43)"/>
      <text class="cls-40" transform="translate(1300.45 1493.02) rotate(2)"><tspan x="0" y="0">P5</tspan></text>
    </g>
    <g id="PS-4">
      <rect class="cls-54" x="1177.56" y="1614.25" width="23.17" height="23.17" transform="translate(-789.34 1247.71) rotate(-43)"/>
      <text class="cls-40" transform="translate(1181.45 1630.02) rotate(2)"><tspan x="0" y="0">P4</tspan></text>
    </g>
    <g id="PS-3">
      <rect class="cls-54" x="1123.99" y="1540.53" width="23.17" height="23.17" transform="translate(-753.46 1191.38) rotate(-43)"/>
      <text class="cls-40" transform="translate(1127.88 1556.31) rotate(2)"><tspan x="0" y="0">P3</tspan></text>
    </g>
    <g id="PS-1">
      <rect class="cls-54" x="1043.41" y="1276.14" width="23.17" height="23.17" transform="translate(-594.8 1065.4) rotate(-43)"/>
      <text class="cls-40" transform="translate(1047.3 1291.91) rotate(2)"><tspan x="0" y="0">P1</tspan></text>
    </g>
  </g>
  <g id="Icons">
    <g id="Tribal_Police" data-name="Tribal Police">
      <path class="cls-61" d="M771.89,618.65c6.8,0,12.31-5.51,12.31-12.31s-5.51-12.31-12.31-12.31-12.31,5.51-12.31,12.31,5.51,12.31,12.31,12.31"/>
      <circle class="cls-10" cx="771.89" cy="606.34" r="12.31"/>
      <polygon class="cls-56" points="771.89 597.07 769.48 603.12 762.98 603.54 767.99 607.7 766.38 614.02 771.89 610.53 777.4 614.02 775.78 607.7 780.8 603.54 774.29 603.12 771.89 597.07"/>
    </g>
    <g id="Mothers_Room" data-name="Mothers Room">
      <path class="cls-61" d="M962.33,837.6c5.44,0,9.85-4.41,9.85-9.85s-4.41-9.85-9.85-9.85-9.85,4.41-9.85,9.85,4.41,9.85,9.85,9.85"/>
      <path class="cls-3" d="M962.33,837.6c5.44,0,9.85-4.41,9.85-9.85s-4.41-9.85-9.85-9.85-9.85,4.41-9.85,9.85,4.41,9.85,9.85,9.85Z"/>
      <text class="cls-37" transform="translate(956.12 832.68)"><tspan x="0" y="0">M</tspan></text>
    </g>
    <g id="ATM">
      <g>
        <path class="cls-61" d="M740.3,768.39c4.08,0,7.39-3.31,7.39-7.39s-3.31-7.39-7.39-7.39-7.39,3.31-7.39,7.39,3.31,7.39,7.39,7.39"/>
        <path class="cls-11" d="M740.3,768.39c4.08,0,7.39-3.31,7.39-7.39s-3.31-7.39-7.39-7.39-7.39,3.31-7.39,7.39,3.31,7.39,7.39,7.39Z"/>
        <text class="cls-32" transform="translate(735.82 766.21)"><tspan x="0" y="0">$</tspan></text>
        <rect class="cls-58" x="739.57" y="753.69" width="1.47" height="14.15"/>
      </g>
      <g>
        <path class="cls-61" d="M738.73,859.44c4.08,0,7.39-3.31,7.39-7.39s-3.31-7.39-7.39-7.39-7.39,3.31-7.39,7.39,3.31,7.39,7.39,7.39"/>
        <path class="cls-11" d="M738.73,859.44c4.08,0,7.39-3.31,7.39-7.39s-3.31-7.39-7.39-7.39-7.39,3.31-7.39,7.39,3.31,7.39,7.39,7.39Z"/>
        <text class="cls-32" transform="translate(734.25 857.26)"><tspan x="0" y="0">$</tspan></text>
        <rect class="cls-58" x="737.99" y="844.74" width="1.47" height="14.15"/>
      </g>
      <g>
        <path class="cls-61" d="M822.66,670.73c4.08,0,7.39-3.31,7.39-7.39s-3.31-7.39-7.39-7.39-7.39,3.31-7.39,7.39,3.31,7.39,7.39,7.39"/>
        <path class="cls-11" d="M822.66,670.73c4.08,0,7.39-3.31,7.39-7.39s-3.31-7.39-7.39-7.39-7.39,3.31-7.39,7.39,3.31,7.39,7.39,7.39Z"/>
        <text class="cls-32" transform="translate(818.18 668.55)"><tspan x="0" y="0">$</tspan></text>
        <rect class="cls-58" x="821.93" y="656.03" width="1.47" height="14.15"/>
      </g>
    </g>
    <g id="Shower">
      <g>
        <path class="cls-61" d="M579.85,1154.48c5.44,0,9.85-4.41,9.85-9.85s-4.41-9.85-9.85-9.85-9.85,4.41-9.85,9.85,4.41,9.85,9.85,9.85"/>
        <path class="cls-14" d="M579.85,1154.48c5.44,0,9.85-4.41,9.85-9.85s-4.41-9.85-9.85-9.85-9.85,4.41-9.85,9.85,4.41,9.85,9.85,9.85Z"/>
        <path class="cls-54" d="M575.48,1145.64s-2.93,4.03,0,4.03,0-4.03,0-4.03"/>
        <path class="cls-54" d="M584.3,1145.64s-2.93,4.03,0,4.03,0-4.03,0-4.03"/>
        <path class="cls-54" d="M579.89,1145.64s-3.49,4.9,0,4.9,0-4.9,0-4.9"/>
        <path class="cls-54" d="M586.62,1144.09c0-3.32-3.03-6.02-6.77-6.02s-6.77,2.69-6.77,6.02h13.53Z"/>
        <rect class="cls-54" x="578.87" y="1135.2" width="1.96" height="5.88"/>
      </g>
      <g>
        <path class="cls-61" d="M370.77,1186.72c5.44,0,9.85-4.41,9.85-9.85s-4.41-9.85-9.85-9.85-9.85,4.41-9.85,9.85,4.41,9.85,9.85,9.85"/>
        <path class="cls-14" d="M370.77,1186.72c5.44,0,9.85-4.41,9.85-9.85s-4.41-9.85-9.85-9.85-9.85,4.41-9.85,9.85,4.41,9.85,9.85,9.85Z"/>
        <path class="cls-54" d="M366.41,1177.88s-2.93,4.03,0,4.03,0-4.03,0-4.03"/>
        <path class="cls-54" d="M375.23,1177.88s-2.93,4.03,0,4.03,0-4.03,0-4.03"/>
        <path class="cls-54" d="M370.82,1177.88s-3.49,4.9,0,4.9,0-4.9,0-4.9"/>
        <path class="cls-54" d="M377.54,1176.33c0-3.32-3.03-6.02-6.77-6.02s-6.77,2.69-6.77,6.02h13.53Z"/>
        <rect class="cls-54" x="369.79" y="1167.44" width="1.96" height="5.88"/>
      </g>
      <g>
        <path class="cls-61" d="M415.7,729.56c5.44,0,9.85-4.41,9.85-9.85s-4.41-9.85-9.85-9.85-9.85,4.41-9.85,9.85,4.41,9.85,9.85,9.85"/>
        <path class="cls-14" d="M415.7,729.56c5.44,0,9.85-4.41,9.85-9.85s-4.41-9.85-9.85-9.85-9.85,4.41-9.85,9.85,4.41,9.85,9.85,9.85Z"/>
        <path class="cls-54" d="M422.47,719.16c0-3.32-3.03-6.02-6.77-6.02s-6.77,2.69-6.77,6.02h13.53Z"/>
        <rect class="cls-54" x="414.72" y="710.27" width="1.96" height="5.88"/>
        <path class="cls-54" d="M411.34,720.71s-2.93,4.03,0,4.03,0-4.03,0-4.03"/>
        <path class="cls-54" d="M420.16,720.71s-2.93,4.03,0,4.03,0-4.03,0-4.03"/>
        <path class="cls-54" d="M415.75,720.71s-3.49,4.9,0,4.9,0-4.9,0-4.9"/>
      </g>
    </g>
    <g id="Food">
      <g>
        <path class="cls-61" d="M755.79,680.69c4.08,0,7.39-3.31,7.39-7.39s-3.31-7.39-7.39-7.39-7.39,3.31-7.39,7.39,3.31,7.39,7.39,7.39"/>
        <path class="cls-13" d="M755.79,680.69c4.08,0,7.39-3.31,7.39-7.39s-3.31-7.39-7.39-7.39-7.39,3.31-7.39,7.39,3.31,7.39,7.39,7.39Z"/>
        <path class="cls-138" d="M759.72,669.54c-1.9,0-2.85,1.55-2.85,3.45v3.07c0,.21.17.38.38.38h1.15v2.69c0,.63.52,1.15,1.15,1.15s.55-.52.55-1.15v-9.2c0-.21-.17-.38-.38-.38"/>
        <path class="cls-138" d="M755.4,669.54c-.21,0-.38.17-.38.38v2.68c0,.21-.17.38-.38.38h-.38c-.21,0-.38-.17-.38-.38v-2.68c0-.21-.17-.38-.38-.38s-.38.17-.38.38v2.68c0,.21-.17.38-.38.38h-.38c-.21,0-.38-.17-.38-.38v-2.68c0-.21-.17-.38-.38-.38s-.38.17-.38.38v3.45c0,.71.49,1.32,1.15,1.49v4.22c0,.56.38,1.07.92,1.17.73.14,1.38-.42,1.38-1.13v-4.27c.66-.17,1.15-.77,1.15-1.49v-3.45c0-.21-.17-.38-.38-.38"/>
      </g>
      <g>
        <path class="cls-61" d="M715.61,725.08c4.08,0,7.39-3.31,7.39-7.39s-3.31-7.39-7.39-7.39-7.39,3.31-7.39,7.39,3.31,7.39,7.39,7.39"/>
        <path class="cls-13" d="M715.61,725.08c4.08,0,7.39-3.31,7.39-7.39s-3.31-7.39-7.39-7.39-7.39,3.31-7.39,7.39,3.31,7.39,7.39,7.39Z"/>
        <path class="cls-138" d="M719.55,713.93c-1.9,0-2.85,1.55-2.85,3.45v3.07c0,.21.17.38.38.38h1.15v2.69c0,.63.52,1.15,1.15,1.15s.55-.52.55-1.15v-9.2c0-.21-.17-.38-.38-.38"/>
        <path class="cls-138" d="M715.23,713.93c-.21,0-.38.17-.38.38v2.68c0,.21-.17.38-.38.38h-.38c-.21,0-.38-.17-.38-.38v-2.68c0-.21-.17-.38-.38-.38s-.38.17-.38.38v2.68c0,.21-.17.38-.38.38h-.38c-.21,0-.38-.17-.38-.38v-2.68c0-.21-.17-.38-.38-.38s-.38.17-.38.38v3.45c0,.71.49,1.32,1.15,1.49v4.22c0,.56.38,1.07.92,1.17.73.14,1.38-.42,1.38-1.13v-4.27c.66-.17,1.15-.77,1.15-1.49v-3.45c0-.21-.17-.38-.38-.38"/>
      </g>
      <g>
        <path class="cls-61" d="M736.35,700.36c4.08,0,7.39-3.31,7.39-7.39s-3.31-7.39-7.39-7.39-7.39,3.31-7.39,7.39,3.31,7.39,7.39,7.39"/>
        <path class="cls-13" d="M736.35,700.36c4.08,0,7.39-3.31,7.39-7.39s-3.31-7.39-7.39-7.39-7.39,3.31-7.39,7.39,3.31,7.39,7.39,7.39Z"/>
        <path class="cls-138" d="M740.28,689.2c-1.9,0-2.85,1.55-2.85,3.45v3.07c0,.21.17.38.38.38h1.15v2.69c0,.63.52,1.15,1.15,1.15s.55-.52.55-1.15v-9.2c0-.21-.17-.38-.38-.38"/>
        <path class="cls-138" d="M735.97,689.2c-.21,0-.38.17-.38.38v2.68c0,.21-.17.38-.38.38h-.38c-.21,0-.38-.17-.38-.38v-2.68c0-.21-.17-.38-.38-.38s-.38.17-.38.38v2.68c0,.21-.17.38-.38.38h-.38c-.21,0-.38-.17-.38-.38v-2.68c0-.21-.17-.38-.38-.38s-.38.17-.38.38v3.45c0,.71.49,1.32,1.15,1.49v4.22c0,.56.38,1.07.92,1.17.73.14,1.38-.42,1.38-1.13v-4.27c.66-.17,1.15-.77,1.15-1.49v-3.45c0-.21-.17-.38-.38-.38"/>
      </g>
      <g>
        <path class="cls-61" d="M696.89,751.34c4.08,0,7.39-3.31,7.39-7.39s-3.31-7.39-7.39-7.39-7.39,3.31-7.39,7.39,3.31,7.39,7.39,7.39"/>
        <path class="cls-13" d="M696.89,751.34c4.08,0,7.39-3.31,7.39-7.39s-3.31-7.39-7.39-7.39-7.39,3.31-7.39,7.39,3.31,7.39,7.39,7.39Z"/>
        <path class="cls-138" d="M700.82,740.18c-1.9,0-2.85,1.55-2.85,3.45v3.07c0,.21.17.38.38.38h1.15v2.69c0,.63.52,1.15,1.15,1.15s.55-.52.55-1.15v-9.2c0-.21-.17-.38-.38-.38"/>
        <path class="cls-138" d="M696.51,740.18c-.21,0-.38.17-.38.38v2.68c0,.21-.17.38-.38.38h-.38c-.21,0-.38-.17-.38-.38v-2.68c0-.21-.17-.38-.38-.38s-.38.17-.38.38v2.68c0,.21-.17.38-.38.38h-.38c-.21,0-.38-.17-.38-.38v-2.68c0-.21-.17-.38-.38-.38s-.38.17-.38.38v3.45c0,.71.49,1.32,1.15,1.49v4.22c0,.56.38,1.07.92,1.17.73.14,1.38-.42,1.38-1.13v-4.27c.66-.17,1.15-.77,1.15-1.49v-3.45c0-.21-.17-.38-.38-.38"/>
      </g>
      <g>
        <path class="cls-61" d="M1265.28,746.27c4.08,0,7.39-3.31,7.39-7.39s-3.31-7.39-7.39-7.39-7.39,3.31-7.39,7.39,3.31,7.39,7.39,7.39"/>
        <path class="cls-13" d="M1265.28,746.27c4.08,0,7.39-3.31,7.39-7.39s-3.31-7.39-7.39-7.39-7.39,3.31-7.39,7.39,3.31,7.39,7.39,7.39Z"/>
        <path class="cls-138" d="M1269.21,735.11c-1.9,0-2.85,1.55-2.85,3.45v3.07c0,.21.17.38.38.38h1.15v2.69c0,.63.52,1.15,1.15,1.15s.55-.52.55-1.15v-9.2c0-.21-.17-.38-.38-.38"/>
        <path class="cls-138" d="M1264.89,735.11c-.21,0-.38.17-.38.38v2.68c0,.21-.17.38-.38.38h-.38c-.21,0-.38-.17-.38-.38v-2.68c0-.21-.17-.38-.38-.38s-.38.17-.38.38v2.68c0,.21-.17.38-.38.38h-.38c-.21,0-.38-.17-.38-.38v-2.68c0-.21-.17-.38-.38-.38s-.38.17-.38.38v3.45c0,.71.49,1.32,1.15,1.49v4.22c0,.56.38,1.07.92,1.17.73.14,1.38-.42,1.38-1.13v-4.27c.66-.17,1.15-.77,1.15-1.49v-3.45c0-.21-.17-.38-.38-.38"/>
      </g>
      <g>
        <path class="cls-61" d="M964.29,684c4.08,0,7.39-3.31,7.39-7.39s-3.31-7.39-7.39-7.39-7.39,3.31-7.39,7.39,3.31,7.39,7.39,7.39"/>
        <path class="cls-13" d="M964.29,684c4.08,0,7.39-3.31,7.39-7.39s-3.31-7.39-7.39-7.39-7.39,3.31-7.39,7.39,3.31,7.39,7.39,7.39Z"/>
        <path class="cls-138" d="M968.22,672.84c-1.9,0-2.85,1.55-2.85,3.45v3.07c0,.21.17.38.38.38h1.15v2.69c0,.63.52,1.15,1.15,1.15s.55-.52.55-1.15v-9.2c0-.21-.17-.38-.38-.38"/>
        <path class="cls-138" d="M963.9,672.84c-.21,0-.38.17-.38.38v2.68c0,.21-.17.38-.38.38h-.38c-.21,0-.38-.17-.38-.38v-2.68c0-.21-.17-.38-.38-.38s-.38.17-.38.38v2.68c0,.21-.17.38-.38.38h-.38c-.21,0-.38-.17-.38-.38v-2.68c0-.21-.17-.38-.38-.38s-.38.17-.38.38v3.45c0,.71.49,1.32,1.15,1.49v4.22c0,.56.38,1.07.92,1.17.73.14,1.38-.42,1.38-1.13v-4.27c.66-.17,1.15-.77,1.15-1.49v-3.45c0-.21-.17-.38-.38-.38"/>
      </g>
      <g>
        <path class="cls-61" d="M942.62,639.8c4.08,0,7.39-3.31,7.39-7.39s-3.31-7.39-7.39-7.39-7.39,3.31-7.39,7.39,3.31,7.39,7.39,7.39"/>
        <path class="cls-13" d="M942.62,639.8c4.08,0,7.39-3.31,7.39-7.39s-3.31-7.39-7.39-7.39-7.39,3.31-7.39,7.39,3.31,7.39,7.39,7.39Z"/>
        <path class="cls-138" d="M946.56,628.65c-1.9,0-2.85,1.55-2.85,3.45v3.07c0,.21.17.38.38.38h1.15v2.69c0,.63.52,1.15,1.15,1.15s.55-.52.55-1.15v-9.2c0-.21-.17-.38-.38-.38"/>
        <path class="cls-138" d="M942.24,628.65c-.21,0-.38.17-.38.38v2.68c0,.21-.17.38-.38.38h-.38c-.21,0-.38-.17-.38-.38v-2.68c0-.21-.17-.38-.38-.38s-.38.17-.38.38v2.68c0,.21-.17.38-.38.38h-.38c-.21,0-.38-.17-.38-.38v-2.68c0-.21-.17-.38-.38-.38s-.38.17-.38.38v3.45c0,.71.49,1.32,1.15,1.49v4.22c0,.56.38,1.07.92,1.17.73.14,1.38-.42,1.38-1.13v-4.27c.66-.17,1.15-.77,1.15-1.49v-3.45c0-.21-.17-.38-.38-.38"/>
      </g>
      <g>
        <path class="cls-61" d="M935.21,602.7c4.08,0,7.39-3.31,7.39-7.39s-3.31-7.39-7.39-7.39-7.39,3.31-7.39,7.39,3.31,7.39,7.39,7.39"/>
        <path class="cls-13" d="M935.21,602.7c4.08,0,7.39-3.31,7.39-7.39s-3.31-7.39-7.39-7.39-7.39,3.31-7.39,7.39,3.31,7.39,7.39,7.39Z"/>
        <path class="cls-138" d="M939.15,591.55c-1.9,0-2.85,1.55-2.85,3.45v3.07c0,.21.17.38.38.38h1.15v2.69c0,.63.52,1.15,1.15,1.15s.55-.52.55-1.15v-9.2c0-.21-.17-.38-.38-.38"/>
        <path class="cls-138" d="M934.83,591.55c-.21,0-.38.17-.38.38v2.68c0,.21-.17.38-.38.38h-.38c-.21,0-.38-.17-.38-.38v-2.68c0-.21-.17-.38-.38-.38s-.38.17-.38.38v2.68c0,.21-.17.38-.38.38h-.38c-.21,0-.38-.17-.38-.38v-2.68c0-.21-.17-.38-.38-.38s-.38.17-.38.38v3.45c0,.71.49,1.32,1.15,1.49v4.22c0,.56.38,1.07.92,1.17.73.14,1.38-.42,1.38-1.13v-4.27c.66-.17,1.15-.77,1.15-1.49v-3.45c0-.21-.17-.38-.38-.38"/>
      </g>
      <g>
        <path class="cls-61" d="M936.48,569.57c4.08,0,7.39-3.31,7.39-7.39s-3.31-7.39-7.39-7.39-7.39,3.31-7.39,7.39,3.31,7.39,7.39,7.39"/>
        <path class="cls-13" d="M936.48,569.57c4.08,0,7.39-3.31,7.39-7.39s-3.31-7.39-7.39-7.39-7.39,3.31-7.39,7.39,3.31,7.39,7.39,7.39Z"/>
        <path class="cls-138" d="M940.41,558.42c-1.9,0-2.85,1.55-2.85,3.45v3.07c0,.21.17.38.38.38h1.15v2.69c0,.63.52,1.15,1.15,1.15s.55-.52.55-1.15v-9.2c0-.21-.17-.38-.38-.38"/>
        <path class="cls-138" d="M936.09,558.42c-.21,0-.38.17-.38.38v2.68c0,.21-.17.38-.38.38h-.38c-.21,0-.38-.17-.38-.38v-2.68c0-.21-.17-.38-.38-.38s-.38.17-.38.38v2.68c0,.21-.17.38-.38.38h-.38c-.21,0-.38-.17-.38-.38v-2.68c0-.21-.17-.38-.38-.38s-.38.17-.38.38v3.45c0,.71.49,1.32,1.15,1.49v4.22c0,.56.38,1.07.92,1.17.73.14,1.38-.42,1.38-1.13v-4.27c.66-.17,1.15-.77,1.15-1.49v-3.45c0-.21-.17-.38-.38-.38"/>
      </g>
      <g>
        <path class="cls-61" d="M942.62,539.88c4.08,0,7.39-3.31,7.39-7.39s-3.31-7.39-7.39-7.39-7.39,3.31-7.39,7.39,3.31,7.39,7.39,7.39"/>
        <path class="cls-13" d="M942.62,539.88c4.08,0,7.39-3.31,7.39-7.39s-3.31-7.39-7.39-7.39-7.39,3.31-7.39,7.39,3.31,7.39,7.39,7.39Z"/>
        <path class="cls-138" d="M946.56,528.72c-1.9,0-2.85,1.55-2.85,3.45v3.07c0,.21.17.38.38.38h1.15v2.69c0,.63.52,1.15,1.15,1.15s.55-.52.55-1.15v-9.2c0-.21-.17-.38-.38-.38"/>
        <path class="cls-138" d="M942.24,528.72c-.21,0-.38.17-.38.38v2.68c0,.21-.17.38-.38.38h-.38c-.21,0-.38-.17-.38-.38v-2.68c0-.21-.17-.38-.38-.38s-.38.17-.38.38v2.68c0,.21-.17.38-.38.38h-.38c-.21,0-.38-.17-.38-.38v-2.68c0-.21-.17-.38-.38-.38s-.38.17-.38.38v3.45c0,.71.49,1.32,1.15,1.49v4.22c0,.56.38,1.07.92,1.17.73.14,1.38-.42,1.38-1.13v-4.27c.66-.17,1.15-.77,1.15-1.49v-3.45c0-.21-.17-.38-.38-.38"/>
      </g>
      <g>
        <path class="cls-61" d="M834.14,920.07c4.08,0,7.39-3.31,7.39-7.39s-3.31-7.39-7.39-7.39-7.39,3.31-7.39,7.39,3.31,7.39,7.39,7.39"/>
        <path class="cls-13" d="M834.14,920.07c4.08,0,7.39-3.31,7.39-7.39s-3.31-7.39-7.39-7.39-7.39,3.31-7.39,7.39,3.31,7.39,7.39,7.39Z"/>
        <path class="cls-138" d="M838.07,908.92c-1.9,0-2.85,1.55-2.85,3.45v3.07c0,.21.17.38.38.38h1.15v2.69c0,.63.52,1.15,1.15,1.15s.55-.52.55-1.15v-9.2c0-.21-.17-.38-.38-.38"/>
        <path class="cls-138" d="M833.76,908.92c-.21,0-.38.17-.38.38v2.68c0,.21-.17.38-.38.38h-.38c-.21,0-.38-.17-.38-.38v-2.68c0-.21-.17-.38-.38-.38s-.38.17-.38.38v2.68c0,.21-.17.38-.38.38h-.38c-.21,0-.38-.17-.38-.38v-2.68c0-.21-.17-.38-.38-.38s-.38.17-.38.38v3.45c0,.71.49,1.32,1.15,1.49v4.22c0,.56.38,1.07.92,1.17.73.14,1.38-.42,1.38-1.13v-4.27c.66-.17,1.15-.77,1.15-1.49v-3.45c0-.21-.17-.38-.38-.38"/>
      </g>
      <g>
        <path class="cls-61" d="M779.14,881.07c4.08,0,7.39-3.31,7.39-7.39s-3.31-7.39-7.39-7.39-7.39,3.31-7.39,7.39,3.31,7.39,7.39,7.39"/>
        <path class="cls-13" d="M779.14,881.07c4.08,0,7.39-3.31,7.39-7.39s-3.31-7.39-7.39-7.39-7.39,3.31-7.39,7.39,3.31,7.39,7.39,7.39Z"/>
        <path class="cls-138" d="M783.07,869.92c-1.9,0-2.85,1.55-2.85,3.45v3.07c0,.21.17.38.38.38h1.15v2.69c0,.63.52,1.15,1.15,1.15s.55-.52.55-1.15v-9.2c0-.21-.17-.38-.38-.38"/>
        <path class="cls-138" d="M778.76,869.92c-.21,0-.38.17-.38.38v2.68c0,.21-.17.38-.38.38h-.38c-.21,0-.38-.17-.38-.38v-2.68c0-.21-.17-.38-.38-.38s-.38.17-.38.38v2.68c0,.21-.17.38-.38.38h-.38c-.21,0-.38-.17-.38-.38v-2.68c0-.21-.17-.38-.38-.38s-.38.17-.38.38v3.45c0,.71.49,1.32,1.15,1.49v4.22c0,.56.38,1.07.92,1.17.73.14,1.38-.42,1.38-1.13v-4.27c.66-.17,1.15-.77,1.15-1.49v-3.45c0-.21-.17-.38-.38-.38"/>
      </g>
      <g>
        <path class="cls-61" d="M640.28,936.54c4.08,0,7.39-3.31,7.39-7.39s-3.31-7.39-7.39-7.39-7.39,3.31-7.39,7.39,3.31,7.39,7.39,7.39"/>
        <path class="cls-13" d="M640.28,936.54c4.08,0,7.39-3.31,7.39-7.39s-3.31-7.39-7.39-7.39-7.39,3.31-7.39,7.39,3.31,7.39,7.39,7.39Z"/>
        <path class="cls-138" d="M644.21,925.39c-1.9,0-2.85,1.55-2.85,3.45v3.07c0,.21.17.38.38.38h1.15v2.69c0,.63.52,1.15,1.15,1.15s.55-.52.55-1.15v-9.2c0-.21-.17-.38-.38-.38"/>
        <path class="cls-138" d="M639.9,925.39c-.21,0-.38.17-.38.38v2.68c0,.21-.17.38-.38.38h-.38c-.21,0-.38-.17-.38-.38v-2.68c0-.21-.17-.38-.38-.38s-.38.17-.38.38v2.68c0,.21-.17.38-.38.38h-.38c-.21,0-.38-.17-.38-.38v-2.68c0-.21-.17-.38-.38-.38s-.38.17-.38.38v3.45c0,.71.49,1.32,1.15,1.49v4.22c0,.56.38,1.07.92,1.17.73.14,1.38-.42,1.38-1.13v-4.27c.66-.17,1.15-.77,1.15-1.49v-3.45c0-.21-.17-.38-.38-.38"/>
      </g>
      <g>
        <path class="cls-61" d="M956.14,455.07c4.08,0,7.39-3.31,7.39-7.39s-3.31-7.39-7.39-7.39-7.39,3.31-7.39,7.39,3.31,7.39,7.39,7.39"/>
        <path class="cls-13" d="M956.14,455.07c4.08,0,7.39-3.31,7.39-7.39s-3.31-7.39-7.39-7.39-7.39,3.31-7.39,7.39,3.31,7.39,7.39,7.39Z"/>
        <path class="cls-138" d="M960.07,443.92c-1.9,0-2.85,1.55-2.85,3.45v3.07c0,.21.17.38.38.38h1.15v2.69c0,.63.52,1.15,1.15,1.15s.55-.52.55-1.15v-9.2c0-.21-.17-.38-.38-.38"/>
        <path class="cls-138" d="M955.76,443.92c-.21,0-.38.17-.38.38v2.68c0,.21-.17.38-.38.38h-.38c-.21,0-.38-.17-.38-.38v-2.68c0-.21-.17-.38-.38-.38s-.38.17-.38.38v2.68c0,.21-.17.38-.38.38h-.38c-.21,0-.38-.17-.38-.38v-2.68c0-.21-.17-.38-.38-.38s-.38.17-.38.38v3.45c0,.71.49,1.32,1.15,1.49v4.22c0,.56.38,1.07.92,1.17.73.14,1.38-.42,1.38-1.13v-4.27c.66-.17,1.15-.77,1.15-1.49v-3.45c0-.21-.17-.38-.38-.38"/>
      </g>
    </g>
    <g id="First_Aid" data-name="First Aid">
      <g>
        <path class="cls-61" d="M1051.48,253.44c5.44,0,9.85-4.41,9.85-9.85s-4.41-9.85-9.85-9.85-9.85,4.41-9.85,9.85,4.41,9.85,9.85,9.85"/>
        <path class="cls-6" d="M1051.48,253.44c5.44,0,9.85-4.41,9.85-9.85s-4.41-9.85-9.85-9.85-9.85,4.41-9.85,9.85,4.41,9.85,9.85,9.85Z"/>
        <rect class="cls-53" x="1044.92" y="241.62" width="13.12" height="3.94"/>
        <rect class="cls-53" x="1049.51" y="237.03" width="3.94" height="13.12"/>
      </g>
      <g>
        <path class="cls-61" d="M694.07,828.96c5.44,0,9.85-4.41,9.85-9.85s-4.41-9.85-9.85-9.85-9.85,4.41-9.85,9.85,4.41,9.85,9.85,9.85"/>
        <path class="cls-6" d="M694.07,828.96c5.44,0,9.85-4.41,9.85-9.85s-4.41-9.85-9.85-9.85-9.85,4.41-9.85,9.85,4.41,9.85,9.85,9.85Z"/>
        <rect class="cls-53" x="687.51" y="817.14" width="13.12" height="3.94"/>
        <rect class="cls-53" x="692.11" y="812.55" width="3.94" height="13.12"/>
        <g>
          <path class="cls-61" d="M1288.78,807.33c5.44,0,9.85-4.41,9.85-9.85s-4.41-9.85-9.85-9.85-9.85,4.41-9.85,9.85,4.41,9.85,9.85,9.85"/>
          <path class="cls-6" d="M1288.78,807.33c5.44,0,9.85-4.41,9.85-9.85s-4.41-9.85-9.85-9.85-9.85,4.41-9.85,9.85,4.41,9.85,9.85,9.85Z"/>
          <rect class="cls-53" x="1282.22" y="795.51" width="13.12" height="3.94"/>
          <rect class="cls-53" x="1286.81" y="790.91" width="3.94" height="13.12"/>
        </g>
      </g>
      <g>
        <path class="cls-61" d="M986.39,981.94c6.8,0,12.31-5.51,12.31-12.31s-5.51-12.31-12.31-12.31-12.31,5.51-12.31,12.31,5.51,12.31,12.31,12.31"/>
        <circle class="cls-7" cx="986.39" cy="969.62" r="12.31"/>
        <rect class="cls-53" x="978.18" y="967.16" width="16.41" height="4.92"/>
        <rect class="cls-53" x="983.93" y="961.42" width="4.92" height="16.41"/>
      </g>
    </g>
    <g id="Tent_Camping" data-name="Tent Camping">
      <g>
        <path class="cls-61" d="M1580.34,555.32c6.8,0,12.31-5.51,12.31-12.31s-5.51-12.31-12.31-12.31-12.31,5.51-12.31,12.31,5.51,12.31,12.31,12.31"/>
        <circle class="cls-17" cx="1580.34" cy="543.01" r="12.31"/>
        <polyline class="cls-96" points="1588.58 545.91 1584.85 537.05 1581.43 544.23 1579.27 548.95 1583.12 548.13 1584.76 542.3 1585.98 547.52 1588.99 546.88"/>
        <polygon class="cls-96" points="1583.53 537.05 1574.15 539.82 1571.73 546.64 1578.15 548.48 1583.53 537.05"/>
      </g>
      <g>
        <path class="cls-61" d="M441.12,1270.15c6.8,0,12.31-5.51,12.31-12.31s-5.51-12.31-12.31-12.31-12.31,5.51-12.31,12.31,5.51,12.31,12.31,12.31"/>
        <circle class="cls-17" cx="441.12" cy="1257.83" r="12.31"/>
        <polyline class="cls-96" points="449.36 1260.73 445.62 1251.87 442.2 1259.05 440.05 1263.78 443.89 1262.95 445.53 1257.13 446.75 1262.34 449.76 1261.7"/>
        <polygon class="cls-96" points="444.31 1251.87 434.93 1254.64 432.51 1261.46 438.92 1263.3 444.31 1251.87"/>
      </g>
      <g>
        <path class="cls-61" d="M653.43,1196.1c6.8,0,12.31-5.51,12.31-12.31s-5.51-12.31-12.31-12.31-12.31,5.51-12.31,12.31,5.51,12.31,12.31,12.31"/>
        <circle class="cls-17" cx="653.43" cy="1183.78" r="12.31"/>
        <polyline class="cls-96" points="661.66 1186.68 657.93 1177.82 654.51 1185 652.36 1189.73 656.2 1188.9 657.84 1183.08 659.06 1188.29 662.07 1187.65"/>
        <polygon class="cls-96" points="656.61 1177.82 647.23 1180.59 644.82 1187.41 651.23 1189.25 656.61 1177.82"/>
      </g>
      <g>
        <path class="cls-61" d="M704.19,1124.28c6.8,0,12.31-5.51,12.31-12.31s-5.51-12.31-12.31-12.31-12.31,5.51-12.31,12.31,5.51,12.31,12.31,12.31"/>
        <circle class="cls-17" cx="704.19" cy="1111.96" r="12.31"/>
        <polyline class="cls-96" points="712.42 1114.86 708.69 1106 705.27 1113.18 703.12 1117.91 706.96 1117.08 708.6 1111.26 709.82 1116.47 712.83 1115.83"/>
        <polygon class="cls-96" points="707.37 1106 697.99 1108.77 695.58 1115.59 701.99 1117.43 707.37 1106"/>
      </g>
      <g>
        <path class="cls-61" d="M266.78,1073.43c6.8,0,12.31-5.51,12.31-12.31s-5.51-12.31-12.31-12.31-12.31,5.51-12.31,12.31,5.51,12.31,12.31,12.31"/>
        <circle class="cls-17" cx="266.78" cy="1061.11" r="12.31"/>
        <polyline class="cls-96" points="275.01 1064.01 271.28 1055.15 267.86 1062.33 265.71 1067.06 269.55 1066.23 271.19 1060.41 272.41 1065.62 275.42 1064.98"/>
        <polygon class="cls-96" points="269.96 1055.15 260.58 1057.92 258.17 1064.74 264.58 1066.58 269.96 1055.15"/>
      </g>
      <g>
        <path class="cls-61" d="M359.72,855.78c6.8,0,12.31-5.51,12.31-12.31s-5.51-12.31-12.31-12.31-12.31,5.51-12.31,12.31,5.51,12.31,12.31,12.31"/>
        <circle class="cls-17" cx="359.72" cy="843.46" r="12.31"/>
        <polyline class="cls-96" points="367.96 846.36 364.22 837.51 360.81 844.68 358.65 849.41 362.49 848.59 364.13 842.76 365.36 847.97 368.37 847.33"/>
        <polygon class="cls-96" points="362.91 837.51 353.53 840.27 351.11 847.09 357.53 848.93 362.91 837.51"/>
      </g>
    </g>
    <g id="Restrooms">
      <g>
        <path class="cls-61" d="M441.09,730.29c5.44,0,9.85-4.41,9.85-9.85s-4.41-9.85-9.85-9.85-9.85,4.41-9.85,9.85,4.41,9.85,9.85,9.85"/>
        <path class="cls-2" d="M441.09,730.29c5.44,0,9.85-4.41,9.85-9.85s-4.41-9.85-9.85-9.85-9.85,4.41-9.85,9.85,4.41,9.85,9.85,9.85Z"/>
        <text class="cls-30" transform="translate(434.91 725.78)"><tspan x="0" y="0">R</tspan></text>
      </g>
      <g>
        <path class="cls-61" d="M347.32,1176.58c5.44,0,9.85-4.41,9.85-9.85s-4.41-9.85-9.85-9.85-9.85,4.41-9.85,9.85,4.41,9.85,9.85,9.85"/>
        <path class="cls-2" d="M347.32,1176.58c5.44,0,9.85-4.41,9.85-9.85s-4.41-9.85-9.85-9.85-9.85,4.41-9.85,9.85,4.41,9.85,9.85,9.85Z"/>
        <text class="cls-30" transform="translate(341.14 1172.07)"><tspan x="0" y="0">R</tspan></text>
      </g>
      <g>
        <path class="cls-61" d="M577.21,1179.42c5.44,0,9.85-4.41,9.85-9.85s-4.41-9.85-9.85-9.85-9.85,4.41-9.85,9.85,4.41,9.85,9.85,9.85"/>
        <path class="cls-2" d="M577.21,1179.42c5.44,0,9.85-4.41,9.85-9.85s-4.41-9.85-9.85-9.85-9.85,4.41-9.85,9.85,4.41,9.85,9.85,9.85Z"/>
        <text class="cls-30" transform="translate(571.03 1174.9)"><tspan x="0" y="0">R</tspan></text>
      </g>
      <g>
        <path class="cls-61" d="M662.37,824.73c5.44,0,9.85-4.41,9.85-9.85s-4.41-9.85-9.85-9.85-9.85,4.41-9.85,9.85,4.41,9.85,9.85,9.85"/>
        <path class="cls-2" d="M662.37,824.73c5.44,0,9.85-4.41,9.85-9.85s-4.41-9.85-9.85-9.85-9.85,4.41-9.85,9.85,4.41,9.85,9.85,9.85Z"/>
        <text class="cls-30" transform="translate(656.19 820.22)"><tspan x="0" y="0">R</tspan></text>
      </g>
      <g>
        <path class="cls-61" d="M586.28,938.57c5.44,0,9.85-4.41,9.85-9.85s-4.41-9.85-9.85-9.85-9.85,4.41-9.85,9.85,4.41,9.85,9.85,9.85"/>
        <path class="cls-2" d="M586.28,938.57c5.44,0,9.85-4.41,9.85-9.85s-4.41-9.85-9.85-9.85-9.85,4.41-9.85,9.85,4.41,9.85,9.85,9.85Z"/>
        <text class="cls-30" transform="translate(580.1 934.05)"><tspan x="0" y="0">R</tspan></text>
      </g>
      <g>
        <path class="cls-61" d="M1498.29,582.75c5.44,0,9.85-4.41,9.85-9.85s-4.41-9.85-9.85-9.85-9.85,4.41-9.85,9.85,4.41,9.85,9.85,9.85"/>
        <path class="cls-2" d="M1498.29,582.75c5.44,0,9.85-4.41,9.85-9.85s-4.41-9.85-9.85-9.85-9.85,4.41-9.85,9.85,4.41,9.85,9.85,9.85Z"/>
        <text class="cls-30" transform="translate(1492.11 578.24)"><tspan x="0" y="0">R</tspan></text>
      </g>
      <g>
        <path class="cls-61" d="M803.6,683.56c5.44,0,9.85-4.41,9.85-9.85s-4.41-9.85-9.85-9.85-9.85,4.41-9.85,9.85,4.41,9.85,9.85,9.85"/>
        <path class="cls-2" d="M803.6,683.56c5.44,0,9.85-4.41,9.85-9.85s-4.41-9.85-9.85-9.85-9.85,4.41-9.85,9.85,4.41,9.85,9.85,9.85Z"/>
        <text class="cls-30" transform="translate(797.42 679.04)"><tspan x="0" y="0">R</tspan></text>
      </g>
      <g>
        <path class="cls-61" d="M859.95,785.23c5.44,0,9.85-4.41,9.85-9.85s-4.41-9.85-9.85-9.85-9.85,4.41-9.85,9.85,4.41,9.85,9.85,9.85"/>
        <path class="cls-2" d="M859.95,785.23c5.44,0,9.85-4.41,9.85-9.85s-4.41-9.85-9.85-9.85-9.85,4.41-9.85,9.85,4.41,9.85,9.85,9.85Z"/>
        <text class="cls-30" transform="translate(853.76 780.71)"><tspan x="0" y="0">R</tspan></text>
      </g>
      <g>
        <path class="cls-61" d="M1214.25,720.96c5.44,0,9.85-4.41,9.85-9.85s-4.41-9.85-9.85-9.85-9.85,4.41-9.85,9.85,4.41,9.85,9.85,9.85"/>
        <path class="cls-2" d="M1214.25,720.96c5.44,0,9.85-4.41,9.85-9.85s-4.41-9.85-9.85-9.85-9.85,4.41-9.85,9.85,4.41,9.85,9.85,9.85Z"/>
        <text class="cls-30" transform="translate(1208.07 716.44)"><tspan x="0" y="0">R</tspan></text>
      </g>
      <g>
        <path class="cls-61" d="M954.9,501.67c4.9,0,8.86-3.97,8.86-8.86s-3.97-8.86-8.86-8.86-8.86,3.97-8.86,8.86,3.97,8.86,8.86,8.86"/>
        <path class="cls-4" d="M954.9,501.67c4.9,0,8.86-3.97,8.86-8.86s-3.97-8.86-8.86-8.86-8.86,3.97-8.86,8.86,3.97,8.86,8.86,8.86Z"/>
        <text class="cls-27" transform="translate(949.34 497.61)"><tspan x="0" y="0">R</tspan></text>
      </g>
    </g>
    <g id="Water_Station" data-name="Water Station">
      <g>
        <path class="cls-61" d="M1063.79,739.18c5.44,0,9.85-4.41,9.85-9.85s-4.41-9.85-9.85-9.85-9.85,4.41-9.85,9.85,4.41,9.85,9.85,9.85"/>
        <path class="cls-12" d="M1063.79,739.18c5.44,0,9.85-4.41,9.85-9.85s-4.41-9.85-9.85-9.85-9.85,4.41-9.85,9.85,4.41,9.85,9.85,9.85Z"/>
        <text class="cls-29" transform="translate(1056.42 734.64)"><tspan x="0" y="0">W</tspan></text>
      </g>
      <g>
        <path class="cls-61" d="M793.75,910.83c5.44,0,9.85-4.41,9.85-9.85s-4.41-9.85-9.85-9.85-9.85,4.41-9.85,9.85,4.41,9.85,9.85,9.85"/>
        <path class="cls-12" d="M793.75,910.83c5.44,0,9.85-4.41,9.85-9.85s-4.41-9.85-9.85-9.85-9.85,4.41-9.85,9.85,4.41,9.85,9.85,9.85Z"/>
        <text class="cls-29" transform="translate(786.37 906.29)"><tspan x="0" y="0">W</tspan></text>
      </g>
      <g>
        <path class="cls-61" d="M1388.18,842.26c5.44,0,9.85-4.41,9.85-9.85s-4.41-9.85-9.85-9.85-9.85,4.41-9.85,9.85,4.41,9.85,9.85,9.85"/>
        <path class="cls-12" d="M1388.18,842.26c5.44,0,9.85-4.41,9.85-9.85s-4.41-9.85-9.85-9.85-9.85,4.41-9.85,9.85,4.41,9.85,9.85,9.85Z"/>
        <text class="cls-29" transform="translate(1380.8 837.71)"><tspan x="0" y="0">W</tspan></text>
      </g>
      <g>
        <path class="cls-61" d="M1340.52,922.14c5.44,0,9.85-4.41,9.85-9.85s-4.41-9.85-9.85-9.85-9.85,4.41-9.85,9.85,4.41,9.85,9.85,9.85"/>
        <path class="cls-12" d="M1340.52,922.14c5.44,0,9.85-4.41,9.85-9.85s-4.41-9.85-9.85-9.85-9.85,4.41-9.85,9.85,4.41,9.85,9.85,9.85Z"/>
        <text class="cls-29" transform="translate(1333.14 917.59)"><tspan x="0" y="0">W</tspan></text>
      </g>
      <g>
        <path class="cls-61" d="M1278.09,765.99c5.44,0,9.85-4.41,9.85-9.85s-4.41-9.85-9.85-9.85-9.85,4.41-9.85,9.85,4.41,9.85,9.85,9.85"/>
        <path class="cls-12" d="M1278.09,765.99c5.44,0,9.85-4.41,9.85-9.85s-4.41-9.85-9.85-9.85-9.85,4.41-9.85,9.85,4.41,9.85,9.85,9.85Z"/>
        <text class="cls-29" transform="translate(1270.72 761.45)"><tspan x="0" y="0">W</tspan></text>
      </g>
      <g>
        <path class="cls-61" d="M730.37,785.53c4.08,0,7.39-3.31,7.39-7.39s-3.31-7.39-7.39-7.39-7.39,3.31-7.39,7.39,3.31,7.39,7.39,7.39"/>
        <path class="cls-15" d="M730.37,785.53c4.08,0,7.39-3.31,7.39-7.39s-3.31-7.39-7.39-7.39-7.39,3.31-7.39,7.39,3.31,7.39,7.39,7.39Z"/>
        <text class="cls-18" transform="translate(724.83 782.12)"><tspan x="0" y="0">W</tspan></text>
      </g>
      <g>
        <path class="cls-61" d="M1173.49,858.27c5.44,0,9.85-4.41,9.85-9.85s-4.41-9.85-9.85-9.85-9.85,4.41-9.85,9.85,4.41,9.85,9.85,9.85"/>
        <path class="cls-12" d="M1173.49,858.27c5.44,0,9.85-4.41,9.85-9.85s-4.41-9.85-9.85-9.85-9.85,4.41-9.85,9.85,4.41,9.85,9.85,9.85Z"/>
        <text class="cls-29" transform="translate(1166.11 853.72)"><tspan x="0" y="0">W</tspan></text>
      </g>
      <g>
        <path class="cls-61" d="M1032.31,887.08c5.44,0,9.85-4.41,9.85-9.85s-4.41-9.85-9.85-9.85-9.85,4.41-9.85,9.85,4.41,9.85,9.85,9.85"/>
        <path class="cls-12" d="M1032.31,887.08c5.44,0,9.85-4.41,9.85-9.85s-4.41-9.85-9.85-9.85-9.85,4.41-9.85,9.85,4.41,9.85,9.85,9.85Z"/>
        <text class="cls-29" transform="translate(1024.93 882.54)"><tspan x="0" y="0">W</tspan></text>
      </g>
      <g>
        <path class="cls-61" d="M1050.41,807.28c5.44,0,9.85-4.41,9.85-9.85s-4.41-9.85-9.85-9.85-9.85,4.41-9.85,9.85,4.41,9.85,9.85,9.85"/>
        <path class="cls-12" d="M1050.41,807.28c5.44,0,9.85-4.41,9.85-9.85s-4.41-9.85-9.85-9.85-9.85,4.41-9.85,9.85,4.41,9.85,9.85,9.85Z"/>
        <text class="cls-29" transform="translate(1043.03 802.73)"><tspan x="0" y="0">W</tspan></text>
      </g>
    </g>
    <g id="RV_Parking" data-name="RV Parking">
      <g>
        <g class="cls-77">
          <path class="cls-61" d="M1524.16,728.76c6.8,0,12.31-5.51,12.31-12.31s-5.51-12.31-12.31-12.31-12.31,5.51-12.31,12.31,5.51,12.31,12.31,12.31"/>
          <circle class="cls-5" cx="1524.16" cy="716.45" r="12.31"/>
        </g>
        <g class="cls-78">
          <path class="cls-55" d="M1520.51,713.26c0,.32-.26.57-.57.57h-2.98c-.32,0-.57-.26-.57-.57v-1.35c0-.32.26-.57.57-.57h2.98c.32,0,.57.26.57.57v1.35ZM1510.87,713.83c-.32,0-.57-.26-.57-.57v-1.35c0-.32.26-.57.57-.57h2.98M1522.59,721.4v-9.49c0-.32.26-.57.57-.57h5.48c.32,0,.57.26.57.57v9.49h7.65v1.5h-.27v.67h1.36v-.67h-.27v-2.96h.27v-.67h-1.36v.67h.27v.65h-3.61c.4-.51.63-1.33.63-2.65,0-2.41-1.86-5.69-3.66-7.49-.97-.96-1.91-.97-3.1-.97h-18.74v11.92h1.75c0-1.75,1.42-3.17,3.17-3.17h4.33c1.75,0,3.17,1.42,3.17,3.17h1.79Z"/>
          <path class="cls-55" d="M1524.86,713.54h2.08v1.26h-2.08v-1.26ZM1528.22,721.4v-9.07h-4.63v9.07h4.63Z"/>
          <path class="cls-55" d="M1515.56,722.12c.3.84,1.1,1.45,2.04,1.45,1.2,0,2.17-.97,2.17-2.17s-.97-2.17-2.17-2.17c-.94,0-1.74.6-2.04,1.45-.26.58,0,1.44,0,1.44M1517.6,722.23c-.46,0-.83-.37-.83-.83s.37-.83.83-.83.83.37.83.83-.37.83-.83.83M1513.52,722.23c-.46,0-.83-.37-.83-.83s.37-.83.83-.83.83.37.83.83-.37.83-.83.83"/>
        </g>
      </g>
      <g>
        <g class="cls-84">
          <path class="cls-61" d="M1580.39,728.57c6.8,0,12.31-5.51,12.31-12.31s-5.51-12.31-12.31-12.31-12.31,5.51-12.31,12.31,5.51,12.31,12.31,12.31"/>
          <circle class="cls-5" cx="1580.39" cy="716.26" r="12.31"/>
        </g>
        <g class="cls-81">
          <path class="cls-55" d="M1576.74,713.07c0,.32-.26.57-.57.57h-2.98c-.32,0-.57-.26-.57-.57v-1.35c0-.32.26-.57.57-.57h2.98c.32,0,.57.26.57.57v1.35ZM1567.1,713.65c-.32,0-.57-.26-.57-.57v-1.35c0-.32.26-.57.57-.57h2.98M1578.83,721.21v-9.49c0-.32.26-.57.57-.57h5.48c.32,0,.57.26.57.57v9.49h7.65v1.5h-.27v.67h1.36v-.67h-.27v-2.96h.27v-.67h-1.36v.67h.27v.65h-3.61c.4-.51.63-1.33.63-2.65,0-2.41-1.86-5.69-3.66-7.49-.97-.96-1.91-.97-3.1-.97h-18.74v11.92h1.75c0-1.75,1.42-3.17,3.17-3.17h4.33c1.75,0,3.17,1.42,3.17,3.17h1.79Z"/>
          <path class="cls-55" d="M1581.1,713.35h2.08v1.26h-2.08v-1.26ZM1584.46,721.21v-9.07h-4.63v9.07h4.63Z"/>
          <path class="cls-55" d="M1571.8,721.93c.3.84,1.1,1.45,2.04,1.45,1.2,0,2.17-.97,2.17-2.17s-.97-2.17-2.17-2.17c-.94,0-1.74.6-2.04,1.45-.26.58,0,1.44,0,1.44M1573.84,722.04c-.46,0-.83-.37-.83-.83s.37-.83.83-.83.83.37.83.83-.37.83-.83.83M1569.76,722.04c-.46,0-.83-.37-.83-.83s.37-.83.83-.83.83.37.83.83-.37.83-.83.83"/>
        </g>
      </g>
      <g>
        <g class="cls-80">
          <path class="cls-61" d="M450.93,1073.43c6.8,0,12.31-5.51,12.31-12.31s-5.51-12.31-12.31-12.31-12.31,5.51-12.31,12.31,5.51,12.31,12.31,12.31"/>
          <circle class="cls-5" cx="450.93" cy="1061.11" r="12.31"/>
        </g>
        <g class="cls-83">
          <path class="cls-55" d="M447.29,1057.93c0,.32-.26.57-.57.57h-2.98c-.32,0-.57-.26-.57-.57v-1.35c0-.32.26-.57.57-.57h2.98c.32,0,.57.26.57.57v1.35ZM437.65,1058.5c-.32,0-.57-.26-.57-.57v-1.35c0-.32.26-.57.57-.57h2.98M449.37,1066.07v-9.49c0-.32.26-.57.57-.57h5.48c.32,0,.57.26.57.57v9.49h7.65v1.5h-.27v.67h1.36v-.67h-.27v-2.96h.27v-.67h-1.36v.67h.27v.65h-3.61c.4-.51.63-1.33.63-2.65,0-2.41-1.86-5.69-3.66-7.49-.96-.96-1.91-.97-3.1-.97h-18.74v11.92h1.75c0-1.75,1.42-3.17,3.17-3.17h4.33c1.75,0,3.17,1.42,3.17,3.17h1.79Z"/>
          <path class="cls-55" d="M451.64,1058.21h2.08v1.26h-2.08v-1.26ZM455,1066.07v-9.07h-4.63v9.07h4.63Z"/>
          <path class="cls-55" d="M442.34,1066.79c.3.84,1.1,1.45,2.04,1.45,1.2,0,2.17-.97,2.17-2.17s-.97-2.17-2.17-2.17c-.94,0-1.74.61-2.04,1.45-.26.58,0,1.44,0,1.44M444.38,1066.9c-.46,0-.83-.37-.83-.83s.37-.83.83-.83.83.37.83.83-.37.83-.83.83M440.3,1066.9c-.46,0-.83-.37-.83-.83s.37-.83.83-.83.83.37.83.83-.37.83-.83.83"/>
        </g>
      </g>
      <g>
        <g class="cls-82">
          <path class="cls-61" d="M519.75,761.55c6.8,0,12.31-5.51,12.31-12.31s-5.51-12.31-12.31-12.31-12.31,5.51-12.31,12.31,5.51,12.31,12.31,12.31"/>
          <circle class="cls-5" cx="519.75" cy="749.24" r="12.31"/>
        </g>
        <g class="cls-75">
          <path class="cls-55" d="M516.1,746.05c0,.32-.26.57-.57.57h-2.98c-.32,0-.57-.26-.57-.57v-1.35c0-.32.26-.57.57-.57h2.98c.32,0,.57.26.57.57v1.35ZM506.46,746.63c-.32,0-.57-.26-.57-.57v-1.35c0-.32.26-.57.57-.57h2.98M518.18,754.19v-9.49c0-.32.26-.57.57-.57h5.48c.32,0,.57.26.57.57v9.49h7.65v1.5h-.27v.67h1.35v-.67h-.27v-2.96h.27v-.67h-1.35v.67h.27v.65h-3.61c.4-.51.63-1.33.63-2.65,0-2.41-1.86-5.69-3.66-7.49-.96-.96-1.91-.97-3.1-.97h-18.74v11.92h1.75c0-1.75,1.42-3.17,3.17-3.17h4.33c1.75,0,3.17,1.42,3.17,3.17h1.79Z"/>
          <path class="cls-55" d="M520.46,746.33h2.08v1.26h-2.08v-1.26ZM523.81,754.19v-9.07h-4.63v9.07h4.63Z"/>
          <path class="cls-55" d="M511.15,754.91c.3.84,1.1,1.45,2.04,1.45,1.2,0,2.17-.97,2.17-2.17s-.97-2.17-2.17-2.17c-.94,0-1.74.6-2.04,1.45-.26.58,0,1.44,0,1.44M513.2,755.03c-.46,0-.83-.37-.83-.83s.37-.83.83-.83.83.37.83.83-.37.83-.83.83M509.11,755.03c-.46,0-.83-.37-.83-.83s.37-.83.83-.83.83.37.83.83-.37.83-.83.83"/>
        </g>
      </g>
    </g>
    <g id="Elder_Ride" data-name="Elder Ride">
      <g>
        <rect class="cls-60" x="1521.29" y="563.6" width="25.19" height="19.75"/>
        <text class="cls-23" transform="translate(1523.58 579.16)"><tspan x="0" y="0">E8</tspan></text>
      </g>
      <g>
        <rect class="cls-59" x="991.56" y="797.32" width="22.67" height="17.78"/>
        <text class="cls-21" transform="translate(993.62 811.33)"><tspan x="0" y="0">E7</tspan></text>
      </g>
      <g>
        <rect class="cls-59" x="944.57" y="461.91" width="22.67" height="17.78"/>
        <text class="cls-21" transform="translate(946.63 475.92)"><tspan x="0" y="0">E6</tspan></text>
      </g>
      <g>
        <rect class="cls-59" x="309.62" y="1038.47" width="22.67" height="17.78"/>
        <text class="cls-21" transform="translate(311.69 1052.48)"><tspan x="0" y="0">E5</tspan></text>
      </g>
      <g>
        <rect class="cls-59" x="316.34" y="1178" width="22.67" height="17.78"/>
        <text class="cls-21" transform="translate(318.4 1192.01)"><tspan x="0" y="0">E4</tspan></text>
      </g>
      <g>
        <rect class="cls-59" x="454.57" y="1214.79" width="22.67" height="17.78"/>
        <text class="cls-21" transform="translate(456.64 1228.8)"><tspan x="0" y="0">E3</tspan></text>
      </g>
      <g>
        <rect class="cls-59" x="580.88" y="1068.84" width="22.67" height="17.78"/>
        <text class="cls-21" transform="translate(582.94 1082.85)"><tspan x="0" y="0">E2</tspan></text>
      </g>
      <g>
        <rect class="cls-59" x="662.68" y="1102.52" width="22.67" height="17.78"/>
        <text class="cls-21" transform="translate(664.74 1116.53)"><tspan x="0" y="0">E1</tspan></text>
      </g>
    </g>
    <g id="Tent_and_RV_Check_In" data-name="Tent and RV Check In">
      <g>
        <g>
          <path class="cls-61" d="M106.88,1348.67c6.8,0,12.31-5.51,12.31-12.31s-5.51-12.31-12.31-12.31-12.31,5.51-12.31,12.31,5.51,12.31,12.31,12.31"/>
          <circle class="cls-5" cx="106.88" cy="1336.36" r="12.31"/>
        </g>
        <polygon class="cls-55" points="106.88 1341.37 113.44 1345.44 111.59 1337.95 117.48 1332.98 109.79 1332.42 106.88 1325.28 103.97 1332.42 96.28 1332.98 102.18 1337.95 100.33 1345.44 106.88 1341.37"/>
      </g>
      <g>
        <g>
          <path class="cls-61" d="M261.07,892.73c6.8,0,12.31-5.51,12.31-12.31s-5.51-12.31-12.31-12.31-12.31,5.51-12.31,12.31,5.51,12.31,12.31,12.31"/>
          <circle class="cls-5" cx="261.07" cy="880.42" r="12.31"/>
        </g>
        <polygon class="cls-55" points="261.07 885.43 267.62 889.5 265.78 882.01 271.67 877.04 263.98 876.48 261.07 869.34 258.16 876.48 250.47 877.04 256.36 882.01 254.52 889.5 261.07 885.43"/>
      </g>
      <g>
        <g>
          <path class="cls-61" d="M1508,821.88c6.12,0,11.08-4.96,11.08-11.08s-4.96-11.08-11.08-11.08-11.08,4.96-11.08,11.08,4.96,11.08,11.08,11.08"/>
          <circle class="cls-8" cx="1508" cy="810.8" r="11.08"/>
        </g>
        <polygon class="cls-55" points="1508 815.31 1513.9 818.97 1512.24 812.23 1517.54 807.76 1510.62 807.25 1508 800.83 1505.38 807.25 1498.46 807.76 1503.76 812.23 1502.1 818.97 1508 815.31"/>
      </g>
    </g>
    <g id="Tram_Stop" data-name="Tram Stop">
      <g id="TramStop">
        <rect class="cls-104" x="896" y="266.26" width="19" height="19"/>
        <rect class="cls-16" x="896" y="266.26" width="19" height="19"/>
        <g class="cls-72">
          <g class="cls-72">
            <text class="cls-28" transform="translate(899.36 281.2)"><tspan x="0" y="0">T</tspan></text>
          </g>
        </g>
      </g>
      <g id="TramStop-2" data-name="TramStop">
        <rect class="cls-104" x="699" y="335.26" width="19" height="19"/>
        <rect class="cls-16" x="699" y="335.26" width="19" height="19"/>
        <g class="cls-72">
          <g class="cls-72">
            <text class="cls-28" transform="translate(702.36 350.2)"><tspan x="0" y="0">T</tspan></text>
          </g>
        </g>
      </g>
      <g id="TramStop-3" data-name="TramStop">
        <rect class="cls-104" x="876" y="451.26" width="19" height="19"/>
        <rect class="cls-16" x="876" y="451.26" width="19" height="19"/>
        <g class="cls-72">
          <g class="cls-72">
            <text class="cls-28" transform="translate(879.36 466.2)"><tspan x="0" y="0">T</tspan></text>
          </g>
        </g>
      </g>
      <g id="TramStop-4" data-name="TramStop">
        <rect class="cls-104" x="726" y="552.26" width="19" height="19"/>
        <rect class="cls-16" x="726" y="552.26" width="19" height="19"/>
        <g class="cls-72">
          <g class="cls-72">
            <text class="cls-28" transform="translate(729.36 567.2)"><tspan x="0" y="0">T</tspan></text>
          </g>
        </g>
      </g>
      <g id="TramStop-5" data-name="TramStop">
        <rect class="cls-104" x="487" y="521.26" width="19" height="19"/>
        <rect class="cls-16" x="487" y="521.26" width="19" height="19"/>
        <g class="cls-72">
          <g class="cls-72">
            <text class="cls-28" transform="translate(490.36 536.2)"><tspan x="0" y="0">T</tspan></text>
          </g>
        </g>
      </g>
      <g id="TramStop-6" data-name="TramStop">
        <rect class="cls-104" x="1058" y="529.26" width="19" height="19"/>
        <rect class="cls-16" x="1058" y="529.26" width="19" height="19"/>
        <g class="cls-72">
          <g class="cls-72">
            <text class="cls-28" transform="translate(1061.36 544.2)"><tspan x="0" y="0">T</tspan></text>
          </g>
        </g>
      </g>
      <g id="TramStop-7" data-name="TramStop">
        <rect class="cls-104" x="1558" y="1190.26" width="19" height="19"/>
        <rect class="cls-16" x="1558" y="1190.26" width="19" height="19"/>
        <g class="cls-72">
          <g class="cls-72">
            <text class="cls-28" transform="translate(1561.36 1205.2)"><tspan x="0" y="0">T</tspan></text>
          </g>
        </g>
      </g>
      <g id="TramStop-8" data-name="TramStop">
        <rect class="cls-104" x="1330" y="1453.26" width="19" height="19"/>
        <rect class="cls-16" x="1330" y="1453.26" width="19" height="19"/>
        <g class="cls-72">
          <g class="cls-72">
            <text class="cls-28" transform="translate(1333.36 1468.2)"><tspan x="0" y="0">T</tspan></text>
          </g>
        </g>
      </g>
      <g id="TramStop-9" data-name="TramStop">
        <rect class="cls-104" x="1507" y="972.26" width="19" height="19"/>
        <rect class="cls-16" x="1507" y="972.26" width="19" height="19"/>
        <g class="cls-72">
          <g class="cls-72">
            <text class="cls-28" transform="translate(1510.36 987.2)"><tspan x="0" y="0">T</tspan></text>
          </g>
        </g>
      </g>
      <g id="Tram_Stops" data-name="Tram Stops">
        <text class="cls-22" transform="translate(748.07 320.4)"><tspan x="0" y="0">A3</tspan></text>
        <text class="cls-22" transform="translate(667.87 372.24)"><tspan x="0" y="0">A4</tspan></text>
        <text class="cls-22" transform="translate(571.31 430.04)"><tspan x="0" y="0">A5</tspan></text>
        <text class="cls-22" transform="translate(434.3 511.71)"><tspan x="0" y="0">A6</tspan></text>
        <text class="cls-22" transform="translate(373.33 614.9)"><tspan x="0" y="0">B1</tspan></text>
        <text class="cls-22" transform="translate(516.18 529.22)"><tspan x="0" y="0">C3</tspan></text>
        <text class="cls-22" transform="translate(604.27 470.9)"><tspan x="0" y="0">C2</tspan></text>
        <text class="cls-22" transform="translate(694.36 419.78)"><tspan x="0" y="0">C1</tspan></text>
        <text class="cls-22" transform="translate(1004.75 163.13)"><tspan x="0" y="0">A1</tspan></text>
        <text class="cls-22" transform="translate(869.52 242.7)"><tspan x="0" y="0">A2</tspan></text>
        <text class="cls-22" transform="translate(1433.25 847.97)"><tspan x="0" y="0">D2</tspan></text>
        <text class="cls-22" transform="translate(1486.33 924.34)"><tspan x="0" y="0">G1</tspan></text>
        <text class="cls-22" transform="translate(1497.18 1012.36)"><tspan x="0" y="0">G2</tspan></text>
        <text class="cls-22" transform="translate(1533.9 1148.08)"><tspan x="0" y="0">G3</tspan></text>
        <text class="cls-22" transform="translate(1563.49 924.34)"><tspan x="0" y="0">E1</tspan></text>
        <text class="cls-22" transform="translate(1574.35 1012.36)"><tspan x="0" y="0">E2</tspan></text>
        <text class="cls-22" transform="translate(1611.07 1148.08)"><tspan x="0" y="0">E3</tspan></text>
        <text class="cls-22" transform="translate(1610.92 1290.62)"><tspan x="0" y="0">E4</tspan></text>
        <text class="cls-22" transform="translate(1516.41 1386.46)"><tspan x="0" y="0">E5</tspan></text>
        <text class="cls-22" transform="translate(1366.63 1517.55)"><tspan x="0" y="0">E6</tspan></text>
        <text class="cls-22" transform="translate(1344.18 1447.15)"><tspan x="0" y="0">H2</tspan></text>
        <text class="cls-22" transform="translate(1177.43 1564.02)"><tspan x="0" y="0">I2</tspan></text>
        <text class="cls-22" transform="translate(1140.04 1622.13)"><tspan x="0" y="0">F1</tspan></text>
        <text class="cls-22" transform="translate(1227.52 1622.13)"><tspan x="0" y="0">F2</tspan></text>
        <text class="cls-22" transform="translate(1319.36 1672.62)"><tspan x="0" y="0">F3</tspan></text>
        <text class="cls-22" transform="translate(1439.44 1366.42)"><tspan x="0" y="0">H2</tspan></text>
        <text class="cls-22" transform="translate(1519.83 1290.64)"><tspan x="0" y="0">H1</tspan></text>
        <text class="cls-22" transform="translate(1460.96 669.19)"><tspan x="0" y="0">D1</tspan></text>
      </g>
    </g>
    <g id="Lost_Child" data-name="Lost Child">
      <g>
        <g id="MothersRoom">
          <path class="cls-61" d="M1015.65,1126.31c5.98,0,10.83-4.85,10.83-10.83s-4.85-10.83-10.83-10.83-10.83,4.85-10.83,10.83,4.85,10.83,10.83,10.83"/>
          <circle class="cls-9" cx="1015.65" cy="1115.48" r="10.83"/>
        </g>
        <text class="cls-24" transform="translate(1008.16 1119.94)"><tspan class="cls-112" x="0" y="0">L</tspan><tspan x="6.57" y="0">C</tspan></text>
      </g>
      <g>
        <g id="MothersRoom-2" data-name="MothersRoom">
          <path class="cls-61" d="M1285.65,859.31c5.98,0,10.83-4.85,10.83-10.83s-4.85-10.83-10.83-10.83-10.83,4.85-10.83,10.83,4.85,10.83,10.83,10.83"/>
          <circle class="cls-9" cx="1285.65" cy="848.48" r="10.83"/>
        </g>
        <text class="cls-24" transform="translate(1278.16 852.94)"><tspan class="cls-112" x="0" y="0">L</tspan><tspan x="6.57" y="0">C</tspan></text>
      </g>
      <g>
        <g id="MothersRoom-3" data-name="MothersRoom">
          <path class="cls-61" d="M745.65,841.31c5.98,0,10.83-4.85,10.83-10.83s-4.85-10.83-10.83-10.83-10.83,4.85-10.83,10.83,4.85,10.83,10.83,10.83"/>
          <circle class="cls-9" cx="745.65" cy="830.48" r="10.83"/>
        </g>
        <text class="cls-24" transform="translate(738.16 834.94)"><tspan class="cls-112" x="0" y="0">L</tspan><tspan x="6.57" y="0">C</tspan></text>
      </g>
    </g>
  </g>
</svg>
